<?xml version="1.0" encoding="UTF-8" standalone="no"?>
<svg
   id="svg2408"
   height="96"
   width="96"
   version="1.0"
   sodipodi:docname="bitcoin.svg"
   inkscape:version="1.3.2 (091e20ef0f, 2023-11-25)"
   xmlns:inkscape="http://www.inkscape.org/namespaces/inkscape"
   xmlns:sodipodi="http://sodipodi.sourceforge.net/DTD/sodipodi-0.dtd"
   xmlns:xlink="http://www.w3.org/1999/xlink"
   xmlns="http://www.w3.org/2000/svg"
   xmlns:svg="http://www.w3.org/2000/svg"
   xmlns:rdf="http://www.w3.org/1999/02/22-rdf-syntax-ns#"
   xmlns:cc="http://creativecommons.org/ns#"
   xmlns:dc="http://purl.org/dc/elements/1.1/">
  <sodipodi:namedview
     id="namedview1"
     pagecolor="#ffffff"
     bordercolor="#000000"
     borderopacity="0.25"
     inkscape:showpageshadow="2"
     inkscape:pageopacity="0.0"
     inkscape:pagecheckerboard="0"
     inkscape:deskcolor="#d1d1d1"
     inkscape:zoom="1"
     inkscape:cx="28"
     inkscape:cy="57"
     inkscape:window-width="1366"
     inkscape:window-height="704"
     inkscape:window-x="0"
     inkscape:window-y="0"
     inkscape:window-maximized="1"
     inkscape:current-layer="svg2408" />
  <defs
     id="defs2410">
    <linearGradient
       id="linearGradient4560">
      <stop
         id="stop4552"
         style="stop-color:#ffb737;stop-opacity:1"
         offset="0" />
      <stop
         id="stop4554"
         style="stop-color:#f5e6aa;stop-opacity:1"
         offset="0.34920636" />
      <stop
         id="stop4556"
         style="stop-color:#e0bf55;stop-opacity:1"
         offset="0.5714286" />
      <stop
         id="stop4558"
         style="stop-color:#a36800;stop-opacity:1"
         offset="1" />
    </linearGradient>
    <linearGradient
       id="linearGradient4550">
      <stop
         id="stop4542"
         style="stop-color:#ffb737;stop-opacity:1"
         offset="0" />
      <stop
         id="stop4544"
         style="stop-color:#f5c787;stop-opacity:1"
         offset="0.34920636" />
      <stop
         id="stop4546"
         style="stop-color:#ffbf46;stop-opacity:1"
         offset="0.5714286" />
      <stop
         id="stop4548"
         style="stop-color:#a36800;stop-opacity:1"
         offset="1" />
    </linearGradient>
    <linearGradient
       id="linearGradient4088">
      <stop
         offset="0"
         style="stop-color:#d5b742;stop-opacity:1"
         id="stop4090" />
      <stop
         offset="0.34920636"
         style="stop-color:#f5e6aa;stop-opacity:1"
         id="stop4094" />
      <stop
         offset="0.5714286"
         style="stop-color:#e0bf55;stop-opacity:1"
         id="stop4096" />
      <stop
         offset="1"
         style="stop-color:#8a6e24;stop-opacity:1"
         id="stop4092" />
    </linearGradient>
    <linearGradient
       gradientTransform="scale(1.0058652,0.994169)"
       gradientUnits="userSpaceOnUse"
       id="ButtonShadow"
       y2="7.0165396"
       x2="45.447727"
       y1="92.539597"
       x1="45.447727">
      <stop
         offset="0"
         style="stop-color:#000000;stop-opacity:1"
         id="stop3750" />
      <stop
         offset="1"
         style="stop-color:#000000;stop-opacity:0.58823532"
         id="stop3752" />
    </linearGradient>
    <linearGradient
       id="linearGradient3737">
      <stop
         offset="0"
         style="stop-color:#fefefe;stop-opacity:1"
         id="stop3739" />
      <stop
         offset="1"
         style="stop-color:#fefefe;stop-opacity:0"
         id="stop3741" />
    </linearGradient>
    <linearGradient
       id="linearGradient3700">
      <stop
         offset="0"
         style="stop-color:#4c6d37;stop-opacity:1"
         id="stop3702" />
      <stop
         offset="1"
         style="stop-color:#75ac54;stop-opacity:1"
         id="stop3704" />
    </linearGradient>
    <filter
       id="filter3174"
       color-interpolation-filters="sRGB"
       x="-0.047720931"
       y="-0.048282354"
       width="1.0954419"
       height="1.0965647">
      <feGaussianBlur
         stdDeviation="1.71"
         id="feGaussianBlur3176" />
    </filter>
    <linearGradient
       gradientUnits="userSpaceOnUse"
       xlink:href="#linearGradient3737"
       id="linearGradient3188"
       y2="63.893143"
       x2="36.357143"
       y1="6"
       x1="36.357143" />
    <filter
       id="filter3794"
       color-interpolation-filters="sRGB"
       height="1.3915758"
       width="1.3915758"
       y="-0.19578789"
       x="-0.19578789">
      <feGaussianBlur
         stdDeviation="5.28"
         id="feGaussianBlur3796" />
    </filter>
    <linearGradient
       gradientUnits="userSpaceOnUse"
       xlink:href="#linearGradient3737"
       id="linearGradient3613"
       y2="138.66119"
       x2="48"
       y1="20.220806"
       x1="48" />
    <radialGradient
       gradientTransform="matrix(1.1573129,0,0,0.99590774,-7.5510206,0.19713193)"
       gradientUnits="userSpaceOnUse"
       xlink:href="#linearGradient3737"
       id="radialGradient3619"
       fy="90.171875"
       fx="48"
       r="42"
       cy="90.171875"
       cx="48" />
    <clipPath
       id="clipPath3613">
      <rect
         style="fill:#fefefe;fill-opacity:1;fill-rule:nonzero;stroke:none"
         id="rect3615"
         y="6"
         x="6"
         ry="6"
         rx="6"
         height="84"
         width="84" />
    </clipPath>
    <linearGradient
       gradientUnits="userSpaceOnUse"
       xlink:href="#linearGradient3700"
       id="linearGradient3617"
       y2="5.9877172"
       x2="48"
       y1="90"
       x1="48" />
    <linearGradient
       gradientTransform="matrix(1.0058652,0,0,0.994169,100,0)"
       gradientUnits="userSpaceOnUse"
       id="ButtonShadow-0"
       y2="7.0165396"
       x2="45.447727"
       y1="92.539597"
       x1="45.447727">
      <stop
         offset="0"
         style="stop-color:#000000;stop-opacity:1"
         id="stop3750-8" />
      <stop
         offset="1"
         style="stop-color:#000000;stop-opacity:0.58823532"
         id="stop3752-5" />
    </linearGradient>
    <linearGradient
       gradientTransform="matrix(1.0238095,0,0,1.0119048,-1.1428571,-98.071429)"
       gradientUnits="userSpaceOnUse"
       xlink:href="#ButtonShadow-0"
       id="linearGradient3780"
       y2="90.238609"
       x2="32.251034"
       y1="6.1317081"
       x1="32.251034" />
    <linearGradient
       gradientTransform="matrix(1.0238095,0,0,1.0119048,-1.1428571,-98.071429)"
       gradientUnits="userSpaceOnUse"
       xlink:href="#ButtonShadow-0"
       id="linearGradient3772"
       y2="90.238609"
       x2="32.251034"
       y1="6.1317081"
       x1="32.251034" />
    <linearGradient
       gradientTransform="matrix(1.0238095,0,0,1.0119048,-1.1428571,-98.071429)"
       gradientUnits="userSpaceOnUse"
       xlink:href="#ButtonShadow-0"
       id="linearGradient3725"
       y2="90.238609"
       x2="32.251034"
       y1="6.1317081"
       x1="32.251034" />
    <linearGradient
       gradientTransform="translate(0,-97)"
       gradientUnits="userSpaceOnUse"
       xlink:href="#ButtonShadow-0"
       id="linearGradient3721"
       y2="90.238609"
       x2="32.251034"
       y1="6.1317081"
       x1="32.251034" />
    <linearGradient
       gradientTransform="matrix(1.0238095,0,0,1.0119048,-1.1428571,-98.071429)"
       gradientUnits="userSpaceOnUse"
       xlink:href="#ButtonShadow-0"
       id="linearGradient3026"
       y2="90.238609"
       x2="32.251034"
       y1="6.1317081"
       x1="32.251034" />
    <linearGradient
       id="linearGradient3737-4">
      <stop
         offset="0"
         style="stop-color:#fffec0;stop-opacity:1"
         id="stop3739-4" />
      <stop
         offset="1"
         style="stop-color:#fefefe;stop-opacity:0"
         id="stop3741-3" />
    </linearGradient>
    <linearGradient
       gradientUnits="userSpaceOnUse"
       xlink:href="#linearGradient3737-4"
       id="linearGradient3146"
       y2="109.10714"
       x2="48"
       y1="6"
       x1="48" />
    <linearGradient
       gradientTransform="matrix(0.88888883,0,0,0.88888883,5.3333362,71.111107)"
       gradientUnits="userSpaceOnUse"
       xlink:href="#linearGradient4088"
       id="linearGradient4053"
       y2="8.8750048"
       x2="37.875"
       y1="-62"
       x1="37.875" />
    <linearGradient
       gradientUnits="userSpaceOnUse"
       y2="76.919449"
       x2="49.405365"
       y1="20.783854"
       x1="49.243378"
       id="linearGradient4555"
       xlink:href="#linearGradient4088" />
    <linearGradient
       gradientUnits="userSpaceOnUse"
       y2="76.919449"
       x2="49.405365"
       y1="20.783854"
       x1="49.243378"
       id="linearGradient4563"
       xlink:href="#linearGradient4088" />
    <linearGradient
       y2="76.919449"
       x2="49.405365"
       y1="20.783854"
       x1="49.243378"
       gradientUnits="userSpaceOnUse"
       id="linearGradient4670"
       xlink:href="#linearGradient4550" />
    <linearGradient
       y2="76.919449"
       x2="49.405365"
       y1="20.783854"
       x1="49.243378"
       gradientUnits="userSpaceOnUse"
       id="linearGradient4672"
       xlink:href="#linearGradient4550" />
    <linearGradient
       gradientUnits="userSpaceOnUse"
       y2="53.64502"
       x2="-56.287418"
       y1="-3.738492"
       x1="-56.221893"
       id="linearGradient4566"
       xlink:href="#linearGradient4550" />
    <linearGradient
       gradientUnits="userSpaceOnUse"
       y2="53.64502"
       x2="-56.287418"
       y1="-3.738492"
       x1="-56.221893"
       id="linearGradient4574"
       xlink:href="#linearGradient4550" />
    <linearGradient
       y2="53.64502"
       x2="-56.287418"
       y1="-3.738492"
       x1="-56.221893"
       gradientUnits="userSpaceOnUse"
       id="linearGradient4576"
       xlink:href="#linearGradient4550" />
    <linearGradient
       gradientUnits="userSpaceOnUse"
       y2="53.64502"
       x2="-56.287418"
       y1="-3.738492"
       x1="-56.221893"
       id="linearGradient4566-1"
       xlink:href="#linearGradient4550" />
    <filter
       height="1.1490313"
       y="-0.07451563"
       width="1.2350225"
       x="-0.11751126"
       id="filter4754"
       style="color-interpolation-filters:sRGB">
      <feGaussianBlur
         id="feGaussianBlur4756"
         stdDeviation="2.1733726" />
    </filter>
    <linearGradient
       gradientUnits="userSpaceOnUse"
       xlink:href="#linearGradient6290"
       id="linearGradient3617-3"
       y2="5.9877172"
       x2="48"
       y1="90"
       x1="48" />
    <linearGradient
       id="linearGradient6290">
      <stop
         id="stop6292"
         style="stop-color:#ea6b00;stop-opacity:1;"
         offset="0" />
      <stop
         id="stop6294"
         style="stop-color:#f7931a;stop-opacity:1;"
         offset="1" />
    </linearGradient>
    <radialGradient
       gradientTransform="matrix(1.1573129,0,0,0.99590774,-7.55102,0.197132)"
       gradientUnits="userSpaceOnUse"
       xlink:href="#linearGradient6296"
       id="radialGradient3619-5"
       fy="90.171875"
       fx="48"
       r="42"
       cy="90.171875"
       cx="48" />
    <linearGradient
       id="linearGradient6296">
      <stop
         id="stop6298"
         style="stop-color:#8e2710;stop-opacity:1"
         offset="0" />
      <stop
         id="stop6300"
         style="stop-color:#dd7b32;stop-opacity:1"
         offset="1" />
    </linearGradient>
    <linearGradient
       y2="138.66119"
       x2="48"
       y1="20.220806"
       x1="48"
       gradientUnits="userSpaceOnUse"
       id="linearGradient5829"
       xlink:href="#linearGradient3737" />
    <clipPath
       id="clipPath3613-9">
      <rect
         style="fill:#fefefe;fill-opacity:1;fill-rule:nonzero;stroke:none"
         id="rect3615-1"
         y="6"
         x="6"
         ry="6"
         rx="6"
         height="84"
         width="84" />
    </clipPath>
    <filter
       id="filter3794-2"
       color-interpolation-filters="sRGB"
       height="1.3915758"
       width="1.3915758"
       y="-0.19578789"
       x="-0.19578789">
      <feGaussianBlur
         id="feGaussianBlur3796-7"
         stdDeviation="5.28" />
    </filter>
    <linearGradient
       inkscape:collect="always"
       xlink:href="#ButtonShadow-0"
       id="linearGradient1"
       gradientUnits="userSpaceOnUse"
       gradientTransform="matrix(1.0238095,0,0,1.0119048,-1.1428571,-98.071429)"
       x1="32.251034"
       y1="6.1317081"
       x2="32.251034"
       y2="90.238609" />
    <linearGradient
       inkscape:collect="always"
       xlink:href="#ButtonShadow-0"
       id="linearGradient2"
       gradientUnits="userSpaceOnUse"
       gradientTransform="matrix(1.0238095,0,0,1.0119048,-1.1428571,-98.071429)"
       x1="32.251034"
       y1="6.1317081"
       x2="32.251034"
       y2="90.238609" />
    <linearGradient
       inkscape:collect="always"
       xlink:href="#ButtonShadow-0"
       id="linearGradient3"
       gradientUnits="userSpaceOnUse"
       gradientTransform="matrix(1.0238095,0,0,1.0119048,-1.1428571,-98.071429)"
       x1="32.251034"
       y1="6.1317081"
       x2="32.251034"
       y2="90.238609" />
    <linearGradient
       inkscape:collect="always"
       xlink:href="#ButtonShadow-0"
       id="linearGradient4"
       gradientUnits="userSpaceOnUse"
       gradientTransform="matrix(1.0238095,0,0,1.0119048,-1.1428571,-98.071429)"
       x1="32.251034"
       y1="6.1317081"
       x2="32.251034"
       y2="90.238609" />
    <linearGradient
       inkscape:collect="always"
       xlink:href="#ButtonShadow-0"
       id="linearGradient5"
       gradientUnits="userSpaceOnUse"
       gradientTransform="translate(0,-97)"
       x1="32.251034"
       y1="6.1317081"
       x2="32.251034"
       y2="90.238609" />
    <linearGradient
       inkscape:collect="always"
       xlink:href="#linearGradient3737"
       id="linearGradient6"
       gradientUnits="userSpaceOnUse"
       x1="36.357143"
       y1="6"
       x2="36.357143"
       y2="63.893143" />
    <filter
       inkscape:collect="always"
       style="color-interpolation-filters:sRGB"
       id="filter10"
       x="-0.18137343"
       y="-0.13702163"
       width="1.3627469"
       height="1.2740433">
      <feGaussianBlur
         inkscape:collect="always"
         stdDeviation="3.2989445"
         id="feGaussianBlur10" />
    </filter>
  </defs>
  <metadata
     id="metadata2413">
    <rdf:RDF>
      <cc:Work
         rdf:about="">
        <dc:format>image/svg+xml</dc:format>
        <dc:type
           rdf:resource="http://purl.org/dc/dcmitype/StillImage" />
        <dc:title />
      </cc:Work>
    </rdf:RDF>
  </metadata>
  <g
     style="display:none"
     id="layer2">
    <rect
       style="opacity:0.9;fill:url(#ButtonShadow);fill-opacity:1;fill-rule:nonzero;stroke:none;filter:url(#filter3174)"
       id="rect3745"
       y="7"
       x="5"
       ry="6"
       rx="6"
       height="85"
       width="86" />
  </g>
  <g
     style="display:inline"
     id="layer3-9">
    <path
       style="display:inline;opacity:0.08;fill:url(#linearGradient1);fill-opacity:1;fill-rule:nonzero;stroke:none"
       id="path3786-3"
       transform="scale(1,-1)"
       d="m 12,-95.03125 c -5.5110903,0 -10.03125,4.52016 -10.03125,10.03125 v 71 c 0,5.5110902 4.5201598,10.03125 10.03125,10.03125 h 72 c 5.51109,0 10.03125,-4.5201597 10.03125,-10.03125 v -71 c 0,-5.51109 -4.52016,-10.03125 -10.03125,-10.03125 z" />
    <path
       style="display:inline;opacity:0.1;fill:url(#linearGradient2);fill-opacity:1;fill-rule:nonzero;stroke:none"
       id="path3778-6"
       transform="scale(1,-1)"
       d="m 12,-94.03125 c -4.971633,0 -9.03125,4.059617 -9.03125,9.03125 v 71 c 0,4.9716329 4.0596171,9.03125 9.03125,9.03125 h 72 c 4.971633,0 9.03125,-4.059617 9.03125,-9.03125 v -71 c 0,-4.971633 -4.059617,-9.03125 -9.03125,-9.03125 z" />
    <path
       style="display:inline;opacity:0.2;fill:url(#linearGradient3);fill-opacity:1;fill-rule:nonzero;stroke:none"
       id="path3770-0"
       transform="scale(1,-1)"
       d="m 12,-93 c -4.4091333,0 -8,3.590867 -8,8 v 71 c 0,4.4091333 3.5908667,8 8,8 h 72 c 4.409133,0 8,-3.5908667 8,-8 v -71 c 0,-4.409133 -3.590867,-8 -8,-8 z" />
    <rect
       style="display:inline;opacity:0.3;fill:url(#linearGradient4);fill-opacity:1;fill-rule:nonzero;stroke:none"
       id="rect3723-6"
       transform="scale(1,-1)"
       y="-92"
       x="5"
       ry="7"
       rx="7"
       height="85"
       width="86" />
    <rect
       style="display:inline;opacity:0.45;fill:url(#linearGradient5);fill-opacity:1;fill-rule:nonzero;stroke:none"
       id="rect3716-2"
       transform="scale(1,-1)"
       y="-91"
       x="6"
       ry="6"
       rx="6"
       height="84"
       width="84" />
  </g>
  <rect
     style="fill:url(#linearGradient3617-3);fill-opacity:1;fill-rule:nonzero;stroke:none"
     id="rect2419-6"
     y="6"
     x="6"
     ry="6"
     rx="6"
     height="84"
     width="84" />
  <path
     style="opacity:0.61241787;fill:url(#radialGradient3619-5);fill-opacity:1;fill-rule:nonzero;stroke:none"
     id="path3615-1"
     d="M 12,90 C 8.676,90 6,87.324 6,84 V 82 14 12 c 0,-0.334721 0.04135,-0.6507 0.09375,-0.96875 0.0487,-0.295596 0.09704,-0.596915 0.1875,-0.875 C 6.29115,10.12587 6.30214,10.09265 6.3125,10.0625 6.41137,9.774729 6.54738,9.515048 6.6875,9.25 6.832092,8.976493 7.003116,8.714385 7.1875,8.46875 7.371884,8.223115 7.561277,7.995278 7.78125,7.78125 8.221197,7.353194 8.72416,6.966724 9.28125,6.6875 9.559795,6.547888 9.854723,6.440553 10.15625,6.34375 9.900048,6.443972 9.669539,6.580022 9.4375,6.71875 c -0.0074,0.0044 -0.02387,-0.0045 -0.03125,0 -0.03193,0.0193 -0.06229,0.04251 -0.09375,0.0625 -0.120395,0.0767 -0.231023,0.163513 -0.34375,0.25 -0.106173,0.0808 -0.213281,0.161112 -0.3125,0.25 C 8.47832,7.442683 8.30879,7.626638 8.15625,7.8125 8.048671,7.942755 7.937856,8.077785 7.84375,8.21875 7.81866,8.25713 7.8053,8.30462 7.78125,8.34375 7.71649,8.446782 7.651022,8.548267 7.59375,8.65625 7.492742,8.850956 7.388075,9.071951 7.3125,9.28125 7.3045,9.30306 7.28891,9.3218 7.28125,9.34375 7.24943,9.4357 7.24545,9.530581 7.21875,9.625 7.18842,9.731618 7.14836,9.828031 7.125,9.9375 7.05212,10.279012 7,10.635705 7,11 v 2 68 2 c 0,2.781848 2.218152,5 5,5 h 2 68 2 c 2.781848,0 5,-2.218152 5,-5 V 81 13 11 C 89,10.635705 88.94788,10.279012 88.875,9.9375 88.83085,9.730607 88.78662,9.539842 88.71875,9.34375 88.71105,9.3218 88.69545,9.30306 88.6875,9.28125 88.62476,9.107511 88.549117,8.913801 88.46875,8.75 88.42717,8.6672 88.38971,8.580046 88.34375,8.5 88.28915,8.40279 88.216976,8.31165 88.15625,8.21875 88.06214,8.077785 87.951329,7.942755 87.84375,7.8125 87.700576,7.63805 87.540609,7.465502 87.375,7.3125 87.36383,7.3023 87.35502,7.29135 87.34375,7.28125 87.205364,7.155694 87.058659,7.046814 86.90625,6.9375 86.803679,6.86435 86.701932,6.784136 86.59375,6.71875 c -0.0074,-0.0045 -0.02384,0.0044 -0.03125,0 -0.232039,-0.138728 -0.462548,-0.274778 -0.71875,-0.375 0.301527,0.0968 0.596455,0.204138 0.875,0.34375 0.55709,0.279224 1.060053,0.665694 1.5,1.09375 0.219973,0.214028 0.409366,0.441865 0.59375,0.6875 0.184384,0.245635 0.355408,0.507743 0.5,0.78125 0.14012,0.265048 0.276135,0.524729 0.375,0.8125 0.01041,0.03078 0.02133,0.06274 0.03125,0.09375 0.09046,0.278085 0.1388,0.579404 0.1875,0.875 C 89.95865,11.3493 90,11.665279 90,12 v 2 68 2 c 0,3.324 -2.676,6 -6,6 z" />
  <path
     style="opacity:0.35;fill:url(#linearGradient6);fill-opacity:1;fill-rule:nonzero;stroke:none"
     id="rect3728-8"
     d="M 12,6 C 8.676,6 6,8.676 6,12 v 2 68 2 c 0,0.334721 0.04135,0.6507 0.09375,0.96875 0.0487,0.295596 0.09704,0.596915 0.1875,0.875 0.0099,0.03038 0.02089,0.0636 0.03125,0.09375 0.09887,0.287771 0.23488,0.547452 0.375,0.8125 0.144592,0.273507 0.315616,0.535615 0.5,0.78125 0.184384,0.245635 0.373777,0.473472 0.59375,0.6875 0.439947,0.428056 0.94291,0.814526 1.5,1.09375 0.278545,0.139612 0.573473,0.246947 0.875,0.34375 -0.256202,-0.100222 -0.486711,-0.236272 -0.71875,-0.375 -0.0074,-0.0044 -0.02387,0.0045 -0.03125,0 -0.03193,-0.0193 -0.06229,-0.04251 -0.09375,-0.0625 -0.120395,-0.0767 -0.231023,-0.163513 -0.34375,-0.25 -0.106173,-0.0808 -0.213281,-0.161112 -0.3125,-0.25 C 8.47832,88.557317 8.30879,88.373362 8.15625,88.1875 8.048671,88.057245 7.937856,87.922215 7.84375,87.78125 7.81866,87.74287 7.8053,87.69538 7.78125,87.65625 7.71649,87.553218 7.651022,87.451733 7.59375,87.34375 7.492742,87.149044 7.388075,86.928049 7.3125,86.71875 7.3045,86.69694 7.28891,86.6782 7.28125,86.65625 7.24943,86.5643 7.24545,86.469419 7.21875,86.375 7.18842,86.268382 7.14836,86.171969 7.125,86.0625 7.05212,85.720988 7,85.364295 7,85 V 83 15 13 C 7,10.218152 9.218152,8 12,8 h 2 68 2 c 2.781848,0 5,2.218152 5,5 v 2 68 2 c 0,0.364295 -0.05212,0.720988 -0.125,1.0625 -0.04415,0.206893 -0.08838,0.397658 -0.15625,0.59375 -0.0077,0.02195 -0.0233,0.04069 -0.03125,0.0625 -0.06274,0.173739 -0.138383,0.367449 -0.21875,0.53125 -0.04158,0.0828 -0.07904,0.169954 -0.125,0.25 -0.0546,0.09721 -0.126774,0.18835 -0.1875,0.28125 -0.09411,0.140965 -0.204921,0.275995 -0.3125,0.40625 -0.143174,0.17445 -0.303141,0.346998 -0.46875,0.5 -0.01117,0.0102 -0.01998,0.02115 -0.03125,0.03125 -0.138386,0.125556 -0.285091,0.234436 -0.4375,0.34375 -0.102571,0.07315 -0.204318,0.153364 -0.3125,0.21875 -0.0074,0.0045 -0.02384,-0.0044 -0.03125,0 -0.232039,0.138728 -0.462548,0.274778 -0.71875,0.375 0.301527,-0.0968 0.596455,-0.204138 0.875,-0.34375 0.55709,-0.279224 1.060053,-0.665694 1.5,-1.09375 0.219973,-0.214028 0.409366,-0.441865 0.59375,-0.6875 0.184384,-0.245635 0.355408,-0.507743 0.5,-0.78125 0.14012,-0.265048 0.276135,-0.524729 0.375,-0.8125 0.01041,-0.03078 0.02133,-0.06274 0.03125,-0.09375 0.09046,-0.278085 0.1388,-0.579404 0.1875,-0.875 C 89.95865,84.6507 90,84.334721 90,84 V 82 14 12 C 90,8.676 87.324,6 84,6 Z" />
  <g
     transform="translate(118)"
     id="layer5-7">
    <rect
       transform="translate(-118)"
       style="opacity:0.192;fill:url(#linearGradient5829);fill-opacity:1;fill-rule:nonzero;stroke:#fefefe;stroke-width:0.5;stroke-linecap:round;stroke-linejoin:miter;stroke-miterlimit:4;stroke-dasharray:none;stroke-dashoffset:0;stroke-opacity:1;filter:url(#filter3794-2)"
       id="rect3171-9"
       clip-path="url(#clipPath3613-9)"
       y="15"
       x="15"
       ry="12"
       rx="12"
       height="66"
       width="66" />
  </g>
  <path
     d="m 67.712336,42.338379 c 0.90831,-6.071572 -3.71453,-9.335507 -10.03564,-11.512887 l 2.05048,-8.224715 -5.00641,-1.247681 -1.99629,8.007974 c -1.31612,-0.327962 -2.6679,-0.637387 -4.01112,-0.94396 l 2.01055,-8.060732 -5.00355,-1.247682 -2.05191,8.221863 c -1.0894,-0.24811 -2.15884,-0.49337 -3.19691,-0.751461 l 0.006,-0.02567 -6.90431,-1.723938 -1.33181,5.347204 c 0,0 3.71452,0.851275 3.6361,0.904034 2.02766,0.506202 2.39412,1.847994 2.3328,2.911731 l -2.33566,9.369728 c 0.13975,0.03564 0.32084,0.08698 0.52047,0.166834 -0.16684,-0.04135 -0.34508,-0.08698 -0.52902,-0.131185 l -3.27389,13.125607 c -0.24811,0.615998 -0.87694,1.539995 -2.29431,1.189218 0.0499,0.07272 -3.63895,-0.908312 -3.63895,-0.908312 l -2.48538,5.730779 6.51504,1.624124 c 1.21203,0.303721 2.39982,0.621701 3.56908,0.921145 l -2.07187,8.318825 5.00071,1.24768 2.0519,-8.230417 c 1.36603,0.370739 2.69214,0.71296 3.98973,1.035219 l -2.04477,8.191917 5.00641,1.247682 2.07186,-8.30314 c 8.53699,1.615568 14.95649,0.963923 17.65861,-6.757442 2.17738,-6.217015 -0.10838,-9.803208 -4.60002,-12.141718 3.27106,-0.754313 5.73505,-2.906028 6.3924,-7.350625 z m -11.43874,16.040189 c -1.54713,6.217017 -12.01481,2.85612 -15.40851,2.0134 l 2.74918,-11.020945 c 3.39369,0.846997 14.27632,2.523881 12.65933,9.007545 z m 1.54855,-16.130022 c -1.41166,5.655204 -10.12404,2.781973 -12.95022,2.077568 l 2.49251,-9.995708 c 2.82618,0.704405 11.92783,2.019104 10.45771,7.91814 z"
     fill="#ffffff"
     id="path9"
     style="stroke-width:3;fill:#333333;stroke:none;opacity:0.49158031;stroke-dasharray:none;filter:url(#filter10)" />
  <path
     d="m 67.712336,42.338379 c 0.90831,-6.071572 -3.71453,-9.335507 -10.03564,-11.512887 l 2.05048,-8.224715 -5.00641,-1.247681 -1.99629,8.007974 c -1.31612,-0.327962 -2.6679,-0.637387 -4.01112,-0.94396 l 2.01055,-8.060732 -5.00355,-1.247682 -2.05191,8.221863 c -1.0894,-0.24811 -2.15884,-0.49337 -3.19691,-0.751461 l 0.006,-0.02567 -6.90431,-1.723938 -1.33181,5.347204 c 0,0 3.71452,0.851275 3.6361,0.904034 2.02766,0.506202 2.39412,1.847994 2.3328,2.911731 l -2.33566,9.369728 c 0.13975,0.03564 0.32084,0.08698 0.52047,0.166834 -0.16684,-0.04135 -0.34508,-0.08698 -0.52902,-0.131185 l -3.27389,13.125607 c -0.24811,0.615998 -0.87694,1.539995 -2.29431,1.189218 0.0499,0.07272 -3.63895,-0.908312 -3.63895,-0.908312 l -2.48538,5.730779 6.51504,1.624124 c 1.21203,0.303721 2.39982,0.621701 3.56908,0.921145 l -2.07187,8.318825 5.00071,1.24768 2.0519,-8.230417 c 1.36603,0.370739 2.69214,0.71296 3.98973,1.035219 l -2.04477,8.191917 5.00641,1.247682 2.07186,-8.30314 c 8.53699,1.615568 14.95649,0.963923 17.65861,-6.757442 2.17738,-6.217015 -0.10838,-9.803208 -4.60002,-12.141718 3.27106,-0.754313 5.73505,-2.906028 6.3924,-7.350625 z m -11.43874,16.040189 c -1.54713,6.217017 -12.01481,2.85612 -15.40851,2.0134 l 2.74918,-11.020945 c 3.39369,0.846997 14.27632,2.523881 12.65933,9.007545 z m 1.54855,-16.130022 c -1.41166,5.655204 -10.12404,2.781973 -12.95022,2.077568 l 2.49251,-9.995708 c 2.82618,0.704405 11.92783,2.019104 10.45771,7.91814 z"
     fill="#ffffff"
     id="path2"
     style="stroke-width:1.42593" />
</svg>
