<?xml version="1.0" encoding="UTF-8" standalone="no"?>
<svg
   id="svg2408"
   height="96"
   width="96"
   version="1.0"
   sodipodi:docname="codium-insiders.svg"
   inkscape:version="1.3.2 (091e20ef0f, 2023-11-25)"
   xml:space="preserve"
   inkscape:export-filename="../48/codium-insiders.png"
   inkscape:export-xdpi="48"
   inkscape:export-ydpi="48"
   xmlns:inkscape="http://www.inkscape.org/namespaces/inkscape"
   xmlns:sodipodi="http://sodipodi.sourceforge.net/DTD/sodipodi-0.dtd"
   xmlns:xlink="http://www.w3.org/1999/xlink"
   xmlns="http://www.w3.org/2000/svg"
   xmlns:svg="http://www.w3.org/2000/svg"
   xmlns:rdf="http://www.w3.org/1999/02/22-rdf-syntax-ns#"
   xmlns:cc="http://creativecommons.org/ns#"
   xmlns:dc="http://purl.org/dc/elements/1.1/"><sodipodi:namedview
     pagecolor="#fefefe"
     bordercolor="#666666"
     borderopacity="1"
     objecttolerance="10"
     gridtolerance="10"
     guidetolerance="10"
     inkscape:pageopacity="0"
     inkscape:pageshadow="2"
     inkscape:window-width="1366"
     inkscape:window-height="704"
     id="namedview174"
     showgrid="false"
     inkscape:zoom="1.5478849"
     inkscape:cx="38.116529"
     inkscape:cy="69.772629"
     inkscape:window-x="0"
     inkscape:window-y="0"
     inkscape:window-maximized="1"
     inkscape:current-layer="svg2408"
     inkscape:showpageshadow="2"
     inkscape:pagecheckerboard="0"
     inkscape:deskcolor="#d1d1d1" /><defs
     id="defs2410"><linearGradient
       id="linearGradient8"
       inkscape:collect="always"><stop
         style="stop-color:#f8b983;stop-opacity:1;"
         offset="0"
         id="stop8" /><stop
         style="stop-color:#d66014;stop-opacity:1;"
         offset="1"
         id="stop9" /></linearGradient><linearGradient
       id="linearGradient1151"><stop
         id="stop1147"
         offset="0"
         style="stop-color:#1d8bd2;stop-opacity:1" /><stop
         id="stop1149"
         offset="1"
         style="stop-color:#017bcd;stop-opacity:0.99638987" /></linearGradient><linearGradient
       id="linearGradient1143"><stop
         id="stop1139"
         offset="0"
         style="stop-color:#2d97dd;stop-opacity:1" /><stop
         id="stop1141"
         offset="1"
         style="stop-color:#51aee9;stop-opacity:0.97472924" /></linearGradient><linearGradient
       id="linearGradient1133"><stop
         id="stop1129"
         offset="0"
         style="stop-color:#0058a5;stop-opacity:0.96470588" /><stop
         style="stop-color:#026cb4;stop-opacity:1"
         offset="0.5"
         id="stop1137" /><stop
         id="stop1131"
         offset="1"
         style="stop-color:#0053a4;stop-opacity:1" /></linearGradient><linearGradient
       id="linearGradient3921"><stop
         offset="0"
         style="stop-color:#5fd3bc;stop-opacity:0"
         id="stop3923" /><stop
         offset="0.5"
         style="stop-color:#5fd3bc;stop-opacity:1"
         id="stop3929" /><stop
         offset="1"
         style="stop-color:#5fd3bc;stop-opacity:0"
         id="stop3925" /></linearGradient><linearGradient
       id="linearGradient3911"><stop
         offset="0"
         style="stop-color:#2a7fff;stop-opacity:0"
         id="stop3913" /><stop
         offset="0.5"
         style="stop-color:#2a7fff;stop-opacity:1"
         id="stop3919" /><stop
         offset="1"
         style="stop-color:#2a7fff;stop-opacity:0"
         id="stop3915" /></linearGradient><linearGradient
       id="linearGradient3901"><stop
         offset="0"
         style="stop-color:#6600ff;stop-opacity:0"
         id="stop3903" /><stop
         offset="0.5"
         style="stop-color:#6600ff;stop-opacity:1"
         id="stop3909" /><stop
         offset="1"
         style="stop-color:#6600ff;stop-opacity:0"
         id="stop3905" /></linearGradient><linearGradient
       id="linearGradient3891"><stop
         offset="0"
         style="stop-color:#d42aff;stop-opacity:0"
         id="stop3893" /><stop
         offset="0.5"
         style="stop-color:#d42aff;stop-opacity:1"
         id="stop3899" /><stop
         offset="1"
         style="stop-color:#d42aff;stop-opacity:0"
         id="stop3895" /></linearGradient><linearGradient
       id="linearGradient3881"><stop
         offset="0"
         style="stop-color:#d40000;stop-opacity:0"
         id="stop3883" /><stop
         offset="0.5"
         style="stop-color:#d40000;stop-opacity:1"
         id="stop3889" /><stop
         offset="1"
         style="stop-color:#d40000;stop-opacity:0"
         id="stop3885" /></linearGradient><linearGradient
       id="linearGradient3871"><stop
         offset="0"
         style="stop-color:#ff6600;stop-opacity:0"
         id="stop3873" /><stop
         offset="0.5"
         style="stop-color:#ff6600;stop-opacity:1"
         id="stop3879" /><stop
         offset="1"
         style="stop-color:#ff6600;stop-opacity:0"
         id="stop3875" /></linearGradient><linearGradient
       id="linearGradient3861"><stop
         offset="0"
         style="stop-color:#ffcc00;stop-opacity:0"
         id="stop3863" /><stop
         offset="0.5"
         style="stop-color:#ffcc00;stop-opacity:1"
         id="stop3869" /><stop
         offset="1"
         style="stop-color:#ffcc00;stop-opacity:0"
         id="stop3865" /></linearGradient><linearGradient
       id="linearGradient3851"><stop
         offset="0"
         style="stop-color:#55d400;stop-opacity:0"
         id="stop3853" /><stop
         offset="0.5"
         style="stop-color:#55d400;stop-opacity:1"
         id="stop3859" /><stop
         offset="1"
         style="stop-color:#55d400;stop-opacity:0"
         id="stop3855" /></linearGradient><linearGradient
       id="linearGradient3797"><stop
         offset="0"
         style="stop-color:#fefefe;stop-opacity:1"
         id="stop3799" /><stop
         offset="0.5"
         style="stop-color:#fefefe;stop-opacity:1"
         id="stop3805" /><stop
         offset="1"
         style="stop-color:#fefefe;stop-opacity:0"
         id="stop3801" /></linearGradient><linearGradient
       id="linearGradient3761"><stop
         offset="0"
         style="stop-color:#fefefe;stop-opacity:1"
         id="stop3763" /><stop
         offset="1"
         style="stop-color:#fefefe;stop-opacity:0"
         id="stop3765" /></linearGradient><linearGradient
       id="linearGradient3727"><stop
         offset="0"
         style="stop-color:#fefefe;stop-opacity:1"
         id="stop3729" /><stop
         offset="1"
         style="stop-color:#fefefe;stop-opacity:0"
         id="stop3731" /></linearGradient><linearGradient
       id="linearGradient3681"><stop
         offset="0"
         style="stop-color:#fefefe;stop-opacity:0.18548387"
         id="stop3683" /><stop
         offset="0.3086735"
         style="stop-color:#fefefe;stop-opacity:0.10887097"
         id="stop3689" /><stop
         offset="0.43622452"
         style="stop-color:#000000;stop-opacity:0"
         id="stop3691" /><stop
         offset="0.54464293"
         style="stop-color:#000000;stop-opacity:0"
         id="stop3693" /><stop
         offset="0.58290821"
         style="stop-color:#fefefe;stop-opacity:0"
         id="stop3695" /><stop
         offset="0.61479598"
         style="stop-color:#000000;stop-opacity:0.1814516"
         id="stop3697" /><stop
         offset="0.69132656"
         style="stop-color:#000000;stop-opacity:0.43145162"
         id="stop3699" /><stop
         offset="0.78061229"
         style="stop-color:#fefefe;stop-opacity:0.08064516"
         id="stop3701" /><stop
         offset="0.87627554"
         style="stop-color:#000000;stop-opacity:0"
         id="stop3703" /><stop
         offset="1"
         style="stop-color:#fefefe;stop-opacity:0"
         id="stop3685" /></linearGradient><linearGradient
       id="linearGradient3746"><stop
         offset="0"
         style="stop-color:#5d5d5d;stop-opacity:1"
         id="stop3748" /><stop
         offset="0.60000002"
         style="stop-color:#0a0a0a;stop-opacity:1"
         id="stop3753" /><stop
         offset="1"
         style="stop-color:#4e4e4e;stop-opacity:1"
         id="stop3751" /></linearGradient><linearGradient
       id="linearGradient3732"><stop
         offset="0"
         style="stop-color:#000000;stop-opacity:0"
         id="stop3734" /><stop
         offset="0.94999999"
         style="stop-color:#000000;stop-opacity:0"
         id="stop3740" /><stop
         offset="1"
         style="stop-color:#000000;stop-opacity:1"
         id="stop3736" /></linearGradient><linearGradient
       id="linearGradient3719"><stop
         offset="0"
         style="stop-color:#4b4b4b;stop-opacity:1"
         id="stop3721" /><stop
         offset="0.37373093"
         style="stop-color:#232323;stop-opacity:1"
         id="stop3723" /><stop
         offset="1"
         style="stop-color:#5c5c5c;stop-opacity:1"
         id="stop3725" /></linearGradient><linearGradient
       id="linearGradient3664"><stop
         offset="0"
         style="stop-color:#000000;stop-opacity:0.68992245"
         id="stop3666" /><stop
         offset="0.5"
         style="stop-color:#7f7f7f;stop-opacity:0"
         id="stop3804" /><stop
         offset="1"
         style="stop-color:#fefefe;stop-opacity:0.21705426"
         id="stop3668" /></linearGradient><linearGradient
       id="linearGradient3650"><stop
         offset="0"
         style="stop-color:#141414;stop-opacity:1"
         id="stop3709" /><stop
         offset="1"
         style="stop-color:#616161;stop-opacity:1"
         id="stop3654" /></linearGradient><linearGradient
       id="linearGradient3641"><stop
         offset="0"
         style="stop-color:#0c0c0c;stop-opacity:1"
         id="stop3643" /><stop
         offset="1"
         style="stop-color:#373737;stop-opacity:1"
         id="stop3645" /></linearGradient><linearGradient
       gradientTransform="scale(1.0058652,0.994169)"
       gradientUnits="userSpaceOnUse"
       id="ButtonShadow"
       y2="7.0165396"
       x2="45.447727"
       y1="92.539597"
       x1="45.447727"><stop
         offset="0"
         style="stop-color:#000000;stop-opacity:1"
         id="stop3750" /><stop
         offset="1"
         style="stop-color:#000000;stop-opacity:0.58823532"
         id="stop3752" /></linearGradient><linearGradient
       id="linearGradient3737"><stop
         offset="0"
         style="stop-color:#fefefe;stop-opacity:1"
         id="stop3739" /><stop
         offset="1"
         style="stop-color:#fefefe;stop-opacity:0"
         id="stop3741" /></linearGradient><filter
       id="filter3174"
       color-interpolation-filters="sRGB"
       x="-0.047720931"
       y="-0.048282354"
       width="1.0954419"
       height="1.0965647"><feGaussianBlur
         stdDeviation="1.71"
         id="feGaussianBlur3176" /></filter><linearGradient
       gradientUnits="userSpaceOnUse"
       xlink:href="#linearGradient3737"
       id="linearGradient3188"
       y2="63.893143"
       x2="36.357143"
       y1="6"
       x1="36.357143" /><filter
       id="filter3794"
       color-interpolation-filters="sRGB"
       height="1.3915758"
       width="1.3915758"
       y="-0.19578789"
       x="-0.19578789"><feGaussianBlur
         stdDeviation="5.28"
         id="feGaussianBlur3796" /></filter><linearGradient
       gradientUnits="userSpaceOnUse"
       xlink:href="#linearGradient3737"
       id="linearGradient3613"
       y2="138.66119"
       x2="48"
       y1="20.220806"
       x1="48" /><radialGradient
       gradientTransform="matrix(1.1573129,0,0,0.99590774,-7.5510206,0.19713193)"
       gradientUnits="userSpaceOnUse"
       xlink:href="#linearGradient3737"
       id="radialGradient3619"
       fy="90.171875"
       fx="48"
       r="42"
       cy="90.171875"
       cx="48" /><clipPath
       id="clipPath3613"><rect
         style="fill:#fefefe;fill-opacity:1;fill-rule:nonzero;stroke:none"
         id="rect3615"
         y="6"
         x="6"
         ry="6"
         rx="6"
         height="84"
         width="84" /></clipPath><linearGradient
       gradientUnits="userSpaceOnUse"
       xlink:href="#linearGradient3641"
       id="linearGradient3617"
       y2="5.9877172"
       x2="48"
       y1="90"
       x1="48" /><linearGradient
       gradientUnits="userSpaceOnUse"
       xlink:href="#linearGradient3664"
       id="linearGradient3670"
       y2="52.098946"
       x2="76.838295"
       y1="52.098946"
       x1="16.162441" /><linearGradient
       gradientUnits="userSpaceOnUse"
       xlink:href="#linearGradient3719"
       id="linearGradient3674"
       y2="44.48222"
       x2="76.771591"
       y1="44.48222"
       x1="16.162441" /><linearGradient
       gradientUnits="userSpaceOnUse"
       xlink:href="#linearGradient3650"
       id="linearGradient3707"
       y2="44.48222"
       x2="76.771591"
       y1="44.48222"
       x1="16.162441" /><radialGradient
       gradientTransform="matrix(1.0369653,0,0,1.0369653,-1.774336,-1.7753043)"
       gradientUnits="userSpaceOnUse"
       xlink:href="#linearGradient3732"
       id="radialGradient3738"
       fy="48.000935"
       fx="48"
       r="27.001867"
       cy="48.000935"
       cx="48" /><linearGradient
       gradientUnits="userSpaceOnUse"
       xlink:href="#linearGradient3746"
       id="linearGradient3744"
       y2="44.48222"
       x2="76.771591"
       y1="44.48222"
       x1="16.162441" /><clipPath
       id="clipPath3798"><path
         style="fill:#ff00ff;fill-opacity:1;stroke:none"
         id="path3800"
         transform="matrix(1.0266143,0,0,1.0266143,-0.999999,0.778362)"
         d="m 61.366765,45.997448 a 13.637059,13.637059 0 1 1 -27.274118,0 13.637059,13.637059 0 1 1 27.274118,0 z" /></clipPath><filter
       id="filter3833"
       color-interpolation-filters="sRGB"
       height="1.48"
       width="1.48"
       y="-0.24000001"
       x="-0.23999999"><feGaussianBlur
         stdDeviation="2.8000002"
         id="feGaussianBlur3835" /></filter><radialGradient
       gradientUnits="userSpaceOnUse"
       xlink:href="#linearGradient3681"
       id="radialGradient3687"
       fy="45.997448"
       fx="47.729706"
       r="13.637059"
       cy="45.997448"
       cx="47.729706" /><linearGradient
       gradientUnits="userSpaceOnUse"
       xlink:href="#linearGradient3727"
       id="linearGradient3733"
       y2="45.997448"
       x2="67.957489"
       y1="45.997448"
       x1="33.199345" /><linearGradient
       gradientUnits="userSpaceOnUse"
       xlink:href="#linearGradient3761"
       id="linearGradient3767"
       y2="49.665066"
       x2="31.793724"
       y1="58.17598"
       x1="40.068184" /><linearGradient
       gradientUnits="userSpaceOnUse"
       xlink:href="#linearGradient3761"
       id="linearGradient3771"
       y2="41.697067"
       x2="40.068184"
       y1="58.17598"
       x1="40.068184" /><linearGradient
       gradientUnits="userSpaceOnUse"
       xlink:href="#linearGradient3761"
       id="linearGradient3775"
       y2="41.697067"
       x2="40.068184"
       y1="58.17598"
       x1="40.068184" /><linearGradient
       gradientUnits="userSpaceOnUse"
       xlink:href="#linearGradient3761"
       id="linearGradient3779"
       y2="41.697067"
       x2="40.068184"
       y1="58.17598"
       x1="40.068184" /><linearGradient
       gradientUnits="userSpaceOnUse"
       xlink:href="#linearGradient3761"
       id="linearGradient3791"
       y2="41.697067"
       x2="40.068184"
       y1="58.17598"
       x1="40.068184" /><radialGradient
       gradientTransform="matrix(1,0,0,0.61803397,0,19.862234)"
       gradientUnits="userSpaceOnUse"
       xlink:href="#linearGradient3797"
       id="radialGradient3803"
       fy="52"
       fx="41"
       r="9.7082043"
       cy="52"
       cx="41" /><filter
       id="filter3774"
       color-interpolation-filters="sRGB"><feGaussianBlur
         stdDeviation="0.27274118"
         id="feGaussianBlur3776" /></filter><linearGradient
       gradientTransform="matrix(1.0266143,0,0,1.0266143,-0.9999987,50.778362)"
       gradientUnits="userSpaceOnUse"
       xlink:href="#linearGradient3881"
       id="linearGradient3967"
       y2="39.92907"
       x2="61.49099"
       y1="59.608364"
       x1="53.510502" /><linearGradient
       gradientTransform="matrix(0.72592593,0.72592593,-0.72592593,0.72592593,46.742509,29.961028)"
       gradientUnits="userSpaceOnUse"
       xlink:href="#linearGradient3891"
       id="linearGradient3969"
       y2="38.831467"
       x2="62.58559"
       y1="60.139374"
       x1="53.730709" /><linearGradient
       gradientTransform="matrix(0,1.0266143,-1.0266143,0,95.221638,49.000001)"
       gradientUnits="userSpaceOnUse"
       xlink:href="#linearGradient3901"
       id="linearGradient3971"
       y2="39.437084"
       x2="61.982975"
       y1="60.34634"
       x1="53.387505" /><linearGradient
       gradientTransform="matrix(-0.72592593,0.72592593,-0.72592593,-0.72592593,116.03897,96.742509)"
       gradientUnits="userSpaceOnUse"
       xlink:href="#linearGradient3911"
       id="linearGradient3973"
       y2="40.223007"
       x2="61.88982"
       y1="59.182693"
       x1="53.295853" /><linearGradient
       gradientTransform="matrix(-1.0266143,0,0,-1.0266143,96.999997,145.22164)"
       gradientUnits="userSpaceOnUse"
       xlink:href="#linearGradient3921"
       id="linearGradient3975"
       y2="39.683075"
       x2="60.999012"
       y1="61.330303"
       x1="53.87949" /><linearGradient
       gradientTransform="matrix(-0.72592593,-0.72592593,0.72592593,-0.72592593,49.25749,166.03897)"
       gradientUnits="userSpaceOnUse"
       xlink:href="#linearGradient3851"
       id="linearGradient3977"
       y2="39.70118"
       x2="60.324341"
       y1="59.878456"
       x1="53.469795" /><linearGradient
       gradientTransform="matrix(0,-1.0266143,1.0266143,0,0.77836254,147)"
       gradientUnits="userSpaceOnUse"
       xlink:href="#linearGradient3861"
       id="linearGradient3979"
       y2="60.715324"
       x2="52.881298"
       y1="39.683075"
       x1="61.628212" /><linearGradient
       gradientTransform="matrix(0.72592593,-0.72592593,0.72592593,0.72592593,-20.03897,99.25749)"
       gradientUnits="userSpaceOnUse"
       xlink:href="#linearGradient3871"
       id="linearGradient3981"
       y2="40.483921"
       x2="61.802849"
       y1="61.183025"
       x1="53.034939" /><filter
       id="filter3987"
       color-interpolation-filters="sRGB"><feGaussianBlur
         stdDeviation="0.42020394"
         id="feGaussianBlur3989" /></filter><linearGradient
       gradientUnits="userSpaceOnUse"
       xlink:href="#linearGradient3761"
       id="linearGradient3817"
       y2="46.568573"
       x2="46.604744"
       y1="64.036171"
       x1="64.072342" /><linearGradient
       gradientTransform="matrix(1.0058652,0,0,0.994169,100,0)"
       gradientUnits="userSpaceOnUse"
       id="ButtonShadow-0"
       y2="7.0165396"
       x2="45.447727"
       y1="92.539597"
       x1="45.447727"><stop
         offset="0"
         style="stop-color:#000000;stop-opacity:1"
         id="stop3750-8" /><stop
         offset="1"
         style="stop-color:#000000;stop-opacity:0.58823532"
         id="stop3752-5" /></linearGradient><linearGradient
       gradientTransform="matrix(1.0238095,0,0,1.0119048,-1.1428571,-98.071429)"
       gradientUnits="userSpaceOnUse"
       xlink:href="#ButtonShadow-0"
       id="linearGradient3780"
       y2="90.238609"
       x2="32.251034"
       y1="6.1317081"
       x1="32.251034" /><linearGradient
       gradientTransform="matrix(1.0238095,0,0,1.0119048,-1.1428571,-98.071429)"
       gradientUnits="userSpaceOnUse"
       xlink:href="#ButtonShadow-0"
       id="linearGradient3772"
       y2="90.238609"
       x2="32.251034"
       y1="6.1317081"
       x1="32.251034" /><linearGradient
       gradientTransform="matrix(1.0238095,0,0,1.0119048,-1.1428571,-98.071429)"
       gradientUnits="userSpaceOnUse"
       xlink:href="#ButtonShadow-0"
       id="linearGradient3725"
       y2="90.238609"
       x2="32.251034"
       y1="6.1317081"
       x1="32.251034" /><linearGradient
       gradientTransform="translate(0,-97)"
       gradientUnits="userSpaceOnUse"
       xlink:href="#ButtonShadow-0"
       id="linearGradient3721"
       y2="90.238609"
       x2="32.251034"
       y1="6.1317081"
       x1="32.251034" /><linearGradient
       gradientTransform="matrix(1.0238095,0,0,1.0119048,-1.1428571,-98.071429)"
       gradientUnits="userSpaceOnUse"
       xlink:href="#ButtonShadow-0"
       id="linearGradient2918"
       y2="90.238609"
       x2="32.251034"
       y1="6.1317081"
       x1="32.251034" /><linearGradient
       gradientUnits="userSpaceOnUse"
       xlink:href="#linearGradient3376"
       id="linearGradient3556"
       y2="85.0625"
       x2="20.178572"
       y1="85.0625"
       x1="15.999999" /><linearGradient
       id="linearGradient3376"><stop
         offset="0"
         style="stop-color:#767676;stop-opacity:1"
         id="stop3378" /><stop
         offset="1"
         style="stop-color:#fdfdfd;stop-opacity:1"
         id="stop3380" /></linearGradient><linearGradient
       id="linearGradient3733-2"><stop
         offset="0"
         style="stop-color:#ffbf67;stop-opacity:1"
         id="stop3735" /><stop
         offset="1"
         style="stop-color:#c70000;stop-opacity:1"
         id="stop3737" /></linearGradient><radialGradient
       gradientTransform="matrix(1,0,0,1.0042736,0,-0.3635233)"
       gradientUnits="userSpaceOnUse"
       xlink:href="#linearGradient3733-2"
       id="radialGradient3029"
       fy="85.0625"
       fx="18.089285"
       r="2.0892856"
       cy="85.0625"
       cx="18.089285" /><linearGradient
       gradientTransform="translate(373.2151,-28.058062)"
       gradientUnits="userSpaceOnUse"
       y2="91.555931"
       x2="-50.048779"
       y1="-28.100918"
       x1="-50.91169"
       id="linearGradient1135"
       xlink:href="#linearGradient1133" /><linearGradient
       gradientTransform="translate(373.2151,-28.058062)"
       gradientUnits="userSpaceOnUse"
       y2="-11.504201"
       x2="-35.666946"
       y1="55.802776"
       x1="-174.45163"
       id="linearGradient1145"
       xlink:href="#linearGradient1143" /><linearGradient
       gradientTransform="translate(373.2151,-28.058062)"
       gradientUnits="userSpaceOnUse"
       y2="78.698486"
       x2="-43.433136"
       y1="8.2275047"
       x1="-175.31454"
       id="linearGradient1153"
       xlink:href="#linearGradient1151" /><radialGradient
       inkscape:collect="always"
       xlink:href="#linearGradient8"
       id="radialGradient1"
       gradientUnits="userSpaceOnUse"
       gradientTransform="matrix(0.40316354,0,0,0.39061142,32.554463,35.451253)"
       cx="43.092903"
       cy="-10.725325"
       fx="43.092903"
       fy="-10.725325"
       r="79.49435" /></defs><metadata
     id="metadata2413"><rdf:RDF><cc:Work
         rdf:about=""><dc:format>image/svg+xml</dc:format><dc:type
           rdf:resource="http://purl.org/dc/dcmitype/StillImage" /></cc:Work></rdf:RDF></metadata><g
     style="display:none"
     id="layer2"><rect
       style="opacity:0.9;fill:url(#ButtonShadow);fill-opacity:1;fill-rule:nonzero;stroke:none;filter:url(#filter3174)"
       id="rect3745"
       y="7"
       x="5"
       ry="6"
       rx="6"
       height="85"
       width="86" /></g><g
     id="layer7"><path
       style="opacity:0.07999998;fill:url(#linearGradient2918);fill-opacity:1;fill-rule:nonzero;stroke:none;display:inline"
       id="path3786"
       transform="scale(1,-1)"
       d="m 12,-95.03125 c -5.5110903,0 -10.03125,4.52016 -10.03125,10.03125 l 0,71 c 0,5.5110902 4.5201598,10.03125 10.03125,10.03125 l 72,0 c 5.51109,0 10.03125,-4.5201597 10.03125,-10.03125 l 0,-71 c 0,-5.51109 -4.52016,-10.03125 -10.03125,-10.03125 l -72,0 z" /><path
       style="opacity:0.1;fill:url(#linearGradient3780);fill-opacity:1;fill-rule:nonzero;stroke:none;display:inline"
       id="path3778-9"
       transform="scale(1,-1)"
       d="m 12,-94.03125 c -4.971633,0 -9.03125,4.059617 -9.03125,9.03125 l 0,71 c 0,4.9716329 4.0596171,9.03125 9.03125,9.03125 l 72,0 c 4.971633,0 9.03125,-4.059617 9.03125,-9.03125 l 0,-71 c 0,-4.971633 -4.059617,-9.03125 -9.03125,-9.03125 l -72,0 z" /><path
       style="opacity:0.2;fill:url(#linearGradient3772);fill-opacity:1;fill-rule:nonzero;stroke:none;display:inline"
       id="path3770"
       transform="scale(1,-1)"
       d="m 12,-93 c -4.4091333,0 -8,3.590867 -8,8 l 0,71 c 0,4.4091333 3.5908667,8 8,8 l 72,0 c 4.409133,0 8,-3.5908667 8,-8 l 0,-71 c 0,-4.409133 -3.590867,-8 -8,-8 l -72,0 z" /><rect
       style="opacity:0.3;fill:url(#linearGradient3725);fill-opacity:1;fill-rule:nonzero;stroke:none;display:inline"
       id="rect3723"
       transform="scale(1,-1)"
       y="-92"
       x="5"
       ry="7"
       rx="7"
       height="85"
       width="86" /><rect
       style="opacity:0.45;fill:url(#linearGradient3721);fill-opacity:1;fill-rule:nonzero;stroke:none;display:inline"
       id="rect3716"
       transform="scale(1,-1)"
       y="-91"
       x="6"
       ry="6"
       rx="6"
       height="84"
       width="84" /></g><g
     style="display:inline"
     id="layer1"><rect
       style="fill:url(#linearGradient3617);fill-opacity:1;fill-rule:nonzero;stroke:none"
       id="rect2419"
       y="6"
       x="6"
       ry="6"
       rx="6"
       height="84"
       width="84" /><path
       style="opacity:0.25;fill:url(#linearGradient3188);fill-opacity:1;fill-rule:nonzero;stroke:none"
       id="rect3728"
       d="M 12,6 C 8.676,6 6,8.676 6,12 l 0,2 0,68 0,2 c 0,0.334721 0.04135,0.6507 0.09375,0.96875 0.0487,0.295596 0.09704,0.596915 0.1875,0.875 0.00988,0.03038 0.020892,0.0636 0.03125,0.09375 0.098865,0.287771 0.2348802,0.547452 0.375,0.8125 0.1445918,0.273507 0.3156161,0.535615 0.5,0.78125 0.1843839,0.245635 0.3737765,0.473472 0.59375,0.6875 0.439947,0.428056 0.94291,0.814526 1.5,1.09375 0.278545,0.139612 0.5734731,0.246947 0.875,0.34375 -0.2562018,-0.100222 -0.4867109,-0.236272 -0.71875,-0.375 -0.00741,-0.0044 -0.023866,0.0045 -0.03125,0 -0.031933,-0.0193 -0.062293,-0.04251 -0.09375,-0.0625 -0.120395,-0.0767 -0.2310226,-0.163513 -0.34375,-0.25 -0.1061728,-0.0808 -0.2132809,-0.161112 -0.3125,-0.25 C 8.4783201,88.557317 8.3087904,88.373362 8.15625,88.1875 8.0486711,88.057245 7.9378561,87.922215 7.84375,87.78125 7.818661,87.74287 7.805304,87.69538 7.78125,87.65625 7.716487,87.553218 7.6510225,87.451733 7.59375,87.34375 7.4927417,87.149044 7.3880752,86.928049 7.3125,86.71875 7.30454,86.69694 7.288911,86.6782 7.28125,86.65625 7.2494249,86.5643 7.2454455,86.469419 7.21875,86.375 7.1884177,86.268382 7.1483606,86.171969 7.125,86.0625 7.0521214,85.720988 7,85.364295 7,85 L 7,83 7,15 7,13 C 7,10.218152 9.2181517,8 12,8 l 2,0 68,0 2,0 c 2.781848,0 5,2.218152 5,5 l 0,2 0,68 0,2 c 0,0.364295 -0.05212,0.720988 -0.125,1.0625 -0.04415,0.206893 -0.08838,0.397658 -0.15625,0.59375 -0.0077,0.02195 -0.0233,0.04069 -0.03125,0.0625 -0.06274,0.173739 -0.138383,0.367449 -0.21875,0.53125 -0.04158,0.0828 -0.07904,0.169954 -0.125,0.25 -0.0546,0.09721 -0.126774,0.18835 -0.1875,0.28125 -0.09411,0.140965 -0.204921,0.275995 -0.3125,0.40625 -0.143174,0.17445 -0.303141,0.346998 -0.46875,0.5 -0.01117,0.0102 -0.01998,0.02115 -0.03125,0.03125 -0.138386,0.125556 -0.285091,0.234436 -0.4375,0.34375 -0.102571,0.07315 -0.204318,0.153364 -0.3125,0.21875 -0.0074,0.0045 -0.02384,-0.0044 -0.03125,0 -0.232039,0.138728 -0.462548,0.274778 -0.71875,0.375 0.301527,-0.0968 0.596455,-0.204138 0.875,-0.34375 0.55709,-0.279224 1.060053,-0.665694 1.5,-1.09375 0.219973,-0.214028 0.409366,-0.441865 0.59375,-0.6875 0.184384,-0.245635 0.355408,-0.507743 0.5,-0.78125 0.14012,-0.265048 0.276135,-0.524729 0.375,-0.8125 0.01041,-0.03078 0.02133,-0.06274 0.03125,-0.09375 0.09046,-0.278085 0.1388,-0.579404 0.1875,-0.875 C 89.95865,84.6507 90,84.334721 90,84 l 0,-2 0,-68 0,-2 C 90,8.676 87.324,6 84,6 L 12,6 z" /><path
       style="opacity:0.15;fill:url(#radialGradient3619);fill-opacity:1;fill-rule:nonzero;stroke:none"
       id="path3615"
       d="M 12,90 C 8.676,90 6,87.324 6,84 L 6,82 6,14 6,12 c 0,-0.334721 0.04135,-0.6507 0.09375,-0.96875 0.0487,-0.295596 0.09704,-0.596915 0.1875,-0.875 C 6.29113,10.12587 6.302142,10.09265 6.3125,10.0625 6.411365,9.774729 6.5473802,9.515048 6.6875,9.25 6.8320918,8.976493 7.0031161,8.714385 7.1875,8.46875 7.3718839,8.223115 7.5612765,7.995278 7.78125,7.78125 8.221197,7.353194 8.72416,6.966724 9.28125,6.6875 9.559795,6.547888 9.8547231,6.440553 10.15625,6.34375 9.9000482,6.443972 9.6695391,6.580022 9.4375,6.71875 c -0.00741,0.0044 -0.023866,-0.0045 -0.03125,0 -0.031933,0.0193 -0.062293,0.04251 -0.09375,0.0625 -0.120395,0.0767 -0.2310226,0.163513 -0.34375,0.25 -0.1061728,0.0808 -0.2132809,0.161112 -0.3125,0.25 C 8.4783201,7.442683 8.3087904,7.626638 8.15625,7.8125 8.0486711,7.942755 7.9378561,8.077785 7.84375,8.21875 7.818661,8.25713 7.805304,8.30462 7.78125,8.34375 7.716487,8.446782 7.6510225,8.548267 7.59375,8.65625 7.4927417,8.850956 7.3880752,9.071951 7.3125,9.28125 7.30454,9.30306 7.288911,9.3218 7.28125,9.34375 7.2494249,9.4357 7.2454455,9.530581 7.21875,9.625 7.1884177,9.731618 7.1483606,9.828031 7.125,9.9375 7.0521214,10.279012 7,10.635705 7,11 l 0,2 0,68 0,2 c 0,2.781848 2.2181517,5 5,5 l 2,0 68,0 2,0 c 2.781848,0 5,-2.218152 5,-5 l 0,-2 0,-68 0,-2 C 89,10.635705 88.94788,10.279012 88.875,9.9375 88.83085,9.730607 88.78662,9.539842 88.71875,9.34375 88.71105,9.3218 88.69545,9.30306 88.6875,9.28125 88.62476,9.107511 88.549117,8.913801 88.46875,8.75 88.42717,8.6672 88.38971,8.580046 88.34375,8.5 88.28915,8.40279 88.216976,8.31165 88.15625,8.21875 88.06214,8.077785 87.951329,7.942755 87.84375,7.8125 87.700576,7.63805 87.540609,7.465502 87.375,7.3125 87.36383,7.3023 87.35502,7.29135 87.34375,7.28125 87.205364,7.155694 87.058659,7.046814 86.90625,6.9375 86.803679,6.86435 86.701932,6.784136 86.59375,6.71875 c -0.0074,-0.0045 -0.02384,0.0044 -0.03125,0 -0.232039,-0.138728 -0.462548,-0.274778 -0.71875,-0.375 0.301527,0.0968 0.596455,0.204138 0.875,0.34375 0.55709,0.279224 1.060053,0.665694 1.5,1.09375 0.219973,0.214028 0.409366,0.441865 0.59375,0.6875 0.184384,0.245635 0.355408,0.507743 0.5,0.78125 0.14012,0.265048 0.276135,0.524729 0.375,0.8125 0.01041,0.03078 0.02133,0.06274 0.03125,0.09375 0.09046,0.278085 0.1388,0.579404 0.1875,0.875 C 89.95865,11.3493 90,11.665279 90,12 l 0,2 0,68 0,2 c 0,3.324 -2.676,6 -6,6 l -72,0 z" /></g><g
     style="display:none"
     id="layer5"><rect
       style="opacity:0.5;fill:url(#linearGradient3613);fill-opacity:1;fill-rule:nonzero;stroke:#fefefe;stroke-width:0.5;stroke-linecap:round;stroke-linejoin:miter;stroke-miterlimit:4;stroke-opacity:1;stroke-dasharray:none;stroke-dashoffset:0;filter:url(#filter3794)"
       id="rect3171"
       clip-path="url(#clipPath3613)"
       y="15"
       x="15"
       ry="12"
       rx="12"
       height="66"
       width="66" /></g><g
     id="layer3" /><g
     transform="matrix(0.42259602,0,0,0.41420149,31.836919,33.526736)"
     id="g7"
     style="fill:#000000;fill-opacity:1"><path
       style="fill:#000000;fill-opacity:1;stroke-width:0.657642"
       d="M 27.651424,107.66852 C 23.876855,105.97853 22.431786,104.08729 21.623669,99.779648 20.283691,92.636973 14.837417,88.271553 3.3183592,85.107178 -13.053227,80.609775 -18.458885,78.070377 -24.961161,71.822404 c -8.287485,-7.963359 -13.121698,-18.058109 -15.25841,-31.862439 -1.474124,-9.523665 -1.342214,-11.543472 0.98595,-15.096703 1.811244,-2.764299 4.103205,-4.0941 7.028035,-4.077676 7.146219,0.04013 8.773126,2.201771 10.128138,13.457046 2.038821,16.935362 10.745158,29.01963 10.927877,15.167746 0.02887,-2.18848 2.1885272,-10.747877 4.7992332,-19.020885 C 0.59769422,8.3720598 0.25658222,5.2491402 -10.357501,-6.2963295 -19.781633,-16.547427 -20.909509,-20.414433 -15.928174,-25.395771 c 4.874198,-4.8742 8.9437382,-3.87408 17.8100592,4.376956 10.1924818,9.48517 15.5775038,20.53340703 15.5984168,32.002688 0.01256,6.890167 0.469957,8.351919 2.383596,7.617587 1.302421,-0.499787 5.876445,-1.37411 10.164493,-1.94294 6.638665,-0.88065 8.296054,-0.534634 11.160728,2.330039 4.088849,4.08885 4.345448,9.969695 0.578936,13.268425 -1.531931,1.341677 -6.031694,2.905675 -9.999471,3.47555 C 18.154181,37.687916 9.6451502,45.566632 9.2303162,56.601257 8.9158192,64.966869 13.3793,68.544106 22.134341,66.943136 34.072389,64.760107 41.647423,57.021905 47.535659,40.994664 54.032016,23.312177 51.549596,4.9771257 39.428217,-18.886565 c -4.184279,-8.237718 -7.607785,-16.56571 -7.607785,-18.506649 0,-7.781936 11.065522,-10.304334 16.385049,-3.734992 1.676756,2.070697 4.79215,7.205553 6.923101,11.410787 l 3.874464,7.645881 6.291884,-5.38562 c 9.399584,-8.045691 23.361274,-11.467599 28.929584,-7.090429 7.350996,5.778532 2.36158,17.109917 -7.53382,17.109917 -2.95914,0 -7.12584,0.795342 -9.25933,1.767426 -6.94474,3.164233 -8.253756,8.1298325 -7.705474,29.229725 0.353095,13.588527 -0.247404,22.56651 -2.020874,30.213548 -1.387789,5.984031 -2.183391,11.219912 -1.768011,11.635299 0.415387,0.415386 3.473467,-0.645127 6.795736,-2.356699 8.811513,-4.539524 12.844863,-12.855527 14.148173,-29.170861 0.59159,-7.405797 1.78294,-14.3603718 2.64743,-15.4546109 2.27613,-2.8810366 11.551616,-2.4517056 14.118016,0.653475 3.57035,4.3199119 2.12267,24.4309629 -2.58813,35.9537879 -0.97093,2.37493 -0.2119,2.785336 5.15138,2.785336 10.49396,0 15.25095,9.040317 8.37507,15.916199 -2.482,2.482 -5.3054,3.183243 -12.81667,3.183243 -20.723036,0 -41.44246,8.026841 -49.656433,19.237235 -1.659053,2.264267 -3.412503,7.069603 -3.896561,10.678538 -0.484057,3.608929 -2.090117,7.656729 -3.569015,8.995109 -3.948837,3.57365 -11.335569,4.37317 -16.994577,1.83944 z"
       id="path7" /></g><g
     transform="matrix(0.40883912,0,0,0.40883912,32.337027,35.892021)"
     id="g6"
     style="fill:#b7cbff;fill-opacity:1"><path
       style="fill:#b7cbff;fill-opacity:1;stroke-width:0.657642"
       d="M 27.651424,107.66852 C 23.876855,105.97853 22.431786,104.08729 21.623669,99.779648 20.283691,92.636973 14.837417,88.271553 3.3183592,85.107178 -13.053227,80.609775 -18.458885,78.070377 -24.961161,71.822404 c -8.287485,-7.963359 -13.121698,-18.058109 -15.25841,-31.862439 -1.474124,-9.523665 -1.342214,-11.543472 0.98595,-15.096703 1.811244,-2.764299 4.103205,-4.0941 7.028035,-4.077676 7.146219,0.04013 8.773126,2.201771 10.128138,13.457046 2.038821,16.935362 10.745158,29.01963 10.927877,15.167746 0.02887,-2.18848 2.1885272,-10.747877 4.7992332,-19.020885 C 0.59769422,8.3720598 0.25658222,5.2491402 -10.357501,-6.2963295 -19.781633,-16.547427 -20.909509,-20.414433 -15.928174,-25.395771 c 4.874198,-4.8742 8.9437382,-3.87408 17.8100592,4.376956 10.1924818,9.48517 15.5775038,20.53340703 15.5984168,32.002688 0.01256,6.890167 0.469957,8.351919 2.383596,7.617587 1.302421,-0.499787 5.876445,-1.37411 10.164493,-1.94294 6.638665,-0.88065 8.296054,-0.534634 11.160728,2.330039 4.088849,4.08885 2.294218,11.150272 -1.472294,14.449002 -1.531931,1.341677 -6.031694,2.905675 -9.999471,3.47555 C 16.102951,38.868493 9.6451502,45.566632 9.2303162,56.601257 8.9158192,64.966869 13.3793,68.544106 22.134341,66.943136 34.072389,64.760107 41.647423,57.021905 47.535659,40.994664 54.032016,23.312177 51.549596,4.9771257 39.428217,-18.886565 c -4.184279,-8.237718 -7.607785,-16.56571 -7.607785,-18.506649 0,-7.781936 11.065522,-10.304334 16.385049,-3.734992 1.676756,2.070697 4.79215,7.205553 6.923101,11.410787 l 3.874464,7.645881 6.291884,-5.38562 c 9.399584,-8.045691 23.361274,-11.467599 28.929584,-7.090429 7.350996,5.778532 2.36158,17.109917 -7.53382,17.109917 -2.95914,0 -7.12584,0.795342 -9.25933,1.767426 -6.94474,3.164233 -8.253756,8.1298325 -7.705474,29.229725 0.353095,13.588527 -0.247404,22.56651 -2.020874,30.213548 -1.387789,5.984031 -2.183391,11.219912 -1.768011,11.635299 0.415387,0.415386 3.473467,-0.645127 6.795736,-2.356699 8.811513,-4.539524 12.844863,-12.855527 14.148173,-29.170861 0.59159,-7.405797 1.78294,-14.3603718 2.64743,-15.4546109 2.27613,-2.8810366 11.551616,-2.4517056 14.118016,0.653475 3.57035,4.3199119 2.12267,24.4309629 -2.58813,35.9537879 -0.97093,2.37493 -0.2119,2.785336 5.15138,2.785336 10.49396,0 15.25095,9.040317 8.37507,15.916199 -2.482,2.482 -5.3054,3.183243 -12.81667,3.183243 -20.723036,0 -41.44246,8.026841 -49.656433,19.237235 -1.659053,2.264267 -3.412503,7.069603 -3.896561,10.678538 -0.484057,3.608929 -2.090117,7.656729 -3.569015,8.995109 -3.948837,3.57365 -11.335569,4.37317 -16.994577,1.83944 z"
       id="path6"
       sodipodi:nodetypes="sssssssssssssssssssssssssscsssssssssssssssssss" /></g><path
     style="fill:url(#radialGradient1);fill-opacity:1;stroke-width:0.403;stroke-dasharray:none"
     d="m 43.702509,78.456027 c -1.521769,-0.681343 -2.104368,-1.443822 -2.430171,-3.180506 -0.54023,-2.879666 -2.735969,-4.639644 -7.380034,-5.915405 -6.600426,-1.813189 -8.77979,-2.836981 -11.401271,-5.355936 -3.341212,-3.210536 -5.29019,-7.280372 -6.151635,-12.845774 -0.594313,-3.839595 -0.541131,-4.653907 0.397499,-6.08644 0.730228,-1.114465 1.654263,-1.650592 2.833448,-1.643971 2.881095,0.01618 3.537004,0.887674 4.083296,5.425391 0.821978,6.82772 4.332056,11.699656 4.405721,6.115082 0.01164,-0.882315 0.882335,-4.333152 1.934876,-7.668527 2.801194,-8.876627 2.66367,-10.135674 -1.615542,-14.790386 -3.799466,-4.132869 -4.254185,-5.691905 -2.245892,-7.700199 1.965099,-1.9651 3.605789,-1.561888 7.180366,1.764629 4.109238,3.824075 6.280282,8.278321 6.288713,12.902317 0.0051,2.777864 0.18947,3.367189 0.960979,3.071133 0.525089,-0.201495 2.369169,-0.553991 4.097953,-0.783322 2.676468,-0.355046 3.344667,-0.215545 4.499599,0.939387 1.648475,1.648475 1.751926,4.019417 0.233406,5.349345 -0.617619,0.540915 -2.431759,1.171462 -4.031422,1.401215 -5.488831,0.788339 -8.919362,3.96475 -9.086608,8.413508 -0.126794,3.37271 1.672719,4.814921 5.202432,4.169469 4.812986,-0.880118 7.866963,-3.999879 10.240886,-10.461478 2.619094,-7.128934 1.618273,-14.520958 -3.268625,-24.141928 -1.686949,-3.321148 -3.067182,-6.678691 -3.067182,-7.461207 0,-3.137392 4.461215,-4.154331 6.605854,-1.505812 0.676007,0.834829 1.932021,2.905016 2.791142,4.600413 l 1.562043,3.082541 2.536658,-2.171286 c 3.78957,-3.243729 9.418414,-4.623318 11.663354,-2.858602 2.963653,2.329693 0.952103,6.898094 -3.037362,6.898094 -1.193017,0 -2.872879,0.320653 -3.733024,0.712562 -2.799866,1.275703 -3.327614,3.277652 -3.106566,11.784359 0.142355,5.478399 -0.09974,9.097994 -0.814743,12.181001 -0.559506,2.412543 -0.880264,4.52346 -0.712798,4.690929 0.167469,0.167468 1.400376,-0.260092 2.739793,-0.950135 3.552481,-1.830171 5.178581,-5.18288 5.704028,-11.760628 0.238507,-2.985747 0.718816,-5.789578 1.067347,-6.230736 0.917653,-1.161529 4.65719,-0.988438 5.691869,0.263458 1.439435,1.741631 0.855784,9.849673 -1.043439,14.495256 -0.391444,0.957485 -0.08543,1.122946 2.076848,1.122946 4.230782,0 6.148627,3.644726 3.376523,6.416831 -1.000652,1.000652 -2.138944,1.283368 -5.167214,1.283368 -8.354772,0 -16.708089,3.236129 -20.019663,7.755751 -0.66887,0.91287 -1.375797,2.850207 -1.570951,4.305198 -0.195155,1.454988 -0.842659,3.086914 -1.438897,3.6265 -1.592027,1.440765 -4.570088,1.763102 -6.851594,0.741595 z"
     id="path1" /></svg>
