<?xml version="1.0" encoding="UTF-8" standalone="no"?>
<!-- Created with Inkscape (http://www.inkscape.org/) -->

<svg
   version="1.0"
   width="96"
   height="96"
   id="svg2408"
   sodipodi:docname="cool-retro-term.svg"
   inkscape:version="1.3.2 (091e20ef0f, 2023-11-25)"
   xml:space="preserve"
   inkscape:export-filename="../16/cool-retro-term.png"
   inkscape:export-xdpi="16"
   inkscape:export-ydpi="16"
   xmlns:inkscape="http://www.inkscape.org/namespaces/inkscape"
   xmlns:sodipodi="http://sodipodi.sourceforge.net/DTD/sodipodi-0.dtd"
   xmlns:xlink="http://www.w3.org/1999/xlink"
   xmlns="http://www.w3.org/2000/svg"
   xmlns:svg="http://www.w3.org/2000/svg"
   xmlns:rdf="http://www.w3.org/1999/02/22-rdf-syntax-ns#"
   xmlns:cc="http://creativecommons.org/ns#"
   xmlns:dc="http://purl.org/dc/elements/1.1/"><sodipodi:namedview
     id="namedview1"
     pagecolor="#ffffff"
     bordercolor="#000000"
     borderopacity="0.25"
     inkscape:showpageshadow="2"
     inkscape:pageopacity="0.0"
     inkscape:pagecheckerboard="0"
     inkscape:deskcolor="#d1d1d1"
     inkscape:zoom="3.4348589"
     inkscape:cx="62.302414"
     inkscape:cy="30.860074"
     inkscape:window-width="1366"
     inkscape:window-height="704"
     inkscape:window-x="0"
     inkscape:window-y="0"
     inkscape:window-maximized="1"
     inkscape:current-layer="svg2408"
     showgrid="false" /><defs
     id="defs2410"><linearGradient
       id="linearGradient3224"><stop
         id="stop3226"
         style="stop-color:#855616;stop-opacity:1;"
         offset="0" /><stop
         id="stop3228"
         style="stop-color:#000000;stop-opacity:1"
         offset="1" /></linearGradient><linearGradient
       id="linearGradient3465"><stop
         id="stop3467"
         style="stop-color:#212121;stop-opacity:1;"
         offset="0" /><stop
         id="stop3469"
         style="stop-color:#b2b2b2;stop-opacity:1;"
         offset="1" /></linearGradient><linearGradient
       id="linearGradient3187"><stop
         id="stop3189"
         style="stop-color:#1d1d1d;stop-opacity:1;"
         offset="0" /><stop
         id="stop3191"
         style="stop-color:#696969;stop-opacity:1;"
         offset="1" /></linearGradient><linearGradient
       x1="45.447727"
       y1="92.539597"
       x2="45.447727"
       y2="7.0165396"
       id="ButtonShadow"
       gradientUnits="userSpaceOnUse"
       gradientTransform="scale(1.0058652,0.994169)"><stop
         id="stop3750"
         style="stop-color:#000000;stop-opacity:1"
         offset="0" /><stop
         id="stop3752"
         style="stop-color:#000000;stop-opacity:0.58823532"
         offset="1" /></linearGradient><linearGradient
       id="linearGradient3737"><stop
         id="stop3739"
         style="stop-color:#fefefe;stop-opacity:1"
         offset="0" /><stop
         id="stop3741"
         style="stop-color:#fefefe;stop-opacity:0"
         offset="1" /></linearGradient><filter
       color-interpolation-filters="sRGB"
       id="filter3174"
       x="-0.047720931"
       y="-0.048282354"
       width="1.0954419"
       height="1.0965647"><feGaussianBlur
         id="feGaussianBlur3176"
         stdDeviation="1.71" /></filter><linearGradient
       x1="36.357143"
       y1="6"
       x2="36.357143"
       y2="63.893143"
       id="linearGradient3188"
       xlink:href="#linearGradient3737"
       gradientUnits="userSpaceOnUse" /><linearGradient
       x1="48"
       y1="90"
       x2="48"
       y2="5.9877172"
       id="linearGradient3427"
       xlink:href="#linearGradient3187"
       gradientUnits="userSpaceOnUse" /><radialGradient
       cx="47.098362"
       cy="78.286942"
       r="38.957481"
       fx="47.098362"
       fy="78.286942"
       id="radialGradient3205"
       xlink:href="#linearGradient3224"
       gradientUnits="userSpaceOnUse"
       gradientTransform="matrix(1.3830053,-1.0350102e-8,0,1.3123934,-18.038924,-24.218731)" /><linearGradient
       x1="43.17857"
       y1="13"
       x2="43.17857"
       y2="83.294571"
       id="linearGradient3279"
       xlink:href="#linearGradient3465"
       gradientUnits="userSpaceOnUse"
       gradientTransform="matrix(1.0294118,0,0,1.0294118,-1.4117647,-1.411765)" /><linearGradient
       id="linearGradient3737-7"><stop
         id="stop3739-2"
         style="stop-color:#fefefe;stop-opacity:1"
         offset="0" /><stop
         id="stop3741-7"
         style="stop-color:#fefefe;stop-opacity:0"
         offset="1" /></linearGradient><radialGradient
       cx="48"
       cy="90.171875"
       r="42"
       fx="48"
       fy="90.171875"
       id="radialGradient2874"
       xlink:href="#linearGradient3737-7"
       gradientUnits="userSpaceOnUse"
       gradientTransform="matrix(1.1573129,0,0,0.99590774,-7.551021,0.1971319)" /><linearGradient
       id="linearGradient3737-4"><stop
         id="stop3739-8"
         style="stop-color:#fefefe;stop-opacity:1"
         offset="0" /><stop
         id="stop3741-71"
         style="stop-color:#fefefe;stop-opacity:0"
         offset="1" /></linearGradient><clipPath
       id="clipPath3613"><rect
         width="84"
         height="84"
         rx="6"
         ry="6"
         x="6"
         y="6"
         id="rect3615"
         style="fill:#fefefe;fill-opacity:1;fill-rule:nonzero;stroke:none" /></clipPath><filter
       x="-0.19578789"
       y="-0.19578789"
       width="1.3915758"
       height="1.3915758"
       color-interpolation-filters="sRGB"
       id="filter3794"><feGaussianBlur
         id="feGaussianBlur3796"
         stdDeviation="5.28" /></filter><linearGradient
       x1="48"
       y1="20.220806"
       x2="48"
       y2="138.66119"
       id="linearGradient2908"
       xlink:href="#linearGradient3737-4"
       gradientUnits="userSpaceOnUse" /><linearGradient
       x1="45.447727"
       y1="92.539597"
       x2="45.447727"
       y2="7.0165396"
       id="ButtonShadow-0"
       gradientUnits="userSpaceOnUse"
       gradientTransform="matrix(1.0058652,0,0,0.994169,100,0)"><stop
         id="stop3750-8"
         style="stop-color:#000000;stop-opacity:1"
         offset="0" /><stop
         id="stop3752-5"
         style="stop-color:#000000;stop-opacity:0.58823532"
         offset="1" /></linearGradient><linearGradient
       x1="32.251034"
       y1="6.1317081"
       x2="32.251034"
       y2="90.238609"
       id="linearGradient3780"
       xlink:href="#ButtonShadow-0"
       gradientUnits="userSpaceOnUse"
       gradientTransform="matrix(1.0238095,0,0,1.0119048,-1.1428571,-98.071429)" /><linearGradient
       x1="32.251034"
       y1="6.1317081"
       x2="32.251034"
       y2="90.238609"
       id="linearGradient3772"
       xlink:href="#ButtonShadow-0"
       gradientUnits="userSpaceOnUse"
       gradientTransform="matrix(1.0238095,0,0,1.0119048,-1.1428571,-98.071429)" /><linearGradient
       x1="32.251034"
       y1="6.1317081"
       x2="32.251034"
       y2="90.238609"
       id="linearGradient3725"
       xlink:href="#ButtonShadow-0"
       gradientUnits="userSpaceOnUse"
       gradientTransform="matrix(1.0238095,0,0,1.0119048,-1.1428571,-98.071429)" /><linearGradient
       x1="32.251034"
       y1="6.1317081"
       x2="32.251034"
       y2="90.238609"
       id="linearGradient3721"
       xlink:href="#ButtonShadow-0"
       gradientUnits="userSpaceOnUse"
       gradientTransform="translate(0,-97)" /><linearGradient
       x1="32.251034"
       y1="6.1317081"
       x2="32.251034"
       y2="90.238609"
       id="linearGradient3224-3"
       xlink:href="#ButtonShadow-0"
       gradientUnits="userSpaceOnUse"
       gradientTransform="matrix(1.0238095,0,0,1.0119048,-1.1428571,-98.071429)" /><clipPath
       clipPathUnits="userSpaceOnUse"
       id="clipPath3"><path
         d="M 12,6 C 8.676,6 6,8.676 6,12 v 72 c 0,3.324 2.676,6 6,6 h 72 c 3.324,0 6,-2.676 6,-6 V 12 C 90,8.676 87.324,6 84,6 Z m 5,7 h 62 c 2.216001,0 4,1.784 4,4 v 54 c 10e-7,2.216001 -1.784,4 -4,4 H 17 c -2.215999,10e-7 -4,-1.784 -4,-4 V 17 c 0,-2.215999 1.784,-4 4,-4 z"
         inkscape:connector-curvature="0"
         id="path4"
         style="fill:url(#linearGradient4);fill-opacity:1;fill-rule:nonzero;stroke:none"
         sodipodi:nodetypes="sssssssssssscscsss" /></clipPath><linearGradient
       inkscape:collect="always"
       xlink:href="#linearGradient3187"
       id="linearGradient4"
       gradientUnits="userSpaceOnUse"
       x1="48"
       y1="90"
       x2="48"
       y2="5.9877172" /><radialGradient
       cx="32"
       cy="14.5"
       r="26"
       fx="32"
       fy="14.5"
       id="radialGradient3907"
       xlink:href="#linearGradient3737"
       gradientUnits="userSpaceOnUse"
       gradientTransform="matrix(1,0,0,0.05769231,0,13.663462)" /><radialGradient
       cx="32"
       cy="14.5"
       r="26"
       fx="32"
       fy="14.5"
       id="radialGradient3911"
       xlink:href="#linearGradient3737"
       gradientUnits="userSpaceOnUse"
       gradientTransform="matrix(1,0,0,0.05769231,0,13.663462)" /><radialGradient
       cx="32"
       cy="14.5"
       r="26"
       fx="32"
       fy="14.5"
       id="radialGradient3915"
       xlink:href="#linearGradient3737"
       gradientUnits="userSpaceOnUse"
       gradientTransform="matrix(1,0,0,0.05769231,0,13.663462)" /><radialGradient
       cx="32"
       cy="14.5"
       r="26"
       fx="32"
       fy="14.5"
       id="radialGradient3919"
       xlink:href="#linearGradient3737"
       gradientUnits="userSpaceOnUse"
       gradientTransform="matrix(1,0,0,0.05769231,0,13.663462)" /><radialGradient
       cx="32"
       cy="14.5"
       r="26"
       fx="32"
       fy="14.5"
       id="radialGradient3923"
       xlink:href="#linearGradient3737"
       gradientUnits="userSpaceOnUse"
       gradientTransform="matrix(1,0,0,0.05769231,0,13.663462)" /><radialGradient
       cx="32"
       cy="14.5"
       r="26"
       fx="32"
       fy="14.5"
       id="radialGradient3927"
       xlink:href="#linearGradient3737"
       gradientUnits="userSpaceOnUse"
       gradientTransform="matrix(1,0,0,0.05769231,0,13.663462)" /><radialGradient
       cx="32"
       cy="14.5"
       r="26"
       fx="32"
       fy="14.5"
       id="radialGradient3931"
       xlink:href="#linearGradient3737"
       gradientUnits="userSpaceOnUse"
       gradientTransform="matrix(1,0,0,0.05769231,0,13.663462)" /><radialGradient
       cx="32"
       cy="14.5"
       r="26"
       fx="32"
       fy="14.5"
       id="radialGradient3935"
       xlink:href="#linearGradient3737"
       gradientUnits="userSpaceOnUse"
       gradientTransform="matrix(1,0,0,0.05769231,0,13.663462)" /><radialGradient
       cx="32"
       cy="14.5"
       r="26"
       fx="32"
       fy="14.5"
       id="radialGradient3939"
       xlink:href="#linearGradient3737"
       gradientUnits="userSpaceOnUse"
       gradientTransform="matrix(1,0,0,0.05769231,0,13.663462)" /><radialGradient
       cx="32"
       cy="14.5"
       r="26"
       fx="32"
       fy="14.5"
       id="radialGradient3943"
       xlink:href="#linearGradient3737"
       gradientUnits="userSpaceOnUse"
       gradientTransform="matrix(1,0,0,0.05769231,0,13.663462)" /><radialGradient
       cx="32"
       cy="14.5"
       r="26"
       fx="32"
       fy="14.5"
       id="radialGradient3947"
       xlink:href="#linearGradient3737"
       gradientUnits="userSpaceOnUse"
       gradientTransform="matrix(1,0,0,0.05769231,0,13.663462)" /><radialGradient
       cx="32"
       cy="14.5"
       r="26"
       fx="32"
       fy="14.5"
       id="radialGradient3951"
       xlink:href="#linearGradient3737"
       gradientUnits="userSpaceOnUse"
       gradientTransform="matrix(1,0,0,0.05769231,0,13.663462)" /><radialGradient
       cx="32"
       cy="14.5"
       r="26"
       fx="32"
       fy="14.5"
       id="radialGradient3955"
       xlink:href="#linearGradient3737"
       gradientUnits="userSpaceOnUse"
       gradientTransform="matrix(1,0,0,0.05769231,0,13.663462)" /><radialGradient
       cx="32"
       cy="14.5"
       r="26"
       fx="32"
       fy="14.5"
       id="radialGradient3959"
       xlink:href="#linearGradient3737"
       gradientUnits="userSpaceOnUse"
       gradientTransform="matrix(1,0,0,0.05769231,0,13.663462)" /><radialGradient
       cx="32"
       cy="14.5"
       r="26"
       fx="32"
       fy="14.5"
       id="radialGradient3963"
       xlink:href="#linearGradient3737"
       gradientUnits="userSpaceOnUse"
       gradientTransform="matrix(1,0,0,0.05769231,0,13.663462)" /><radialGradient
       cx="32"
       cy="14.5"
       r="26"
       fx="32"
       fy="14.5"
       id="radialGradient3967"
       xlink:href="#linearGradient3737"
       gradientUnits="userSpaceOnUse"
       gradientTransform="matrix(1,0,0,0.05769231,0,13.663462)" /><filter
       inkscape:collect="always"
       style="color-interpolation-filters:sRGB"
       id="filter5"
       x="-0.10581413"
       y="-0.35436583"
       width="1.2116283"
       height="1.7087317"><feGaussianBlur
         inkscape:collect="always"
         stdDeviation="2.7958527"
         id="feGaussianBlur5" /></filter></defs><metadata
     id="metadata2413"><rdf:RDF><cc:Work
         rdf:about=""><dc:format>image/svg+xml</dc:format><dc:type
           rdf:resource="http://purl.org/dc/dcmitype/StillImage" /></cc:Work></rdf:RDF></metadata><g
     id="layer2"
     style="display:none"><rect
       width="86"
       height="85"
       rx="6"
       ry="6"
       x="5"
       y="7"
       id="rect3745"
       style="opacity:0.9;fill:url(#ButtonShadow);fill-opacity:1;fill-rule:nonzero;stroke:none;filter:url(#filter3174)" /></g><g
     id="layer4"
     style="display:inline"><path
       d="m 12,-95.03125 c -5.5110903,0 -10.03125,4.52016 -10.03125,10.03125 l 0,71 c 0,5.5110902 4.5201598,10.03125 10.03125,10.03125 l 72,0 c 5.51109,0 10.03125,-4.5201597 10.03125,-10.03125 l 0,-71 c 0,-5.51109 -4.52016,-10.03125 -10.03125,-10.03125 l -72,0 z"
       transform="scale(1,-1)"
       id="path3786"
       style="opacity:0.07999998;fill:url(#linearGradient3224-3);fill-opacity:1;fill-rule:nonzero;stroke:none;display:inline" /><path
       d="m 12,-94.03125 c -4.971633,0 -9.03125,4.059617 -9.03125,9.03125 l 0,71 c 0,4.9716329 4.0596171,9.03125 9.03125,9.03125 l 72,0 c 4.971633,0 9.03125,-4.059617 9.03125,-9.03125 l 0,-71 c 0,-4.971633 -4.059617,-9.03125 -9.03125,-9.03125 l -72,0 z"
       transform="scale(1,-1)"
       id="path3778"
       style="opacity:0.1;fill:url(#linearGradient3780);fill-opacity:1;fill-rule:nonzero;stroke:none;display:inline" /><path
       d="m 12,-93 c -4.4091333,0 -8,3.590867 -8,8 l 0,71 c 0,4.4091333 3.5908667,8 8,8 l 72,0 c 4.409133,0 8,-3.5908667 8,-8 l 0,-71 c 0,-4.409133 -3.590867,-8 -8,-8 l -72,0 z"
       transform="scale(1,-1)"
       id="path3770"
       style="opacity:0.2;fill:url(#linearGradient3772);fill-opacity:1;fill-rule:nonzero;stroke:none;display:inline" /><rect
       width="86"
       height="85"
       rx="7"
       ry="7"
       x="5"
       y="-92"
       transform="scale(1,-1)"
       id="rect3723"
       style="opacity:0.3;fill:url(#linearGradient3725);fill-opacity:1;fill-rule:nonzero;stroke:none;display:inline" /><rect
       width="84"
       height="84"
       rx="6"
       ry="6"
       x="6"
       y="-91"
       transform="scale(1,-1)"
       id="rect3716"
       style="opacity:0.45;fill:url(#linearGradient3721);fill-opacity:1;fill-rule:nonzero;stroke:none;display:inline" /></g><rect
     width="77.914963"
     height="78.516495"
     rx="5.8527675"
     ry="6.1732869"
     x="8.1408806"
     y="8.2544327"
     id="rect3461"
     style="fill:url(#radialGradient3205);fill-opacity:1;stroke:none" /><path
     d="m 14,8.25 c -3.242433,0 -5.84375,2.7675 -5.84375,6.1875 V 63.5 C 26.980304,49.641102 53.967914,39.706343 86.0625,41.71875 V 14.4375 c 0,-3.420001 -2.63257,-6.1875 -5.875,-6.1875 z"
     inkscape:connector-curvature="0"
     id="rect3256"
     style="opacity:0.08;fill:#b5d781;fill-opacity:1;stroke:none" /><path
     d="m 19,13 c -3.289406,0 -6,2.710594 -6,6 v 50 c 0,3.289406 2.710594,6 6,6 h 58 c 3.28941,0 6,-2.710594 6,-6 V 19 c 0,-3.289406 -2.71059,-6 -6,-6 z m 0,4 h 58 c 1.142594,0 2,0.857406 2,2 v 50 c 0,1.142594 -0.857406,2 -2,2 H 19 c -1.142594,0 -2,-0.857406 -2,-2 V 19 c 0,-1.142594 0.857406,-2 2,-2 z"
     inkscape:connector-curvature="0"
     id="rect3222-3"
     style="color:#000000;font-style:normal;font-variant:normal;font-weight:normal;font-stretch:normal;font-size:medium;line-height:normal;font-family:'Abandoned Bitplane';-inkscape-font-specification:'Abandoned Bitplane';text-indent:0;text-align:start;text-decoration:none;text-decoration-line:none;letter-spacing:normal;word-spacing:normal;text-transform:none;writing-mode:lr-tb;direction:ltr;text-anchor:start;display:inline;overflow:visible;visibility:visible;opacity:0.15;fill:#000000;fill-opacity:1;stroke:none;stroke-width:4;marker:none;enable-background:accumulate"
     sodipodi:nodetypes="ssssssssssssssssss" /><path
     d="m 17,14 c -1.662,0 -3,1.338 -3,3 v 54 c 0,1.662 1.338,3 3,3 h 62 c 1.662,0 3,-1.338 3,-3 V 17 c 0,-1.662 -1.338,-3 -3,-3 z m 0,1.9375 h 62 c 0.618163,0 1.0625,0.444337 1.0625,1.0625 v 54 c 0,0.618163 -0.444337,1.0625 -1.0625,1.0625 H 17 c -0.618163,0 -1.0625,-0.444337 -1.0625,-1.0625 V 17 c 0,-0.618163 0.444337,-1.0625 1.0625,-1.0625 z"
     inkscape:connector-curvature="0"
     id="rect3981"
     style="color:#000000;display:inline;overflow:visible;visibility:visible;opacity:0.3;fill:#000000;fill-opacity:1;fill-rule:nonzero;stroke:none;stroke-width:1;marker:none;enable-background:accumulate"
     sodipodi:nodetypes="ssssssssssssssssss" /><path
     d="m 17,14 c -1.662,0 -3,1.338 -3,3 v 54 c 0,1.662 1.338,3 3,3 h 62 c 1.662,0 3,-1.338 3,-3 V 17 c 0,-1.662 -1.338,-3 -3,-3 z m 0,0.96875 h 62 c 1.140081,0 2.03125,0.891169 2.03125,2.03125 v 54 c 0,1.140081 -0.891169,2.03125 -2.03125,2.03125 H 17 c -1.140081,0 -2.03125,-0.891169 -2.03125,-2.03125 V 17 c 0,-1.140081 0.891169,-2.03125 2.03125,-2.03125 z"
     inkscape:connector-curvature="0"
     id="rect3977"
     style="color:#000000;display:inline;overflow:visible;visibility:visible;opacity:0.6;fill:#000000;fill-opacity:1;fill-rule:nonzero;stroke:none;stroke-width:1;marker:none;enable-background:accumulate"
     sodipodi:nodetypes="ssssssssssssssssss" /><path
     d="M 12,6 C 8.676,6 6,8.676 6,12 v 72 c 0,3.324 2.676,6 6,6 h 72 c 3.324,0 6,-2.676 6,-6 V 12 C 90,8.676 87.324,6 84,6 Z m 5,7 h 62 c 2.216001,0 4,1.784 4,4 v 54 c 10e-7,2.216001 -1.784,4 -4,4 H 17 c -2.215999,10e-7 -4,-1.784 -4,-4 V 17 c 0,-2.215999 1.784,-4 4,-4 z"
     inkscape:connector-curvature="0"
     id="rect2419"
     style="fill:url(#linearGradient3427);fill-opacity:1;fill-rule:nonzero;stroke:none"
     sodipodi:nodetypes="sssssssssssscscsss" /><path
     d="M 12,6 C 8.676,6 6,8.676 6,12 v 2 68 2 c 0,0.334721 0.04135,0.6507 0.09375,0.96875 0.0487,0.295596 0.09704,0.596915 0.1875,0.875 0.00988,0.03038 0.020892,0.0636 0.03125,0.09375 0.098865,0.287771 0.2348802,0.547452 0.375,0.8125 0.1445918,0.273507 0.3156161,0.535615 0.5,0.78125 0.1843839,0.245635 0.3737765,0.473472 0.59375,0.6875 0.439947,0.428056 0.94291,0.814526 1.5,1.09375 0.278545,0.139612 0.5734731,0.246947 0.875,0.34375 -0.2562018,-0.100222 -0.4867109,-0.236272 -0.71875,-0.375 -0.00741,-0.0044 -0.023866,0.0045 -0.03125,0 -0.031933,-0.0193 -0.062293,-0.04251 -0.09375,-0.0625 -0.120395,-0.0767 -0.2310226,-0.163513 -0.34375,-0.25 -0.1061728,-0.0808 -0.2132809,-0.161112 -0.3125,-0.25 C 8.4783201,88.557317 8.3087904,88.373362 8.15625,88.1875 8.0486711,88.057245 7.9378561,87.922215 7.84375,87.78125 7.818661,87.74287 7.805304,87.69538 7.78125,87.65625 7.716487,87.553218 7.6510225,87.451733 7.59375,87.34375 7.4927417,87.149044 7.3880752,86.928049 7.3125,86.71875 7.30454,86.69694 7.288911,86.6782 7.28125,86.65625 7.2494249,86.5643 7.2454455,86.469419 7.21875,86.375 7.1884177,86.268382 7.1483606,86.171969 7.125,86.0625 7.0521214,85.720988 7,85.364295 7,85 V 83 15 13 C 7,10.218152 9.2181517,8 12,8 h 2 68 2 c 2.781848,0 5,2.218152 5,5 v 2 68 2 c 0,0.364295 -0.05212,0.720988 -0.125,1.0625 -0.04415,0.206893 -0.08838,0.397658 -0.15625,0.59375 -0.0077,0.02195 -0.0233,0.04069 -0.03125,0.0625 -0.06274,0.173739 -0.138383,0.367449 -0.21875,0.53125 -0.04158,0.0828 -0.07904,0.169954 -0.125,0.25 -0.0546,0.09721 -0.126774,0.18835 -0.1875,0.28125 -0.09411,0.140965 -0.204921,0.275995 -0.3125,0.40625 -0.143174,0.17445 -0.303141,0.346998 -0.46875,0.5 -0.01117,0.0102 -0.01998,0.02115 -0.03125,0.03125 -0.138386,0.125556 -0.285091,0.234436 -0.4375,0.34375 -0.102571,0.07315 -0.204318,0.153364 -0.3125,0.21875 -0.0074,0.0045 -0.02384,-0.0044 -0.03125,0 -0.232039,0.138728 -0.462548,0.274778 -0.71875,0.375 0.301527,-0.0968 0.596455,-0.204138 0.875,-0.34375 0.55709,-0.279224 1.060053,-0.665694 1.5,-1.09375 0.219973,-0.214028 0.409366,-0.441865 0.59375,-0.6875 0.184384,-0.245635 0.355408,-0.507743 0.5,-0.78125 0.14012,-0.265048 0.276135,-0.524729 0.375,-0.8125 0.01041,-0.03078 0.02133,-0.06274 0.03125,-0.09375 0.09046,-0.278085 0.1388,-0.579404 0.1875,-0.875 C 89.95865,84.6507 90,84.334721 90,84 V 82 14 12 C 90,8.676 87.324,6 84,6 Z"
     inkscape:connector-curvature="0"
     id="rect3728"
     style="opacity:0.5;fill:url(#linearGradient3188);fill-opacity:1;fill-rule:nonzero;stroke:none" /><path
     d="m 17,12 c -2.752703,0 -5,2.247297 -5,5 v 54 c 0,2.752703 2.247298,5 5,5 h 62 c 2.752703,0 5.000001,-2.247297 5,-5 V 17 c 0,-2.752703 -2.247297,-5 -5,-5 z m 0,2 h 62 c 1.679298,0 3,1.320703 3,3 v 54 c 10e-7,1.679297 -1.320703,3 -3,3 H 17 c -1.679296,0 -3,-1.320703 -3,-3 V 17 c 0,-1.679297 1.320703,-3 3,-3 z"
     inkscape:connector-curvature="0"
     id="rect3425"
     style="fill:url(#linearGradient3279);fill-opacity:1;fill-rule:nonzero;stroke:none"
     sodipodi:nodetypes="ssssscsssssscsssss" /><path
     d="M 12,90 C 8.676,90 6,87.324 6,84 V 82 14 12 c 0,-0.334721 0.04135,-0.6507 0.09375,-0.96875 0.0487,-0.295596 0.09704,-0.596915 0.1875,-0.875 C 6.29113,10.12587 6.302142,10.09265 6.3125,10.0625 6.411365,9.774729 6.5473802,9.515048 6.6875,9.25 6.8320918,8.976493 7.0031161,8.714385 7.1875,8.46875 7.3718839,8.223115 7.5612765,7.995278 7.78125,7.78125 8.221197,7.353194 8.72416,6.966724 9.28125,6.6875 9.559795,6.547888 9.8547231,6.440553 10.15625,6.34375 9.9000482,6.443972 9.6695391,6.580022 9.4375,6.71875 c -0.00741,0.0044 -0.023866,-0.0045 -0.03125,0 -0.031933,0.0193 -0.062293,0.04251 -0.09375,0.0625 -0.120395,0.0767 -0.2310226,0.163513 -0.34375,0.25 -0.1061728,0.0808 -0.2132809,0.161112 -0.3125,0.25 C 8.4783201,7.442683 8.3087904,7.626638 8.15625,7.8125 8.0486711,7.942755 7.9378561,8.077785 7.84375,8.21875 7.818661,8.25713 7.805304,8.30462 7.78125,8.34375 7.716487,8.446782 7.6510225,8.548267 7.59375,8.65625 7.4927417,8.850956 7.3880752,9.071951 7.3125,9.28125 7.30454,9.30306 7.288911,9.3218 7.28125,9.34375 7.2494249,9.4357 7.2454455,9.530581 7.21875,9.625 7.1884177,9.731618 7.1483606,9.828031 7.125,9.9375 7.0521214,10.279012 7,10.635705 7,11 v 2 68 2 c 0,2.781848 2.2181517,5 5,5 h 2 68 2 c 2.781848,0 5,-2.218152 5,-5 V 81 13 11 C 89,10.635705 88.94788,10.279012 88.875,9.9375 88.83085,9.730607 88.78662,9.539842 88.71875,9.34375 88.71105,9.3218 88.69545,9.30306 88.6875,9.28125 88.62476,9.107511 88.549117,8.913801 88.46875,8.75 88.42717,8.6672 88.38971,8.580046 88.34375,8.5 88.28915,8.40279 88.216976,8.31165 88.15625,8.21875 88.06214,8.077785 87.951329,7.942755 87.84375,7.8125 87.700576,7.63805 87.540609,7.465502 87.375,7.3125 87.36383,7.3023 87.35502,7.29135 87.34375,7.28125 87.205364,7.155694 87.058659,7.046814 86.90625,6.9375 86.803679,6.86435 86.701932,6.784136 86.59375,6.71875 c -0.0074,-0.0045 -0.02384,0.0044 -0.03125,0 -0.232039,-0.138728 -0.462548,-0.274778 -0.71875,-0.375 0.301527,0.0968 0.596455,0.204138 0.875,0.34375 0.55709,0.279224 1.060053,0.665694 1.5,1.09375 0.219973,0.214028 0.409366,0.441865 0.59375,0.6875 0.184384,0.245635 0.355408,0.507743 0.5,0.78125 0.14012,0.265048 0.276135,0.524729 0.375,0.8125 0.01041,0.03078 0.02133,0.06274 0.03125,0.09375 0.09046,0.278085 0.1388,0.579404 0.1875,0.875 C 89.95865,11.3493 90,11.665279 90,12 v 2 68 2 c 0,3.324 -2.676,6 -6,6 z"
     inkscape:connector-curvature="0"
     id="path3615"
     style="opacity:0.4;fill:url(#radialGradient2874);fill-opacity:1;fill-rule:nonzero;stroke:none" /><rect
     width="66"
     height="66"
     rx="12"
     ry="12"
     x="15"
     y="15"
     clip-path="url(#clipPath3613)"
     id="rect3171"
     style="opacity:0.1;fill:url(#linearGradient2908);fill-opacity:1;fill-rule:nonzero;stroke:#fefefe;stroke-width:0.5;stroke-linecap:round;stroke-linejoin:miter;stroke-miterlimit:4;stroke-dasharray:none;stroke-dashoffset:0;stroke-opacity:1;filter:url(#filter3794)" /><g
     id="g10"
     style="opacity:0.77890072"><g
       id="g7"
       transform="translate(-4.052208,-1.1725922)"><rect
         style="opacity:1;fill:#bbffbb;fill-opacity:1;stroke-width:1.79185;stroke-linecap:round;stroke-linejoin:round"
         id="rect3"
         width="6"
         height="4"
         x="78.052208"
         y="81.464996"
         ry="1.0413615" /><rect
         style="opacity:1;fill:#000000;fill-opacity:1;stroke-width:1.79185;stroke-linecap:round;stroke-linejoin:round"
         id="rect4"
         width="6"
         height="4"
         x="78.052208"
         y="79.464996"
         ry="1.0413615" /><rect
         style="opacity:1;fill:#00ff00;fill-opacity:1;stroke-width:1.79185;stroke-linecap:round;stroke-linejoin:round"
         id="rect2"
         width="6"
         height="4"
         x="78.052208"
         y="80.465286"
         ry="1.0413615" /></g><rect
       style="opacity:1;fill:#26ff26;fill-opacity:1;stroke-width:1.79185;stroke-linecap:round;stroke-linejoin:round"
       id="rect5"
       width="6"
       height="4"
       x="66.014069"
       y="80.292404"
       ry="1.0413615" /><rect
       style="opacity:1;fill:#000000;fill-opacity:1;stroke-width:1.79185;stroke-linecap:round;stroke-linejoin:round"
       id="rect6"
       width="6"
       height="4"
       x="66.014069"
       y="78.292404"
       ry="1.0413615" /><rect
       style="opacity:1;fill:#008400;fill-opacity:1;stroke-width:1.79185;stroke-linecap:round;stroke-linejoin:round"
       id="rect7"
       width="6"
       height="4"
       x="66.014069"
       y="79.292694"
       ry="1.0413615" /><rect
       style="fill:#fff8bb;fill-opacity:1;stroke-width:1.79185;stroke-linecap:round;stroke-linejoin:round"
       id="rect8"
       width="6"
       height="4"
       x="16"
       y="80.292404"
       ry="1.0413615" /><rect
       style="fill:#000000;fill-opacity:1;stroke-width:1.79185;stroke-linecap:round;stroke-linejoin:round"
       id="rect9"
       width="6"
       height="4"
       x="16"
       y="78.292404"
       ry="1.0413615" /><rect
       style="fill:#dede00;fill-opacity:1;stroke-width:1.79185;stroke-linecap:round;stroke-linejoin:round"
       id="rect10"
       width="6"
       height="4"
       x="16"
       y="79.292694"
       ry="1.0413615" /></g><g
     id="layer7"
     style="opacity:0.5;enable-background:new"
     transform="matrix(0.77563188,0,0,0.77563188,10.661115,8.7238317)"><path
       d="m 58,14.5 a 26,1.5 0 1 1 -52,0 26,1.5 0 1 1 52,0 z"
       transform="matrix(1.576923,0,0,1,-2.4615381,-7)"
       id="path3899"
       style="color:#000000;display:inline;overflow:visible;visibility:visible;opacity:0.02;fill:url(#radialGradient3907);fill-opacity:1;fill-rule:nonzero;stroke:none;stroke-width:2;marker:none;enable-background:accumulate" /><path
       d="m 58,14.5 a 26,1.5 0 1 1 -52,0 26,1.5 0 1 1 52,0 z"
       transform="matrix(1.576923,0,0,1,-2.4615381,-2)"
       id="path3909"
       style="color:#000000;display:inline;overflow:visible;visibility:visible;opacity:0.04;fill:url(#radialGradient3911);fill-opacity:1;fill-rule:nonzero;stroke:none;stroke-width:2;marker:none;enable-background:accumulate" /><path
       d="m 58,14.5 a 26,1.5 0 1 1 -52,0 26,1.5 0 1 1 52,0 z"
       transform="matrix(1.576923,0,0,1,-2.4615381,3)"
       id="path3913"
       style="color:#000000;display:inline;overflow:visible;visibility:visible;opacity:0.06;fill:url(#radialGradient3915);fill-opacity:1;fill-rule:nonzero;stroke:none;stroke-width:2;marker:none;enable-background:accumulate" /><path
       d="m 58,14.5 a 26,1.5 0 1 1 -52,0 26,1.5 0 1 1 52,0 z"
       transform="matrix(1.576923,0,0,1,-2.4615381,8)"
       id="path3917"
       style="color:#000000;display:inline;overflow:visible;visibility:visible;opacity:0.08;fill:url(#radialGradient3919);fill-opacity:1;fill-rule:nonzero;stroke:none;stroke-width:2;marker:none;enable-background:accumulate" /><path
       d="m 58,14.5 a 26,1.5 0 1 1 -52,0 26,1.5 0 1 1 52,0 z"
       transform="matrix(1.576923,0,0,1,-2.4615381,13)"
       id="path3921"
       style="color:#000000;display:inline;overflow:visible;visibility:visible;opacity:0.1;fill:url(#radialGradient3923);fill-opacity:1;fill-rule:nonzero;stroke:none;stroke-width:2;marker:none;enable-background:accumulate" /><path
       d="m 58,14.5 a 26,1.5 0 1 1 -52,0 26,1.5 0 1 1 52,0 z"
       transform="matrix(1.576923,0,0,1,-2.4615381,18)"
       id="path3925"
       style="color:#000000;display:inline;overflow:visible;visibility:visible;opacity:0.1;fill:url(#radialGradient3927);fill-opacity:1;fill-rule:nonzero;stroke:none;stroke-width:2;marker:none;enable-background:accumulate" /><path
       d="m 58,14.5 a 26,1.5 0 1 1 -52,0 26,1.5 0 1 1 52,0 z"
       transform="matrix(1.576923,0,0,1,-2.4615381,23)"
       id="path3929"
       style="color:#000000;display:inline;overflow:visible;visibility:visible;opacity:0.1;fill:url(#radialGradient3931);fill-opacity:1;fill-rule:nonzero;stroke:none;stroke-width:2;marker:none;enable-background:accumulate" /><path
       d="m 58,14.5 a 26,1.5 0 1 1 -52,0 26,1.5 0 1 1 52,0 z"
       transform="matrix(1.576923,0,0,1,-2.4615381,28)"
       id="path3933"
       style="color:#000000;display:inline;overflow:visible;visibility:visible;opacity:0.1;fill:url(#radialGradient3935);fill-opacity:1;fill-rule:nonzero;stroke:none;stroke-width:2;marker:none;enable-background:accumulate" /><path
       d="m 58,14.5 a 26,1.5 0 1 1 -52,0 26,1.5 0 1 1 52,0 z"
       transform="matrix(1.576923,0,0,1,-2.4615381,33)"
       id="path3937"
       style="color:#000000;display:inline;overflow:visible;visibility:visible;opacity:0.1;fill:url(#radialGradient3939);fill-opacity:1;fill-rule:nonzero;stroke:none;stroke-width:2;marker:none;enable-background:accumulate" /><path
       d="m 58,14.5 a 26,1.5 0 1 1 -52,0 26,1.5 0 1 1 52,0 z"
       transform="matrix(1.576923,0,0,1,-2.4615381,38)"
       id="path3941"
       style="color:#000000;display:inline;overflow:visible;visibility:visible;opacity:0.1;fill:url(#radialGradient3943);fill-opacity:1;fill-rule:nonzero;stroke:none;stroke-width:2;marker:none;enable-background:accumulate" /><path
       d="m 58,14.5 a 26,1.5 0 1 1 -52,0 26,1.5 0 1 1 52,0 z"
       transform="matrix(1.576923,0,0,1,-2.4615381,43)"
       id="path3945"
       style="color:#000000;display:inline;overflow:visible;visibility:visible;opacity:0.1;fill:url(#radialGradient3947);fill-opacity:1;fill-rule:nonzero;stroke:none;stroke-width:2;marker:none;enable-background:accumulate" /><path
       d="m 58,14.5 a 26,1.5 0 1 1 -52,0 26,1.5 0 1 1 52,0 z"
       transform="matrix(1.576923,0,0,1,-2.4615381,48)"
       id="path3949"
       style="color:#000000;display:inline;overflow:visible;visibility:visible;opacity:0.1;fill:url(#radialGradient3951);fill-opacity:1;fill-rule:nonzero;stroke:none;stroke-width:2;marker:none;enable-background:accumulate" /><path
       d="m 58,14.5 a 26,1.5 0 1 1 -52,0 26,1.5 0 1 1 52,0 z"
       transform="matrix(1.576923,0,0,1,-2.4615381,53)"
       id="path3953"
       style="color:#000000;display:inline;overflow:visible;visibility:visible;opacity:0.08;fill:url(#radialGradient3955);fill-opacity:1;fill-rule:nonzero;stroke:none;stroke-width:2;marker:none;enable-background:accumulate" /><path
       d="m 58,14.5 a 26,1.5 0 1 1 -52,0 26,1.5 0 1 1 52,0 z"
       transform="matrix(1.576923,0,0,1,-2.4615381,58)"
       id="path3957"
       style="color:#000000;display:inline;overflow:visible;visibility:visible;opacity:0.06;fill:url(#radialGradient3959);fill-opacity:1;fill-rule:nonzero;stroke:none;stroke-width:2;marker:none;enable-background:accumulate" /><path
       d="m 58,14.5 a 26,1.5 0 1 1 -52,0 26,1.5 0 1 1 52,0 z"
       transform="matrix(1.576923,0,0,1,-2.4615381,63)"
       id="path3961"
       style="color:#000000;display:inline;overflow:visible;visibility:visible;opacity:0.04;fill:url(#radialGradient3963);fill-opacity:1;fill-rule:nonzero;stroke:none;stroke-width:2;marker:none;enable-background:accumulate" /><path
       d="m 58,14.5 a 26,1.5 0 1 1 -52,0 26,1.5 0 1 1 52,0 z"
       transform="matrix(1.576923,0,0,1,-2.4615381,68)"
       id="path3965"
       style="color:#000000;display:inline;overflow:visible;visibility:visible;opacity:0.02;fill:url(#radialGradient3967);fill-opacity:1;fill-rule:nonzero;stroke:none;stroke-width:2;marker:none;enable-background:accumulate" /></g><path
     style="font-size:22.7047px;font-family:C-64;-inkscape-font-specification:C-64;fill:#ffc800;stroke-width:2.12856;stroke-linecap:round;stroke-linejoin:round;filter:url(#filter5)"
     d="m 24.134862,48.513323 q -0.532141,0 -0.842557,-0.288243 -0.310416,-0.288244 -0.310416,-0.665177 0,-0.376934 0.310416,-0.665177 0.310416,-0.288243 0.842557,-0.288243 h 10.021997 q 0.532141,0 0.842557,0.288243 0.310416,0.288243 0.310416,0.665177 0,0.376933 -0.310416,0.665177 -0.310416,0.288243 -0.842557,0.288243 z m -2.838087,-2.838088 q -0.532142,0 -0.842557,-0.288243 -0.310416,-0.288243 -0.310416,-0.665177 0,-0.376933 0.310416,-0.665176 0.310415,-0.288244 0.842557,-0.288244 h 4.345821 q 0.532142,0 0.842558,0.288244 0.310415,0.288243 0.310415,0.665176 0,0.376934 -0.310415,0.665177 -0.310416,0.288243 -0.842558,0.288243 z m 11.35235,0 q -0.532141,0 -0.842557,-0.288243 -0.310416,-0.288243 -0.310416,-0.665177 0,-0.376933 0.310416,-0.665176 0.310416,-0.288244 0.842557,-0.288244 h 4.345822 q 0.532141,0 0.842557,0.288244 0.310416,0.288243 0.310416,0.665176 0,0.376934 -0.310416,0.665177 -0.310416,0.288243 -0.842557,0.288243 z m -11.35235,-2.838087 q -0.532142,0 -0.842557,-0.288243 -0.310416,-0.288244 -0.310416,-0.665177 0,-0.376934 0.310416,-0.665177 0.310415,-0.288243 0.842557,-0.288243 h 4.345821 q 0.532142,0 0.842558,0.288243 0.310415,0.288243 0.310415,0.665177 0,0.376933 -0.310415,0.665177 -0.310416,0.288243 -0.842558,0.288243 z m 0,-2.838088 q -0.532142,0 -0.842557,-0.288243 -0.310416,-0.288243 -0.310416,-0.665177 0,-0.376933 0.310416,-0.665177 0.310415,-0.288243 0.842557,-0.288243 h 4.345821 q 0.532142,0 0.842558,0.288243 0.310415,0.288244 0.310415,0.665177 0,0.376934 -0.310415,0.665177 -0.310416,0.288243 -0.842558,0.288243 z m 0,-2.838087 q -0.532142,0 -0.842557,-0.288244 -0.310416,-0.288243 -0.310416,-0.665176 0,-0.376934 0.310416,-0.665177 0.310415,-0.288243 0.842557,-0.288243 h 4.345821 q 0.532142,0 0.842558,0.288243 0.310415,0.288243 0.310415,0.665177 0,0.376933 -0.310415,0.665176 -0.310416,0.288244 -0.842558,0.288244 z m 0,-2.838088 q -0.532142,0 -0.842557,-0.288243 -0.310416,-0.288243 -0.310416,-0.665177 0,-0.376933 0.310416,-0.665177 0.310415,-0.288243 0.842557,-0.288243 h 4.345821 q 0.532142,0 0.842558,0.288243 0.310415,0.288244 0.310415,0.665177 0,0.376934 -0.310415,0.665177 -0.310416,0.288243 -0.842558,0.288243 z m 11.35235,0 q -0.532141,0 -0.842557,-0.288243 -0.310416,-0.288243 -0.310416,-0.665177 0,-0.376933 0.310416,-0.665177 0.310416,-0.288243 0.842557,-0.288243 h 4.345822 q 0.532141,0 0.842557,0.288243 0.310416,0.288244 0.310416,0.665177 0,0.376934 -0.310416,0.665177 -0.310416,0.288243 -0.842557,0.288243 z m -8.514263,-2.838087 q -0.532141,0 -0.842557,-0.288244 -0.310416,-0.288243 -0.310416,-0.665176 0,-0.376934 0.310416,-0.665177 0.310416,-0.288243 0.842557,-0.288243 h 10.021997 q 0.532141,0 0.842557,0.288243 0.310416,0.288243 0.310416,0.665177 0,0.376933 -0.310416,0.665176 -0.310416,0.288244 -0.842557,0.288244 z m 19.866613,17.028525 q -0.532141,0 -0.842557,-0.288243 -0.310416,-0.288244 -0.310416,-0.665177 0,-0.376934 0.310416,-0.665177 0.310416,-0.288243 0.842557,-0.288243 h 4.345822 q 0.532141,0 0.842557,0.288243 0.310416,0.288243 0.310416,0.665177 0,0.376933 -0.310416,0.665177 -0.310416,0.288243 -0.842557,0.288243 z m 11.35235,0 q -0.532141,0 -0.842557,-0.288243 -0.310416,-0.288244 -0.310416,-0.665177 0,-0.376934 0.310416,-0.665177 0.310416,-0.288243 0.842557,-0.288243 h 4.345822 q 0.532141,0 0.842557,0.288243 0.310416,0.288243 0.310416,0.665177 0,0.376933 -0.310416,0.665177 -0.310416,0.288243 -0.842557,0.288243 z m -11.35235,-2.838088 q -0.532141,0 -0.842557,-0.288243 -0.310416,-0.288243 -0.310416,-0.665177 0,-0.376933 0.310416,-0.665176 0.310416,-0.288244 0.842557,-0.288244 h 4.345822 q 0.532141,0 0.842557,0.288244 0.310416,0.288243 0.310416,0.665176 0,0.376934 -0.310416,0.665177 -0.310416,0.288243 -0.842557,0.288243 z m 8.514263,0 q -0.532142,0 -0.842557,-0.288243 -0.310416,-0.288243 -0.310416,-0.665177 0,-0.376933 0.310416,-0.665176 0.310415,-0.288244 0.842557,-0.288244 h 4.345821 q 0.532142,0 0.842558,0.288244 0.310416,0.288243 0.310416,0.665176 0,0.376934 -0.310416,0.665177 -0.310416,0.288243 -0.842558,0.288243 z m -8.514263,-2.838087 q -0.532141,0 -0.842557,-0.288243 -0.310416,-0.288244 -0.310416,-0.665177 0,-0.376934 0.310416,-0.665177 0.310416,-0.288243 0.842557,-0.288243 h 10.021997 q 0.532141,0 0.842557,0.288243 0.310416,0.288243 0.310416,0.665177 0,0.376933 -0.310416,0.665177 -0.310416,0.288243 -0.842557,0.288243 z m 0,-2.838088 q -0.532141,0 -0.842557,-0.288243 -0.310416,-0.288243 -0.310416,-0.665177 0,-0.376933 0.310416,-0.665177 0.310416,-0.288243 0.842557,-0.288243 h 12.860084 q 0.532142,0 0.842558,0.288243 0.310416,0.288244 0.310416,0.665177 0,0.376934 -0.310416,0.665177 -0.310416,0.288243 -0.842558,0.288243 z m 0,-2.838087 q -0.532141,0 -0.842557,-0.288244 -0.310416,-0.288243 -0.310416,-0.665176 0,-0.376934 0.310416,-0.665177 0.310416,-0.288243 0.842557,-0.288243 h 4.345822 q 0.532141,0 0.842557,0.288243 0.310416,0.288243 0.310416,0.665177 0,0.376933 -0.310416,0.665176 -0.310416,0.288244 -0.842557,0.288244 z m 11.35235,0 q -0.532141,0 -0.842557,-0.288244 -0.310416,-0.288243 -0.310416,-0.665176 0,-0.376934 0.310416,-0.665177 0.310416,-0.288243 0.842557,-0.288243 h 4.345822 q 0.532141,0 0.842557,0.288243 0.310416,0.288243 0.310416,0.665177 0,0.376933 -0.310416,0.665176 -0.310416,0.288244 -0.842557,0.288244 z m -11.35235,-2.838088 q -0.532141,0 -0.842557,-0.288243 -0.310416,-0.288243 -0.310416,-0.665177 0,-0.376933 0.310416,-0.665177 0.310416,-0.288243 0.842557,-0.288243 h 4.345822 q 0.532141,0 0.842557,0.288243 0.310416,0.288244 0.310416,0.665177 0,0.376934 -0.310416,0.665177 -0.310416,0.288243 -0.842557,0.288243 z m 11.35235,0 q -0.532141,0 -0.842557,-0.288243 -0.310416,-0.288243 -0.310416,-0.665177 0,-0.376933 0.310416,-0.665177 0.310416,-0.288243 0.842557,-0.288243 h 4.345822 q 0.532141,0 0.842557,0.288243 0.310416,0.288244 0.310416,0.665177 0,0.376934 -0.310416,0.665177 -0.310416,0.288243 -0.842557,0.288243 z m -11.35235,-2.838087 q -0.532141,0 -0.842557,-0.288244 -0.310416,-0.288243 -0.310416,-0.665176 0,-0.376934 0.310416,-0.665177 0.310416,-0.288243 0.842557,-0.288243 h 12.860084 q 0.532142,0 0.842558,0.288243 0.310416,0.288243 0.310416,0.665177 0,0.376933 -0.310416,0.665176 -0.310416,0.288244 -0.842558,0.288244 z m 28.380876,17.028525 q -0.532142,0 -0.842557,-0.288243 -0.310416,-0.288244 -0.310416,-0.665177 0,-0.376934 0.310416,-0.665177 0.310415,-0.288243 0.842557,-0.288243 h 4.345821 q 0.532142,0 0.842558,0.288243 0.310415,0.288243 0.310415,0.665177 0,0.376933 -0.310415,0.665177 -0.310416,0.288243 -0.842558,0.288243 z m 0,-2.838088 q -0.532142,0 -0.842557,-0.288243 -0.310416,-0.288243 -0.310416,-0.665177 0,-0.376933 0.310416,-0.665176 0.310415,-0.288244 0.842557,-0.288244 h 4.345821 q 0.532142,0 0.842558,0.288244 0.310415,0.288243 0.310415,0.665176 0,0.376934 -0.310415,0.665177 -0.310416,0.288243 -0.842558,0.288243 z m 0,-2.838087 q -0.532142,0 -0.842557,-0.288243 -0.310416,-0.288244 -0.310416,-0.665177 0,-0.376934 0.310416,-0.665177 0.310415,-0.288243 0.842557,-0.288243 h 4.345821 q 0.532142,0 0.842558,0.288243 0.310415,0.288243 0.310415,0.665177 0,0.376933 -0.310415,0.665177 -0.310416,0.288243 -0.842558,0.288243 z m 0,-2.838088 q -0.532142,0 -0.842557,-0.288243 -0.310416,-0.288243 -0.310416,-0.665177 0,-0.376933 0.310416,-0.665177 0.310415,-0.288243 0.842557,-0.288243 h 4.345821 q 0.532142,0 0.842558,0.288243 0.310415,0.288244 0.310415,0.665177 0,0.376934 -0.310415,0.665177 -0.310416,0.288243 -0.842558,0.288243 z m 0,-2.838087 q -0.532142,0 -0.842557,-0.288244 -0.310416,-0.288243 -0.310416,-0.665176 0,-0.376934 0.310416,-0.665177 0.310415,-0.288243 0.842557,-0.288243 h 4.345821 q 0.532142,0 0.842558,0.288243 0.310415,0.288243 0.310415,0.665177 0,0.376933 -0.310415,0.665176 -0.310416,0.288244 -0.842558,0.288244 z m 0,-2.838088 q -0.532142,0 -0.842557,-0.288243 -0.310416,-0.288243 -0.310416,-0.665177 0,-0.376933 0.310416,-0.665177 0.310415,-0.288243 0.842557,-0.288243 h 4.345821 q 0.532142,0 0.842558,0.288243 0.310415,0.288244 0.310415,0.665177 0,0.376934 -0.310415,0.665177 -0.310416,0.288243 -0.842558,0.288243 z m -5.676175,-2.838087 q -0.532142,0 -0.842558,-0.288244 -0.310415,-0.288243 -0.310415,-0.665176 0,-0.376934 0.310415,-0.665177 0.310416,-0.288243 0.842558,-0.288243 h 15.698172 q 0.532141,0 0.842557,0.288243 0.310416,0.288243 0.310416,0.665177 0,0.376933 -0.310416,0.665176 -0.310416,0.288244 -0.842557,0.288244 z"
     id="text5"
     transform="matrix(0.92607632,0,0,1.0798246,0.35988153,0)"
     aria-label="CRT" /><path
     style="font-size:22.7047px;font-family:C-64;-inkscape-font-specification:C-64;fill:#ffcf21;stroke-width:2.12856;stroke-linecap:round;stroke-linejoin:round"
     d="m 24.523471,48.513323 q -0.532141,0 -0.842557,-0.288243 -0.310416,-0.288244 -0.310416,-0.665177 0,-0.376934 0.310416,-0.665177 0.310416,-0.288243 0.842557,-0.288243 h 10.021997 q 0.532141,0 0.842557,0.288243 0.310416,0.288243 0.310416,0.665177 0,0.376933 -0.310416,0.665177 -0.310416,0.288243 -0.842557,0.288243 z m -2.838087,-2.838088 q -0.532142,0 -0.842558,-0.288243 -0.310415,-0.288243 -0.310415,-0.665177 0,-0.376933 0.310415,-0.665176 0.310416,-0.288244 0.842558,-0.288244 h 4.345821 q 0.532142,0 0.842558,0.288244 0.310415,0.288243 0.310415,0.665176 0,0.376934 -0.310415,0.665177 -0.310416,0.288243 -0.842558,0.288243 z m 11.35235,0 q -0.532141,0 -0.842557,-0.288243 -0.310416,-0.288243 -0.310416,-0.665177 0,-0.376933 0.310416,-0.665176 0.310416,-0.288244 0.842557,-0.288244 h 4.345822 q 0.532141,0 0.842557,0.288244 0.310416,0.288243 0.310416,0.665176 0,0.376934 -0.310416,0.665177 -0.310416,0.288243 -0.842557,0.288243 z m -11.35235,-2.838087 q -0.532142,0 -0.842558,-0.288243 -0.310415,-0.288244 -0.310415,-0.665177 0,-0.376934 0.310415,-0.665177 0.310416,-0.288243 0.842558,-0.288243 h 4.345821 q 0.532142,0 0.842558,0.288243 0.310415,0.288243 0.310415,0.665177 0,0.376933 -0.310415,0.665177 -0.310416,0.288243 -0.842558,0.288243 z m 0,-2.838088 q -0.532142,0 -0.842558,-0.288243 -0.310415,-0.288243 -0.310415,-0.665177 0,-0.376933 0.310415,-0.665177 0.310416,-0.288243 0.842558,-0.288243 h 4.345821 q 0.532142,0 0.842558,0.288243 0.310415,0.288244 0.310415,0.665177 0,0.376934 -0.310415,0.665177 -0.310416,0.288243 -0.842558,0.288243 z m 0,-2.838087 q -0.532142,0 -0.842558,-0.288244 -0.310415,-0.288243 -0.310415,-0.665176 0,-0.376934 0.310415,-0.665177 0.310416,-0.288243 0.842558,-0.288243 h 4.345821 q 0.532142,0 0.842558,0.288243 0.310415,0.288243 0.310415,0.665177 0,0.376933 -0.310415,0.665176 -0.310416,0.288244 -0.842558,0.288244 z m 0,-2.838088 q -0.532142,0 -0.842558,-0.288243 -0.310415,-0.288243 -0.310415,-0.665177 0,-0.376933 0.310415,-0.665177 0.310416,-0.288243 0.842558,-0.288243 h 4.345821 q 0.532142,0 0.842558,0.288243 0.310415,0.288244 0.310415,0.665177 0,0.376934 -0.310415,0.665177 -0.310416,0.288243 -0.842558,0.288243 z m 11.35235,0 q -0.532141,0 -0.842557,-0.288243 -0.310416,-0.288243 -0.310416,-0.665177 0,-0.376933 0.310416,-0.665177 0.310416,-0.288243 0.842557,-0.288243 h 4.345822 q 0.532141,0 0.842557,0.288243 0.310416,0.288244 0.310416,0.665177 0,0.376934 -0.310416,0.665177 -0.310416,0.288243 -0.842557,0.288243 z m -8.514263,-2.838087 q -0.532141,0 -0.842557,-0.288244 -0.310416,-0.288243 -0.310416,-0.665176 0,-0.376934 0.310416,-0.665177 0.310416,-0.288243 0.842557,-0.288243 h 10.021997 q 0.532141,0 0.842557,0.288243 0.310416,0.288243 0.310416,0.665177 0,0.376933 -0.310416,0.665176 -0.310416,0.288244 -0.842557,0.288244 z m 19.866613,17.028525 q -0.532141,0 -0.842557,-0.288243 -0.310416,-0.288244 -0.310416,-0.665177 0,-0.376934 0.310416,-0.665177 0.310416,-0.288243 0.842557,-0.288243 h 4.345822 q 0.532141,0 0.842557,0.288243 0.310416,0.288243 0.310416,0.665177 0,0.376933 -0.310416,0.665177 -0.310416,0.288243 -0.842557,0.288243 z m 11.35235,0 q -0.532141,0 -0.842557,-0.288243 -0.310416,-0.288244 -0.310416,-0.665177 0,-0.376934 0.310416,-0.665177 0.310416,-0.288243 0.842557,-0.288243 h 4.345822 q 0.532141,0 0.842557,0.288243 0.310416,0.288243 0.310416,0.665177 0,0.376933 -0.310416,0.665177 -0.310416,0.288243 -0.842557,0.288243 z m -11.35235,-2.838088 q -0.532141,0 -0.842557,-0.288243 -0.310416,-0.288243 -0.310416,-0.665177 0,-0.376933 0.310416,-0.665176 0.310416,-0.288244 0.842557,-0.288244 h 4.345822 q 0.532141,0 0.842557,0.288244 0.310416,0.288243 0.310416,0.665176 0,0.376934 -0.310416,0.665177 -0.310416,0.288243 -0.842557,0.288243 z m 8.514263,0 q -0.532142,0 -0.842557,-0.288243 -0.310416,-0.288243 -0.310416,-0.665177 0,-0.376933 0.310416,-0.665176 0.310415,-0.288244 0.842557,-0.288244 h 4.345821 q 0.532142,0 0.842558,0.288244 0.310415,0.288243 0.310415,0.665176 0,0.376934 -0.310415,0.665177 -0.310416,0.288243 -0.842558,0.288243 z m -8.514263,-2.838087 q -0.532141,0 -0.842557,-0.288243 -0.310416,-0.288244 -0.310416,-0.665177 0,-0.376934 0.310416,-0.665177 0.310416,-0.288243 0.842557,-0.288243 h 10.021997 q 0.532141,0 0.842557,0.288243 0.310416,0.288243 0.310416,0.665177 0,0.376933 -0.310416,0.665177 -0.310416,0.288243 -0.842557,0.288243 z m 0,-2.838088 q -0.532141,0 -0.842557,-0.288243 -0.310416,-0.288243 -0.310416,-0.665177 0,-0.376933 0.310416,-0.665177 0.310416,-0.288243 0.842557,-0.288243 h 12.860084 q 0.532142,0 0.842558,0.288243 0.310415,0.288244 0.310415,0.665177 0,0.376934 -0.310415,0.665177 -0.310416,0.288243 -0.842558,0.288243 z m 0,-2.838087 q -0.532141,0 -0.842557,-0.288244 -0.310416,-0.288243 -0.310416,-0.665176 0,-0.376934 0.310416,-0.665177 0.310416,-0.288243 0.842557,-0.288243 h 4.345822 q 0.532141,0 0.842557,0.288243 0.310416,0.288243 0.310416,0.665177 0,0.376933 -0.310416,0.665176 -0.310416,0.288244 -0.842557,0.288244 z m 11.35235,0 q -0.532141,0 -0.842557,-0.288244 -0.310416,-0.288243 -0.310416,-0.665176 0,-0.376934 0.310416,-0.665177 0.310416,-0.288243 0.842557,-0.288243 h 4.345822 q 0.532141,0 0.842557,0.288243 0.310416,0.288243 0.310416,0.665177 0,0.376933 -0.310416,0.665176 -0.310416,0.288244 -0.842557,0.288244 z m -11.35235,-2.838088 q -0.532141,0 -0.842557,-0.288243 -0.310416,-0.288243 -0.310416,-0.665177 0,-0.376933 0.310416,-0.665177 0.310416,-0.288243 0.842557,-0.288243 h 4.345822 q 0.532141,0 0.842557,0.288243 0.310416,0.288244 0.310416,0.665177 0,0.376934 -0.310416,0.665177 -0.310416,0.288243 -0.842557,0.288243 z m 11.35235,0 q -0.532141,0 -0.842557,-0.288243 -0.310416,-0.288243 -0.310416,-0.665177 0,-0.376933 0.310416,-0.665177 0.310416,-0.288243 0.842557,-0.288243 h 4.345822 q 0.532141,0 0.842557,0.288243 0.310416,0.288244 0.310416,0.665177 0,0.376934 -0.310416,0.665177 -0.310416,0.288243 -0.842557,0.288243 z m -11.35235,-2.838087 q -0.532141,0 -0.842557,-0.288244 -0.310416,-0.288243 -0.310416,-0.665176 0,-0.376934 0.310416,-0.665177 0.310416,-0.288243 0.842557,-0.288243 h 12.860084 q 0.532142,0 0.842558,0.288243 0.310415,0.288243 0.310415,0.665177 0,0.376933 -0.310415,0.665176 -0.310416,0.288244 -0.842558,0.288244 z M 72.77096,48.513323 q -0.532142,0 -0.842557,-0.288243 -0.310416,-0.288244 -0.310416,-0.665177 0,-0.376934 0.310416,-0.665177 0.310415,-0.288243 0.842557,-0.288243 h 4.345821 q 0.532142,0 0.842558,0.288243 0.310415,0.288243 0.310415,0.665177 0,0.376933 -0.310415,0.665177 -0.310416,0.288243 -0.842558,0.288243 z m 0,-2.838088 q -0.532142,0 -0.842557,-0.288243 -0.310416,-0.288243 -0.310416,-0.665177 0,-0.376933 0.310416,-0.665176 0.310415,-0.288244 0.842557,-0.288244 h 4.345821 q 0.532142,0 0.842558,0.288244 0.310415,0.288243 0.310415,0.665176 0,0.376934 -0.310415,0.665177 -0.310416,0.288243 -0.842558,0.288243 z m 0,-2.838087 q -0.532142,0 -0.842557,-0.288243 -0.310416,-0.288244 -0.310416,-0.665177 0,-0.376934 0.310416,-0.665177 0.310415,-0.288243 0.842557,-0.288243 h 4.345821 q 0.532142,0 0.842558,0.288243 0.310415,0.288243 0.310415,0.665177 0,0.376933 -0.310415,0.665177 -0.310416,0.288243 -0.842558,0.288243 z m 0,-2.838088 q -0.532142,0 -0.842557,-0.288243 -0.310416,-0.288243 -0.310416,-0.665177 0,-0.376933 0.310416,-0.665177 0.310415,-0.288243 0.842557,-0.288243 h 4.345821 q 0.532142,0 0.842558,0.288243 0.310415,0.288244 0.310415,0.665177 0,0.376934 -0.310415,0.665177 -0.310416,0.288243 -0.842558,0.288243 z m 0,-2.838087 q -0.532142,0 -0.842557,-0.288244 -0.310416,-0.288243 -0.310416,-0.665176 0,-0.376934 0.310416,-0.665177 0.310415,-0.288243 0.842557,-0.288243 h 4.345821 q 0.532142,0 0.842558,0.288243 0.310415,0.288243 0.310415,0.665177 0,0.376933 -0.310415,0.665176 -0.310416,0.288244 -0.842558,0.288244 z m 0,-2.838088 q -0.532142,0 -0.842557,-0.288243 -0.310416,-0.288243 -0.310416,-0.665177 0,-0.376933 0.310416,-0.665177 0.310415,-0.288243 0.842557,-0.288243 h 4.345821 q 0.532142,0 0.842558,0.288243 0.310415,0.288244 0.310415,0.665177 0,0.376934 -0.310415,0.665177 -0.310416,0.288243 -0.842558,0.288243 z m -5.676175,-2.838087 q -0.532142,0 -0.842558,-0.288244 -0.310415,-0.288243 -0.310415,-0.665176 0,-0.376934 0.310415,-0.665177 0.310416,-0.288243 0.842558,-0.288243 h 15.698171 q 0.532142,0 0.842558,0.288243 0.310416,0.288243 0.310416,0.665177 0,0.376933 -0.310416,0.665176 -0.310416,0.288244 -0.842558,0.288244 z"
     id="text4"
     transform="scale(0.92607632,1.0798246)"
     aria-label="CRT" /></svg>
