<?xml version="1.0" encoding="UTF-8" standalone="no"?>
<svg
   xmlns:dc="http://purl.org/dc/elements/1.1/"
   xmlns:cc="http://creativecommons.org/ns#"
   xmlns:rdf="http://www.w3.org/1999/02/22-rdf-syntax-ns#"
   xmlns:svg="http://www.w3.org/2000/svg"
   xmlns="http://www.w3.org/2000/svg"
   xmlns:xlink="http://www.w3.org/1999/xlink"
   xmlns:sodipodi="http://sodipodi.sourceforge.net/DTD/sodipodi-0.dtd"
   xmlns:inkscape="http://www.inkscape.org/namespaces/inkscape"
   version="1.0"
   width="22"
   height="22"
   id="svg2408"
   sodipodi:docname="bookmark-missing.svg"
   inkscape:version="0.92.2 5c3e80d, 2017-08-06">
  <sodipodi:namedview
     pagecolor="#ffffff"
     bordercolor="#666666"
     borderopacity="1"
     objecttolerance="10"
     gridtolerance="10"
     guidetolerance="10"
     inkscape:pageopacity="0"
     inkscape:pageshadow="2"
     inkscape:window-width="1920"
     inkscape:window-height="1011"
     id="namedview71"
     showgrid="false"
     inkscape:zoom="9.8333331"
     inkscape:cx="12.255267"
     inkscape:cy="-6.0234666"
     inkscape:window-x="0"
     inkscape:window-y="32"
     inkscape:window-maximized="1"
     inkscape:current-layer="svg2408" />
  <defs
     id="defs2410">
    <linearGradient
       id="linearGradient4008">
      <stop
         id="stop4010"
         style="stop-color:#d2d2d2;stop-opacity:1"
         offset="0" />
      <stop
         id="stop4012"
         style="stop-color:#aaaaaa;stop-opacity:1"
         offset="0.71691591" />
      <stop
         id="stop4014"
         style="stop-color:#808080;stop-opacity:1"
         offset="1" />
    </linearGradient>
    <linearGradient
       id="linearGradient3874">
      <stop
         id="stop3876"
         style="stop-color:#ffffff;stop-opacity:1"
         offset="0" />
      <stop
         id="stop3878"
         style="stop-color:#ffffff;stop-opacity:0"
         offset="1" />
    </linearGradient>
    <linearGradient
       x1="11.794092"
       y1="3.2126782"
       x2="11.794092"
       y2="20.137329"
       id="linearGradient3317"
       gradientUnits="userSpaceOnUse"
       gradientTransform="scale(1.0598527,0.9435274)">
      <stop
         id="stop3319"
         style="stop-color:#c6953a;stop-opacity:1"
         offset="0" />
      <stop
         id="stop3321"
         style="stop-color:#ab7a1f;stop-opacity:1"
         offset="1" />
    </linearGradient>
    <linearGradient
       x1="48.035713"
       y1="25.910715"
       x2="48.035713"
       y2="85.821426"
       id="linearGradient3361"
       xlink:href="#linearGradient3317"
       gradientUnits="userSpaceOnUse" />
    <linearGradient
       id="linearGradient3187">
      <stop
         id="stop3189"
         style="stop-color:#b0b0b0;stop-opacity:1"
         offset="0" />
      <stop
         id="stop3191"
         style="stop-color:#d7d7d7;stop-opacity:1"
         offset="1" />
    </linearGradient>
    <linearGradient
       x1="45.447727"
       y1="80.471962"
       x2="45.447727"
       y2="7.0165396"
       id="ButtonShadow"
       gradientUnits="userSpaceOnUse"
       gradientTransform="matrix(1.0058652,0,0,0.994169,0,12)">
      <stop
         id="stop3750"
         style="stop-color:#000000;stop-opacity:1"
         offset="0" />
      <stop
         id="stop3752"
         style="stop-color:#000000;stop-opacity:0.58823532"
         offset="1" />
    </linearGradient>
    <linearGradient
       x1="48"
       y1="78"
       x2="48"
       y2="5.9877172"
       id="linearGradient3706"
       xlink:href="#linearGradient3187"
       gradientUnits="userSpaceOnUse"
       gradientTransform="translate(0,8)" />
    <filter
       id="filter3174"
       style="color-interpolation-filters:sRGB">
      <feGaussianBlur
         id="feGaussianBlur3176"
         stdDeviation="1.71" />
    </filter>
    <linearGradient
       x1="45.447727"
       y1="80.471962"
       x2="45.447727"
       y2="5.297224"
       id="linearGradient3664"
       xlink:href="#ButtonShadow"
       gradientUnits="userSpaceOnUse"
       gradientTransform="matrix(1.0058652,0,0,0.994169,0,12)" />
    <clipPath
       id="clipPath3860">
      <rect
         width="84"
         height="72"
         rx="6"
         ry="6"
         x="6"
         y="18"
         id="rect3862"
         style="fill:#ff00ff;fill-opacity:1;fill-rule:nonzero;stroke:none" />
    </clipPath>
    <filter
       x="-0.16558799"
       y="-0.19715989"
       width="1.331176"
       height="1.3943198"
       id="filter3870"
       style="color-interpolation-filters:sRGB">
      <feGaussianBlur
         id="feGaussianBlur3872"
         stdDeviation="5.1703125" />
    </filter>
    <linearGradient
       id="linearGradient3699">
      <stop
         id="stop3701"
         style="stop-color:#aa7932;stop-opacity:0.78431374"
         offset="0" />
      <stop
         id="stop3703"
         style="stop-color:#aa7932;stop-opacity:0.39215687"
         offset="1" />
    </linearGradient>
    <linearGradient
       x1="48.021698"
       y1="22.933374"
       x2="48.021698"
       y2="81.481377"
       id="linearGradient3123"
       xlink:href="#linearGradient3874"
       gradientUnits="userSpaceOnUse" />
    <linearGradient
       x1="34.85965"
       y1="16.275133"
       x2="34.85965"
       y2="26.986736"
       id="linearGradient3105"
       xlink:href="#linearGradient4008"
       gradientUnits="userSpaceOnUse"
       gradientTransform="matrix(0.72,0,0,0.72,1.92,-5.52)" />
    <linearGradient
       x1="43"
       y1="91"
       x2="43"
       y2="7"
       id="linearGradient3952"
       xlink:href="#ButtonShadow"
       gradientUnits="userSpaceOnUse" />
    <linearGradient
       x1="45"
       y1="92"
       x2="45"
       y2="7"
       id="linearGradient3961"
       xlink:href="#ButtonShadow"
       gradientUnits="userSpaceOnUse" />
    <linearGradient
       x1="45"
       y1="92"
       x2="45"
       y2="7"
       id="linearGradient3969"
       xlink:href="#ButtonShadow"
       gradientUnits="userSpaceOnUse" />
    <linearGradient
       x1="45"
       y1="92"
       x2="45"
       y2="7"
       id="linearGradient3977"
       xlink:href="#ButtonShadow"
       gradientUnits="userSpaceOnUse" />
    <linearGradient
       x1="45"
       y1="92"
       x2="45"
       y2="7"
       id="linearGradient3986"
       xlink:href="#ButtonShadow"
       gradientUnits="userSpaceOnUse" />
    <linearGradient
       x1="56"
       y1="76"
       x2="56"
       y2="32"
       id="linearGradient3087"
       xlink:href="#linearGradient3699"
       gradientUnits="userSpaceOnUse"
       gradientTransform="translate(68,-1)" />
    <linearGradient
       x1="56"
       y1="76"
       x2="56"
       y2="32"
       id="linearGradient3975"
       xlink:href="#linearGradient3699"
       gradientUnits="userSpaceOnUse"
       gradientTransform="translate(0,-2)" />
    <linearGradient
       x1="56"
       y1="76"
       x2="56"
       y2="32"
       id="linearGradient3989"
       xlink:href="#linearGradient3699"
       gradientUnits="userSpaceOnUse"
       gradientTransform="translate(0,-1)" />
    <linearGradient
       x1="56"
       y1="76"
       x2="56"
       y2="32"
       id="linearGradient4002"
       xlink:href="#linearGradient3699"
       gradientUnits="userSpaceOnUse"
       gradientTransform="translate(0,-1)" />
    <radialGradient
       cx="48"
       cy="90.171875"
       r="42"
       fx="48"
       fy="90.171875"
       id="radialGradient2874"
       xlink:href="#linearGradient3737-5"
       gradientUnits="userSpaceOnUse"
       gradientTransform="matrix(1.1573129,0,0,0.99590774,-7.551021,0.197132)" />
    <linearGradient
       id="linearGradient3737-5">
      <stop
         id="stop3739-0"
         style="stop-color:#ffffff;stop-opacity:1"
         offset="0" />
      <stop
         id="stop3741-4"
         style="stop-color:#ffffff;stop-opacity:0"
         offset="1" />
    </linearGradient>
    <linearGradient
       id="linearGradient3737">
      <stop
         id="stop3739"
         style="stop-color:#ffffff;stop-opacity:1"
         offset="0" />
      <stop
         id="stop3741"
         style="stop-color:#ffffff;stop-opacity:0"
         offset="1" />
    </linearGradient>
    <linearGradient
       x1="36.357143"
       y1="16"
       x2="36.357143"
       y2="73.994667"
       id="linearGradient3916"
       xlink:href="#linearGradient3737"
       gradientUnits="userSpaceOnUse" />
    <linearGradient
       x1="48.071056"
       y1="73.765587"
       x2="48.071056"
       y2="32.397678"
       id="linearGradient3248"
       xlink:href="#linearGradient3699"
       gradientUnits="userSpaceOnUse" />
    <linearGradient
       y2="32.185188"
       x2="45.76516"
       y1="75.814552"
       x1="45.76516"
       gradientTransform="matrix(1.0741685,0,0,1.0741471,66.931894,-6.104644)"
       gradientUnits="userSpaceOnUse"
       id="linearGradient916"
       xlink:href="#linearGradient3699" />
    <linearGradient
       y2="31.732052"
       x2="51.551208"
       y1="75.56765"
       x1="51.551208"
       gradientTransform="translate(0,-2)"
       gradientUnits="userSpaceOnUse"
       id="linearGradient916-5"
       xlink:href="#linearGradient3699" />
    <linearGradient
       y2="33.892994"
       x2="55"
       y1="76"
       x1="55"
       gradientTransform="translate(0,-2)"
       gradientUnits="userSpaceOnUse"
       id="linearGradient916-0"
       xlink:href="#linearGradient3699" />
    <linearGradient
       y2="39.990356"
       x2="127.99561"
       y1="272.01312"
       x1="127.99561"
       gradientTransform="matrix(0.20233772,0,0,0.1982564,51.216902,-21.10758)"
       gradientUnits="userSpaceOnUse"
       id="linearGradient916-2"
       xlink:href="#linearGradient3699" />
    <linearGradient
       y2="1.8331841"
       x2="8.9154778"
       y1="18.868902"
       x1="8.9154778"
       gradientTransform="matrix(2.5842336,0,0,2.5842336,48.042045,22.38318)"
       gradientUnits="userSpaceOnUse"
       id="linearGradient916-8"
       xlink:href="#linearGradient3699" />
    <linearGradient
       y2="45.017357"
       x2="20.758585"
       y1="1"
       x1="20.758585"
       gradientTransform="matrix(1.0232529,0,0,-1.0232529,23.441936,75.534881)"
       gradientUnits="userSpaceOnUse"
       id="linearGradient916-29"
       xlink:href="#linearGradient3699" />
    <linearGradient
       gradientTransform="matrix(0.7053571,0,0,0.7053571,34.928572,10.589288)"
       gradientUnits="userSpaceOnUse"
       xlink:href="#linearGradient3179-1"
       id="linearGradient2600"
       y2="96.024994"
       x2="45.5"
       y1="0.48100731"
       x1="45.5" />
    <linearGradient
       id="linearGradient3179-1">
      <stop
         offset="0"
         style="stop-color:#000000;stop-opacity:0.56910568"
         id="stop3181-3" />
      <stop
         offset="0.07017544"
         style="stop-color:#000000;stop-opacity:0"
         id="stop3187-1" />
      <stop
         offset="0.20271669"
         style="stop-color:#750202;stop-opacity:0.09019608"
         id="stop3194-1" />
      <stop
         offset="0.26648945"
         style="stop-color:#e47b04;stop-opacity:0.13725491"
         id="stop3200-0" />
      <stop
         offset="0.35024518"
         style="stop-color:#ffc906;stop-opacity:0.18431373"
         id="stop3190-3" />
      <stop
         offset="0.43899667"
         style="stop-color:#b76403;stop-opacity:0.13725489"
         id="stop3198-4" />
      <stop
         offset="0.49777371"
         style="stop-color:#700000;stop-opacity:0.09019608"
         id="stop3192-0" />
      <stop
         offset="0.65896344"
         style="stop-color:#fda100;stop-opacity:0.19215687"
         id="stop3196-3" />
      <stop
         offset="1"
         style="stop-color:#7c0000;stop-opacity:0.60975611"
         id="stop3183-9" />
    </linearGradient>
    <linearGradient
       gradientTransform="matrix(0.7053571,0,0,0.7053571,34.928572,10.589286)"
       gradientUnits="userSpaceOnUse"
       xlink:href="#linearGradient3948-58"
       id="linearGradient2600-2"
       y2="96.024994"
       x2="45.5"
       y1="0.48100731"
       x1="45.5" />
    <linearGradient
       id="linearGradient3948-58">
      <stop
         offset="0"
         style="stop-color:#000000;stop-opacity:0.56910568"
         id="stop3950-6" />
      <stop
         offset="0.07017544"
         style="stop-color:#000000;stop-opacity:0"
         id="stop3952-2" />
      <stop
         offset="0.20271669"
         style="stop-color:#3c3c3c;stop-opacity:0.09019608"
         id="stop3954-8" />
      <stop
         offset="0.26648945"
         style="stop-color:#888888;stop-opacity:0.13725491"
         id="stop3956-4" />
      <stop
         offset="0.35024518"
         style="stop-color:#bbbbbb;stop-opacity:0.18431373"
         id="stop3958-7" />
      <stop
         offset="0.43899667"
         style="stop-color:#757575;stop-opacity:0.13725489"
         id="stop3960-2" />
      <stop
         offset="0.49777371"
         style="stop-color:#383838;stop-opacity:0.09019608"
         id="stop3962-4" />
      <stop
         offset="0.65896344"
         style="stop-color:#8a8a8a;stop-opacity:0.19215687"
         id="stop3964-0" />
      <stop
         offset="1"
         style="stop-color:#292929;stop-opacity:0.60975611"
         id="stop3966-6" />
    </linearGradient>
  </defs>
  <metadata
     id="metadata2413">
    <rdf:RDF>
      <cc:Work
         rdf:about="">
        <dc:format>image/svg+xml</dc:format>
        <dc:type
           rdf:resource="http://purl.org/dc/dcmitype/StillImage" />
        <dc:title></dc:title>
      </cc:Work>
    </rdf:RDF>
  </metadata>
  <g
     id="layer2"
     style="display:none"
     transform="translate(0,-74)">
    <path
       d="M 14.96875,8.8028918 C 13.32891,8.8028918 12,10.085142 12,11.677892 V 19 c -3.324,0 -7,2.676 -7,6 v 61 c 0,3.324 2.676,6 6,6 h 74 c 3.324,0 6,-2.676 6,-6 V 25 c 0,-3.324 -3.74743,-6 -7.07143,-6 v -0.134608 c 0,-2.389125 -1.97774,-4.3125 -4.4375,-4.3125 H 36.15625 l -1.46875,-2.875 C 33.95414,10.253293 33.35859,8.8028918 31.71875,8.8028918 Z"
       id="rect3745"
       style="opacity:0.9;fill:url(#linearGradient3664);fill-opacity:1;fill-rule:nonzero;stroke:none;filter:url(#filter3174)"
       inkscape:connector-curvature="0" />
  </g>
  <g
     id="g909"
     transform="matrix(0.23913043,0,0,0.23913043,0,-0.12239085)">
    <g
       style="display:inline"
       id="layer4"
       transform="translate(-2)">
      <path
         style="display:inline;opacity:0.07999998;fill:url(#linearGradient3986);fill-opacity:1;fill-rule:nonzero;stroke:none"
         id="path3984"
         d="M 14.125,4 C 9.6910704,4 6,7.568413 6,12 v 2.15625 C 3.6235961,15.958367 2,18.759045 2,22 v 63 c 0,5.503629 4.496371,10 10,10 h 72 c 5.503629,0 10,-4.496371 10,-10 V 22 C 94,18.516601 92.146607,15.546894 89.46875,13.78125 88.481551,10.491738 85.526024,8 81.875,8 h -39.5 C 40.972352,6.645177 39.835329,5.4903784 38.6875,4.84375 37.192287,4.0014231 35.756649,4.0295412 34.875,4 a 0.92780092,0.92780092 0 0 0 -0.03125,0 c -0.0012,-1.73e-5 -0.03009,-1.73e-5 -0.03125,0 h -0.03125 z"
         inkscape:connector-curvature="0" />
      <path
         style="display:inline;opacity:0.1;fill:url(#linearGradient3977);fill-opacity:1;fill-rule:nonzero;stroke:none"
         id="path3975"
         d="M 14.125,4.9375 C 10.184407,4.9375 6.9375,8.0807925 6.9375,12 v 2.59375 c -2.3826099,1.622076 -4,4.293928 -4,7.40625 v 63 c 0,5.001444 4.0610559,9.0625 9.0625,9.0625 h 72 c 5.001444,0 9.0625,-4.061056 9.0625,-9.0625 V 22 c 0,-3.260846 -1.77319,-6.039741 -4.34375,-7.625 C 87.957559,11.279325 85.241489,8.9375 81.875,8.9375 H 42.0625 C 40.465021,7.3963057 39.290438,6.2599842 38.21875,5.65625 36.945571,4.9390059 35.771277,4.9685784 34.84375,4.9375 a 1.043776,1.043776 0 0 0 -0.03125,0 c -10e-7,0 -0.03125,0 -0.03125,0 z"
         inkscape:connector-curvature="0" />
      <path
         style="display:inline;opacity:0.2;fill:url(#linearGradient3969);fill-opacity:1;fill-rule:nonzero;stroke:none"
         id="path3967"
         d="M 14.125,5.96875 C 10.736326,5.96875 7.96875,8.6567706 7.96875,12 v 3.125 c -2.3751432,1.394016 -4,3.920462 -4,6.875 v 63 c 0,4.438141 3.5931086,8.03125 8.03125,8.03125 h 72 c 4.438141,0 8.03125,-3.593109 8.03125,-8.03125 V 22 c 0,-3.031992 -1.712245,-5.604362 -4.1875,-6.96875 C 87.351857,12.17163 84.915107,9.96875 81.875,9.96875 H 41.6875 C 39.852667,8.1939079 38.678863,7.1033787 37.71875,6.5625 36.681475,5.9781523 35.778304,6.0011109 34.8125,5.96875 a 1.043776,1.043776 0 0 0 -0.03125,0 z"
         inkscape:connector-curvature="0" />
      <path
         style="display:inline;opacity:0.3;fill:url(#linearGradient3961);fill-opacity:1;fill-rule:nonzero;stroke:none"
         id="path3908-1"
         d="M 14.125,7 C 11.282105,7 9,9.23 9,12 v 3.6875 C 6.6359408,16.808884 5,19.200342 5,22 v 63 c 0,3.878 3.122,7 7,7 h 72 c 3.878,0 7,-3.122 7,-7 V 22 C 91,19.190264 89.346632,16.803629 86.96875,15.6875 86.799101,13.069075 84.606585,11 81.875,11 H 41.28125 c -4.220528,-4.1123102 -4.502768,-3.9330794 -6.5,-4 z"
         inkscape:connector-curvature="0" />
      <path
         style="display:inline;opacity:0.45;fill:url(#linearGradient3952);fill-opacity:1;fill-rule:nonzero;stroke:none"
         id="path3941"
         d="m 15,7 c -2.77,0 -5,2.23 -5,5 v 3.34375 C 7.6664933,16.164656 6,18.378887 6,21 v 64 c 0,3.324 2.676,6 6,6 h 72 c 3.324,0 6,-2.676 6,-6 V 21 C 90,18.358112 88.300137,16.148775 85.9375,15.34375 85.611464,12.893448 83.542274,11 81,11 H 40.46875 C 36.35644,6.8876898 36.102271,7.0669206 34.15625,7 Z"
         inkscape:connector-curvature="0" />
    </g>
    <g
       style="display:inline"
       id="layer3"
       transform="translate(-2)">
      <rect
         style="display:inline;fill:url(#linearGradient3361);fill-opacity:1;fill-rule:nonzero;stroke:none"
         id="rect3352"
         y="23.142857"
         x="10.535714"
         ry="6"
         rx="6"
         height="62.678574"
         width="75" />
      <path
         style="display:inline;fill:url(#linearGradient3105);fill-opacity:1;fill-rule:nonzero;stroke:none"
         id="path3908"
         d="m 15,6 c -2.77,0 -5,1.8136439 -5,4.583644 V 70.8125 c 0,2.39328 1.91922,4.3125 4.3125,4.3125 h 67.375 C 84.08078,75.125 86,73.20578 86,70.8125 V 15 C 86,12.23 83.77,9.5836439 81,9.5836439 H 40.46875 C 36.35644,5.4713337 36.102271,6.0669206 34.15625,6 Z"
         inkscape:connector-curvature="0"
         sodipodi:nodetypes="ssssssssccs" />
      <path
         style="display:inline;opacity:0.2;fill:#ffffff;fill-opacity:1;fill-rule:nonzero;stroke:none"
         id="path3108"
         d="m 15,5.1630984 c -2.77,0 -5,2.23 -5,4.9999996 V 70.8125 c 0,2.39328 1.91922,4.3125 4.3125,4.3125 h 67.375 c 2.393276,0 4.312496,-1.91922 4.312496,-4.3125 V 14.163098 c 0,-2.77 -2.23,-4.9999996 -4.999996,-4.9999996 H 40.46875 c -4.11231,-4.1123102 -4.366479,-3.9330794 -6.3125,-4 z M 15,7.580735 H 34.15625 35 c 0,0 2.675558,1.7568077 4.71875,3.8 0.202648,0.189762 0.472545,0.409724 0.75,0.4 L 81,11.580735 c 2.209832,-0.0109 3.968746,1.790141 3.968746,4 V 70.8125 c 0,1.835319 -1.44593,3.28125 -3.281246,3.28125 h -67.375 c -1.835319,0 -3.28125,-1.445931 -3.28125,-3.28125 V 11.580735 c 0,-2.2098586 1.761721,-3.888206 3.96875,-4 z"
         inkscape:connector-curvature="0"
         sodipodi:nodetypes="ssssssssccsccccccssssssc" />
    </g>
    <g
       style="display:inline"
       id="layer1"
       transform="translate(-2)">
      <path
         style="fill:url(#linearGradient3706);fill-opacity:1;fill-rule:nonzero;stroke:none"
         d="m 12,13.954371 h 72 c 3.324,0 6,2.676 6,6 V 83 c 0,3.324 -2.676,6 -6,6 H 12 C 8.676,89 6,86.324 6,83 V 19.954371 c 0,-3.324 2.676,-6 6,-6 z"
         id="rect2419"
         inkscape:connector-curvature="0"
         sodipodi:nodetypes="sssssssss" />
      <path
         style="display:inline;opacity:0.35;fill:url(#linearGradient3916);fill-opacity:1;fill-rule:nonzero;stroke:none"
         id="rect3728"
         d="m 12,13.954371 c -3.324,0 -6,2.676 -6,6 V 23 82 84 c 0,0.334721 0.04135,0.6507 0.09375,0.96875 0.0487,0.295596 0.09704,0.596915 0.1875,0.875 0.00988,0.03038 0.020892,0.0636 0.03125,0.09375 0.098865,0.287771 0.2348802,0.547452 0.375,0.8125 0.1445918,0.273507 0.3156161,0.535615 0.5,0.78125 0.1843839,0.245635 0.3737765,0.473472 0.59375,0.6875 0.439947,0.428056 0.94291,0.814526 1.5,1.09375 0.278545,0.139612 0.5734731,0.246947 0.875,0.34375 -0.2562018,-0.100222 -0.4867109,-0.236272 -0.71875,-0.375 -0.00741,-0.0044 -0.023866,0.0045 -0.03125,0 -0.031933,-0.0193 -0.062293,-0.04251 -0.09375,-0.0625 -0.120395,-0.0767 -0.2310226,-0.163513 -0.34375,-0.25 -0.1061728,-0.0808 -0.2132809,-0.161112 -0.3125,-0.25 C 8.4783201,88.557317 8.3087904,88.373362 8.15625,88.1875 8.0486711,88.057245 7.9378561,87.922215 7.84375,87.78125 7.818661,87.74287 7.805304,87.69538 7.78125,87.65625 7.716487,87.553218 7.6510225,87.451733 7.59375,87.34375 7.4927417,87.149044 7.3880752,86.928049 7.3125,86.71875 7.30454,86.69694 7.288911,86.6782 7.28125,86.65625 7.2494249,86.5643 7.2454455,86.469419 7.21875,86.375 7.1884177,86.268382 7.1483606,86.171969 7.125,86.0625 7.0521214,85.720988 7,85.364295 7,85 v -2 -57.966538 -2 c 0,-2.781848 2.2181517,-5 5,-5 h 2 68 2 c 2.781848,0 5,2.218152 5,5 v 2 V 83 85 c 0,0.364295 -0.05212,0.720988 -0.125,1.0625 -0.04415,0.206893 -0.08838,0.397658 -0.15625,0.59375 -0.0077,0.02195 -0.0233,0.04069 -0.03125,0.0625 -0.06274,0.173739 -0.138383,0.367449 -0.21875,0.53125 -0.04158,0.0828 -0.07904,0.169954 -0.125,0.25 -0.0546,0.09721 -0.126774,0.18835 -0.1875,0.28125 -0.09411,0.140965 -0.204921,0.275995 -0.3125,0.40625 -0.143174,0.17445 -0.303141,0.346998 -0.46875,0.5 -0.01117,0.0102 -0.01998,0.02115 -0.03125,0.03125 -0.138386,0.125556 -0.285091,0.234436 -0.4375,0.34375 -0.102571,0.07315 -0.204318,0.153364 -0.3125,0.21875 -0.0074,0.0045 -0.02384,-0.0044 -0.03125,0 -0.232039,0.138728 -0.462548,0.274778 -0.71875,0.375 0.301527,-0.0968 0.596455,-0.204138 0.875,-0.34375 0.55709,-0.279224 1.060053,-0.665694 1.5,-1.09375 0.219973,-0.214028 0.409366,-0.441865 0.59375,-0.6875 0.184384,-0.245635 0.355408,-0.507743 0.5,-0.78125 0.14012,-0.265048 0.276135,-0.524729 0.375,-0.8125 0.01041,-0.03078 0.02133,-0.06274 0.03125,-0.09375 0.09046,-0.278085 0.1388,-0.579404 0.1875,-0.875 C 89.95865,84.6507 90,84.334721 90,84 V 82 23 19.954371 c 0,-3.324 -2.676,-6 -6,-6 z"
         inkscape:connector-curvature="0"
         sodipodi:nodetypes="ssccscccsssscccccccccccccssccssccssccscccccccccccccscsscccsccsss" />
      <path
         style="display:inline;opacity:0.2;fill:url(#radialGradient2874);fill-opacity:1;fill-rule:nonzero;stroke:none"
         id="path3615"
         d="M 12,89 C 8.676,89 6,86.324 6,83 V 81 26 24 c 0,-0.334721 0.04135,-0.6507 0.09375,-0.96875 0.0487,-0.295596 0.09704,-0.596915 0.1875,-0.875 0.00988,-0.03038 0.020892,-0.0636 0.03125,-0.09375 0.098865,-0.287771 0.2348802,-0.547452 0.375,-0.8125 0.1445918,-0.273507 0.3156161,-0.535615 0.5,-0.78125 0.1843839,-0.245635 0.3737765,-0.473472 0.59375,-0.6875 0.439947,-0.428056 0.94291,-0.814526 1.5,-1.09375 0.278545,-0.139612 0.5734731,-0.246947 0.875,-0.34375 -0.2562018,0.100222 -0.4867109,0.236272 -0.71875,0.375 -0.00741,0.0044 -0.023866,-0.0045 -0.03125,0 -0.031933,0.0193 -0.062293,0.04251 -0.09375,0.0625 -0.120395,0.0767 -0.2310226,0.163513 -0.34375,0.25 -0.1061728,0.0808 -0.2132809,0.161112 -0.3125,0.25 -0.1779299,0.161433 -0.3474596,0.345388 -0.5,0.53125 -0.1075789,0.130255 -0.2183939,0.265285 -0.3125,0.40625 -0.025089,0.03838 -0.038446,0.08587 -0.0625,0.125 -0.064763,0.103032 -0.1302275,0.204517 -0.1875,0.3125 -0.1010083,0.194706 -0.2056748,0.415701 -0.28125,0.625 C 7.30454,21.30306 7.288911,21.3218 7.28125,21.34375 7.2494249,21.4357 7.2454455,21.530581 7.21875,21.625 7.1884177,21.731618 7.1483606,21.828031 7.125,21.9375 7.0521214,22.279012 7,22.635705 7,23 v 2 55 2 c 0,2.781848 2.2181517,5 5,5 h 2 68 2 c 2.781848,0 5,-2.218152 5,-5 V 80 25 23 c 0,-0.364295 -0.05212,-0.720988 -0.125,-1.0625 -0.04415,-0.206893 -0.08838,-0.397658 -0.15625,-0.59375 -0.0077,-0.02195 -0.0233,-0.04069 -0.03125,-0.0625 -0.06274,-0.173739 -0.138383,-0.367449 -0.21875,-0.53125 -0.04158,-0.0828 -0.07904,-0.169954 -0.125,-0.25 -0.0546,-0.09721 -0.126774,-0.18835 -0.1875,-0.28125 -0.09411,-0.140965 -0.204921,-0.275995 -0.3125,-0.40625 -0.143174,-0.17445 -0.303141,-0.346998 -0.46875,-0.5 -0.01117,-0.0102 -0.01998,-0.02115 -0.03125,-0.03125 -0.138386,-0.125556 -0.285091,-0.234436 -0.4375,-0.34375 -0.102571,-0.07315 -0.204318,-0.153364 -0.3125,-0.21875 -0.0074,-0.0045 -0.02384,0.0044 -0.03125,0 -0.232039,-0.138728 -0.462548,-0.274778 -0.71875,-0.375 0.301527,0.0968 0.596455,0.204138 0.875,0.34375 0.55709,0.279224 1.060053,0.665694 1.5,1.09375 0.219973,0.214028 0.409366,0.441865 0.59375,0.6875 0.184384,0.245635 0.355408,0.507743 0.5,0.78125 0.14012,0.265048 0.276135,0.524729 0.375,0.8125 0.01041,0.03078 0.02133,0.06274 0.03125,0.09375 0.09046,0.278085 0.1388,0.579404 0.1875,0.875 C 89.95865,23.3493 90,23.665279 90,24 v 2 55 2 c 0,3.324 -2.676,6 -6,6 z"
         inkscape:connector-curvature="0" />
    </g>
    <g
       style="display:inline"
       id="layer5"
       transform="translate(-2)">
      <path
         style="opacity:0.15;fill:url(#linearGradient3123);fill-opacity:1;fill-rule:nonzero;stroke:none;filter:url(#filter3870)"
         id="path3850"
         clip-path="url(#clipPath3860)"
         d="m 15.96875,22.53125 c -2.845903,0.0043 -5.433244,2.591597 -5.4375,5.4375 v 48.0625 c 0.0043,2.845903 2.591597,5.433244 5.4375,5.4375 h 64.0625 c 2.845903,-0.0043 5.433244,-2.591597 5.4375,-5.4375 v -48.0625 c -0.0043,-2.845903 -2.591597,-5.433244 -5.4375,-5.4375 z"
         inkscape:connector-curvature="0" />
    </g>
  </g>
  <g
     transform="matrix(0.47337171,0,0,0.47337171,54.353158,-25.789808)"
     id="layer6" />
  <g
     id="layer6-75"
     transform="matrix(0.24615328,0,0,0.24615328,26.063642,-0.46078415)">
    <g
       id="layer6-7"
       transform="matrix(1.0417387,0,0,1.0304901,-113.1312,-0.16064398)">
      <g
         id="layer6-9"
         transform="matrix(1.8460263,0,0,1.8661771,82.032719,-34.303051)">
        <g
           id="layer6-7-1"
           transform="matrix(1.0620766,0,0,1.1037458,-121.98522,10.861785)">
          <g
             id="layer6-6"
             transform="matrix(0.94155165,0,0,0.9060057,210.34469,-51.838222)">
            <g
               id="layer6-8"
               transform="translate(-145.2387,18.836649)">
              <g
                 id="layer6-7-7"
                 transform="matrix(1.0550603,0,0,1.0554271,-122.04217,3.5641247)">
                <g
                   transform="matrix(0.94781313,0,0,0.94748372,146.77455,-44.829017)"
                   id="layer6-759">
                  <g
                     id="layer6-0"
                     transform="matrix(0.49999998,0,0,0.49999998,23.524748,90.272783)">
                    <g
                       id="layer6-3"
                       transform="matrix(1.0014835,0,0,1.0307649,-111.14397,-0.15215838)">
                      <path
                         inkscape:connector-curvature="0"
                         style="display:inline;opacity:0.05;fill:#000000;fill-opacity:1;stroke:none"
                         id="path3859"
                         d="M 77.78125,9.96875 C 77.511159,9.95839 77.222552,9.96395 76.90625,10 c -0.04514,0.0051 -0.07898,-0.0068 -0.125,0 h -22.875 A 0.94004249,0.94004249 0 0 0 53.75,10 c -0.08984,0.01423 -0.120369,0.04227 -0.1875,0.0625 H 53 c -2.166473,0 -3.9375,1.771027 -3.9375,3.9375 v 0.03125 A 0.94004249,0.94004249 0 0 0 50,14.96875 h 2.8125 c 0.249076,0.17452 0.441516,0.298856 0.59375,0.34375 v 63.71875 c -0.0411,2.60924 3.725096,3.563855 5,1.34375 L 58.4375,80.40625 58.5,80.3125 68.09375,66.75 c 3.356911,4.701517 6.65743,9.468984 10.09375,14.125 A 0.94004249,0.94004249 0 0 0 78.28125,81 c 1.748203,1.702311 4.750796,0.02545 4.5,-2.3125 h 0.03125 c -3.3e-5,-0.05208 3.3e-5,-0.10417 0,-0.15625 -0.01346,-21.373809 0.01674,-42.748507 -0.03125,-64.125 a 0.94004249,0.94004249 0 0 0 0,-0.0625 c -0.20656,-2.660968 -2.628403,-4.284103 -5,-4.375 z M 53,11 H 53.96875 77 c 1.662,0 3,1.338 3,3 v 0.03125 l 0.0625,50.15625 v 12 2.125 L 68.09375,61.375 l -12,16.9375 V 64.1875 19 H 56 V 14.03125 H 50 V 14 c 0,-1.662 1.338,-3 3,-3 z" />
                      <path
                         inkscape:connector-curvature="0"
                         style="display:inline;opacity:0.1;fill:#000000;fill-opacity:1;stroke:none"
                         id="path3850-2"
                         d="m 77.75,10.90625 c -0.283533,-0.01087 -0.563718,-0.01023 -0.84375,0.03125 h -23 C 53.818221,10.951447 53.760159,10.97401 53.6875,11 h 0.28125 22 H 77 c 1.662,0 3,1.338 3,3 l 0.0625,50.1875 v 12 2.125 L 68.09375,61.375 l -12,16.9375 V 64.1875 19 H 56 v -5 c 0,-1.475879 -1.068604,-2.682677 -2.46875,-2.9375 -0.01026,-0.0019 -0.02095,0.0018 -0.03125,0 -0.790565,0.463361 -0.423519,1.814633 -0.46875,2.625 0.05117,1.001443 1.631401,0.542638 1.3125,1.59375 v 63.75 c -0.02695,1.711107 2.531695,2.367536 3.3125,0.84375 l 10.4375,-14.75 c 3.626016,5.049757 7.162777,10.199994 10.84375,15.1875 1.150285,1.120089 3.208531,-0.07211 2.9375,-1.625 -0.01371,-21.427172 0.01685,-42.854971 -0.03125,-64.28125 -0.164674,-2.121381 -2.109022,-3.423931 -4.09375,-3.5 z" />
                      <path
                         inkscape:connector-curvature="0"
                         style="display:inline;opacity:0.15;fill:#000000;fill-opacity:1;stroke:none"
                         id="path3846"
                         d="M 54,11.9375 V 13.5 c 0.764674,0 1.34375,0.56165 1.34375,1.3125 V 64.90625 79 A 0.77798469,0.77798469 0 0 0 56.75,79.4375 L 68.09375,63.40625 79.46875,79.4375 A 0.77798469,0.77798469 0 0 0 80.875,79 v -2.09375 -12 -50.09375 c 0,-1.020336 -0.538002,-1.896286 -1.34375,-2.40625 C 79.821776,12.868499 80,13.411473 80,14 l 0.0625,50.1875 v 12 2.125 L 68.09375,61.375 l -12,16.9375 V 64.1875 19 H 56 v -5 c 0,-0.799226 -0.306441,-1.525882 -0.8125,-2.0625 z" />
                      <path
                         inkscape:connector-curvature="0"
                         style="display:inline;opacity:0.3;fill:#000000;fill-opacity:1;stroke:none"
                         id="path3202"
                         d="m 54,12.71875 c 0.947348,0 1.728584,0.613562 2,1.46875 V 14 c 0,-0.464936 -0.125282,-0.889223 -0.3125,-1.28125 z m 26,1.5 0.0625,49.96875 v 12 2.125 L 68.09375,61.375 56.125,78.28125 V 79 L 68.09375,62.09375 80.09375,79 v -2.09375 -12 -50.09375 c 0,-0.214658 -0.03485,-0.398808 -0.09375,-0.59375 z" />
                      <path
                         inkscape:connector-curvature="0"
                         style="display:inline;fill:#646464;fill-opacity:1;stroke:none"
                         id="rect3204"
                         d="m 53,11 c 1.662,0 3,1.338 3,3 v 5 h 0.09375 v 45.1875 14.125 l 12,-16.9375 11.96875,16.9375 v -2.125 -12 L 80,14 c 0,-1.662 -1.338,-3 -3,-3 h -1.03125 -22 z" />
                      <path
                         inkscape:connector-curvature="0"
                         style="display:inline;fill:#828282;fill-opacity:1;stroke:none"
                         id="path3173"
                         d="M 54.875,11 C 56.047304,11 58,11.282513 58,13.125 V 71.59375 L 68.09375,58 l 9.875,13.59375 V 13.125 C 77.968726,11.952697 77.016054,11 75.84375,11 H 73.875 C 75.0473,11 76,11.952697 76,13.125 V 65.6875 L 68.09375,54.375 59.9375,65.6875 V 13.125 C 59.9375,11.148621 57.984804,11 56.8125,11 Z" />
                      <path
                         inkscape:connector-curvature="0"
                         style="display:inline;fill:#323232;fill-opacity:1;stroke:none"
                         id="rect3196"
                         d="m 53,11 c -1.662,0 -3,1.338 -3,3 v 0.03125 h 6 V 14 c 0,-1.662 -1.338,-3 -3,-3 z" />
                      <path
                         inkscape:connector-curvature="0"
                         style="display:inline;fill:url(#linearGradient2600-2);fill-opacity:1;stroke:none"
                         id="path3177"
                         d="m 53,11 c 1.662,0 3,1.338 3,3 v 5 h 0.0937 v 45.1875 14.125 l 12,-16.9375 11.96875,16.9375 v -2.125 -12 L 80,14 C 80,12.404025 78.75722,11.131797 77.1875,11.03125 77.11988,11.012462 77.06373,11.00275 77,11 H 53.96875 Z" />
                    </g>
                  </g>
                </g>
              </g>
            </g>
          </g>
        </g>
      </g>
    </g>
  </g>
</svg>
