<?xml version="1.0" encoding="UTF-8" standalone="no"?>
<svg
   xmlns:dc="http://purl.org/dc/elements/1.1/"
   xmlns:cc="http://creativecommons.org/ns#"
   xmlns:rdf="http://www.w3.org/1999/02/22-rdf-syntax-ns#"
   xmlns:svg="http://www.w3.org/2000/svg"
   xmlns="http://www.w3.org/2000/svg"
   xmlns:xlink="http://www.w3.org/1999/xlink"
   xmlns:sodipodi="http://sodipodi.sourceforge.net/DTD/sodipodi-0.dtd"
   xmlns:inkscape="http://www.inkscape.org/namespaces/inkscape"
   id="svg2408"
   height="32"
   width="32"
   version="1.0"
   sodipodi:docname="folder-pictures.svg"
   inkscape:version="0.92.2 5c3e80d, 2017-08-06">
  <sodipodi:namedview
     pagecolor="#ffffff"
     bordercolor="#666666"
     borderopacity="1"
     objecttolerance="10"
     gridtolerance="10"
     guidetolerance="10"
     inkscape:pageopacity="0"
     inkscape:pageshadow="2"
     inkscape:window-width="1920"
     inkscape:window-height="1011"
     id="namedview73"
     showgrid="false"
     inkscape:zoom="7.375"
     inkscape:cx="0.78366522"
     inkscape:cy="29.468836"
     inkscape:window-x="0"
     inkscape:window-y="32"
     inkscape:window-maximized="1"
     inkscape:current-layer="svg2408" />
  <defs
     id="defs2410">
    <linearGradient
       id="linearGradient4008">
      <stop
         offset="0"
         style="stop-color:#687284;stop-opacity:1"
         id="stop4010" />
      <stop
         offset="0.71691591"
         style="stop-color:#4c6173;stop-opacity:1"
         id="stop4012" />
      <stop
         offset="1"
         style="stop-color:#4d6070;stop-opacity:1"
         id="stop4014" />
    </linearGradient>
    <linearGradient
       id="linearGradient3874">
      <stop
         offset="0"
         style="stop-color:#ffffff;stop-opacity:1"
         id="stop3876" />
      <stop
         offset="1"
         style="stop-color:#ffffff;stop-opacity:0"
         id="stop3878" />
    </linearGradient>
    <linearGradient
       gradientTransform="scale(1.0598527,0.9435274)"
       gradientUnits="userSpaceOnUse"
       id="linearGradient3317"
       y2="20.137329"
       x2="11.794092"
       y1="3.2126782"
       x1="11.794092">
      <stop
         offset="0"
         style="stop-color:#c6953a;stop-opacity:1"
         id="stop3319" />
      <stop
         offset="1"
         style="stop-color:#ab7a1f;stop-opacity:1"
         id="stop3321" />
    </linearGradient>
    <linearGradient
       gradientUnits="userSpaceOnUse"
       xlink:href="#linearGradient3317"
       id="linearGradient3361"
       y2="85.821426"
       x2="48.035713"
       y1="25.910715"
       x1="48.035713" />
    <linearGradient
       id="linearGradient3187">
      <stop
         offset="0"
         style="stop-color:#455157;stop-opacity:1"
         id="stop3189" />
      <stop
         offset="1"
         style="stop-color:#57738b;stop-opacity:1"
         id="stop3191" />
    </linearGradient>
    <linearGradient
       gradientTransform="matrix(1.0058652,0,0,0.994169,0,12)"
       gradientUnits="userSpaceOnUse"
       id="ButtonShadow"
       y2="7.0165396"
       x2="45.447727"
       y1="80.471962"
       x1="45.447727">
      <stop
         offset="0"
         style="stop-color:#000000;stop-opacity:1"
         id="stop3750" />
      <stop
         offset="1"
         style="stop-color:#000000;stop-opacity:0.58823532"
         id="stop3752" />
    </linearGradient>
    <linearGradient
       gradientTransform="translate(0,8)"
       gradientUnits="userSpaceOnUse"
       xlink:href="#linearGradient3187"
       id="linearGradient3706"
       y2="5.9877172"
       x2="48"
       y1="78"
       x1="48" />
    <filter
       style="color-interpolation-filters:sRGB"
       id="filter3174">
      <feGaussianBlur
         stdDeviation="1.71"
         id="feGaussianBlur3176" />
    </filter>
    <linearGradient
       gradientTransform="matrix(1.0058652,0,0,0.994169,0,12)"
       gradientUnits="userSpaceOnUse"
       xlink:href="#ButtonShadow"
       id="linearGradient3664"
       y2="5.297224"
       x2="45.447727"
       y1="80.471962"
       x1="45.447727" />
    <clipPath
       id="clipPath3860">
      <rect
         style="fill:#ff00ff;fill-opacity:1;fill-rule:nonzero;stroke:none"
         id="rect3862"
         y="18"
         x="6"
         ry="6"
         rx="6"
         height="72"
         width="84" />
    </clipPath>
    <filter
       style="color-interpolation-filters:sRGB"
       id="filter3870"
       height="1.3943198"
       width="1.331176"
       y="-0.19715989"
       x="-0.16558799">
      <feGaussianBlur
         stdDeviation="5.1703125"
         id="feGaussianBlur3872" />
    </filter>
    <linearGradient
       id="linearGradient3699">
      <stop
         offset="0"
         style="stop-color:#28323c;stop-opacity:0.78431374"
         id="stop3701" />
      <stop
         offset="1"
         style="stop-color:#28323c;stop-opacity:0.39215687"
         id="stop3703" />
    </linearGradient>
    <linearGradient
       gradientUnits="userSpaceOnUse"
       xlink:href="#linearGradient3874"
       id="linearGradient3123"
       y2="81.481377"
       x2="48.021698"
       y1="22.933374"
       x1="48.021698" />
    <linearGradient
       gradientTransform="matrix(0.72,0,0,0.72,1.92,-5.52)"
       gradientUnits="userSpaceOnUse"
       xlink:href="#linearGradient4008"
       id="linearGradient3105"
       y2="26.986736"
       x2="34.85965"
       y1="16.275133"
       x1="34.85965" />
    <linearGradient
       gradientUnits="userSpaceOnUse"
       xlink:href="#ButtonShadow"
       id="linearGradient3952"
       y2="7"
       x2="43"
       y1="91"
       x1="43" />
    <linearGradient
       gradientUnits="userSpaceOnUse"
       xlink:href="#ButtonShadow"
       id="linearGradient3961"
       y2="7"
       x2="45"
       y1="92"
       x1="45" />
    <linearGradient
       gradientUnits="userSpaceOnUse"
       xlink:href="#ButtonShadow"
       id="linearGradient3969"
       y2="7"
       x2="45"
       y1="92"
       x1="45" />
    <linearGradient
       gradientUnits="userSpaceOnUse"
       xlink:href="#ButtonShadow"
       id="linearGradient3977"
       y2="7"
       x2="45"
       y1="92"
       x1="45" />
    <linearGradient
       gradientUnits="userSpaceOnUse"
       xlink:href="#ButtonShadow"
       id="linearGradient3986"
       y2="7"
       x2="45"
       y1="92"
       x1="45" />
    <linearGradient
       gradientTransform="translate(68,-1)"
       gradientUnits="userSpaceOnUse"
       xlink:href="#linearGradient3699"
       id="linearGradient3087"
       y2="32"
       x2="56"
       y1="76"
       x1="56" />
    <linearGradient
       gradientTransform="translate(0,-2)"
       gradientUnits="userSpaceOnUse"
       xlink:href="#linearGradient3699"
       id="linearGradient3975"
       y2="32"
       x2="56"
       y1="76"
       x1="56" />
    <linearGradient
       gradientTransform="translate(0,-1)"
       gradientUnits="userSpaceOnUse"
       xlink:href="#linearGradient3699"
       id="linearGradient3989"
       y2="32"
       x2="56"
       y1="76"
       x1="56" />
    <linearGradient
       gradientTransform="translate(0,-1)"
       gradientUnits="userSpaceOnUse"
       xlink:href="#linearGradient3699"
       id="linearGradient4002"
       y2="32"
       x2="56"
       y1="76"
       x1="56" />
    <radialGradient
       gradientTransform="matrix(1.1573129,0,0,0.99590774,-7.551021,0.197132)"
       gradientUnits="userSpaceOnUse"
       xlink:href="#linearGradient3737-5"
       id="radialGradient2874"
       fy="90.171875"
       fx="48"
       r="42"
       cy="90.171875"
       cx="48" />
    <linearGradient
       id="linearGradient3737-5">
      <stop
         offset="0"
         style="stop-color:#ffffff;stop-opacity:1"
         id="stop3739-0" />
      <stop
         offset="1"
         style="stop-color:#ffffff;stop-opacity:0"
         id="stop3741-4" />
    </linearGradient>
    <linearGradient
       id="linearGradient3737">
      <stop
         offset="0"
         style="stop-color:#ffffff;stop-opacity:1"
         id="stop3739" />
      <stop
         offset="1"
         style="stop-color:#ffffff;stop-opacity:0"
         id="stop3741" />
    </linearGradient>
    <linearGradient
       gradientUnits="userSpaceOnUse"
       xlink:href="#linearGradient3737"
       id="linearGradient3916"
       y2="73.994667"
       x2="36.357143"
       y1="16"
       x1="36.357143" />
    <linearGradient
       gradientUnits="userSpaceOnUse"
       xlink:href="#linearGradient3699"
       id="linearGradient3248"
       y2="32.397678"
       x2="48.071056"
       y1="73.765587"
       x1="48.071056" />
    <linearGradient
       x1="49"
       y1="72"
       x2="49"
       y2="38.758461"
       id="linearGradient3100"
       xlink:href="#linearGradient3699"
       gradientUnits="userSpaceOnUse"
       gradientTransform="matrix(0.66753587,0,0,0.70492753,73.826598,-4.5951519)" />
    <linearGradient
       inkscape:collect="always"
       xlink:href="#linearGradient3699"
       id="linearGradient949"
       gradientUnits="userSpaceOnUse"
       gradientTransform="matrix(0.66753587,0,0,0.70492753,73.826598,-4.5951519)"
       x1="49"
       y1="72"
       x2="49"
       y2="38.758461" />
    <linearGradient
       inkscape:collect="always"
       xlink:href="#linearGradient3699"
       id="linearGradient951"
       gradientUnits="userSpaceOnUse"
       gradientTransform="matrix(0.66753587,0,0,0.70492753,73.826598,-4.5951519)"
       x1="49"
       y1="72"
       x2="49"
       y2="38.758461" />
    <linearGradient
       inkscape:collect="always"
       xlink:href="#linearGradient3699"
       id="linearGradient953"
       gradientUnits="userSpaceOnUse"
       gradientTransform="matrix(0.66753587,0,0,0.70492753,73.826598,-4.5951519)"
       x1="49"
       y1="72"
       x2="49"
       y2="38.758461" />
  </defs>
  <metadata
     id="metadata2413">
    <rdf:RDF>
      <cc:Work
         rdf:about="">
        <dc:format>image/svg+xml</dc:format>
        <dc:type
           rdf:resource="http://purl.org/dc/dcmitype/StillImage" />
        <dc:title />
      </cc:Work>
    </rdf:RDF>
  </metadata>
  <g
     transform="translate(0,-64)"
     style="display:none"
     id="layer2">
    <path
       style="opacity:0.9;fill:url(#linearGradient3664);fill-opacity:1;fill-rule:nonzero;stroke:none;filter:url(#filter3174)"
       id="rect3745"
       d="M 14.96875,8.8028918 C 13.32891,8.8028918 12,10.085142 12,11.677892 V 19 c -3.324,0 -7,2.676 -7,6 v 61 c 0,3.324 2.676,6 6,6 h 74 c 3.324,0 6,-2.676 6,-6 V 25 c 0,-3.324 -3.74743,-6 -7.07143,-6 v -0.134608 c 0,-2.389125 -1.97774,-4.3125 -4.4375,-4.3125 H 36.15625 l -1.46875,-2.875 C 33.95414,10.253293 33.35859,8.8028918 31.71875,8.8028918 Z" />
  </g>
  <g
     transform="matrix(0.32608696,0,0,0.32608696,1,0.02173913)"
     id="g909">
    <g
       transform="translate(-2)"
       id="layer4"
       style="display:inline">
      <path
         d="M 14.125,4 C 9.6910704,4 6,7.568413 6,12 v 2.15625 C 3.6235961,15.958367 2,18.759045 2,22 v 63 c 0,5.503629 4.496371,10 10,10 h 72 c 5.503629,0 10,-4.496371 10,-10 V 22 C 94,18.516601 92.146607,15.546894 89.46875,13.78125 88.481551,10.491738 85.526024,8 81.875,8 h -39.5 C 40.972352,6.645177 39.835329,5.4903784 38.6875,4.84375 37.192287,4.0014231 35.756649,4.0295412 34.875,4 a 0.92780092,0.92780092 0 0 0 -0.03125,0 c -0.0012,-1.73e-5 -0.03009,-1.73e-5 -0.03125,0 h -0.03125 z"
         id="path3984"
         style="display:inline;opacity:0.07999998;fill:url(#linearGradient3986);fill-opacity:1;fill-rule:nonzero;stroke:none" />
      <path
         d="M 14.125,4.9375 C 10.184407,4.9375 6.9375,8.0807925 6.9375,12 v 2.59375 c -2.3826099,1.622076 -4,4.293928 -4,7.40625 v 63 c 0,5.001444 4.0610559,9.0625 9.0625,9.0625 h 72 c 5.001444,0 9.0625,-4.061056 9.0625,-9.0625 V 22 c 0,-3.260846 -1.77319,-6.039741 -4.34375,-7.625 C 87.957559,11.279325 85.241489,8.9375 81.875,8.9375 H 42.0625 C 40.465021,7.3963057 39.290438,6.2599842 38.21875,5.65625 36.945571,4.9390059 35.771277,4.9685784 34.84375,4.9375 a 1.043776,1.043776 0 0 0 -0.03125,0 c -10e-7,0 -0.03125,0 -0.03125,0 z"
         id="path3975"
         style="display:inline;opacity:0.1;fill:url(#linearGradient3977);fill-opacity:1;fill-rule:nonzero;stroke:none" />
      <path
         d="M 14.125,5.96875 C 10.736326,5.96875 7.96875,8.6567706 7.96875,12 v 3.125 c -2.3751432,1.394016 -4,3.920462 -4,6.875 v 63 c 0,4.438141 3.5931086,8.03125 8.03125,8.03125 h 72 c 4.438141,0 8.03125,-3.593109 8.03125,-8.03125 V 22 c 0,-3.031992 -1.712245,-5.604362 -4.1875,-6.96875 C 87.351857,12.17163 84.915107,9.96875 81.875,9.96875 H 41.6875 C 39.852667,8.1939079 38.678863,7.1033787 37.71875,6.5625 36.681475,5.9781523 35.778304,6.0011109 34.8125,5.96875 a 1.043776,1.043776 0 0 0 -0.03125,0 z"
         id="path3967"
         style="display:inline;opacity:0.2;fill:url(#linearGradient3969);fill-opacity:1;fill-rule:nonzero;stroke:none" />
      <path
         d="M 14.125,7 C 11.282105,7 9,9.23 9,12 v 3.6875 C 6.6359408,16.808884 5,19.200342 5,22 v 63 c 0,3.878 3.122,7 7,7 h 72 c 3.878,0 7,-3.122 7,-7 V 22 C 91,19.190264 89.346632,16.803629 86.96875,15.6875 86.799101,13.069075 84.606585,11 81.875,11 H 41.28125 c -4.220528,-4.1123102 -4.502768,-3.9330794 -6.5,-4 z"
         id="path3908-1"
         style="display:inline;opacity:0.3;fill:url(#linearGradient3961);fill-opacity:1;fill-rule:nonzero;stroke:none" />
      <path
         d="m 15,7 c -2.77,0 -5,2.23 -5,5 v 3.34375 C 7.6664933,16.164656 6,18.378887 6,21 v 64 c 0,3.324 2.676,6 6,6 h 72 c 3.324,0 6,-2.676 6,-6 V 21 C 90,18.358112 88.300137,16.148775 85.9375,15.34375 85.611464,12.893448 83.542274,11 81,11 H 40.46875 C 36.35644,6.8876898 36.102271,7.0669206 34.15625,7 Z"
         id="path3941"
         style="display:inline;opacity:0.45;fill:url(#linearGradient3952);fill-opacity:1;fill-rule:nonzero;stroke:none" />
    </g>
    <g
       transform="translate(-2)"
       id="layer3"
       style="display:inline">
      <rect
         width="75"
         height="62.678574"
         rx="6"
         ry="6"
         x="10.535714"
         y="23.142857"
         id="rect3352"
         style="display:inline;fill:url(#linearGradient3361);fill-opacity:1;fill-rule:nonzero;stroke:none" />
      <path
         d="m 15,6 c -2.77,0 -5,2.23 -5,5 v 59.8125 c 0,2.39328 1.91922,4.3125 4.3125,4.3125 h 67.375 C 84.08078,75.125 86,73.20578 86,70.8125 V 15 c 0,-2.77 -2.23,-5 -5,-5 H 40.46875 C 36.35644,5.8876898 36.102271,6.0669206 34.15625,6 Z"
         id="path3908"
         style="display:inline;fill:url(#linearGradient3105);fill-opacity:1;fill-rule:nonzero;stroke:none" />
      <path
         d="M 15,6.0666666 C 12.23,6.0666666 10,8.23 10,11 v 59.8125 c 0,2.39328 1.91922,4.3125 4.3125,4.3125 h 67.375 C 84.08078,75.125 86,73.20578 86,70.8125 V 15 c 0,-2.77 -2.23,-4.962 -5,-4.962 l -40.53125,0 C 36.35644,5.9256896 36.102271,6.1335872 34.15625,6.0666666 Z m 0,3.0666666 h 20 c 1.9794,1.5677338 3.832352,2.7947368 5.46875,4.1713338 L 81,13.104667 c 2.209832,-0.0109 3.96875,0.685474 3.96875,2.895333 v 54.8125 c 0,1.835319 -1.445931,3.28125 -3.28125,3.28125 h -67.375 c -1.835319,0 -3.28125,-1.445931 -3.28125,-3.28125 V 13.104667 c 0,-2.209859 1.761721,-3.8595398 3.96875,-3.9713338 z"
         id="path3108"
         style="display:inline;opacity:0.2;fill:#ffffff;fill-opacity:1;fill-rule:nonzero;stroke:none" />
    </g>
    <g
       transform="translate(-2)"
       id="layer1"
       style="display:inline">
      <path
         id="rect2419"
         d="m 12,15.266667 h 72 c 3.324,0 6,2.409333 6,5.733333 v 62 c 0,3.324 -2.676,6 -6,6 H 12 C 8.676,89 6,86.324 6,83 V 21 c 0,-3.324 2.676,-5.733333 6,-5.733333 z"
         style="fill:url(#linearGradient3706);fill-opacity:1;fill-rule:nonzero;stroke:none" />
      <path
         d="M 12,15.266667 C 8.676,15.266667 6,17.676 6,21 v 2 59 2 c 0,0.334721 0.04135,0.6507 0.09375,0.96875 0.0487,0.295596 0.09704,0.596915 0.1875,0.875 0.00988,0.03038 0.020892,0.0636 0.03125,0.09375 0.098865,0.287771 0.2348802,0.547452 0.375,0.8125 0.1445918,0.273507 0.3156161,0.535615 0.5,0.78125 0.1843839,0.245635 0.3737765,0.473472 0.59375,0.6875 0.439947,0.428056 0.94291,0.814526 1.5,1.09375 0.278545,0.139612 0.5734731,0.246947 0.875,0.34375 -0.2562018,-0.100222 -0.4867109,-0.236272 -0.71875,-0.375 -0.00741,-0.0044 -0.023866,0.0045 -0.03125,0 -0.031933,-0.0193 -0.062293,-0.04251 -0.09375,-0.0625 -0.120395,-0.0767 -0.2310226,-0.163513 -0.34375,-0.25 -0.1061728,-0.0808 -0.2132809,-0.161112 -0.3125,-0.25 C 8.4783201,88.557317 8.3087904,88.373362 8.15625,88.1875 8.0486711,88.057245 7.9378561,87.922215 7.84375,87.78125 7.818661,87.74287 7.805304,87.69538 7.78125,87.65625 7.716487,87.553218 7.6510225,87.451733 7.59375,87.34375 7.4927417,87.149044 7.3880752,86.928049 7.3125,86.71875 7.30454,86.69694 7.288911,86.6782 7.28125,86.65625 7.2494249,86.5643 7.2454455,86.469419 7.21875,86.375 7.1884177,86.268382 7.1483606,86.171969 7.125,86.0625 7.0521214,85.720988 7,85.364295 7,85 v -2 c -6.06e-5,-19.970708 0,-40.194332 0,-60.066667 0.9100388,-2.073817 2.2181517,-4.6 5,-4.6 24.97913,0 50.58202,0 72,0 2.781848,0 5,1.818152 5,4.6 C 89,42.955555 89,62.977778 89,83 v 2 c 0,0.364295 -0.05212,0.720988 -0.125,1.0625 -0.04415,0.206893 -0.08838,0.397658 -0.15625,0.59375 -0.0077,0.02195 -0.0233,0.04069 -0.03125,0.0625 -0.06274,0.173739 -0.138383,0.367449 -0.21875,0.53125 -0.04158,0.0828 -0.07904,0.169954 -0.125,0.25 -0.0546,0.09721 -0.126774,0.18835 -0.1875,0.28125 -0.09411,0.140965 -0.204921,0.275995 -0.3125,0.40625 -0.143174,0.17445 -0.303141,0.346998 -0.46875,0.5 -0.01117,0.0102 -0.01998,0.02115 -0.03125,0.03125 -0.138386,0.125556 -0.285091,0.234436 -0.4375,0.34375 -0.102571,0.07315 -0.204318,0.153364 -0.3125,0.21875 -0.0074,0.0045 -0.02384,-0.0044 -0.03125,0 -0.232039,0.138728 -0.462548,0.274778 -0.71875,0.375 0.301527,-0.0968 0.596455,-0.204138 0.875,-0.34375 0.55709,-0.279224 1.060053,-0.665694 1.5,-1.09375 0.219973,-0.214028 0.409366,-0.441865 0.59375,-0.6875 0.184384,-0.245635 0.355408,-0.507743 0.5,-0.78125 0.14012,-0.265048 0.276135,-0.524729 0.375,-0.8125 0.01041,-0.03078 0.02133,-0.06274 0.03125,-0.09375 0.09046,-0.278085 0.1388,-0.579404 0.1875,-0.875 C 89.95865,84.6507 90,84.334721 90,84 V 82 23 21 c 0,-3.324 -2.676,-5.733333 -6,-5.733333 z"
         id="rect3728"
         style="display:inline;opacity:0.35;fill:url(#linearGradient3916);fill-opacity:1;fill-rule:nonzero;stroke:none" />
      <path
         d="M 12,89 C 8.676,89 6,86.324 6,83 V 81 26 24 c 0,-0.334721 0.04135,-0.6507 0.09375,-0.96875 0.0487,-0.295596 0.09704,-0.596915 0.1875,-0.875 0.00988,-0.03038 0.020892,-0.0636 0.03125,-0.09375 0.098865,-0.287771 0.2348802,-0.547452 0.375,-0.8125 0.1445918,-0.273507 0.3156161,-0.535615 0.5,-0.78125 0.1843839,-0.245635 0.3737765,-0.473472 0.59375,-0.6875 0.439947,-0.428056 0.94291,-0.814526 1.5,-1.09375 0.278545,-0.139612 0.5734731,-0.246947 0.875,-0.34375 -0.2562018,0.100222 -0.4867109,0.236272 -0.71875,0.375 -0.00741,0.0044 -0.023866,-0.0045 -0.03125,0 -0.031933,0.0193 -0.062293,0.04251 -0.09375,0.0625 -0.120395,0.0767 -0.2310226,0.163513 -0.34375,0.25 -0.1061728,0.0808 -0.2132809,0.161112 -0.3125,0.25 -0.1779299,0.161433 -0.3474596,0.345388 -0.5,0.53125 -0.1075789,0.130255 -0.2183939,0.265285 -0.3125,0.40625 -0.025089,0.03838 -0.038446,0.08587 -0.0625,0.125 -0.064763,0.103032 -0.1302275,0.204517 -0.1875,0.3125 -0.1010083,0.194706 -0.2056748,0.415701 -0.28125,0.625 C 7.30454,21.30306 7.288911,21.3218 7.28125,21.34375 7.2494249,21.4357 7.2454455,21.530581 7.21875,21.625 7.1884177,21.731618 7.1483606,21.828031 7.125,21.9375 7.0521214,22.279012 7,22.635705 7,23 v 2 55 2 c 0,2.781848 2.2181517,5 5,5 h 2 68 2 c 2.781848,0 5,-2.218152 5,-5 V 80 25 23 c 0,-0.364295 -0.05212,-0.720988 -0.125,-1.0625 -0.04415,-0.206893 -0.08838,-0.397658 -0.15625,-0.59375 -0.0077,-0.02195 -0.0233,-0.04069 -0.03125,-0.0625 -0.06274,-0.173739 -0.138383,-0.367449 -0.21875,-0.53125 -0.04158,-0.0828 -0.07904,-0.169954 -0.125,-0.25 -0.0546,-0.09721 -0.126774,-0.18835 -0.1875,-0.28125 -0.09411,-0.140965 -0.204921,-0.275995 -0.3125,-0.40625 -0.143174,-0.17445 -0.303141,-0.346998 -0.46875,-0.5 -0.01117,-0.0102 -0.01998,-0.02115 -0.03125,-0.03125 -0.138386,-0.125556 -0.285091,-0.234436 -0.4375,-0.34375 -0.102571,-0.07315 -0.204318,-0.153364 -0.3125,-0.21875 -0.0074,-0.0045 -0.02384,0.0044 -0.03125,0 -0.232039,-0.138728 -0.462548,-0.274778 -0.71875,-0.375 0.301527,0.0968 0.596455,0.204138 0.875,0.34375 0.55709,0.279224 1.060053,0.665694 1.5,1.09375 0.219973,0.214028 0.409366,0.441865 0.59375,0.6875 0.184384,0.245635 0.355408,0.507743 0.5,0.78125 0.14012,0.265048 0.276135,0.524729 0.375,0.8125 0.01041,0.03078 0.02133,0.06274 0.03125,0.09375 0.09046,0.278085 0.1388,0.579404 0.1875,0.875 C 89.95865,23.3493 90,23.665279 90,24 v 2 55 2 c 0,3.324 -2.676,6 -6,6 z"
         id="path3615"
         style="display:inline;opacity:0.2;fill:url(#radialGradient2874);fill-opacity:1;fill-rule:nonzero;stroke:none" />
    </g>
    <g
       transform="translate(-2)"
       id="layer5"
       style="display:inline">
      <path
         d="m 15.96875,22.53125 c -2.845903,0.0043 -5.433244,2.591597 -5.4375,5.4375 v 48.0625 c 0.0043,2.845903 2.591597,5.433244 5.4375,5.4375 h 64.0625 c 2.845903,-0.0043 5.433244,-2.591597 5.4375,-5.4375 v -48.0625 c -0.0043,-2.845903 -2.591597,-5.433244 -5.4375,-5.4375 z"
         clip-path="url(#clipPath3860)"
         id="path3850"
         style="opacity:0.15;fill:url(#linearGradient3123);fill-opacity:1;fill-rule:nonzero;stroke:none;filter:url(#filter3870)" />
    </g>
  </g>
  <g
     id="layer6"
     transform="matrix(0.47337171,0,0,0.47337171,54.353158,-15.789808)" />
  <g
     transform="matrix(0.5,0,0,0.5,-37.601695,-0.039729)"
     id="layer6-3">
    <path
       d="m 98.859192,21.413458 c -0.909526,0 -2.070886,1.339894 -2.06519,2.210522 h -2.273793 c -1.816949,0 -3.316819,1.583885 -3.316819,3.502609 V 44.04485 c 0,1.918724 1.49987,3.502608 3.316819,3.502608 h 25.366361 c 1.81694,0 3.31682,-1.583884 3.31682,-3.502608 V 27.126589 c 0,-1.918725 -1.49988,-3.502609 -3.31682,-3.502609 h -15.62451 c 0.006,-0.822689 -1.15567,-2.210522 -2.06519,-2.210522 z m 0,2.188492 h 3.337678 c 0.55472,0 1.0013,0.471597 1.0013,1.057392 v 0.352464 h 16.6884 c 1.10944,0 2.00261,0.943193 2.00261,2.114783 V 44.04485 c 0,1.171589 -0.89317,2.114783 -2.00261,2.114783 H 94.520209 c -1.109445,0 -2.002607,-0.943194 -2.002607,-2.114783 V 27.126589 c 0,-1.17159 0.893162,-2.114783 2.002607,-2.114783 h 3.337679 v -0.352464 c 0,-0.585795 0.446581,-1.057392 1.001304,-1.057392 z m -3.003911,4.229566 c -0.369815,0 -0.667536,0.314398 -0.667536,0.704928 v 1.409855 c 0,0.39053 0.297721,0.704927 0.667536,0.704927 h 6.675359 c 0.36982,0 0.66753,-0.314397 0.66753,-0.704927 v -1.409855 c 0,-0.39053 -0.29771,-0.704928 -0.66753,-0.704928 z m 0.646675,1.387826 h 5.382014 v 0.04406 h -5.382014 z m 16.041714,0.02203 c -3.68669,0 -6.67536,3.156068 -6.67536,7.049275 0,3.893208 2.98866,7.049276 6.67536,7.049276 3.68671,0 6.67536,-3.156068 6.67536,-7.049276 0,-3.893207 -2.98865,-7.049275 -6.67536,-7.049275 z m 0,1.387827 c 2.97427,0 5.36115,2.520579 5.36115,5.661448 0,3.140872 -2.38688,5.66145 -5.36115,5.66145 -2.97426,0 -5.36114,-2.520578 -5.36114,-5.66145 0,-3.140869 2.38688,-5.661448 5.36114,-5.661448 z m 0,1.453912 c -2.18711,0 -3.98435,1.897917 -3.98435,4.207536 0,2.30962 1.79724,4.207538 3.98435,4.207538 2.18712,0 3.98436,-1.897918 3.98436,-4.207538 0,-2.309619 -1.79724,-4.207536 -3.98436,-4.207536 z m 0,1.387827 c 1.47469,0 2.67015,1.262427 2.67015,2.819709 0,1.557284 -1.19546,2.819711 -2.67015,2.819711 -1.47467,0 -2.67014,-1.262427 -2.67014,-2.819711 0,-1.557282 1.19547,-2.819709 2.67014,-2.819709 z"
       inkscape:connector-curvature="0"
       id="path3930"
       style="display:inline;opacity:0.05;fill:#ffffff;fill-opacity:1;stroke:none;stroke-width:0.68597698"
       sodipodi:nodetypes="scsssssssscssssscsssssssscssssssssssscccccssssssssssssssssssss" />
    <path
       d="m 98.859192,22.257458 c -0.773771,0 -1.490569,0.745955 -1.501956,2.093478 l -2.837027,-0.09438 c -1.441017,-0.04794 -2.628423,1.253077 -2.628423,2.775653 V 44.04485 c 0,1.522576 1.186609,2.775652 2.628423,2.775652 h 25.366361 c 1.44182,0 2.62842,-1.253076 2.62842,-2.775652 V 27.032212 c 0,-1.522576 -1.1866,-2.775653 -2.62842,-2.775653 h -16.18774 c 0.0366,-1.299584 -0.72819,-1.999101 -1.50196,-1.999101 z m 0,1.344492 h 3.337678 c 0.55472,0 1.0013,0.471597 1.0013,1.057392 v 0.352464 h 16.6884 c 1.10944,0 2.00261,0.943193 2.00261,2.114783 V 44.04485 c 0,1.171589 -0.89317,2.114783 -2.00261,2.114783 H 94.520209 c -1.109445,0 -2.002607,-0.943194 -2.002607,-2.114783 V 27.126589 c 0,-1.17159 0.893162,-2.114783 2.002607,-2.114783 h 3.337679 v -0.352464 c 0,-0.585795 0.446581,-1.057392 1.001304,-1.057392 z m -3.003911,4.229566 c -0.369815,0 -0.667536,0.314398 -0.667536,0.704928 v 1.409855 c 0,0.39053 0.297721,0.704927 0.667536,0.704927 h 6.675359 c 0.36982,0 0.66753,-0.314397 0.66753,-0.704927 v -1.409855 c 0,-0.39053 -0.29771,-0.704928 -0.66753,-0.704928 z m -0.04172,0.66087 c 0.0058,-0.006 0.023,0 0.04172,0 h 6.675359 c 0.0374,0 0.0417,0.0045 0.0417,0.04406 v 1.409855 c 0,0.03955 -0.004,0.04406 -0.0417,0.04406 h -6.675359 c -0.03745,0 -0.04172,-0.0045 -0.04172,-0.04406 v -1.409854 c 0,-0.01977 -0.0058,-0.03799 0,-0.04406 z m 16.730119,0.748985 c -3.6867,0 -6.67536,3.156067 -6.67536,7.049275 0,3.893208 2.98866,7.049276 6.67536,7.049276 3.68671,0 6.67536,-3.156068 6.67536,-7.049276 0,-3.893208 -2.98865,-7.049275 -6.67536,-7.049275 z m 0,0.660869 c 3.35202,0 6.04954,2.848628 6.04954,6.388406 0,3.539778 -2.69752,6.388407 -6.04954,6.388407 -3.35201,0 -6.04954,-2.848629 -6.04954,-6.388407 0,-3.539778 2.69753,-6.388406 6.04954,-6.388406 z m 0,2.907827 c -1.80936,0 -3.29596,1.569867 -3.29596,3.480579 0,1.910713 1.4866,3.48058 3.29596,3.48058 1.80936,0 3.29596,-1.569867 3.29596,-3.48058 0,-1.910712 -1.4866,-3.480579 -3.29596,-3.480579 z m 0,0.660869 c 1.47468,0 2.67015,1.262427 2.67015,2.81971 0,1.557284 -1.19547,2.819711 -2.67015,2.819711 -1.47468,0 -2.67015,-1.262427 -2.67015,-2.819711 0,-1.557283 1.19547,-2.81971 2.67015,-2.81971 z"
       inkscape:connector-curvature="0"
       id="path3921"
       style="display:inline;opacity:0.1;fill:#ffffff;fill-opacity:1;stroke:none;stroke-width:0.68597698"
       sodipodi:nodetypes="scsssssssscssssscsssssssscssssssssssscssssssssccssssssssssssssssssss" />
    <path
       d="m 98.859192,22.625139 c -0.554723,0 -1.001304,0.471596 -1.001304,1.057391 v 0.352465 h -3.337679 c -1.109445,0 -2.002607,0.943193 -2.002607,2.114782 V 44.04485 c 0,1.171589 0.893162,2.114783 2.002607,2.114783 h 25.366361 c 1.10945,0 2.00261,-0.943194 2.00261,-2.114783 V 26.149777 c 0,-1.171589 -0.89506,-2.17961 -2.00261,-2.114782 H 103.70404 V 23.68253 c 0,-0.585795 -0.44658,-1.057391 -1.0013,-1.057391 z m -3.003911,5.206377 h 6.675359 c 0.36982,0 0.66753,0.314398 0.66753,0.704928 v 1.409855 c 0,0.39053 -0.29771,0.704927 -0.66753,0.704927 h -6.675359 c -0.369815,0 -0.667536,-0.314397 -0.667536,-0.704927 v -1.409855 c 0,-0.39053 0.297721,-0.704928 0.667536,-0.704928 z m 16.688389,1.409855 c 3.68671,0 6.67536,3.156067 6.67536,7.049275 0,3.893208 -2.98865,7.049276 -6.67536,7.049276 -3.68669,0 -6.67536,-3.156068 -6.67536,-7.049276 0,-3.893208 2.98866,-7.049275 6.67536,-7.049275 z m 0,4.229565 c -1.47467,0 -2.67014,1.262427 -2.67014,2.81971 0,1.557284 1.19547,2.819711 2.67014,2.819711 1.47469,0 2.67015,-1.262427 2.67015,-2.819711 0,-1.557283 -1.19546,-2.81971 -2.67015,-2.81971 z"
       inkscape:connector-curvature="0"
       id="rect2941"
       style="display:inline;opacity:0.9;fill:url(#linearGradient949);fill-opacity:1;stroke:none;stroke-width:0.68597698"
       sodipodi:nodetypes="sscsssssssscssssssssssssssssssssss" />
    <path
       d="m 98.859192,22.625139 c -0.554723,0 -1.001304,0.471596 -1.001304,1.057391 v 0.352465 h -3.337679 c -1.109445,0 -2.002607,0.943193 -2.002607,2.114782 V 44.04485 c 0,1.171589 0.893162,2.114783 2.002607,2.114783 h 25.366361 c 1.10945,0 2.00261,-0.943194 2.00261,-2.114783 V 26.149777 c 0,-1.171589 -0.89316,-2.114782 -2.00261,-2.114782 H 103.90221 V 23.68253 c 0,-0.585795 -0.44657,-1.057391 -1.0013,-1.057391 z m 0.396349,1.475943 h 3.249019 c 0.0177,0.566842 0.34235,2.049286 0.83443,2.276521 -0.0349,-0.002 -0.0691,-0.02203 -0.10431,-0.02203 h -4.792698 c 0.477367,-0.230156 0.791817,-1.700808 0.813559,-2.254493 z m 4.104309,2.276521 c 0.18826,0.01269 0.36956,0.0451 0.54237,0.110146 h 15.98435 c 0.36161,0 0.60495,0.256969 0.60495,0.638841 v 8.525216 c -0.32759,-4.376426 -3.7227,-7.886376 -7.94785,-7.886376 -4.43973,0 -8.07301,3.836792 -8.07301,8.525216 0,4.461808 3.32378,8.047098 7.46806,8.393044 H 94.520209 c -0.361615,0 -0.604954,-0.25697 -0.604954,-0.63884 V 30.254704 c 0.164545,1.019804 0.935508,1.872464 1.940026,1.872464 h 6.675359 c 1.11764,0 2.06519,-1.000621 2.06519,-2.180869 v -1.409855 c 0,-0.934364 0.10837,-1.746839 -0.69362,-2.048696 -0.18594,0.0019 -0.37035,-0.03559 -0.54236,-0.110145 z m -8.839641,0.110145 h 1.043025 c -0.856954,0.154194 -1.501965,0.835334 -1.647979,1.74029 v -1.101449 c 0,-0.381871 0.243339,-0.638841 0.604954,-0.638841 z m 1.335072,1.343768 h 6.675359 c 0.36982,0 0.66753,0.314398 0.66753,0.704928 v 1.409855 c 0,0.390529 -0.29771,0.704927 -0.66753,0.704927 h -6.675359 c -0.369815,0 -0.667536,-0.314398 -0.667536,-0.704927 v -1.409855 c 0,-0.39053 0.297721,-0.704928 0.667536,-0.704928 z m 16.688389,1.409855 c 3.68671,0 6.67536,3.156067 6.67536,7.049275 0,3.893208 -2.98865,7.049276 -6.67536,7.049276 -3.68669,0 -6.67536,-3.156068 -6.67536,-7.049276 0,-3.893208 2.98866,-7.049275 6.67536,-7.049275 z m 0,4.229565 c -1.47467,0 -2.67014,1.262427 -2.67014,2.81971 0,1.557284 1.19547,2.819711 2.67014,2.819711 1.47469,0 2.67015,-1.262427 2.67015,-2.819711 0,-1.557283 -1.19546,-2.81971 -2.67015,-2.81971 z m 0,1.475942 c 0.72166,0 1.27249,0.581702 1.27249,1.343768 0,0.762066 -0.55083,1.343769 -1.27249,1.343769 -0.72164,0 -1.27248,-0.581703 -1.27248,-1.343769 0,-0.762066 0.55084,-1.343768 1.27248,-1.343768 z m 7.94785,1.982609 v 7.115363 c 0,0.38187 -0.24334,0.63884 -0.60495,0.63884 h -6.73794 c 3.9338,-0.328376 7.03194,-3.600058 7.34289,-7.754203 z"
       inkscape:connector-curvature="0"
       id="path3893"
       style="display:inline;opacity:0.25;fill:url(#linearGradient951);fill-opacity:1;stroke:none;stroke-width:0.68597698"
       sodipodi:nodetypes="sscsssssssscssscccscccccsscsscsscssssccsccsssssssssssssssssssssssssscsscc" />
    <path
       d="m 98.85919,22.625139 c -0.55472,0 -1.0013,0.471596 -1.0013,1.057391 v 0.352465 h -3.33768 c -1.10945,0 -2.00261,0.943193 -2.00261,2.114782 V 44.04485 c 0,1.171589 0.89316,2.114783 2.00261,2.114783 h 25.36636 c 1.10945,0 2.00261,-0.943194 2.00261,-2.114783 V 26.149777 c 0,-1.171589 -0.89506,-2.17961 -2.00261,-2.114782 H 103.70404 V 23.68253 c 0,-0.585795 -0.44658,-1.057391 -1.0013,-1.057391 z m 0,0.726957 h 3.84355 c 0.18081,0 0.31291,0.139499 0.31291,0.330434 v 0.352465 c 0.005,0.399493 0.31009,0.722187 0.68839,0.726957 h 16.18253 c 0.73553,0 1.31422,0.611094 1.31422,1.387825 V 44.04485 c 0,0.776731 -0.57869,1.387825 -1.31422,1.387825 H 94.52021 c -0.73553,0 -1.31421,-0.611094 -1.31421,-1.387825 V 26.149777 c 0,-0.776731 0.57868,-1.387825 1.31421,-1.387825 h 3.33768 c 0.378303,-0.0048 0.683877,-0.327464 0.68839,-0.726957 V 23.68253 c 0,-0.190935 0.1321,-0.330434 0.31291,-0.330434 z m -3.00391,3.752463 c -0.74373,0 -1.35593,0.646496 -1.35593,1.431885 v 1.409855 c 0,0.785388 0.6122,1.431883 1.35593,1.431883 h 6.67536 c 0.74373,0 1.35593,-0.646495 1.35593,-1.431883 v -1.409855 c 0,-0.785389 -0.6122,-1.431885 -1.35593,-1.431885 z m 0,0.726957 h 6.67536 c 0.36982,0 0.66753,0.314398 0.66753,0.704928 v 1.409855 c 0,0.39053 -0.29771,0.704927 -0.66753,0.704927 h -6.67536 c -0.36981,0 -0.66754,-0.314397 -0.66754,-0.704927 v -1.409855 c 0,-0.39053 0.29773,-0.704928 0.66754,-0.704928 z m 16.68839,0.682898 c -4.06321,0 -7.36375,3.485416 -7.36375,7.776232 0,4.290817 3.30054,7.776232 7.36375,7.776232 4.06323,0 7.36376,-3.485415 7.36376,-7.776232 0,-4.290816 -3.30053,-7.776232 -7.36376,-7.776232 z m 0,0.726957 c 3.68671,0 6.67536,3.156067 6.67536,7.049275 0,3.893208 -2.98865,7.049276 -6.67536,7.049276 -3.68669,0 -6.67536,-3.156068 -6.67536,-7.049276 0,-3.893208 2.98866,-7.049275 6.67536,-7.049275 z m 0,4.229565 c -1.47467,0 -2.67014,1.262427 -2.67014,2.81971 0,1.557284 1.19547,2.819711 2.67014,2.819711 1.47469,0 2.67015,-1.262427 2.67015,-2.819711 0,-1.557283 -1.19546,-2.81971 -2.67015,-2.81971 z m 0,0.726957 c 1.09816,0 1.98176,0.933079 1.98176,2.092753 0,1.159674 -0.8836,2.092754 -1.98176,2.092754 -1.09816,0 -1.98174,-0.93308 -1.98174,-2.092754 0,-1.159674 0.88358,-2.092753 1.98174,-2.092753 z"
       inkscape:connector-curvature="0"
       id="path3880"
       style="display:inline;opacity:0.5;fill:url(#linearGradient953);fill-opacity:1;stroke:none;stroke-width:0.68597698"
       sodipodi:nodetypes="sscsssssssscssssssccssssssssccssssssssssssssssssssssssssssssssssssssss" />
    <path
       d="m 98.90339,22.625139 c -0.55472,0 -1.0455,0.471596 -1.0455,1.057391 v 0.388117 h -3.33768 c -1.10945,0 -2.00261,0.907541 -2.00261,2.07913 v 2.497681 c 0,-1.17159 0.95859,-2 2.00261,-2 h 3.33768 c 0.59386,-0.02718 1.04731,-1.344516 1.0455,-1.813031 h 3.8 c 0.0266,0.586304 0.47322,1.805276 1.00065,1.813031 h 16.18253 c 1.10944,0 2.00261,0.828412 2.00261,2 v -2.497681 c 0,-1.171589 -0.89507,-2.143958 -2.00261,-2.07913 H 103.70404 V 23.68253 c 0,-0.585795 -0.44658,-1.057391 -1.0013,-1.057391 z m -3.71565,7.32116 v 0.704927 c 0,0.39053 0.29773,0.704927 0.66754,0.704927 h 6.67536 c 0.36982,0 0.66753,-0.314397 0.66753,-0.704927 v -0.704927 c 0,0.39053 -0.29771,0.704927 -0.66753,0.704927 h -6.67536 c -0.36981,0 -0.66754,-0.314397 -0.66754,-0.704927 z m 17.35593,3.524637 c -1.47467,0 -2.67014,1.262427 -2.67014,2.81971 0,0.11992 0.0279,0.236481 0.0417,0.352464 0.16493,-1.390149 1.26731,-2.467246 2.62843,-2.467246 1.36112,0 2.46349,1.077097 2.62842,2.467246 0.0138,-0.115987 0.0417,-0.232542 0.0417,-0.352464 0,-1.557282 -1.19545,-2.81971 -2.67014,-2.81971 z m -6.65449,3.172174 c -0.005,0.116573 -0.0209,0.234474 -0.0209,0.352464 0,3.893208 2.98866,7.049276 6.67536,7.049276 3.6867,0 6.67536,-3.156068 6.67536,-7.049276 0,-0.117987 -0.0155,-0.235896 -0.0209,-0.352464 -0.17362,3.729738 -3.07953,6.696812 -6.6545,6.696812 -3.57497,0 -6.48088,-2.967074 -6.6545,-6.696812 z"
       inkscape:connector-curvature="0"
       id="path3871"
       style="display:inline;fill:url(#linearGradient3100);fill-opacity:1;stroke:none;stroke-width:0.68597698"
       sodipodi:nodetypes="sscsscsccccscsscssscsssscssccscscscccssscscc" />
    <path
       d="m 95.855281,27.831516 c -0.369815,0 -0.667536,0.314398 -0.667536,0.704928 v 0.704927 c 0,-0.39053 0.297721,-0.704927 0.667536,-0.704927 h 6.675359 c 0.36982,0 0.66753,0.314397 0.66753,0.704927 v -0.704927 c 0,-0.39053 -0.29771,-0.704928 -0.66753,-0.704928 z m 16.688389,1.409855 c -3.68669,0 -6.67536,3.156067 -6.67536,7.049275 0,0.117986 0.0154,0.235896 0.0209,0.352464 0.17363,-3.729738 3.07954,-6.696811 6.65451,-6.696811 3.57496,0 6.48087,2.967074 6.6545,6.696811 0.005,-0.116574 0.0209,-0.234475 0.0209,-0.352464 0,-3.893208 -2.98866,-7.049275 -6.67536,-7.049275 z m -2.62841,7.401739 c -0.0138,0.115986 -0.0417,0.232541 -0.0417,0.352464 0,1.557282 1.19546,2.819711 2.67014,2.819711 1.47468,0 2.67014,-1.262429 2.67014,-2.819711 0,-0.11992 -0.0279,-0.23648 -0.0417,-0.352464 -0.16492,1.390149 -1.2673,2.467247 -2.62842,2.467247 -1.36112,0 -2.4635,-1.077098 -2.62842,-2.467247 z m -17.397658,7.40174 v 2.104608 c 0,1.171591 0.893162,1.93 2.002607,1.93 h 25.366361 c 1.10945,0 2.00261,-0.758409 2.00261,-1.93 V 44.04485 c 0,1.171589 -0.89316,2.114783 -2.00261,2.114783 H 94.520209 c -1.109445,0 -2.002607,-0.943194 -2.002607,-2.114783 z"
       inkscape:connector-curvature="0"
       id="path3906"
       style="display:inline;opacity:0.2;fill:#ffffff;fill-opacity:1;stroke:none;stroke-width:0.68597698"
       sodipodi:nodetypes="sscsscssssscscssscssscscccsssscssc" />
  </g>
</svg>
