<?xml version="1.0" encoding="UTF-8" standalone="no"?>
<svg
   xmlns:dc="http://purl.org/dc/elements/1.1/"
   xmlns:cc="http://creativecommons.org/ns#"
   xmlns:rdf="http://www.w3.org/1999/02/22-rdf-syntax-ns#"
   xmlns:svg="http://www.w3.org/2000/svg"
   xmlns="http://www.w3.org/2000/svg"
   xmlns:xlink="http://www.w3.org/1999/xlink"
   xmlns:sodipodi="http://sodipodi.sourceforge.net/DTD/sodipodi-0.dtd"
   xmlns:inkscape="http://www.inkscape.org/namespaces/inkscape"
   id="svg2408"
   height="32"
   width="32"
   version="1.0"
   sodipodi:docname="folder-remote.svg"
   inkscape:version="0.92.2 5c3e80d, 2017-08-06">
  <sodipodi:namedview
     pagecolor="#ffffff"
     bordercolor="#666666"
     borderopacity="1"
     objecttolerance="10"
     gridtolerance="10"
     guidetolerance="10"
     inkscape:pageopacity="0"
     inkscape:pageshadow="2"
     inkscape:window-width="1920"
     inkscape:window-height="1011"
     id="namedview73"
     showgrid="false"
     inkscape:zoom="7.375"
     inkscape:cx="16"
     inkscape:cy="16"
     inkscape:window-x="0"
     inkscape:window-y="32"
     inkscape:window-maximized="1"
     inkscape:current-layer="svg2408" />
  <defs
     id="defs2410">
    <linearGradient
       id="linearGradient4008">
      <stop
         offset="0"
         style="stop-color:#687284;stop-opacity:1"
         id="stop4010" />
      <stop
         offset="0.71691591"
         style="stop-color:#4c6173;stop-opacity:1"
         id="stop4012" />
      <stop
         offset="1"
         style="stop-color:#4d6070;stop-opacity:1"
         id="stop4014" />
    </linearGradient>
    <linearGradient
       id="linearGradient3874">
      <stop
         offset="0"
         style="stop-color:#ffffff;stop-opacity:1"
         id="stop3876" />
      <stop
         offset="1"
         style="stop-color:#ffffff;stop-opacity:0"
         id="stop3878" />
    </linearGradient>
    <linearGradient
       gradientTransform="scale(1.0598527,0.9435274)"
       gradientUnits="userSpaceOnUse"
       id="linearGradient3317"
       y2="20.137329"
       x2="11.794092"
       y1="3.2126782"
       x1="11.794092">
      <stop
         offset="0"
         style="stop-color:#c6953a;stop-opacity:1"
         id="stop3319" />
      <stop
         offset="1"
         style="stop-color:#ab7a1f;stop-opacity:1"
         id="stop3321" />
    </linearGradient>
    <linearGradient
       gradientUnits="userSpaceOnUse"
       xlink:href="#linearGradient3317"
       id="linearGradient3361"
       y2="85.821426"
       x2="48.035713"
       y1="25.910715"
       x1="48.035713" />
    <linearGradient
       id="linearGradient3187">
      <stop
         offset="0"
         style="stop-color:#455157;stop-opacity:1"
         id="stop3189" />
      <stop
         offset="1"
         style="stop-color:#57738b;stop-opacity:1"
         id="stop3191" />
    </linearGradient>
    <linearGradient
       gradientTransform="matrix(1.0058652,0,0,0.994169,0,12)"
       gradientUnits="userSpaceOnUse"
       id="ButtonShadow"
       y2="7.0165396"
       x2="45.447727"
       y1="80.471962"
       x1="45.447727">
      <stop
         offset="0"
         style="stop-color:#000000;stop-opacity:1"
         id="stop3750" />
      <stop
         offset="1"
         style="stop-color:#000000;stop-opacity:0.58823532"
         id="stop3752" />
    </linearGradient>
    <linearGradient
       gradientTransform="translate(0,8)"
       gradientUnits="userSpaceOnUse"
       xlink:href="#linearGradient3187"
       id="linearGradient3706"
       y2="5.9877172"
       x2="48"
       y1="78"
       x1="48" />
    <filter
       style="color-interpolation-filters:sRGB"
       id="filter3174">
      <feGaussianBlur
         stdDeviation="1.71"
         id="feGaussianBlur3176" />
    </filter>
    <linearGradient
       gradientTransform="matrix(1.0058652,0,0,0.994169,0,12)"
       gradientUnits="userSpaceOnUse"
       xlink:href="#ButtonShadow"
       id="linearGradient3664"
       y2="5.297224"
       x2="45.447727"
       y1="80.471962"
       x1="45.447727" />
    <clipPath
       id="clipPath3860">
      <rect
         style="fill:#ff00ff;fill-opacity:1;fill-rule:nonzero;stroke:none"
         id="rect3862"
         y="18"
         x="6"
         ry="6"
         rx="6"
         height="72"
         width="84" />
    </clipPath>
    <filter
       style="color-interpolation-filters:sRGB"
       id="filter3870"
       height="1.3943198"
       width="1.331176"
       y="-0.19715989"
       x="-0.16558799">
      <feGaussianBlur
         stdDeviation="5.1703125"
         id="feGaussianBlur3872" />
    </filter>
    <linearGradient
       id="linearGradient3699">
      <stop
         offset="0"
         style="stop-color:#28323c;stop-opacity:0.78431374"
         id="stop3701" />
      <stop
         offset="1"
         style="stop-color:#28323c;stop-opacity:0.39215687"
         id="stop3703" />
    </linearGradient>
    <linearGradient
       gradientUnits="userSpaceOnUse"
       xlink:href="#linearGradient3874"
       id="linearGradient3123"
       y2="81.481377"
       x2="48.021698"
       y1="22.933374"
       x1="48.021698" />
    <linearGradient
       gradientTransform="matrix(0.72,0,0,0.72,1.92,-5.52)"
       gradientUnits="userSpaceOnUse"
       xlink:href="#linearGradient4008"
       id="linearGradient3105"
       y2="26.986736"
       x2="34.85965"
       y1="16.275133"
       x1="34.85965" />
    <linearGradient
       gradientUnits="userSpaceOnUse"
       xlink:href="#ButtonShadow"
       id="linearGradient3952"
       y2="7"
       x2="43"
       y1="91"
       x1="43" />
    <linearGradient
       gradientUnits="userSpaceOnUse"
       xlink:href="#ButtonShadow"
       id="linearGradient3961"
       y2="7"
       x2="45"
       y1="92"
       x1="45" />
    <linearGradient
       gradientUnits="userSpaceOnUse"
       xlink:href="#ButtonShadow"
       id="linearGradient3969"
       y2="7"
       x2="45"
       y1="92"
       x1="45" />
    <linearGradient
       gradientUnits="userSpaceOnUse"
       xlink:href="#ButtonShadow"
       id="linearGradient3977"
       y2="7"
       x2="45"
       y1="92"
       x1="45" />
    <linearGradient
       gradientUnits="userSpaceOnUse"
       xlink:href="#ButtonShadow"
       id="linearGradient3986"
       y2="7"
       x2="45"
       y1="92"
       x1="45" />
    <linearGradient
       gradientTransform="translate(68,-1)"
       gradientUnits="userSpaceOnUse"
       xlink:href="#linearGradient3699"
       id="linearGradient3087"
       y2="32"
       x2="56"
       y1="76"
       x1="56" />
    <linearGradient
       gradientTransform="translate(0,-2)"
       gradientUnits="userSpaceOnUse"
       xlink:href="#linearGradient3699"
       id="linearGradient3975"
       y2="32"
       x2="56"
       y1="76"
       x1="56" />
    <linearGradient
       gradientTransform="translate(0,-1)"
       gradientUnits="userSpaceOnUse"
       xlink:href="#linearGradient3699"
       id="linearGradient3989"
       y2="32"
       x2="56"
       y1="76"
       x1="56" />
    <linearGradient
       gradientTransform="translate(0,-1)"
       gradientUnits="userSpaceOnUse"
       xlink:href="#linearGradient3699"
       id="linearGradient4002"
       y2="32"
       x2="56"
       y1="76"
       x1="56" />
    <radialGradient
       gradientTransform="matrix(1.1573129,0,0,0.99590774,-7.551021,0.197132)"
       gradientUnits="userSpaceOnUse"
       xlink:href="#linearGradient3737-5"
       id="radialGradient2874"
       fy="90.171875"
       fx="48"
       r="42"
       cy="90.171875"
       cx="48" />
    <linearGradient
       id="linearGradient3737-5">
      <stop
         offset="0"
         style="stop-color:#ffffff;stop-opacity:1"
         id="stop3739-0" />
      <stop
         offset="1"
         style="stop-color:#ffffff;stop-opacity:0"
         id="stop3741-4" />
    </linearGradient>
    <linearGradient
       id="linearGradient3737">
      <stop
         offset="0"
         style="stop-color:#ffffff;stop-opacity:1"
         id="stop3739" />
      <stop
         offset="1"
         style="stop-color:#ffffff;stop-opacity:0"
         id="stop3741" />
    </linearGradient>
    <linearGradient
       gradientUnits="userSpaceOnUse"
       xlink:href="#linearGradient3737"
       id="linearGradient3916"
       y2="73.994667"
       x2="36.357143"
       y1="16"
       x1="36.357143" />
    <linearGradient
       gradientUnits="userSpaceOnUse"
       xlink:href="#linearGradient3699"
       id="linearGradient3248"
       y2="32.397678"
       x2="48.071056"
       y1="73.765587"
       x1="48.071056" />
    <linearGradient
       x1="48.071056"
       y1="73.765587"
       x2="48.071056"
       y2="32.397678"
       id="linearGradient3248-3"
       xlink:href="#linearGradient3699"
       gradientUnits="userSpaceOnUse"
       gradientTransform="matrix(0.31555004,0,0,0.33913065,0.85283033,-0.77385035)" />
    <linearGradient
       inkscape:collect="always"
       xlink:href="#linearGradient3699"
       id="linearGradient918"
       gradientUnits="userSpaceOnUse"
       gradientTransform="matrix(0.31555004,0,0,0.33913065,0.85283033,-0.77385035)"
       x1="48.071056"
       y1="73.765587"
       x2="48.071056"
       y2="32.397678" />
    <linearGradient
       inkscape:collect="always"
       xlink:href="#linearGradient3699"
       id="linearGradient920"
       gradientUnits="userSpaceOnUse"
       gradientTransform="matrix(0.31555004,0,0,0.33913065,0.85283033,-0.77385035)"
       x1="48.071056"
       y1="73.765587"
       x2="48.071056"
       y2="32.397678" />
    <linearGradient
       inkscape:collect="always"
       xlink:href="#linearGradient3699"
       id="linearGradient922"
       gradientUnits="userSpaceOnUse"
       gradientTransform="matrix(0.31555004,0,0,0.33913065,0.85283033,-0.77385035)"
       x1="48.071056"
       y1="73.765587"
       x2="48.071056"
       y2="32.397678" />
  </defs>
  <metadata
     id="metadata2413">
    <rdf:RDF>
      <cc:Work
         rdf:about="">
        <dc:format>image/svg+xml</dc:format>
        <dc:type
           rdf:resource="http://purl.org/dc/dcmitype/StillImage" />
        <dc:title></dc:title>
      </cc:Work>
    </rdf:RDF>
  </metadata>
  <g
     transform="translate(0,-64)"
     style="display:none"
     id="layer2">
    <path
       style="opacity:0.9;fill:url(#linearGradient3664);fill-opacity:1;fill-rule:nonzero;stroke:none;filter:url(#filter3174)"
       id="rect3745"
       d="M 14.96875,8.8028918 C 13.32891,8.8028918 12,10.085142 12,11.677892 V 19 c -3.324,0 -7,2.676 -7,6 v 61 c 0,3.324 2.676,6 6,6 h 74 c 3.324,0 6,-2.676 6,-6 V 25 c 0,-3.324 -3.74743,-6 -7.07143,-6 v -0.134608 c 0,-2.389125 -1.97774,-4.3125 -4.4375,-4.3125 H 36.15625 l -1.46875,-2.875 C 33.95414,10.253293 33.35859,8.8028918 31.71875,8.8028918 Z" />
  </g>
  <g
     transform="matrix(0.32608696,0,0,0.32608696,1,0.02173913)"
     id="g909">
    <g
       transform="translate(-2)"
       id="layer4"
       style="display:inline">
      <path
         d="M 14.125,4 C 9.6910704,4 6,7.568413 6,12 v 2.15625 C 3.6235961,15.958367 2,18.759045 2,22 v 63 c 0,5.503629 4.496371,10 10,10 h 72 c 5.503629,0 10,-4.496371 10,-10 V 22 C 94,18.516601 92.146607,15.546894 89.46875,13.78125 88.481551,10.491738 85.526024,8 81.875,8 h -39.5 C 40.972352,6.645177 39.835329,5.4903784 38.6875,4.84375 37.192287,4.0014231 35.756649,4.0295412 34.875,4 a 0.92780092,0.92780092 0 0 0 -0.03125,0 c -0.0012,-1.73e-5 -0.03009,-1.73e-5 -0.03125,0 h -0.03125 z"
         id="path3984"
         style="display:inline;opacity:0.07999998;fill:url(#linearGradient3986);fill-opacity:1;fill-rule:nonzero;stroke:none" />
      <path
         d="M 14.125,4.9375 C 10.184407,4.9375 6.9375,8.0807925 6.9375,12 v 2.59375 c -2.3826099,1.622076 -4,4.293928 -4,7.40625 v 63 c 0,5.001444 4.0610559,9.0625 9.0625,9.0625 h 72 c 5.001444,0 9.0625,-4.061056 9.0625,-9.0625 V 22 c 0,-3.260846 -1.77319,-6.039741 -4.34375,-7.625 C 87.957559,11.279325 85.241489,8.9375 81.875,8.9375 H 42.0625 C 40.465021,7.3963057 39.290438,6.2599842 38.21875,5.65625 36.945571,4.9390059 35.771277,4.9685784 34.84375,4.9375 a 1.043776,1.043776 0 0 0 -0.03125,0 c -10e-7,0 -0.03125,0 -0.03125,0 z"
         id="path3975"
         style="display:inline;opacity:0.1;fill:url(#linearGradient3977);fill-opacity:1;fill-rule:nonzero;stroke:none" />
      <path
         d="M 14.125,5.96875 C 10.736326,5.96875 7.96875,8.6567706 7.96875,12 v 3.125 c -2.3751432,1.394016 -4,3.920462 -4,6.875 v 63 c 0,4.438141 3.5931086,8.03125 8.03125,8.03125 h 72 c 4.438141,0 8.03125,-3.593109 8.03125,-8.03125 V 22 c 0,-3.031992 -1.712245,-5.604362 -4.1875,-6.96875 C 87.351857,12.17163 84.915107,9.96875 81.875,9.96875 H 41.6875 C 39.852667,8.1939079 38.678863,7.1033787 37.71875,6.5625 36.681475,5.9781523 35.778304,6.0011109 34.8125,5.96875 a 1.043776,1.043776 0 0 0 -0.03125,0 z"
         id="path3967"
         style="display:inline;opacity:0.2;fill:url(#linearGradient3969);fill-opacity:1;fill-rule:nonzero;stroke:none" />
      <path
         d="M 14.125,7 C 11.282105,7 9,9.23 9,12 v 3.6875 C 6.6359408,16.808884 5,19.200342 5,22 v 63 c 0,3.878 3.122,7 7,7 h 72 c 3.878,0 7,-3.122 7,-7 V 22 C 91,19.190264 89.346632,16.803629 86.96875,15.6875 86.799101,13.069075 84.606585,11 81.875,11 H 41.28125 c -4.220528,-4.1123102 -4.502768,-3.9330794 -6.5,-4 z"
         id="path3908-1"
         style="display:inline;opacity:0.3;fill:url(#linearGradient3961);fill-opacity:1;fill-rule:nonzero;stroke:none" />
      <path
         d="m 15,7 c -2.77,0 -5,2.23 -5,5 v 3.34375 C 7.6664933,16.164656 6,18.378887 6,21 v 64 c 0,3.324 2.676,6 6,6 h 72 c 3.324,0 6,-2.676 6,-6 V 21 C 90,18.358112 88.300137,16.148775 85.9375,15.34375 85.611464,12.893448 83.542274,11 81,11 H 40.46875 C 36.35644,6.8876898 36.102271,7.0669206 34.15625,7 Z"
         id="path3941"
         style="display:inline;opacity:0.45;fill:url(#linearGradient3952);fill-opacity:1;fill-rule:nonzero;stroke:none" />
    </g>
    <g
       transform="translate(-2)"
       id="layer3"
       style="display:inline">
      <rect
         width="75"
         height="62.678574"
         rx="6"
         ry="6"
         x="10.535714"
         y="23.142857"
         id="rect3352"
         style="display:inline;fill:url(#linearGradient3361);fill-opacity:1;fill-rule:nonzero;stroke:none" />
      <path
         d="m 15,6 c -2.77,0 -5,2.23 -5,5 v 59.8125 c 0,2.39328 1.91922,4.3125 4.3125,4.3125 h 67.375 C 84.08078,75.125 86,73.20578 86,70.8125 V 15 c 0,-2.77 -2.23,-5 -5,-5 H 40.46875 C 36.35644,5.8876898 36.102271,6.0669206 34.15625,6 Z"
         id="path3908"
         style="display:inline;fill:url(#linearGradient3105);fill-opacity:1;fill-rule:nonzero;stroke:none" />
      <path
         d="M 15,6.0666666 C 12.23,6.0666666 10,8.23 10,11 v 59.8125 c 0,2.39328 1.91922,4.3125 4.3125,4.3125 h 67.375 C 84.08078,75.125 86,73.20578 86,70.8125 V 15 c 0,-2.77 -2.23,-4.962 -5,-4.962 l -40.53125,0 C 36.35644,5.9256896 36.102271,6.1335872 34.15625,6.0666666 Z m 0,3.0666666 h 20 c 1.9794,1.5677338 3.832352,2.7947368 5.46875,4.1713338 L 81,13.104667 c 2.209832,-0.0109 3.96875,0.685474 3.96875,2.895333 v 54.8125 c 0,1.835319 -1.445931,3.28125 -3.28125,3.28125 h -67.375 c -1.835319,0 -3.28125,-1.445931 -3.28125,-3.28125 V 13.104667 c 0,-2.209859 1.761721,-3.8595398 3.96875,-3.9713338 z"
         id="path3108"
         style="display:inline;opacity:0.2;fill:#ffffff;fill-opacity:1;fill-rule:nonzero;stroke:none" />
    </g>
    <g
       transform="translate(-2)"
       id="layer1"
       style="display:inline">
      <path
         id="rect2419"
         d="m 12,15.266667 h 72 c 3.324,0 6,2.409333 6,5.733333 v 62 c 0,3.324 -2.676,6 -6,6 H 12 C 8.676,89 6,86.324 6,83 V 21 c 0,-3.324 2.676,-5.733333 6,-5.733333 z"
         style="fill:url(#linearGradient3706);fill-opacity:1;fill-rule:nonzero;stroke:none" />
      <path
         d="M 12,15.266667 C 8.676,15.266667 6,17.676 6,21 v 2 59 2 c 0,0.334721 0.04135,0.6507 0.09375,0.96875 0.0487,0.295596 0.09704,0.596915 0.1875,0.875 0.00988,0.03038 0.020892,0.0636 0.03125,0.09375 0.098865,0.287771 0.2348802,0.547452 0.375,0.8125 0.1445918,0.273507 0.3156161,0.535615 0.5,0.78125 0.1843839,0.245635 0.3737765,0.473472 0.59375,0.6875 0.439947,0.428056 0.94291,0.814526 1.5,1.09375 0.278545,0.139612 0.5734731,0.246947 0.875,0.34375 -0.2562018,-0.100222 -0.4867109,-0.236272 -0.71875,-0.375 -0.00741,-0.0044 -0.023866,0.0045 -0.03125,0 -0.031933,-0.0193 -0.062293,-0.04251 -0.09375,-0.0625 -0.120395,-0.0767 -0.2310226,-0.163513 -0.34375,-0.25 -0.1061728,-0.0808 -0.2132809,-0.161112 -0.3125,-0.25 C 8.4783201,88.557317 8.3087904,88.373362 8.15625,88.1875 8.0486711,88.057245 7.9378561,87.922215 7.84375,87.78125 7.818661,87.74287 7.805304,87.69538 7.78125,87.65625 7.716487,87.553218 7.6510225,87.451733 7.59375,87.34375 7.4927417,87.149044 7.3880752,86.928049 7.3125,86.71875 7.30454,86.69694 7.288911,86.6782 7.28125,86.65625 7.2494249,86.5643 7.2454455,86.469419 7.21875,86.375 7.1884177,86.268382 7.1483606,86.171969 7.125,86.0625 7.0521214,85.720988 7,85.364295 7,85 v -2 c -6.06e-5,-19.970708 0,-40.194332 0,-60.066667 0.9100388,-2.073817 2.2181517,-4.6 5,-4.6 24.97913,0 50.58202,0 72,0 2.781848,0 5,1.818152 5,4.6 C 89,42.955555 89,62.977778 89,83 v 2 c 0,0.364295 -0.05212,0.720988 -0.125,1.0625 -0.04415,0.206893 -0.08838,0.397658 -0.15625,0.59375 -0.0077,0.02195 -0.0233,0.04069 -0.03125,0.0625 -0.06274,0.173739 -0.138383,0.367449 -0.21875,0.53125 -0.04158,0.0828 -0.07904,0.169954 -0.125,0.25 -0.0546,0.09721 -0.126774,0.18835 -0.1875,0.28125 -0.09411,0.140965 -0.204921,0.275995 -0.3125,0.40625 -0.143174,0.17445 -0.303141,0.346998 -0.46875,0.5 -0.01117,0.0102 -0.01998,0.02115 -0.03125,0.03125 -0.138386,0.125556 -0.285091,0.234436 -0.4375,0.34375 -0.102571,0.07315 -0.204318,0.153364 -0.3125,0.21875 -0.0074,0.0045 -0.02384,-0.0044 -0.03125,0 -0.232039,0.138728 -0.462548,0.274778 -0.71875,0.375 0.301527,-0.0968 0.596455,-0.204138 0.875,-0.34375 0.55709,-0.279224 1.060053,-0.665694 1.5,-1.09375 0.219973,-0.214028 0.409366,-0.441865 0.59375,-0.6875 0.184384,-0.245635 0.355408,-0.507743 0.5,-0.78125 0.14012,-0.265048 0.276135,-0.524729 0.375,-0.8125 0.01041,-0.03078 0.02133,-0.06274 0.03125,-0.09375 0.09046,-0.278085 0.1388,-0.579404 0.1875,-0.875 C 89.95865,84.6507 90,84.334721 90,84 V 82 23 21 c 0,-3.324 -2.676,-5.733333 -6,-5.733333 z"
         id="rect3728"
         style="display:inline;opacity:0.35;fill:url(#linearGradient3916);fill-opacity:1;fill-rule:nonzero;stroke:none" />
      <path
         d="M 12,89 C 8.676,89 6,86.324 6,83 V 81 26 24 c 0,-0.334721 0.04135,-0.6507 0.09375,-0.96875 0.0487,-0.295596 0.09704,-0.596915 0.1875,-0.875 0.00988,-0.03038 0.020892,-0.0636 0.03125,-0.09375 0.098865,-0.287771 0.2348802,-0.547452 0.375,-0.8125 0.1445918,-0.273507 0.3156161,-0.535615 0.5,-0.78125 0.1843839,-0.245635 0.3737765,-0.473472 0.59375,-0.6875 0.439947,-0.428056 0.94291,-0.814526 1.5,-1.09375 0.278545,-0.139612 0.5734731,-0.246947 0.875,-0.34375 -0.2562018,0.100222 -0.4867109,0.236272 -0.71875,0.375 -0.00741,0.0044 -0.023866,-0.0045 -0.03125,0 -0.031933,0.0193 -0.062293,0.04251 -0.09375,0.0625 -0.120395,0.0767 -0.2310226,0.163513 -0.34375,0.25 -0.1061728,0.0808 -0.2132809,0.161112 -0.3125,0.25 -0.1779299,0.161433 -0.3474596,0.345388 -0.5,0.53125 -0.1075789,0.130255 -0.2183939,0.265285 -0.3125,0.40625 -0.025089,0.03838 -0.038446,0.08587 -0.0625,0.125 -0.064763,0.103032 -0.1302275,0.204517 -0.1875,0.3125 -0.1010083,0.194706 -0.2056748,0.415701 -0.28125,0.625 C 7.30454,21.30306 7.288911,21.3218 7.28125,21.34375 7.2494249,21.4357 7.2454455,21.530581 7.21875,21.625 7.1884177,21.731618 7.1483606,21.828031 7.125,21.9375 7.0521214,22.279012 7,22.635705 7,23 v 2 55 2 c 0,2.781848 2.2181517,5 5,5 h 2 68 2 c 2.781848,0 5,-2.218152 5,-5 V 80 25 23 c 0,-0.364295 -0.05212,-0.720988 -0.125,-1.0625 -0.04415,-0.206893 -0.08838,-0.397658 -0.15625,-0.59375 -0.0077,-0.02195 -0.0233,-0.04069 -0.03125,-0.0625 -0.06274,-0.173739 -0.138383,-0.367449 -0.21875,-0.53125 -0.04158,-0.0828 -0.07904,-0.169954 -0.125,-0.25 -0.0546,-0.09721 -0.126774,-0.18835 -0.1875,-0.28125 -0.09411,-0.140965 -0.204921,-0.275995 -0.3125,-0.40625 -0.143174,-0.17445 -0.303141,-0.346998 -0.46875,-0.5 -0.01117,-0.0102 -0.01998,-0.02115 -0.03125,-0.03125 -0.138386,-0.125556 -0.285091,-0.234436 -0.4375,-0.34375 -0.102571,-0.07315 -0.204318,-0.153364 -0.3125,-0.21875 -0.0074,-0.0045 -0.02384,0.0044 -0.03125,0 -0.232039,-0.138728 -0.462548,-0.274778 -0.71875,-0.375 0.301527,0.0968 0.596455,0.204138 0.875,0.34375 0.55709,0.279224 1.060053,0.665694 1.5,1.09375 0.219973,0.214028 0.409366,0.441865 0.59375,0.6875 0.184384,0.245635 0.355408,0.507743 0.5,0.78125 0.14012,0.265048 0.276135,0.524729 0.375,0.8125 0.01041,0.03078 0.02133,0.06274 0.03125,0.09375 0.09046,0.278085 0.1388,0.579404 0.1875,0.875 C 89.95865,23.3493 90,23.665279 90,24 v 2 55 2 c 0,3.324 -2.676,6 -6,6 z"
         id="path3615"
         style="display:inline;opacity:0.2;fill:url(#radialGradient2874);fill-opacity:1;fill-rule:nonzero;stroke:none" />
    </g>
    <g
       transform="translate(-2)"
       id="layer5"
       style="display:inline">
      <path
         d="m 15.96875,22.53125 c -2.845903,0.0043 -5.433244,2.591597 -5.4375,5.4375 v 48.0625 c 0.0043,2.845903 2.591597,5.433244 5.4375,5.4375 h 64.0625 c 2.845903,-0.0043 5.433244,-2.591597 5.4375,-5.4375 v -48.0625 c -0.0043,-2.845903 -2.591597,-5.433244 -5.4375,-5.4375 z"
         clip-path="url(#clipPath3860)"
         id="path3850"
         style="opacity:0.15;fill:url(#linearGradient3123);fill-opacity:1;fill-rule:nonzero;stroke:none;filter:url(#filter3870)" />
    </g>
  </g>
  <g
     id="layer6"
     transform="matrix(0.47337171,0,0,0.47337171,54.353158,-15.789808)" />
  <path
     d="m 15.999235,10.078332 c -3.391767,0 -6.7800665,1.394332 -9.3678921,4.175546 l 1.5580265,1.674458 c 4.3130476,-4.635357 11.3066786,-4.635357 15.6197276,0 l 1.558028,-1.674458 c -2.587829,-2.781214 -5.976128,-4.175546 -9.36789,-4.175546 z m 0,4.74783 c -2.261179,0 -4.526614,0.922489 -6.2518371,2.776631 l 1.5678901,1.685056 c 2.587827,-2.781214 6.780061,-2.781214 9.367893,0 l 1.567889,-1.685056 c -1.725221,-1.854142 -3.990663,-2.776631 -6.251835,-2.776631 z m 0,4.747829 c -1.130587,0 -2.263308,0.461244 -3.125919,1.388317 l 3.125919,3.359512 3.125914,-3.359512 C 18.262541,20.035235 17.12982,19.573991 15.999235,19.573991 Z"
     inkscape:connector-curvature="0"
     id="path3717"
     style="opacity:0.9;fill:url(#linearGradient918);fill-opacity:1;stroke:none;stroke-width:0.32712796" />
  <path
     d="m 15.999235,10.078332 c -3.391767,0 -6.7800665,1.394332 -9.3678921,4.175546 l 1.5580265,1.674458 c 4.3130476,-4.635357 11.3066786,-4.635357 15.6197276,0 l 1.558028,-1.674458 c -2.587829,-2.781214 -5.976128,-4.175546 -9.36789,-4.175546 z m 0,0.657064 c 3.040011,0 6.055771,1.215889 8.460683,3.560875 l -0.690263,0.741845 c -4.419078,-4.269666 -11.121764,-4.269666 -15.5408453,0 l -0.690265,-0.741845 c 2.4049142,-2.344986 5.4206723,-3.560875 8.4606903,-3.560875 z m 0,4.090766 c -2.261179,0 -4.526614,0.922489 -6.2518371,2.776631 l 1.5678901,1.685056 c 2.587827,-2.781214 6.780061,-2.781214 9.367893,0 l 1.567889,-1.685056 c -1.725221,-1.854142 -3.990663,-2.776631 -6.251835,-2.776631 z m 0,0.657065 c 1.910963,0 3.806599,0.740381 5.34463,2.161957 l -0.70013,0.752447 c -2.683813,-2.429294 -6.605189,-2.429294 -9.289006,0 l -0.700123,-0.752447 c 1.538029,-1.421576 3.43366,-2.161957 5.344629,-2.161957 z m 0,4.090764 c -1.130587,0 -2.263308,0.461244 -3.125919,1.388317 l 3.125919,3.359512 3.125914,-3.359512 C 18.262541,20.035235 17.12982,19.573991 15.999235,19.573991 Z m 0,0.657065 c 0.773325,0 1.512022,0.324593 2.169403,0.826632 l -2.169403,2.331524 -2.169408,-2.331524 c 0.657384,-0.502039 1.396077,-0.826632 2.169408,-0.826632 z"
     inkscape:connector-curvature="0"
     id="path3920"
     style="opacity:0.25;fill:url(#linearGradient920);fill-opacity:1;stroke:none;stroke-width:0.32712796" />
  <path
     d="m 15.999235,10.078332 c -3.391767,0 -6.7800665,1.394332 -9.3678921,4.175546 l 1.5580265,1.674458 c 4.3130476,-4.635357 11.3066786,-4.635357 15.6197276,0 l 1.558028,-1.674458 c -2.587829,-2.781214 -5.976128,-4.175546 -9.36789,-4.175546 z m 0,0.349727 c 3.20748,0 6.40048,1.296245 8.894566,3.847015 l -1.104426,1.186957 c -4.373689,-4.441429 -11.206593,-4.441429 -15.5802861,0 L 7.1046668,14.275074 c 2.4940881,-2.55077 5.6870882,-3.847015 8.8945682,-3.847015 z m 0,4.398103 c -2.261179,0 -4.526614,0.922489 -6.2518371,2.776631 l 1.5678901,1.685056 c 2.587827,-2.781214 6.780061,-2.781214 9.367893,0 l 1.567889,-1.685056 c -1.725221,-1.854142 -3.990663,-2.776631 -6.251835,-2.776631 z m 0,0.349729 c 2.07745,0 4.148232,0.824343 5.778507,2.448098 l -1.114288,1.197555 c -2.644844,-2.589172 -6.683596,-2.589172 -9.328445,0 l -1.114285,-1.197555 c 1.630277,-1.623755 3.701059,-2.448098 5.778511,-2.448098 z m 0,4.3981 c -1.130587,0 -2.263308,0.461244 -3.125919,1.388317 l 3.125919,3.359512 3.125914,-3.359512 C 18.262541,20.035235 17.12982,19.573991 15.999235,19.573991 Z m 0,0.349729 c 0.946495,0 1.888808,0.359565 2.652593,1.059781 l -2.652593,2.850819 -2.652593,-2.850819 c 0.763781,-0.700216 1.706094,-1.059781 2.652593,-1.059781 z"
     inkscape:connector-curvature="0"
     id="path3907"
     style="opacity:0.5;fill:url(#linearGradient922);fill-opacity:1;stroke:none;stroke-width:0.32712796" />
  <path
     d="m 15.999235,10.078332 c -3.391767,0 -6.7800665,1.394332 -9.3678921,4.175546 l 0.1577748,0.169566 c 2.5667052,-2.669046 5.8875413,-4.005981 9.2101173,-4.005981 3.322576,0 6.643411,1.336935 9.210115,4.005981 l 0.157775,-0.169566 c -2.587829,-2.781214 -5.976128,-4.175546 -9.36789,-4.175546 z m 0,4.74783 c -2.261179,0 -4.526614,0.922489 -6.2518371,2.776631 l 0.157774,0.169565 c 1.7038611,-1.741559 3.9024391,-2.607067 6.0940631,-2.607067 2.191614,0 4.390195,0.865508 6.094057,2.607067 l 0.157778,-0.169565 c -1.725221,-1.854142 -3.990663,-2.776631 -6.251835,-2.776631 z m 0,4.747829 c -1.130587,0 -2.263308,0.461244 -3.125919,1.388317 l 0.167634,0.180161 c 0.839739,-0.816153 1.897326,-1.229348 2.958285,-1.229348 1.060959,0 2.118545,0.413195 2.95828,1.229348 l 0.167634,-0.180161 C 18.262541,20.035235 17.12982,19.573991 15.999235,19.573991 Z"
     inkscape:connector-curvature="0"
     id="path3898"
     style="fill:url(#linearGradient3248-3);fill-opacity:1;stroke:none;stroke-width:0.32712796" />
  <path
     d="m 15.999235,9.4000709 c -3.552481,0 -7.1038454,1.4667631 -9.8116353,4.3769051 -3.345e-4,5.84e-4 -0.01931,0.02067 -0.019732,0.0212 -3.299e-4,4.29e-4 -0.019311,0.03125 -0.019744,0.0318 -3.344e-4,5.85e-4 -0.019344,0.02062 -0.019733,0.0212 -3.3e-4,6.23e-4 -0.019344,0.0312 -0.019733,0.03178 -3.344e-4,6.25e-4 -0.019344,0.0206 -0.019744,0.0212 -3.3e-4,6.63e-4 -0.00956,0.03117 -0.00988,0.0318 -3.088e-4,6.63e-4 -0.019433,0.03116 -0.019733,0.0318 -2.822e-4,7.02e-4 -0.00956,0.03114 -0.00988,0.03178 -2.511e-4,7.02e-4 -0.00966,0.03114 -0.00988,0.0318 -2.178e-4,7.02e-4 -0.00966,0.02051 -0.00988,0.0212 -1.912e-4,7.02e-4 -0.00966,0.03111 -0.00988,0.0318 -1.556e-4,7.02e-4 -0.00978,0.04171 -0.00988,0.04239 -1.3e-4,7.02e-4 9.12e-5,0.03109 0,0.03179 -10e-5,7.42e-4 -0.00978,0.0311 -0.00988,0.03178 -6.1e-5,7.41e-4 3.56e-5,0.03109 0,0.03178 -3e-5,7.43e-4 0,0.03109 0,0.03178 0,7.4e-4 -3e-5,0.03109 0,0.0318 3.56e-5,7.41e-4 -6.1e-5,0.0311 0,0.03179 6.56e-5,7.4e-4 0.00978,0.0311 0.00988,0.03178 9.12e-5,7.42e-4 -1.3e-4,0.0311 0,0.0318 1.267e-4,7.03e-4 0.00966,0.04171 0.00988,0.04239 1.611e-4,7.02e-4 0.00966,0.03112 0.00988,0.03179 1.91e-4,7.02e-4 0.00966,0.02052 0.00988,0.02121 2.256e-4,7.02e-4 0.00956,0.03114 0.00988,0.03178 2.488e-4,7.02e-4 0.00956,0.03116 0.00988,0.0318 2.789e-4,7.02e-4 0.019388,0.03116 0.019733,0.0318 3.089e-4,6.63e-4 0.00956,0.03118 0.00988,0.0318 3.343e-4,6.64e-4 0.019388,0.02062 0.019744,0.0212 3.346e-4,6.25e-4 0.019344,0.03124 0.019733,0.03178 3.356e-4,6.24e-4 0.01931,0.02065 0.019733,0.0212 3.311e-4,5.84e-4 0.01931,0.03127 0.019744,0.03179 3.345e-4,5.85e-4 0.019255,0.02069 0.019732,0.0212 l 1.5580263,1.674459 c 3.346e-4,5.87e-4 0.01921,0.02073 0.019733,0.0212 3.355e-4,4.29e-4 0.029044,0.02075 0.02961,0.02121 9.233e-4,3.9e-4 0.01921,0.02077 0.019733,0.0212 9.234e-4,3.9e-4 0.029033,0.02081 0.029611,0.02121 9.221e-4,3.89e-4 0.019177,0.02084 0.019732,0.0212 9.232e-4,3.75e-4 0.028999,0.01024 0.02961,0.01059 9.235e-4,3.19e-4 0.029,0.0209 0.02961,0.0212 8.468e-4,3e-4 0.028966,0.01035 0.02961,0.01059 9.232e-4,2.68e-4 0.028956,0.01035 0.02961,0.01059 8.468e-4,2.39e-4 0.019088,0.01035 0.019733,0.01059 8.455e-4,2.04e-4 0.02891,0.01045 0.02961,0.01059 9.222e-4,1.72e-4 0.038821,0.01045 0.039433,0.01059 8.467e-4,1.38e-4 0.02891,-1.02e-4 0.02961,0 9.234e-4,1.04e-4 0.028965,0.01045 0.02961,0.01059 8.467e-4,7.1e-5 0.028911,-3.1e-5 0.029611,0 9.232e-4,3.6e-5 0.02891,0 0.02961,0 9.234e-4,0 0.028955,3.6e-5 0.029611,0 8.454e-4,-3.1e-5 0.028956,7.1e-5 0.02961,0 9.232e-4,-6.8e-5 0.028911,-0.01045 0.029611,-0.01059 8.455e-4,-1.02e-4 0.02891,1.38e-4 0.02961,0 9.222e-4,-1.37e-4 0.038821,-0.01045 0.039433,-0.01059 8.468e-4,-1.68e-4 0.028966,-0.01035 0.029611,-0.01059 9.232e-4,-2.04e-4 0.019088,-0.01035 0.019732,-0.01059 9.235e-4,-2.37e-4 0.028967,-0.01035 0.029611,-0.01059 8.455e-4,-2.7e-4 0.028999,-0.01024 0.02961,-0.01059 9.222e-4,-3.02e-4 0.029001,-0.02087 0.029611,-0.0212 9.222e-4,-3.24e-4 0.029044,-0.01024 0.02961,-0.01059 8.454e-4,-3.38e-4 0.019177,-0.02082 0.019733,-0.0212 8.465e-4,-3.91e-4 0.029032,-0.02078 0.02961,-0.02121 9.234e-4,-3.9e-4 0.01921,-0.02074 0.019744,-0.0212 9.235e-4,-3.9e-4 0.029088,-0.02072 0.02961,-0.02121 3.345e-4,-4.29e-4 0.019266,-0.02069 0.019733,-0.0212 4.072524,-4.376857 10.659717,-4.376857 14.732245,0 3.31e-4,5.87e-4 0.01921,0.02073 0.01974,0.0212 3.34e-4,4.29e-4 0.02904,0.02075 0.02961,0.02121 8.46e-4,3.9e-4 0.0192,0.02077 0.01974,0.0212 9.24e-4,3.9e-4 0.02904,0.02081 0.02961,0.02121 8.45e-4,3.89e-4 0.01918,0.02084 0.01974,0.0212 9.22e-4,3.75e-4 0.029,0.01024 0.02961,0.01059 8.47e-4,3.19e-4 0.029,0.0209 0.02961,0.0212 8.47e-4,3e-4 0.02896,0.01035 0.02961,0.01059 8.45e-4,2.68e-4 0.02896,0.01035 0.02961,0.01059 8.49e-4,2.39e-4 0.01909,0.01035 0.01975,0.01059 8.48e-4,2.04e-4 0.02896,0.01045 0.02961,0.01059 8.48e-4,1.72e-4 0.03882,0.01045 0.03943,0.01059 8.47e-4,1.38e-4 0.02891,-1.02e-4 0.02961,0 8.46e-4,1.04e-4 0.02897,0.01045 0.02961,0.01059 8.46e-4,7.1e-5 0.02892,-3.1e-5 0.02961,0 8.48e-4,3.6e-5 0.02891,0 0.02961,0 9.24e-4,0 0.02897,3.6e-5 0.02961,0 8.47e-4,-3.1e-5 0.02892,7.1e-5 0.02961,0 8.48e-4,-6.8e-5 0.0289,-0.01045 0.02961,-0.01059 8.46e-4,-1.02e-4 0.02897,1.38e-4 0.02961,0 8.46e-4,-1.37e-4 0.03882,-0.01045 0.03943,-0.01059 8.45e-4,-1.68e-4 0.02897,-0.01035 0.02961,-0.01059 8.45e-4,-2.04e-4 0.01908,-0.01035 0.01974,-0.01059 8.46e-4,-2.37e-4 0.02897,-0.01035 0.02961,-0.01059 8.47e-4,-2.7e-4 0.029,-0.01024 0.02961,-0.01059 8.46e-4,-3.02e-4 0.029,-0.02087 0.02961,-0.0212 9.23e-4,-3.24e-4 0.02904,-0.01024 0.02961,-0.01059 8.46e-4,-3.38e-4 0.01918,-0.02082 0.01974,-0.0212 9.23e-4,-3.91e-4 0.02903,-0.02078 0.02961,-0.02121 8.46e-4,-3.9e-4 0.01921,-0.02074 0.01974,-0.0212 9.23e-4,-3.9e-4 0.02908,-0.02072 0.02961,-0.02121 3.36e-4,-4.29e-4 0.01926,-0.02069 0.01974,-0.0212 l 1.558025,-1.674456 c 3.34e-4,-5.87e-4 0.01932,-0.02067 0.01975,-0.02121 3.35e-4,-4.28e-4 0.01933,-0.03126 0.01974,-0.0318 3.35e-4,-5.85e-4 0.01937,-0.02062 0.01974,-0.0212 3.35e-4,-6.24e-4 0.01935,-0.03121 0.01975,-0.03178 3.36e-4,-6.24e-4 0.01939,-0.0206 0.01974,-0.02121 3.36e-4,-6.63e-4 0.0096,-0.03116 0.0099,-0.03178 3.04e-4,-6.63e-4 0.01943,-0.03116 0.01974,-0.0318 2.79e-4,-7.02e-4 0.0096,-0.03114 0.0099,-0.0318 2.53e-4,-7.02e-4 0.0097,-0.03114 0.0099,-0.03178 2.21e-4,-7.02e-4 0.0097,-0.02052 0.0099,-0.0212 1.86e-4,-7.02e-4 0.0097,-0.03111 0.0099,-0.03179 1.6e-4,-7.02e-4 0.0098,-0.0417 0.0099,-0.04239 1.27e-4,-7.03e-4 -9.5e-5,-0.0311 0,-0.03178 9.7e-5,-7.41e-4 0.0098,-0.03109 0.0099,-0.0318 6.4e-5,-7.43e-4 -3.1e-5,-0.03109 0,-0.0318 3.3e-5,-7.39e-4 0,-0.0311 0,-0.03178 0,-7.42e-4 3.3e-5,-0.03109 0,-0.03178 -3.1e-5,-7.4e-4 6.4e-5,-0.0311 0,-0.0318 -6.1e-5,-7.42e-4 -0.0098,-0.0311 -0.0099,-0.03178 -9.5e-5,-7.4e-4 1.27e-4,-0.0311 0,-0.03178 -1.25e-4,-7.02e-4 -0.0097,-0.04171 -0.0099,-0.04239 -1.62e-4,-7.02e-4 -0.0097,-0.03112 -0.0099,-0.0318 -1.9e-4,-7.02e-4 -0.0097,-0.02052 -0.0099,-0.0212 -2.17e-4,-7.02e-4 -0.0096,-0.03114 -0.0099,-0.0318 -2.47e-4,-7.02e-4 -0.0096,-0.03116 -0.0099,-0.03179 -2.77e-4,-7.02e-4 -0.01939,-0.03116 -0.01974,-0.03179 -3.1e-4,-6.63e-4 -0.0096,-0.0312 -0.0099,-0.0318 -3.3e-4,-6.63e-4 -0.01935,-0.02062 -0.01974,-0.0212 -3.35e-4,-6.23e-4 -0.01936,-0.03124 -0.01975,-0.03178 -3.3e-4,-6.24e-4 -0.01933,-0.02066 -0.01974,-0.0212 -3.36e-4,-5.87e-4 -0.01931,-0.03128 -0.01974,-0.0318 -3.31e-4,-5.85e-4 -0.01931,-0.02069 -0.01979,-0.02121 -2.707597,-2.910155 -6.258961,-4.376918 -9.811438,-4.376918 z m 0,0.6782611 c 3.391762,0 6.780061,1.394332 9.36789,4.175546 l -1.558028,1.674458 c -4.313049,-4.635357 -11.30668,-4.635357 -15.6197276,0 L 6.6313429,14.253878 c 2.5878256,-2.781214 5.9761251,-4.175546 9.3678921,-4.175546 z m 0,4.069568 c -2.420721,0 -4.849263,0.993705 -6.6955793,2.977992 -3.348e-4,4.29e-4 -0.019316,0.02067 -0.019737,0.02121 -3.347e-4,4.3e-4 -0.019316,0.03125 -0.019737,0.03179 -3.338e-4,5.86e-4 -0.019337,0.02063 -0.019737,0.02121 -3.348e-4,6.24e-4 -0.019347,0.03123 -0.019737,0.03179 -3.304e-4,6.23e-4 -0.019389,0.0206 -0.019737,0.0212 -3.347e-4,6.62e-4 -0.00958,0.03117 -0.00989,0.03179 -3.084e-4,6.63e-4 -0.019431,0.03116 -0.019737,0.03179 -2.779e-4,7.02e-4 -0.00958,0.03114 -0.00989,0.03181 -2.525e-4,7.02e-4 -0.00966,0.03114 -0.00988,0.03177 -2.233e-4,7.02e-4 -0.00966,0.02051 -0.00988,0.0212 -1.867e-4,7.02e-4 -0.00966,0.03111 -0.00988,0.03178 -1.612e-4,7.01e-4 -0.00978,0.04171 -0.00988,0.04239 -1.267e-4,7.02e-4 9.55e-5,0.0311 0,0.03181 -9.57e-5,7.02e-4 -0.00978,0.0311 -0.00988,0.03178 -7e-5,7.02e-4 3.01e-5,0.03109 0,0.03179 -3.44e-5,7.02e-4 0,0.0311 0,0.0318 0,7.02e-4 -3.44e-5,0.03109 0,0.03178 3.01e-5,7.02e-4 -7e-5,0.0311 0,0.03178 6e-5,7.02e-4 0.00978,0.0311 0.00988,0.03178 9.55e-5,7.02e-4 -1.267e-4,0.03111 0,0.03178 1.255e-4,7.02e-4 0.00966,0.04171 0.00988,0.04239 1.566e-4,7.02e-4 0.00966,0.03112 0.00988,0.03178 1.922e-4,7.02e-4 0.00966,0.02052 0.00988,0.02121 2.166e-4,7.02e-4 0.00956,0.03114 0.00988,0.03178 2.474e-4,7.02e-4 0.00958,0.03116 0.00989,0.03177 2.789e-4,7.02e-4 0.019389,0.03118 0.019737,0.03181 3.096e-4,6.62e-4 0.00958,0.03119 0.00989,0.03179 3.316e-4,6.64e-4 0.019347,0.02062 0.019737,0.0212 3.338e-4,6.24e-4 0.019347,0.03124 0.019737,0.0318 3.315e-4,6.23e-4 0.019316,0.02065 0.019737,0.0212 3.357e-4,5.83e-4 0.019316,0.03127 0.019737,0.0318 3.304e-4,5.85e-4 0.019262,0.02069 0.019737,0.02121 l 1.5678913,1.685032 c 3.3e-4,4.31e-4 0.01922,0.02071 0.01974,0.0212 3.34e-4,4.31e-4 0.02908,0.02073 0.02962,0.02121 3.3e-4,3.91e-4 0.01921,0.02077 0.01975,0.0212 9.24e-4,3.9e-4 0.02903,0.0208 0.02961,0.0212 8.45e-4,3.9e-4 0.01918,0.02084 0.01974,0.02121 8.46e-4,3.72e-4 0.029,0.01024 0.0296,0.01059 9.24e-4,3.2e-4 0.029,0.0209 0.02962,0.0212 8.48e-4,3e-4 0.02896,0.01035 0.02961,0.01059 9.22e-4,2.69e-4 0.02896,0.01035 0.0296,0.01059 8.47e-4,2.35e-4 0.01909,0.01035 0.01974,0.01059 8.46e-4,2.04e-4 0.0289,0.01045 0.02961,0.01059 9.22e-4,1.71e-4 0.03879,0.01045 0.03943,0.01059 9.24e-4,1.35e-4 0.0289,-1.03e-4 0.02961,0 8.49e-4,1.03e-4 0.02896,0.01045 0.02961,0.01059 9.22e-4,7e-5 0.0289,-3.3e-5 0.0296,0 9.25e-4,3.5e-5 0.0289,0 0.02961,0 9.23e-4,0 0.02897,3.5e-5 0.02961,0 9.24e-4,-3.3e-5 0.02892,7e-5 0.0296,0 8.47e-4,-6.8e-5 0.02891,-0.01045 0.02961,-0.01059 9.22e-4,-1.03e-4 0.0289,1.35e-4 0.02961,0 8.45e-4,-1.37e-4 0.03882,-0.01045 0.03943,-0.01059 9.22e-4,-1.7e-4 0.02897,-0.01035 0.02961,-0.01059 8.47e-4,-2.07e-4 0.01908,-0.01035 0.01974,-0.01059 8.44e-4,-2.39e-4 0.02896,-0.01035 0.02961,-0.01059 9.24e-4,-2.67e-4 0.029,-0.01024 0.02962,-0.01059 9.22e-4,-3.01e-4 0.029,-0.02087 0.02961,-0.0212 9.23e-4,-3.21e-4 0.02903,-0.01024 0.02961,-0.01059 9.22e-4,-3.38e-4 0.01919,-0.02082 0.01974,-0.02121 9.25e-4,-3.89e-4 0.02908,-0.02079 0.02961,-0.0212 8.47e-4,-3.89e-4 0.01922,-0.02074 0.01974,-0.0212 3.3e-4,-3.89e-4 0.02908,-0.02071 0.02961,-0.02121 3.36e-4,-4.28e-4 0.01925,-0.02069 0.01974,-0.0212 2.347665,-2.5231 6.132746,-2.5231 8.480405,0 3.36e-4,4.31e-4 0.01921,0.02071 0.01974,0.0212 3.32e-4,4.31e-4 0.02904,0.02073 0.02961,0.02121 3.35e-4,3.91e-4 0.01921,0.02077 0.01974,0.0212 8.47e-4,3.9e-4 0.02904,0.0208 0.02961,0.0212 8.46e-4,3.9e-4 0.01919,0.02084 0.01974,0.02121 8.46e-4,3.72e-4 0.029,0.01024 0.02961,0.01059 8.46e-4,3.2e-4 0.029,0.0209 0.02961,0.0212 9.23e-4,3e-4 0.02897,0.01035 0.02961,0.01059 9.23e-4,2.69e-4 0.02897,0.01035 0.02961,0.01059 8.47e-4,2.35e-4 0.01909,0.01035 0.01974,0.01059 9.23e-4,2.04e-4 0.02896,0.01045 0.02961,0.01059 8.46e-4,1.71e-4 0.03879,0.01045 0.03943,0.01059 9.23e-4,1.35e-4 0.02891,-1.03e-4 0.02961,0 9.23e-4,1.03e-4 0.02891,0.01045 0.02961,0.01059 8.48e-4,7e-5 0.02891,-3.3e-5 0.02962,0 8.47e-4,3.5e-5 0.02892,0 0.02961,0 8.47e-4,0 0.0289,3.5e-5 0.02961,0 8.49e-4,-3.3e-5 0.02891,7e-5 0.02961,0 8.46e-4,-6.8e-5 0.02896,-0.01045 0.02961,-0.01059 9.24e-4,-1.03e-4 0.02891,1.35e-4 0.02961,0 9.23e-4,-1.37e-4 0.03882,-0.01045 0.03943,-0.01059 8.46e-4,-1.7e-4 0.02896,-0.01035 0.02961,-0.01059 9.23e-4,-2.07e-4 0.01909,-0.01035 0.01975,-0.01059 8.48e-4,-2.39e-4 0.02896,-0.01035 0.02962,-0.01059 9.24e-4,-2.67e-4 0.029,-0.01024 0.02961,-0.01059 9.24e-4,-3.01e-4 0.029,-0.02087 0.02961,-0.0212 8.45e-4,-3.21e-4 0.02904,-0.01024 0.02961,-0.01059 8.44e-4,-3.38e-4 0.01918,-0.02082 0.01974,-0.02121 8.46e-4,-3.89e-4 0.02908,-0.02079 0.02961,-0.0212 8.47e-4,-3.89e-4 0.01921,-0.02074 0.01974,-0.0212 3.35e-4,-3.89e-4 0.02908,-0.02071 0.02961,-0.02121 3.35e-4,-4.28e-4 0.01926,-0.02069 0.01974,-0.0212 l 1.567895,-1.685056 c 3.3e-4,-4.27e-4 0.01932,-0.02067 0.01975,-0.0212 3.34e-4,-4.28e-4 0.0193,-0.03126 0.01974,-0.03178 3.29e-4,-5.85e-4 0.01936,-0.02063 0.01975,-0.0212 3.34e-4,-6.25e-4 0.01935,-0.03123 0.01975,-0.03177 3.3e-4,-6.23e-4 0.01939,-0.0206 0.01974,-0.0212 3.36e-4,-6.62e-4 0.0096,-0.03117 0.0099,-0.03178 3.08e-4,-6.64e-4 0.01943,-0.03116 0.01974,-0.0318 2.75e-4,-7.03e-4 0.0096,-0.03114 0.0099,-0.0318 2.47e-4,-7.02e-4 0.0096,-0.03114 0.0099,-0.03178 2.22e-4,-7.02e-4 0.0097,-0.02052 0.0099,-0.02121 1.86e-4,-7.02e-4 0.0097,-0.03111 0.0099,-0.03178 1.58e-4,-7.02e-4 0.0098,-0.0417 0.0099,-0.04239 1.24e-4,-7.02e-4 -9.7e-5,-0.0311 0,-0.03178 8.9e-5,-7.02e-4 0.0098,-0.0311 0.0099,-0.0318 6.5e-5,-7.02e-4 -3.5e-5,-0.03109 0,-0.03177 3.1e-5,-7.02e-4 0,-0.03109 0,-0.03178 0,-7.01e-4 3.1e-5,-0.03109 0,-0.03178 -3.5e-5,-7.02e-4 6.5e-5,-0.0311 0,-0.03177 -6.5e-5,-7.03e-4 -0.0098,-0.0311 -0.0099,-0.03181 -9.7e-5,-7.02e-4 1.24e-4,-0.03111 0,-0.03181 -1.32e-4,-7.02e-4 -0.0097,-0.04171 -0.0099,-0.04239 -1.59e-4,-7.02e-4 -0.0097,-0.03113 -0.0099,-0.03178 -1.89e-4,-7.02e-4 -0.0097,-0.02052 -0.0099,-0.02121 -2.21e-4,-7.02e-4 -0.0096,-0.03114 -0.0099,-0.03177 -2.53e-4,-7.02e-4 -0.0096,-0.03116 -0.0099,-0.03178 -2.82e-4,-7.01e-4 -0.01939,-0.03116 -0.01974,-0.03178 -3.1e-4,-6.63e-4 -0.0096,-0.03118 -0.0099,-0.03178 -3.36e-4,-6.63e-4 -0.01934,-0.02062 -0.01974,-0.02121 -3.36e-4,-6.24e-4 -0.01936,-0.03124 -0.01975,-0.03179 -3.36e-4,-6.23e-4 -0.01932,-0.02065 -0.01975,-0.02121 -3.35e-4,-5.84e-4 -0.01932,-0.03127 -0.01974,-0.03178 -3.31e-4,-5.84e-4 -0.01926,-0.02069 -0.01975,-0.0212 -1.846386,-1.98429 -4.274934,-2.977995 -6.69565,-2.977995 z m 0,0.678262 c 2.261172,0 4.526614,0.922489 6.251835,2.776631 l -1.567889,1.685056 c -2.587832,-2.781214 -6.780066,-2.781214 -9.367893,0 L 9.7473979,17.602793 c 1.7252231,-1.854142 3.9906581,-2.776631 6.2518371,-2.776631 z m 0,4.069567 c -1.290296,0 -2.585926,0.532428 -3.569659,1.589674 -3.36e-4,4.31e-4 -0.01933,0.02067 -0.01974,0.0212 -3.31e-4,4.29e-4 -0.01932,0.03126 -0.01975,0.03181 -3.36e-4,5.84e-4 -0.01935,0.02063 -0.01974,0.02121 -3.3e-4,6.25e-4 -0.01935,0.03123 -0.01974,0.03178 -3.35e-4,6.24e-4 -0.01939,0.0206 -0.01975,0.0212 -3.3e-4,6.62e-4 -0.0096,0.03117 -0.0099,0.0318 -3.08e-4,6.63e-4 -0.01943,0.03116 -0.01974,0.0318 -2.82e-4,7.02e-4 -0.0096,0.03114 -0.0099,0.03179 -2.51e-4,7.02e-4 -0.0097,0.03114 -0.0099,0.03177 -2.18e-4,7.02e-4 -0.0097,0.02051 -0.0099,0.0212 -1.92e-4,7.02e-4 -0.0097,0.03111 -0.0099,0.03179 -1.59e-4,7.02e-4 -0.0098,0.0417 -0.0099,0.04239 -1.3e-4,7.03e-4 9.1e-5,0.0311 0,0.0318 -10e-5,7.02e-4 -0.0098,0.0311 -0.0099,0.0318 -6.4e-5,7.01e-4 3.1e-5,0.03109 0,0.03178 -2.9e-5,7.02e-4 0,0.03109 0,0.03177 0,7.02e-4 -2.9e-5,0.03109 0,0.03178 3.1e-5,7.02e-4 -6.4e-5,0.0311 0,0.03177 6.5e-5,7.02e-4 0.0098,0.0311 0.0099,0.03179 9.1e-5,7.02e-4 -1.3e-4,0.03111 0,0.03178 1.27e-4,7.03e-4 0.0097,0.04171 0.0099,0.04239 1.56e-4,7.02e-4 0.0097,0.03113 0.0099,0.0318 1.9e-4,7.02e-4 0.0097,0.02052 0.0099,0.0212 2.22e-4,7.01e-4 0.0096,0.03114 0.0099,0.03179 2.48e-4,7.02e-4 0.0096,0.03116 0.0099,0.03177 2.8e-4,7.02e-4 0.01939,0.03117 0.01974,0.03178 3.09e-4,6.64e-4 0.0096,0.03119 0.0099,0.03181 3.36e-4,6.62e-4 0.01939,0.02062 0.01975,0.02121 3.36e-4,6.23e-4 0.01936,0.03124 0.01974,0.03177 3.35e-4,6.24e-4 0.01933,0.02066 0.01974,0.02121 3.3e-4,5.85e-4 0.01932,0.03127 0.01975,0.03177 3.34e-4,4.3e-4 0.01926,0.0207 0.01974,0.0212 l 3.125915,3.359514 c 3.32e-4,5.85e-4 0.01921,0.02072 0.01974,0.0212 3.34e-4,4.28e-4 0.02903,0.02073 0.02961,0.02121 3.3e-4,3.9e-4 0.01921,0.02079 0.01974,0.0212 8.46e-4,3.9e-4 0.02903,0.02082 0.02961,0.02121 9.23e-4,3.91e-4 0.01919,0.02084 0.01974,0.0212 9.23e-4,3.38e-4 0.029,0.01024 0.02961,0.01059 9.23e-4,3.22e-4 0.029,0.0209 0.02961,0.0212 8.47e-4,3e-4 0.02897,0.01034 0.02961,0.01059 8.46e-4,2.66e-4 0.02896,0.01034 0.02961,0.01059 9.23e-4,2.38e-4 0.01909,0.01035 0.01974,0.01059 9.24e-4,2.02e-4 0.02897,0.01045 0.02961,0.01059 9.24e-4,1.71e-4 0.03879,0.01045 0.03943,0.01059 8.46e-4,1.38e-4 0.02897,-1.03e-4 0.02961,0 8.45e-4,1.03e-4 0.0289,0.01059 0.02961,0.01059 9.23e-4,6.6e-5 0.0289,-3.7e-5 0.02962,0 9.22e-4,3.4e-5 0.02896,0 0.02961,0 8.45e-4,0 0.0289,3.4e-5 0.02961,0 9.24e-4,-3.7e-5 0.02891,6.6e-5 0.02961,0 9.24e-4,-7e-5 0.02891,-0.01045 0.02961,-0.01059 8.45e-4,-1.03e-4 0.02897,1.38e-4 0.02961,0 8.48e-4,-1.38e-4 0.03882,-0.01045 0.03943,-0.01059 8.44e-4,-1.7e-4 0.02897,-0.01035 0.02961,-0.01059 9.24e-4,-2.06e-4 0.01908,-0.01034 0.01974,-0.01059 8.48e-4,-2.35e-4 0.02897,-0.01034 0.02961,-0.01059 9.23e-4,-2.71e-4 0.029,-0.01024 0.02961,-0.01059 8.45e-4,-3e-4 0.029,-0.02088 0.02961,-0.0212 8.48e-4,-3.2e-4 0.02904,-0.01024 0.02961,-0.01059 9.22e-4,-3.4e-4 0.01918,-0.0208 0.01974,-0.0212 8.45e-4,-3.9e-4 0.02908,-0.02076 0.02961,-0.02121 9.22e-4,-3.89e-4 0.01921,-0.02075 0.01974,-0.0212 8.46e-4,-3.89e-4 0.02908,-0.02072 0.02961,-0.02121 3.36e-4,-4.29e-4 0.01926,-0.02069 0.01974,-0.0212 l 3.125939,-3.359514 c 3.35e-4,-4.28e-4 0.01931,-0.02067 0.01974,-0.02121 3.31e-4,-4.27e-4 0.01932,-0.03125 0.01974,-0.03177 3.34e-4,-5.85e-4 0.01935,-0.02063 0.01975,-0.0212 3.3e-4,-6.24e-4 0.01936,-0.03123 0.01974,-0.03178 3.35e-4,-6.26e-4 0.01939,-0.0206 0.01974,-0.0212 3.31e-4,-6.63e-4 0.0096,-0.03118 0.0099,-0.03181 3.04e-4,-6.63e-4 0.01943,-0.03116 0.01974,-0.03177 2.82e-4,-7.02e-4 0.0096,-0.03114 0.0099,-0.03178 2.48e-4,-7.02e-4 0.0097,-0.03114 0.0099,-0.03181 2.19e-4,-7.02e-4 0.0097,-0.02051 0.0099,-0.0212 1.89e-4,-7.02e-4 0.0097,-0.03111 0.0099,-0.0318 1.62e-4,-7.02e-4 0.0098,-0.0417 0.0099,-0.04239 1.3e-4,-7.02e-4 -9.7e-5,-0.0311 0,-0.0318 10e-5,-7.02e-4 0.0098,-0.0311 0.0099,-0.03179 6.1e-5,-7.02e-4 -3.4e-5,-0.03109 0,-0.03177 3.1e-5,-7.02e-4 0,-0.0311 0,-0.0318 0,-7.02e-4 3.1e-5,-0.03109 0,-0.03178 -3.4e-5,-7.02e-4 6.1e-5,-0.0311 0,-0.03178 -6.4e-5,-7.02e-4 -0.0098,-0.0311 -0.0099,-0.03181 -9.7e-5,-7.02e-4 1.3e-4,-0.0311 0,-0.03178 -1.26e-4,-7.02e-4 -0.0097,-0.04171 -0.0099,-0.04239 -1.59e-4,-7.03e-4 -0.0097,-0.03113 -0.0099,-0.0318 -1.93e-4,-7.02e-4 -0.0097,-0.02051 -0.0099,-0.0212 -2.21e-4,-7.03e-4 -0.0096,-0.03114 -0.0099,-0.03177 -2.52e-4,-7.03e-4 -0.0096,-0.03116 -0.0099,-0.0318 -2.79e-4,-7.02e-4 -0.01939,-0.03117 -0.01974,-0.03181 -3.1e-4,-6.62e-4 -0.0096,-0.03119 -0.0099,-0.03178 -3.36e-4,-6.64e-4 -0.01936,-0.02062 -0.01974,-0.0212 -3.31e-4,-6.26e-4 -0.01936,-0.03124 -0.01974,-0.0318 -3.34e-4,-6.24e-4 -0.01931,-0.02066 -0.01975,-0.02121 -3.3e-4,-5.85e-4 -0.01932,-0.03127 -0.01974,-0.03178 -3.34e-4,-5.84e-4 -0.01926,-0.02069 -0.01974,-0.0212 -0.983743,-1.057242 -2.279373,-1.589669 -3.569666,-1.589669 z m 0,0.678262 c 1.130585,0 2.263306,0.461244 3.125914,1.388317 l -3.125914,3.359512 -3.125919,-3.359512 c 0.862611,-0.927073 1.995332,-1.388317 3.125919,-1.388317 z"
     inkscape:connector-curvature="0"
     id="path3942"
     style="opacity:0.05;fill:#ffffff;fill-opacity:1;stroke:none;stroke-width:0.32712796" />
  <path
     d="m 15.999235,9.7180074 c -3.477159,0 -6.952953,1.4317706 -9.6045584,4.2815226 a 0.33490261,0.35992941 0 0 0 0,0.508695 l 1.5580297,1.674459 a 0.33490261,0.35992941 0 0 0 0.4733249,0 c 4.1850658,-4.497808 10.9613358,-4.497808 15.1464008,0 a 0.33490261,0.35992941 0 0 0 0.47333,0 l 1.558027,-1.674459 a 0.33490261,0.35992941 0 0 0 0,-0.508695 C 22.952186,11.149778 19.476393,9.7180074 15.999235,9.7180074 Z m 0,0.3603246 c 3.391762,0 6.780061,1.394332 9.36789,4.175546 l -1.558028,1.674458 c -4.313049,-4.635357 -11.30668,-4.635357 -15.6197276,0 L 6.6313429,14.253878 c 2.5878256,-2.781214 5.9761251,-4.175546 9.3678921,-4.175546 z m 0,4.387503 c -2.345925,0 -4.698908,0.959282 -6.4884991,2.882612 a 0.33490261,0.35992941 0 0 0 0,0.508694 l 1.5678871,1.685056 a 0.33490261,0.35992941 0 0 0 0.473328,0 c 2.459968,-2.643794 6.434601,-2.643794 8.894567,0 a 0.33490261,0.35992941 0 0 0 0.473323,0 l 1.567891,-1.685056 a 0.33490261,0.35992941 0 0 0 0,-0.508694 c -1.789596,-1.92333 -4.142582,-2.882612 -6.488497,-2.882612 z m 0,0.360327 c 2.261172,0 4.526614,0.922489 6.251835,2.776631 l -1.567889,1.685056 c -2.587832,-2.781214 -6.780066,-2.781214 -9.367893,0 L 9.7473979,17.602793 c 1.7252231,-1.854142 3.9906581,-2.776631 6.2518371,-2.776631 z m 0,4.387501 c -1.21533,0 -2.435594,0.49804 -3.362583,1.494295 a 0.33490261,0.35992941 0 0 0 0,0.508696 l 3.125916,3.359513 a 0.33490261,0.35992941 0 0 0 0.473329,0 l 3.12592,-3.359513 a 0.33490261,0.35992941 0 0 0 0,-0.508696 c -0.926989,-0.996255 -2.147249,-1.494295 -3.362582,-1.494295 z m 0,0.360328 c 1.130585,0 2.263306,0.461244 3.125914,1.388317 l -3.125914,3.359512 -3.125919,-3.359512 c 0.862611,-0.927073 1.995332,-1.388317 3.125919,-1.388317 z"
     inkscape:connector-curvature="0"
     id="path3938"
     style="opacity:0.1;fill:#ffffff;fill-opacity:1;stroke:none;stroke-width:0.32712796" />
  <path
     d="m 15.999235,12.452246 c -2.826671,0 -5.653342,1.158411 -7.8098656,3.47609 L 6.7891177,14.423444 c -0.053455,0.05558 -0.1049873,0.112829 -0.1577748,0.169565 l 1.5580265,1.674458 c 4.3130476,-4.635358 11.3066786,-4.635358 15.6197276,0 l 1.558028,-1.674458 c -0.05279,-0.05674 -0.104316,-0.113984 -0.157775,-0.169565 l -1.400253,1.504892 c -2.156522,-2.317679 -4.983192,-3.47609 -7.809862,-3.47609 z m 0,4.747831 c -1.69502,0 -3.390033,0.697164 -4.683947,2.087772 L 9.9051719,17.772358 c -0.05407,0.05527 -0.104694,0.112533 -0.157774,0.169567 l 1.5678901,1.685054 c 2.587827,-2.781214 6.780061,-2.781214 9.367893,0 L 22.25107,17.941925 C 22.198,17.884905 22.147375,17.827632 22.093292,17.772358 l -1.410111,1.515491 c -1.293915,-1.390608 -2.988932,-2.087772 -4.683946,-2.087772 z m -2.958285,3.942392 c -0.05512,0.05356 -0.114512,0.101872 -0.167634,0.158967 l 3.125919,3.359514 3.125914,-3.359514 c -0.05312,-0.0571 -0.112528,-0.105407 -0.167634,-0.158967 l -2.95828,3.179351 z"
     inkscape:connector-curvature="0"
     id="path3975-5"
     style="opacity:0.2;fill:#ffffff;fill-opacity:1;stroke:none;stroke-width:0.32712796" />
</svg>
