<?xml version="1.0" encoding="UTF-8" standalone="no"?>
<svg
   xmlns:dc="http://purl.org/dc/elements/1.1/"
   xmlns:cc="http://creativecommons.org/ns#"
   xmlns:rdf="http://www.w3.org/1999/02/22-rdf-syntax-ns#"
   xmlns:svg="http://www.w3.org/2000/svg"
   xmlns="http://www.w3.org/2000/svg"
   xmlns:xlink="http://www.w3.org/1999/xlink"
   xmlns:sodipodi="http://sodipodi.sourceforge.net/DTD/sodipodi-0.dtd"
   xmlns:inkscape="http://www.inkscape.org/namespaces/inkscape"
   version="1.0"
   width="48"
   height="48"
   id="svg2408"
   sodipodi:docname="folder-recent.svg"
   inkscape:version="0.92.2 5c3e80d, 2017-08-06">
  <sodipodi:namedview
     pagecolor="#ffffff"
     bordercolor="#666666"
     borderopacity="1"
     objecttolerance="10"
     gridtolerance="10"
     guidetolerance="10"
     inkscape:pageopacity="0"
     inkscape:pageshadow="2"
     inkscape:window-width="1920"
     inkscape:window-height="1011"
     id="namedview71"
     showgrid="false"
     inkscape:zoom="16"
     inkscape:cx="32.025955"
     inkscape:cy="23.893094"
     inkscape:window-x="0"
     inkscape:window-y="32"
     inkscape:window-maximized="1"
     inkscape:current-layer="svg2408" />
  <defs
     id="defs2410">
    <linearGradient
       id="linearGradient4008">
      <stop
         id="stop4010"
         style="stop-color:#687284;stop-opacity:1"
         offset="0" />
      <stop
         id="stop4012"
         style="stop-color:#4c6173;stop-opacity:1"
         offset="0.71691591" />
      <stop
         id="stop4014"
         style="stop-color:#4d6070;stop-opacity:1"
         offset="1" />
    </linearGradient>
    <linearGradient
       id="linearGradient3874">
      <stop
         id="stop3876"
         style="stop-color:#ffffff;stop-opacity:1"
         offset="0" />
      <stop
         id="stop3878"
         style="stop-color:#ffffff;stop-opacity:0"
         offset="1" />
    </linearGradient>
    <linearGradient
       x1="11.794092"
       y1="3.2126782"
       x2="11.794092"
       y2="20.137329"
       id="linearGradient3317"
       gradientUnits="userSpaceOnUse"
       gradientTransform="scale(1.0598527,0.9435274)">
      <stop
         id="stop3319"
         style="stop-color:#c6953a;stop-opacity:1"
         offset="0" />
      <stop
         id="stop3321"
         style="stop-color:#ab7a1f;stop-opacity:1"
         offset="1" />
    </linearGradient>
    <linearGradient
       x1="48.035713"
       y1="25.910715"
       x2="48.035713"
       y2="85.821426"
       id="linearGradient3361"
       xlink:href="#linearGradient3317"
       gradientUnits="userSpaceOnUse" />
    <linearGradient
       id="linearGradient3187">
      <stop
         id="stop3189"
         style="stop-color:#455157;stop-opacity:1"
         offset="0" />
      <stop
         id="stop3191"
         style="stop-color:#57738b;stop-opacity:1"
         offset="1" />
    </linearGradient>
    <linearGradient
       x1="45.447727"
       y1="80.471962"
       x2="45.447727"
       y2="7.0165396"
       id="ButtonShadow"
       gradientUnits="userSpaceOnUse"
       gradientTransform="matrix(1.0058652,0,0,0.994169,0,12)">
      <stop
         id="stop3750"
         style="stop-color:#000000;stop-opacity:1"
         offset="0" />
      <stop
         id="stop3752"
         style="stop-color:#000000;stop-opacity:0.58823532"
         offset="1" />
    </linearGradient>
    <linearGradient
       x1="48"
       y1="78"
       x2="48"
       y2="5.9877172"
       id="linearGradient3706"
       xlink:href="#linearGradient3187"
       gradientUnits="userSpaceOnUse"
       gradientTransform="translate(0,8)" />
    <filter
       id="filter3174"
       style="color-interpolation-filters:sRGB">
      <feGaussianBlur
         id="feGaussianBlur3176"
         stdDeviation="1.71" />
    </filter>
    <linearGradient
       x1="45.447727"
       y1="80.471962"
       x2="45.447727"
       y2="5.297224"
       id="linearGradient3664"
       xlink:href="#ButtonShadow"
       gradientUnits="userSpaceOnUse"
       gradientTransform="matrix(1.0058652,0,0,0.994169,0,12)" />
    <clipPath
       id="clipPath3860">
      <rect
         width="84"
         height="72"
         rx="6"
         ry="6"
         x="6"
         y="18"
         id="rect3862"
         style="fill:#ff00ff;fill-opacity:1;fill-rule:nonzero;stroke:none" />
    </clipPath>
    <filter
       x="-0.16558799"
       y="-0.19715989"
       width="1.331176"
       height="1.3943198"
       id="filter3870"
       style="color-interpolation-filters:sRGB">
      <feGaussianBlur
         id="feGaussianBlur3872"
         stdDeviation="5.1703125" />
    </filter>
    <linearGradient
       id="linearGradient3699">
      <stop
         id="stop3701"
         style="stop-color:#28323c;stop-opacity:0.78431374"
         offset="0" />
      <stop
         id="stop3703"
         style="stop-color:#28323c;stop-opacity:0.39215687"
         offset="1" />
    </linearGradient>
    <linearGradient
       x1="48.021698"
       y1="22.933374"
       x2="48.021698"
       y2="81.481377"
       id="linearGradient3123"
       xlink:href="#linearGradient3874"
       gradientUnits="userSpaceOnUse" />
    <linearGradient
       x1="34.85965"
       y1="16.275133"
       x2="34.85965"
       y2="26.986736"
       id="linearGradient3105"
       xlink:href="#linearGradient4008"
       gradientUnits="userSpaceOnUse"
       gradientTransform="matrix(0.72,0,0,0.72,1.92,-5.52)" />
    <linearGradient
       x1="43"
       y1="91"
       x2="43"
       y2="7"
       id="linearGradient3952"
       xlink:href="#ButtonShadow"
       gradientUnits="userSpaceOnUse" />
    <linearGradient
       x1="45"
       y1="92"
       x2="45"
       y2="7"
       id="linearGradient3961"
       xlink:href="#ButtonShadow"
       gradientUnits="userSpaceOnUse" />
    <linearGradient
       x1="45"
       y1="92"
       x2="45"
       y2="7"
       id="linearGradient3969"
       xlink:href="#ButtonShadow"
       gradientUnits="userSpaceOnUse" />
    <linearGradient
       x1="45"
       y1="92"
       x2="45"
       y2="7"
       id="linearGradient3977"
       xlink:href="#ButtonShadow"
       gradientUnits="userSpaceOnUse" />
    <linearGradient
       x1="45"
       y1="92"
       x2="45"
       y2="7"
       id="linearGradient3986"
       xlink:href="#ButtonShadow"
       gradientUnits="userSpaceOnUse" />
    <linearGradient
       x1="56"
       y1="76"
       x2="56"
       y2="32"
       id="linearGradient3087"
       xlink:href="#linearGradient3699"
       gradientUnits="userSpaceOnUse"
       gradientTransform="translate(68,-1)" />
    <linearGradient
       x1="56"
       y1="76"
       x2="56"
       y2="32"
       id="linearGradient3975"
       xlink:href="#linearGradient3699"
       gradientUnits="userSpaceOnUse"
       gradientTransform="translate(0,-2)" />
    <linearGradient
       x1="56"
       y1="76"
       x2="56"
       y2="32"
       id="linearGradient3989"
       xlink:href="#linearGradient3699"
       gradientUnits="userSpaceOnUse"
       gradientTransform="translate(0,-1)" />
    <linearGradient
       x1="56"
       y1="76"
       x2="56"
       y2="32"
       id="linearGradient4002"
       xlink:href="#linearGradient3699"
       gradientUnits="userSpaceOnUse"
       gradientTransform="translate(0,-1)" />
    <radialGradient
       cx="48"
       cy="90.171875"
       r="42"
       fx="48"
       fy="90.171875"
       id="radialGradient2874"
       xlink:href="#linearGradient3737-5"
       gradientUnits="userSpaceOnUse"
       gradientTransform="matrix(1.1573129,0,0,0.99590774,-7.551021,0.197132)" />
    <linearGradient
       id="linearGradient3737-5">
      <stop
         id="stop3739-0"
         style="stop-color:#ffffff;stop-opacity:1"
         offset="0" />
      <stop
         id="stop3741-4"
         style="stop-color:#ffffff;stop-opacity:0"
         offset="1" />
    </linearGradient>
    <linearGradient
       id="linearGradient3737">
      <stop
         id="stop3739"
         style="stop-color:#ffffff;stop-opacity:1"
         offset="0" />
      <stop
         id="stop3741"
         style="stop-color:#ffffff;stop-opacity:0"
         offset="1" />
    </linearGradient>
    <linearGradient
       x1="36.357143"
       y1="16"
       x2="36.357143"
       y2="73.994667"
       id="linearGradient3916"
       xlink:href="#linearGradient3737"
       gradientUnits="userSpaceOnUse" />
    <linearGradient
       x1="48.071056"
       y1="73.765587"
       x2="48.071056"
       y2="32.397678"
       id="linearGradient3248"
       xlink:href="#linearGradient3699"
       gradientUnits="userSpaceOnUse" />
    <linearGradient
       x1="56"
       y1="76"
       x2="56"
       y2="32"
       id="linearGradient3117"
       xlink:href="#linearGradient3699"
       gradientUnits="userSpaceOnUse"
       gradientTransform="translate(0,-1.999995)" />
    <linearGradient
       inkscape:collect="always"
       xlink:href="#linearGradient3699"
       id="linearGradient916"
       gradientUnits="userSpaceOnUse"
       gradientTransform="translate(0,-1.999995)"
       x1="56"
       y1="76"
       x2="56"
       y2="32" />
    <linearGradient
       inkscape:collect="always"
       xlink:href="#linearGradient3699"
       id="linearGradient918"
       gradientUnits="userSpaceOnUse"
       gradientTransform="translate(0,-1.999995)"
       x1="56"
       y1="76"
       x2="56"
       y2="32" />
    <linearGradient
       inkscape:collect="always"
       xlink:href="#linearGradient3699"
       id="linearGradient920"
       gradientUnits="userSpaceOnUse"
       gradientTransform="translate(0,-1.999995)"
       x1="56"
       y1="76"
       x2="56"
       y2="32" />
  </defs>
  <metadata
     id="metadata2413">
    <rdf:RDF>
      <cc:Work
         rdf:about="">
        <dc:format>image/svg+xml</dc:format>
        <dc:type
           rdf:resource="http://purl.org/dc/dcmitype/StillImage" />
        <dc:title></dc:title>
      </cc:Work>
    </rdf:RDF>
  </metadata>
  <g
     id="layer2"
     style="display:none"
     transform="translate(0,-48)">
    <path
       d="M 14.96875,8.8028918 C 13.32891,8.8028918 12,10.085142 12,11.677892 V 19 c -3.324,0 -7,2.676 -7,6 v 61 c 0,3.324 2.676,6 6,6 h 74 c 3.324,0 6,-2.676 6,-6 V 25 c 0,-3.324 -3.74743,-6 -7.07143,-6 v -0.134608 c 0,-2.389125 -1.97774,-4.3125 -4.4375,-4.3125 H 36.15625 l -1.46875,-2.875 C 33.95414,10.253293 33.35859,8.8028918 31.71875,8.8028918 Z"
       id="rect3745"
       style="opacity:0.9;fill:url(#linearGradient3664);fill-opacity:1;fill-rule:nonzero;stroke:none;filter:url(#filter3174)" />
  </g>
  <g
     id="g909"
     transform="matrix(0.5,0,0,0.5,1,-0.5)">
    <g
       style="display:inline"
       id="layer4"
       transform="translate(-2)">
      <path
         style="display:inline;opacity:0.07999998;fill:url(#linearGradient3986);fill-opacity:1;fill-rule:nonzero;stroke:none"
         id="path3984"
         d="M 14.125,4 C 9.6910704,4 6,7.568413 6,12 v 2.15625 C 3.6235961,15.958367 2,18.759045 2,22 v 63 c 0,5.503629 4.496371,10 10,10 h 72 c 5.503629,0 10,-4.496371 10,-10 V 22 C 94,18.516601 92.146607,15.546894 89.46875,13.78125 88.481551,10.491738 85.526024,8 81.875,8 h -39.5 C 40.972352,6.645177 39.835329,5.4903784 38.6875,4.84375 37.192287,4.0014231 35.756649,4.0295412 34.875,4 a 0.92780092,0.92780092 0 0 0 -0.03125,0 c -0.0012,-1.73e-5 -0.03009,-1.73e-5 -0.03125,0 h -0.03125 z" />
      <path
         style="display:inline;opacity:0.1;fill:url(#linearGradient3977);fill-opacity:1;fill-rule:nonzero;stroke:none"
         id="path3975"
         d="M 14.125,4.9375 C 10.184407,4.9375 6.9375,8.0807925 6.9375,12 v 2.59375 c -2.3826099,1.622076 -4,4.293928 -4,7.40625 v 63 c 0,5.001444 4.0610559,9.0625 9.0625,9.0625 h 72 c 5.001444,0 9.0625,-4.061056 9.0625,-9.0625 V 22 c 0,-3.260846 -1.77319,-6.039741 -4.34375,-7.625 C 87.957559,11.279325 85.241489,8.9375 81.875,8.9375 H 42.0625 C 40.465021,7.3963057 39.290438,6.2599842 38.21875,5.65625 36.945571,4.9390059 35.771277,4.9685784 34.84375,4.9375 a 1.043776,1.043776 0 0 0 -0.03125,0 c -10e-7,0 -0.03125,0 -0.03125,0 z" />
      <path
         style="display:inline;opacity:0.2;fill:url(#linearGradient3969);fill-opacity:1;fill-rule:nonzero;stroke:none"
         id="path3967"
         d="M 14.125,5.96875 C 10.736326,5.96875 7.96875,8.6567706 7.96875,12 v 3.125 c -2.3751432,1.394016 -4,3.920462 -4,6.875 v 63 c 0,4.438141 3.5931086,8.03125 8.03125,8.03125 h 72 c 4.438141,0 8.03125,-3.593109 8.03125,-8.03125 V 22 c 0,-3.031992 -1.712245,-5.604362 -4.1875,-6.96875 C 87.351857,12.17163 84.915107,9.96875 81.875,9.96875 H 41.6875 C 39.852667,8.1939079 38.678863,7.1033787 37.71875,6.5625 36.681475,5.9781523 35.778304,6.0011109 34.8125,5.96875 a 1.043776,1.043776 0 0 0 -0.03125,0 z" />
      <path
         style="display:inline;opacity:0.3;fill:url(#linearGradient3961);fill-opacity:1;fill-rule:nonzero;stroke:none"
         id="path3908-1"
         d="M 14.125,7 C 11.282105,7 9,9.23 9,12 v 3.6875 C 6.6359408,16.808884 5,19.200342 5,22 v 63 c 0,3.878 3.122,7 7,7 h 72 c 3.878,0 7,-3.122 7,-7 V 22 C 91,19.190264 89.346632,16.803629 86.96875,15.6875 86.799101,13.069075 84.606585,11 81.875,11 H 41.28125 c -4.220528,-4.1123102 -4.502768,-3.9330794 -6.5,-4 z" />
      <path
         style="display:inline;opacity:0.45;fill:url(#linearGradient3952);fill-opacity:1;fill-rule:nonzero;stroke:none"
         id="path3941"
         d="m 15,7 c -2.77,0 -5,2.23 -5,5 v 3.34375 C 7.6664933,16.164656 6,18.378887 6,21 v 64 c 0,3.324 2.676,6 6,6 h 72 c 3.324,0 6,-2.676 6,-6 V 21 C 90,18.358112 88.300137,16.148775 85.9375,15.34375 85.611464,12.893448 83.542274,11 81,11 H 40.46875 C 36.35644,6.8876898 36.102271,7.0669206 34.15625,7 Z" />
    </g>
    <g
       style="display:inline"
       id="layer3"
       transform="translate(-2)">
      <rect
         style="display:inline;fill:url(#linearGradient3361);fill-opacity:1;fill-rule:nonzero;stroke:none"
         id="rect3352"
         y="23.142857"
         x="10.535714"
         ry="6"
         rx="6"
         height="62.678574"
         width="75" />
      <path
         style="display:inline;fill:url(#linearGradient3105);fill-opacity:1;fill-rule:nonzero;stroke:none"
         id="path3908"
         d="m 15,6 c -2.77,0 -5,2.23 -5,5 v 59.8125 c 0,2.39328 1.91922,4.3125 4.3125,4.3125 h 67.375 C 84.08078,75.125 86,73.20578 86,70.8125 V 15 c 0,-2.77 -2.23,-5 -5,-5 H 40.46875 C 36.35644,5.8876898 36.102271,6.0669206 34.15625,6 Z" />
      <path
         style="display:inline;opacity:0.2;fill:#ffffff;fill-opacity:1;fill-rule:nonzero;stroke:none"
         id="path3108"
         d="m 15,6 c -2.77,0 -5,2.23 -5,5 v 59.8125 c 0,2.39328 1.91922,4.3125 4.3125,4.3125 h 67.375 C 84.08078,75.125 86,73.20578 86,70.8125 V 15 c 0,-2.77 -2.23,-5 -5,-5 H 40.46875 C 36.35644,5.8876898 36.102271,6.0669206 34.15625,6 Z m 0,2 H 34.15625 35 c 0,0 2.675558,1.7568077 4.71875,3.8 0.202648,0.189762 0.472545,0.409724 0.75,0.4 L 81,12 c 2.209832,-0.0109 3.96875,1.790141 3.96875,4 v 54.8125 c 0,1.835319 -1.445931,3.28125 -3.28125,3.28125 h -67.375 c -1.835319,0 -3.28125,-1.445931 -3.28125,-3.28125 V 12 c 0,-2.2098586 1.761721,-3.888206 3.96875,-4 z" />
    </g>
    <g
       style="display:inline"
       id="layer1"
       transform="translate(-2)">
      <path
         style="fill:url(#linearGradient3706);fill-opacity:1;fill-rule:nonzero;stroke:none"
         d="m 12,15 h 72 c 3.324,0 6,2.676 6,6 v 62 c 0,3.324 -2.676,6 -6,6 H 12 C 8.676,89 6,86.324 6,83 V 21 c 0,-3.324 2.676,-6 6,-6 z"
         id="rect2419" />
      <path
         style="display:inline;opacity:0.35;fill:url(#linearGradient3916);fill-opacity:1;fill-rule:nonzero;stroke:none"
         id="rect3728"
         d="m 12,15 c -3.324,0 -6,2.676 -6,6 v 2 59 2 c 0,0.334721 0.04135,0.6507 0.09375,0.96875 0.0487,0.295596 0.09704,0.596915 0.1875,0.875 0.00988,0.03038 0.020892,0.0636 0.03125,0.09375 0.098865,0.287771 0.2348802,0.547452 0.375,0.8125 0.1445918,0.273507 0.3156161,0.535615 0.5,0.78125 0.1843839,0.245635 0.3737765,0.473472 0.59375,0.6875 0.439947,0.428056 0.94291,0.814526 1.5,1.09375 0.278545,0.139612 0.5734731,0.246947 0.875,0.34375 -0.2562018,-0.100222 -0.4867109,-0.236272 -0.71875,-0.375 -0.00741,-0.0044 -0.023866,0.0045 -0.03125,0 -0.031933,-0.0193 -0.062293,-0.04251 -0.09375,-0.0625 -0.120395,-0.0767 -0.2310226,-0.163513 -0.34375,-0.25 -0.1061728,-0.0808 -0.2132809,-0.161112 -0.3125,-0.25 C 8.4783201,88.557317 8.3087904,88.373362 8.15625,88.1875 8.0486711,88.057245 7.9378561,87.922215 7.84375,87.78125 7.818661,87.74287 7.805304,87.69538 7.78125,87.65625 7.716487,87.553218 7.6510225,87.451733 7.59375,87.34375 7.4927417,87.149044 7.3880752,86.928049 7.3125,86.71875 7.30454,86.69694 7.288911,86.6782 7.28125,86.65625 7.2494249,86.5643 7.2454455,86.469419 7.21875,86.375 7.1884177,86.268382 7.1483606,86.171969 7.125,86.0625 7.0521214,85.720988 7,85.364295 7,85 V 83 24 22 c 0,-2.781848 2.2181517,-5 5,-5 h 2 68 2 c 2.781848,0 5,2.218152 5,5 v 2 59 2 c 0,0.364295 -0.05212,0.720988 -0.125,1.0625 -0.04415,0.206893 -0.08838,0.397658 -0.15625,0.59375 -0.0077,0.02195 -0.0233,0.04069 -0.03125,0.0625 -0.06274,0.173739 -0.138383,0.367449 -0.21875,0.53125 -0.04158,0.0828 -0.07904,0.169954 -0.125,0.25 -0.0546,0.09721 -0.126774,0.18835 -0.1875,0.28125 -0.09411,0.140965 -0.204921,0.275995 -0.3125,0.40625 -0.143174,0.17445 -0.303141,0.346998 -0.46875,0.5 -0.01117,0.0102 -0.01998,0.02115 -0.03125,0.03125 -0.138386,0.125556 -0.285091,0.234436 -0.4375,0.34375 -0.102571,0.07315 -0.204318,0.153364 -0.3125,0.21875 -0.0074,0.0045 -0.02384,-0.0044 -0.03125,0 -0.232039,0.138728 -0.462548,0.274778 -0.71875,0.375 0.301527,-0.0968 0.596455,-0.204138 0.875,-0.34375 0.55709,-0.279224 1.060053,-0.665694 1.5,-1.09375 0.219973,-0.214028 0.409366,-0.441865 0.59375,-0.6875 0.184384,-0.245635 0.355408,-0.507743 0.5,-0.78125 0.14012,-0.265048 0.276135,-0.524729 0.375,-0.8125 0.01041,-0.03078 0.02133,-0.06274 0.03125,-0.09375 0.09046,-0.278085 0.1388,-0.579404 0.1875,-0.875 C 89.95865,84.6507 90,84.334721 90,84 V 82 23 21 c 0,-3.324 -2.676,-6 -6,-6 z" />
      <path
         style="display:inline;opacity:0.2;fill:url(#radialGradient2874);fill-opacity:1;fill-rule:nonzero;stroke:none"
         id="path3615"
         d="M 12,89 C 8.676,89 6,86.324 6,83 V 81 26 24 c 0,-0.334721 0.04135,-0.6507 0.09375,-0.96875 0.0487,-0.295596 0.09704,-0.596915 0.1875,-0.875 0.00988,-0.03038 0.020892,-0.0636 0.03125,-0.09375 0.098865,-0.287771 0.2348802,-0.547452 0.375,-0.8125 0.1445918,-0.273507 0.3156161,-0.535615 0.5,-0.78125 0.1843839,-0.245635 0.3737765,-0.473472 0.59375,-0.6875 0.439947,-0.428056 0.94291,-0.814526 1.5,-1.09375 0.278545,-0.139612 0.5734731,-0.246947 0.875,-0.34375 -0.2562018,0.100222 -0.4867109,0.236272 -0.71875,0.375 -0.00741,0.0044 -0.023866,-0.0045 -0.03125,0 -0.031933,0.0193 -0.062293,0.04251 -0.09375,0.0625 -0.120395,0.0767 -0.2310226,0.163513 -0.34375,0.25 -0.1061728,0.0808 -0.2132809,0.161112 -0.3125,0.25 -0.1779299,0.161433 -0.3474596,0.345388 -0.5,0.53125 -0.1075789,0.130255 -0.2183939,0.265285 -0.3125,0.40625 -0.025089,0.03838 -0.038446,0.08587 -0.0625,0.125 -0.064763,0.103032 -0.1302275,0.204517 -0.1875,0.3125 -0.1010083,0.194706 -0.2056748,0.415701 -0.28125,0.625 C 7.30454,21.30306 7.288911,21.3218 7.28125,21.34375 7.2494249,21.4357 7.2454455,21.530581 7.21875,21.625 7.1884177,21.731618 7.1483606,21.828031 7.125,21.9375 7.0521214,22.279012 7,22.635705 7,23 v 2 55 2 c 0,2.781848 2.2181517,5 5,5 h 2 68 2 c 2.781848,0 5,-2.218152 5,-5 V 80 25 23 c 0,-0.364295 -0.05212,-0.720988 -0.125,-1.0625 -0.04415,-0.206893 -0.08838,-0.397658 -0.15625,-0.59375 -0.0077,-0.02195 -0.0233,-0.04069 -0.03125,-0.0625 -0.06274,-0.173739 -0.138383,-0.367449 -0.21875,-0.53125 -0.04158,-0.0828 -0.07904,-0.169954 -0.125,-0.25 -0.0546,-0.09721 -0.126774,-0.18835 -0.1875,-0.28125 -0.09411,-0.140965 -0.204921,-0.275995 -0.3125,-0.40625 -0.143174,-0.17445 -0.303141,-0.346998 -0.46875,-0.5 -0.01117,-0.0102 -0.01998,-0.02115 -0.03125,-0.03125 -0.138386,-0.125556 -0.285091,-0.234436 -0.4375,-0.34375 -0.102571,-0.07315 -0.204318,-0.153364 -0.3125,-0.21875 -0.0074,-0.0045 -0.02384,0.0044 -0.03125,0 -0.232039,-0.138728 -0.462548,-0.274778 -0.71875,-0.375 0.301527,0.0968 0.596455,0.204138 0.875,0.34375 0.55709,0.279224 1.060053,0.665694 1.5,1.09375 0.219973,0.214028 0.409366,0.441865 0.59375,0.6875 0.184384,0.245635 0.355408,0.507743 0.5,0.78125 0.14012,0.265048 0.276135,0.524729 0.375,0.8125 0.01041,0.03078 0.02133,0.06274 0.03125,0.09375 0.09046,0.278085 0.1388,0.579404 0.1875,0.875 C 89.95865,23.3493 90,23.665279 90,24 v 2 55 2 c 0,3.324 -2.676,6 -6,6 z" />
    </g>
    <g
       style="display:inline"
       id="layer5"
       transform="translate(-2)">
      <path
         style="opacity:0.15;fill:url(#linearGradient3123);fill-opacity:1;fill-rule:nonzero;stroke:none;filter:url(#filter3870)"
         id="path3850"
         clip-path="url(#clipPath3860)"
         d="m 15.96875,22.53125 c -2.845903,0.0043 -5.433244,2.591597 -5.4375,5.4375 v 48.0625 c 0.0043,2.845903 2.591597,5.433244 5.4375,5.4375 h 64.0625 c 2.845903,-0.0043 5.433244,-2.591597 5.4375,-5.4375 v -48.0625 c -0.0043,-2.845903 -2.591597,-5.433244 -5.4375,-5.4375 z" />
    </g>
  </g>
  <g
     transform="matrix(0.47337171,0,0,0.47337171,54.353158,0.210192)"
     id="layer6">
    <g
       transform="matrix(1.0143506,0,0,1.0109256,-111.83608,2.969213)"
       id="layer6-7">
      <path
         d="m 48,27.96875 c -12.551157,0 -22.762661,9.715452 -23.8125,22 H 22 c -1.57479,-0.0053 -2.554094,1.70846 -1.75,3.0625 l 3.5,6 3.5,6 c 0.782808,1.338409 2.717192,1.338409 3.5,0 l 3.5,-6 3.5,-6 C 38.554094,51.67721 37.57479,49.963428 36,49.96875 h -1.75 c 0.804894,-5.498998 4.749798,-9.911644 10,-11.375 C 44.081297,39.034205 43.96875,39.505906 43.96875,40 v 11.34375 h 0.0625 c -0.154893,1.010711 0.03287,2.022143 0.59375,2.84375 h -0.03125 c 0.02105,0.03266 0.01066,0.03264 0.03125,0.0625 0.01338,0.01941 0.01812,0.01299 0.03125,0.03125 0.224262,0.311734 0.459639,0.52214 0.5,0.5625 l 7.0625,7.09375 c 1.256134,1.256128 3.297504,1.630512 4.84375,0.625 -2.44285,2.097277 -5.575584,3.40625 -9.0625,3.40625 -2.551941,0 -4.906021,-0.679804 -6.96875,-1.875 -0.974379,-0.56662 -2.223852,-0.229684 -2.78125,0.75 l -3,5.21875 c -0.54537,0.967367 -0.210982,2.193456 0.75,2.75 3.534217,2.042709 7.635234,3.21875 12,3.21875 C 61.245811,76.03125 72.03125,65.245811 72.03125,52 72.03125,38.754189 61.245811,27.96875 48,27.96875 Z M 48,30 c 12.15026,0 22,9.84974 22,22 0,12.15026 -9.84974,22 -22,22 -4.00428,0 -7.76567,-1.06812 -11,-2.9375 l 3,-5.21875 C 42.35563,67.20866 45.08161,68 48,68 56.83656,68 64,60.83656 64,52 64,43.16344 56.83656,36 48,36 39.16344,36 32,43.16344 32,52 h 4 L 32.5,58 29,64 25.5,58 22,52 h 4 C 26,39.84974 35.84974,30 48,30 Z m -7.4e-5,8 c 1.108,0 2.16384,0.892 2.16384,2 V 51.1875 L 56.5,57.65625 c 0.783474,0.78347 0.886572,1.92593 0.25,2.5625 L 56.21875,60.75 c -0.636572,0.63657 -1.779026,0.53347 -2.5625,-0.25 l -7.0625,-7.09375 c -0.100161,-0.10016 -0.20415,-0.19287 -0.28125,-0.3125 -0.40156,-0.56074 -0.522232,-1.75 -0.522232,-1.75 L 46,40 c 0.02048,-1.107809 0.891926,-2 1.999926,-2 z M 51.75,38.59375 C 57.641086,40.235736 61.96875,45.571266 61.96875,52 c 0,3.486916 -1.308973,6.61965 -3.40625,9.0625 1.00552,-1.546248 0.631142,-3.587614 -0.625,-4.84375 l -5.90625,-5.875 V 40 c 0,-0.494094 -0.112547,-0.965795 -0.28125,-1.40625 z"
         inkscape:connector-curvature="0"
         id="path4561"
         style="color:#000000;display:inline;overflow:visible;visibility:visible;opacity:0.05;fill:#ffffff;fill-opacity:1;stroke:none;stroke-width:1.5;marker:none;enable-background:accumulate"
         sodipodi:nodetypes="scccccccccccscccccccccsccccssssssccssscccccccsssccccccccsscscccsc" />
      <path
         d="M 48,29 C 35.65203,29 25.62992,38.782808 25.09375,51 H 22 c -0.773717,-0.0068 -1.261788,0.829866 -0.875,1.5 l 3.5,6 3.5,6 c 0.380652,0.687694 1.369348,0.687694 1.75,0 l 3.5,-6 3.5,-6 C 37.261788,51.829866 36.773717,50.993173 36,51 H 33.09375 C 33.615046,43.179769 40.045662,37 48,37 c 8.29612,0 15,6.70388 15,15 0,8.29612 -6.70388,15 -15,15 -2.737619,0 -5.28886,-0.750061 -7.5,-2.03125 -0.482653,-0.280761 -1.101716,-0.111925 -1.375,0.375 l -3,5.21875 c -0.280761,0.482653 -0.111925,1.101716 0.375,1.375 C 39.882266,73.892384 43.81789,75 48,75 60.690701,75 71,64.690701 71,52 71,39.309299 60.690701,29 48,29 Z m 0,8 c -1.644703,0 -3,1.355297 -3,3 v 11.34375 c 0.0021,0.881325 0.08304,1.831048 0.46875,2.28125 0.01815,0.02817 0.01325,0.03712 0.03125,0.0625 0.152013,0.214303 0.309174,0.371675 0.375,0.4375 l 7.0625,7.09375 c 1.096156,1.096151 2.902238,1.347758 4,0.25 l 0.53125,-0.53125 c 1.097764,-1.097761 0.846161,-2.903845 -0.25,-4 L 50.581883,50.542074 V 40 c 0,-1.644703 -0.93718,-3 -2.581883,-3 z m 0,-7 c 12.15026,0 22,9.84974 22,22 0,12.15026 -9.84974,22 -22,22 -4.00428,0 -7.76567,-1.06812 -11,-2.9375 l 3,-5.21875 C 42.35563,67.20866 45.08161,68 48,68 56.83656,68 64,60.83656 64,52 64,43.16344 56.83656,36 48,36 39.16344,36 32,43.16344 32,52 h 4 L 32.5,58 29,64 25.5,58 22,52 h 4 C 26,39.84974 35.84974,30 48,30 Z m 0,8 c 1.108,0 1.745649,0.892 1.745649,2 V 50.979574 L 56.5,57.65625 c 0.783474,0.78347 0.886572,1.92593 0.25,2.5625 L 56.21875,60.75 c -0.636572,0.63657 -1.779026,0.53347 -2.5625,-0.25 l -7.0625,-7.09375 c -0.100161,-0.10016 -0.20415,-0.19287 -0.28125,-0.3125 -0.40156,-0.56074 -0.522232,-1.75 -0.522232,-1.75 L 46,40 c 0.02048,-1.107809 0.892,-2 2,-2 z"
         inkscape:connector-curvature="0"
         id="path4550"
         style="color:#000000;display:inline;overflow:visible;visibility:visible;opacity:0.1;fill:#ffffff;fill-opacity:1;stroke:none;stroke-width:1.5;marker:none;enable-background:accumulate"
         sodipodi:nodetypes="sccccccccccsssccccssssscccccccccsssssccssscccccccsssccccccccss" />
      <path
         d="M 48,30.000005 C 35.84974,30.000005 26,39.84974 26,52 h -4 l 3.5,6 3.5,6 3.5,-6 3.5,-6 h -4 c 0,-8.83656 7.16344,-16 16,-16 8.83656,0 16,7.16344 16,16 0,8.83656 -7.16344,16 -16,16 -2.91839,0 -5.64437,-0.79134 -8,-2.15625 L 37,71.0625 C 40.23433,72.93188 43.99572,74 48,74 60.15026,74 70,64.15026 70,52 70,39.84974 60.15026,30.000005 48,30.000005 Z M 48,38 c -1.108,0 -2,0.892 -2,2 v 11.34375 c -0.198606,0.53433 -0.08906,1.18926 0.3125,1.75 0.0771,0.11963 0.181089,0.21234 0.28125,0.3125 L 53.65625,60.5 c 0.783474,0.78347 1.925928,0.88657 2.5625,0.25 L 56.75,60.21875 c 0.636572,-0.63657 0.533474,-1.77903 -0.25,-2.5625 L 49.53898,51.1875 V 40 C 49.53898,38.892 49.108,38 48,38 Z"
         inkscape:connector-curvature="0"
         id="path4090"
         style="color:#000000;display:inline;overflow:visible;visibility:visible;opacity:0.9;fill:url(#linearGradient916);fill-opacity:1;stroke:none;stroke-width:1.5;marker:none;enable-background:accumulate"
         sodipodi:nodetypes="scccccccsssccsssssccccccccss" />
      <path
         d="M 48,30 C 35.84974,30 26,39.84974 26,52 h -4 l 3.5,6 3.5,6 3.5,-6 3.5,-6 h -4 c 0,-8.83656 7.16344,-16 16,-16 8.83656,0 16,7.16344 16,16 0,8.83656 -7.16344,16 -16,16 -2.91839,0 -5.64437,-0.79134 -8,-2.15625 L 37,71.0625 C 40.23433,72.93188 43.99572,74 48,74 60.15026,74 70,64.15026 70,52 70,39.84974 60.15026,30 48,30 Z m 0,1.96875 c 11.081222,0 20.03125,8.950028 20.03125,20.03125 0,11.081222 -8.950028,20.03125 -20.03125,20.03125 -2.937295,0 -5.648554,-0.775871 -8.15625,-1.90625 L 40.875,68.34375 c 2.202319,0.967434 4.56655,1.625 7.125,1.625 9.905596,0 17.96875,-8.063154 17.96875,-17.96875 0,-9.905596 -8.063154,-17.96875 -17.96875,-17.96875 -9.905596,0 -17.96875,8.063154 -17.96875,17.96875 0.0052,1.085142 0.883608,1.963533 1.96875,1.96875 h 0.5625 L 30.78125,57 29,60.0625 27.21875,57 25.4375,53.96875 H 26 C 27.085142,53.963533 27.963533,53.085142 27.96875,52 27.96875,40.918778 36.918778,31.96875 48,31.96875 Z M 47.791664,38 c -1.108,0 -2.001396,0.892 -2.001396,2 v 11.34375 c -0.06031,0.526167 0.120672,1.18926 0.522232,1.75 0.0771,0.11963 0.181089,0.21234 0.28125,0.3125 L 53.65625,60.5 c 0.783474,0.78347 1.925928,0.88657 2.5625,0.25 L 56.75,60.21875 c 0.636572,-0.63657 0.533474,-1.77903 -0.25,-2.5625 L 49.747242,51.1875 V 40 c 0,-1.108 -0.847578,-2 -1.955578,-2 z"
         inkscape:connector-curvature="0"
         id="path4522"
         style="color:#000000;display:inline;overflow:visible;visibility:visible;opacity:0.25;fill:url(#linearGradient918);fill-opacity:1;stroke:none;stroke-width:1.5;marker:none;enable-background:accumulate"
         sodipodi:nodetypes="scccccccsssccssssssccssscccccccccsssccccccccss" />
      <path
         d="M 48,30 C 35.84974,30 26,39.84974 26,52 h -4 l 0.59375,1 H 26 C 26,40.84974 35.84974,31 48,31 59.981636,31 69.731835,40.582765 70,52.5 70.0038,52.332283 70,52.168624 70,52 70,39.84974 60.15026,30 48,30 Z m 0,8 c -1.108,0 -2,0.892 -2,2 v 1 c 0,-1.108 0.892,-2 2,-2 1.108,0 1.53898,0.892 1.53898,2 V 40 C 49.53898,38.892 49.108,38 48,38 Z m 1.53898,12.768615 v 1 L 56.5,58.65625 c 0.293803,0.293801 0.49443,0.650842 0.59375,1 0.202832,-0.626595 -0.0061,-1.412397 -0.59375,-2 z M 46,51.34375 c -0.12085,0.325135 -0.103707,0.696451 0,1.0625 0.0064,-0.01982 -0.0073,-0.04299 0,-0.0625 z M 32.0625,52 C 32.041607,52.334696 32,52.660038 32,53 h 3.40625 L 36,52 Z m 31.90625,0.5 C 63.700451,61.101456 56.666579,68 48,68 45.08161,68 42.35563,67.20866 40,65.84375 l -3,5.21875 c 0.140046,0.08094 0.295501,0.140832 0.4375,0.21875 L 40,66.84375 C 42.35563,68.20866 45.08161,69 48,69 c 8.83656,0 16,-7.16344 16,-16 0,-0.169981 -0.02599,-0.331296 -0.03125,-0.5 z"
         inkscape:connector-curvature="0"
         id="path4500"
         style="color:#000000;display:inline;overflow:visible;visibility:visible;fill:url(#linearGradient920);fill-opacity:1;stroke:none;stroke-width:1.5;marker:none;enable-background:accumulate"
         sodipodi:nodetypes="sccccscsssscscssccccccccccccccccsccccssc" />
      <path
         d="M 48,30 C 35.84974,30 26,39.84974 26,52 h -4 l 3.5,6 3.5,6 3.5,-6 3.5,-6 h -4 c 0,-8.83656 7.16344,-16 16,-16 8.83656,0 16,7.16344 16,16 0,8.83656 -7.16344,16 -16,16 -2.91839,0 -5.64437,-0.79134 -8,-2.15625 L 37,71.0625 C 40.23433,72.93188 43.99572,74 48,74 60.15026,74 70,64.15026 70,52 70,39.84974 60.15026,30 48,30 Z m 0,0.9375 c 11.63894,0 21.0625,9.42356 21.0625,21.0625 0,11.63894 -9.42356,21.0625 -21.0625,21.0625 -3.498478,0 -6.755485,-0.931219 -9.65625,-2.4375 l 2.0625,-3.59375 C 42.701295,68.196505 45.249295,68.9375 48,68.9375 57.347879,68.9375 64.9375,61.347879 64.9375,52 64.9375,42.652121 57.347879,35.0625 48,35.0625 38.652121,35.0625 31.0625,42.652121 31.0625,52 31.0672,52.515796 31.484204,52.932773 32,52.9375 h 2.375 L 31.6875,57.53125 29,62.125 26.3125,57.53125 23.625,52.9375 H 26 C 26.515796,52.932773 26.932773,52.515796 26.9375,52 26.9375,40.36106 36.36106,30.9375 48,30.9375 Z M 47.791664,38 c -1.108,0 -1.999313,0.892 -1.999313,2 v 11.34375 c 0.01319,0.53433 0.118589,1.18926 0.520149,1.75 0.0771,0.11963 0.181089,0.21234 0.28125,0.3125 L 53.65625,60.5 c 0.783474,0.78347 1.925928,0.88657 2.5625,0.25 L 56.75,60.21875 c 0.636572,-0.63657 0.533474,-1.77903 -0.25,-2.5625 L 49.747242,51.1875 49.67309,40 c -0.03396,-1.423699 -0.733903,-1.983746 -1.881426,-2 z m 0,0.9375 c 0.600216,0 0.78016,0.462284 0.78016,1.0625 v 11.1875 c 0.0045,0.247084 0.1054,0.482621 0.28125,0.65625 l 6.990676,6.46875 c 0.487636,0.487633 0.45023,1.049771 0.25,1.25 l -0.53125,0.53125 c -0.200233,0.200232 -0.76236,0.237637 -1.25,-0.25 L 47.25,52.75 c -0.125271,-0.12527 -0.168424,-0.17514 -0.15625,-0.15625 6.88e-4,-0.02083 6.88e-4,-0.04167 0,-0.0625 C 46.847805,52.187811 46.875,51.6875 46.875,51.6875 c 0,0 0.0625,-7.808046 0.0625,-11.6875 0,-0.600216 0.253948,-1.0625 0.854164,-1.0625 z"
         inkscape:connector-curvature="0"
         id="path4509"
         style="color:#000000;display:inline;overflow:visible;visibility:visible;opacity:0.5;fill:url(#linearGradient3117);fill-opacity:1;stroke:none;stroke-width:1.5;marker:none;enable-background:accumulate"
         sodipodi:nodetypes="scccccccsssccssssssccssscccccccccscsccccccccccsscccccccccccs" />
      <path
         d="m 48,36 c -8.83656,0 -16,7.16344 -16,16 h 0.0625 C 32.584667,43.635 39.503402,37 48,37 56.666579,37 63.700451,43.898544 63.96875,52.5 63.974012,52.331296 64,52.169981 64,52 64,43.16344 56.83656,36 48,36 Z m -2,16.40625 c -0.169691,0.523028 -0.0744,1.147236 0.3125,1.6875 0.0771,0.11963 0.181089,0.21234 0.28125,0.3125 L 53.65625,61.5 c 0.783474,0.78347 1.925928,0.88657 2.5625,0.25 L 56.75,61.21875 c 0.397858,-0.397856 0.509284,-0.98057 0.34375,-1.5625 -0.06761,0.208865 -0.184607,0.403357 -0.34375,0.5625 L 56.21875,60.75 c -0.636572,0.63657 -1.779026,0.53347 -2.5625,-0.25 l -7.0625,-7.09375 C 46.493589,53.30609 46.3896,53.21338 46.3125,53.09375 46.155285,52.874215 46.066726,52.64177 46,52.40625 Z M 70,52.5 C 69.731835,64.417235 59.981636,74 48,74 44.169105,74 40.574941,73.002823 37.4375,71.28125 L 37,72.0625 C 40.23433,73.93188 43.99572,75 48,75 c 12.15026,0 22,-9.84974 22,-22 0,-0.168624 0.0038,-0.332283 0,-0.5 z M 22,53 25.5,59 29,65 32.5,59 36,53 H 35.40625 L 32.5,58 29,64 25.5,58 22.59375,53 Z"
         inkscape:connector-curvature="0"
         id="path4535"
         style="color:#000000;display:inline;overflow:visible;visibility:visible;opacity:0.2;fill:#ffffff;fill-opacity:1;stroke:none;stroke-width:1.5;marker:none;enable-background:accumulate" />
    </g>
  </g>
</svg>
