<?xml version="1.0" encoding="UTF-8" standalone="no"?>
<svg
   xmlns:dc="http://purl.org/dc/elements/1.1/"
   xmlns:cc="http://creativecommons.org/ns#"
   xmlns:rdf="http://www.w3.org/1999/02/22-rdf-syntax-ns#"
   xmlns:svg="http://www.w3.org/2000/svg"
   xmlns="http://www.w3.org/2000/svg"
   xmlns:xlink="http://www.w3.org/1999/xlink"
   xmlns:sodipodi="http://sodipodi.sourceforge.net/DTD/sodipodi-0.dtd"
   xmlns:inkscape="http://www.inkscape.org/namespaces/inkscape"
   version="1.0"
   width="16"
   height="16"
   id="svg2408"
   sodipodi:docname="folder-publicshare.svg"
   inkscape:version="0.92.2 5c3e80d, 2017-08-06">
  <sodipodi:namedview
     pagecolor="#ffffff"
     bordercolor="#666666"
     borderopacity="1"
     objecttolerance="10"
     gridtolerance="10"
     guidetolerance="10"
     inkscape:pageopacity="0"
     inkscape:pageshadow="2"
     inkscape:window-width="1920"
     inkscape:window-height="1011"
     id="namedview71"
     showgrid="false"
     inkscape:zoom="20.85965"
     inkscape:cx="7.7757652"
     inkscape:cy="10.16386"
     inkscape:window-x="0"
     inkscape:window-y="32"
     inkscape:window-maximized="1"
     inkscape:current-layer="svg2408" />
  <defs
     id="defs2410">
    <linearGradient
       id="linearGradient926">
      <stop
         id="stop922"
         offset="0"
         style="stop-color:#4d6070;stop-opacity:1" />
      <stop
         id="stop924"
         offset="1"
         style="stop-color:#ab7a1f;stop-opacity:0;" />
    </linearGradient>
    <linearGradient
       id="linearGradient4008">
      <stop
         id="stop4010"
         style="stop-color:#687284;stop-opacity:1"
         offset="0" />
      <stop
         id="stop4012"
         style="stop-color:#4c6173;stop-opacity:1"
         offset="0.71691591" />
      <stop
         id="stop4014"
         style="stop-color:#4d6070;stop-opacity:1"
         offset="1" />
    </linearGradient>
    <linearGradient
       id="linearGradient3874">
      <stop
         id="stop3876"
         style="stop-color:#ffffff;stop-opacity:1"
         offset="0" />
      <stop
         id="stop3878"
         style="stop-color:#ffffff;stop-opacity:0"
         offset="1" />
    </linearGradient>
    <linearGradient
       x1="11.794092"
       y1="3.2126782"
       x2="11.794092"
       y2="20.137329"
       id="linearGradient3317"
       gradientUnits="userSpaceOnUse"
       gradientTransform="scale(1.0598527,0.9435274)">
      <stop
         id="stop3319"
         style="stop-color:#c6953a;stop-opacity:1"
         offset="0" />
      <stop
         id="stop3321"
         style="stop-color:#ab7a1f;stop-opacity:1"
         offset="1" />
    </linearGradient>
    <linearGradient
       x1="48.035713"
       y1="25.910715"
       x2="48.035713"
       y2="85.821426"
       id="linearGradient3361"
       xlink:href="#linearGradient3317"
       gradientUnits="userSpaceOnUse" />
    <linearGradient
       id="linearGradient3187">
      <stop
         id="stop3189"
         style="stop-color:#455157;stop-opacity:1"
         offset="0" />
      <stop
         id="stop3191"
         style="stop-color:#57738b;stop-opacity:1"
         offset="1" />
    </linearGradient>
    <linearGradient
       x1="45.447727"
       y1="80.471962"
       x2="45.447727"
       y2="7.0165396"
       id="ButtonShadow"
       gradientUnits="userSpaceOnUse"
       gradientTransform="matrix(1.0058652,0,0,0.994169,0,12)">
      <stop
         id="stop3750"
         style="stop-color:#000000;stop-opacity:1"
         offset="0" />
      <stop
         id="stop3752"
         style="stop-color:#000000;stop-opacity:0.58823532"
         offset="1" />
    </linearGradient>
    <linearGradient
       x1="48"
       y1="78"
       x2="48"
       y2="5.9877172"
       id="linearGradient3706"
       xlink:href="#linearGradient3187"
       gradientUnits="userSpaceOnUse"
       gradientTransform="translate(21,8)" />
    <filter
       id="filter3174"
       style="color-interpolation-filters:sRGB">
      <feGaussianBlur
         id="feGaussianBlur3176"
         stdDeviation="1.71" />
    </filter>
    <linearGradient
       x1="45.447727"
       y1="80.471962"
       x2="45.447727"
       y2="5.297224"
       id="linearGradient3664"
       xlink:href="#ButtonShadow"
       gradientUnits="userSpaceOnUse"
       gradientTransform="matrix(1.0058652,0,0,0.994169,0,12)" />
    <clipPath
       id="clipPath3860">
      <rect
         width="84"
         height="72"
         rx="6"
         ry="6"
         x="6"
         y="18"
         id="rect3862"
         style="fill:#ff00ff;fill-opacity:1;fill-rule:nonzero;stroke:none" />
    </clipPath>
    <filter
       x="-0.16558799"
       y="-0.19715989"
       width="1.331176"
       height="1.3943198"
       id="filter3870"
       style="color-interpolation-filters:sRGB">
      <feGaussianBlur
         id="feGaussianBlur3872"
         stdDeviation="5.1703125" />
    </filter>
    <linearGradient
       id="linearGradient3699">
      <stop
         id="stop3701"
         style="stop-color:#28323c;stop-opacity:0.78431374"
         offset="0" />
      <stop
         id="stop3703"
         style="stop-color:#28323c;stop-opacity:0.39215687"
         offset="1" />
    </linearGradient>
    <linearGradient
       x1="48.021698"
       y1="22.933374"
       x2="48.021698"
       y2="81.481377"
       id="linearGradient3123"
       xlink:href="#linearGradient3874"
       gradientUnits="userSpaceOnUse" />
    <linearGradient
       x1="34.85965"
       y1="16.275133"
       x2="34.85965"
       y2="26.986736"
       id="linearGradient3105"
       xlink:href="#linearGradient4008"
       gradientUnits="userSpaceOnUse"
       gradientTransform="matrix(0.72,0,0,0.72,1.92,-5.52)" />
    <linearGradient
       x1="43"
       y1="91"
       x2="43"
       y2="7"
       id="linearGradient3952"
       xlink:href="#ButtonShadow"
       gradientUnits="userSpaceOnUse" />
    <linearGradient
       x1="45"
       y1="92"
       x2="45"
       y2="7"
       id="linearGradient3961"
       xlink:href="#ButtonShadow"
       gradientUnits="userSpaceOnUse" />
    <linearGradient
       x1="45"
       y1="92"
       x2="45"
       y2="7"
       id="linearGradient3969"
       xlink:href="#ButtonShadow"
       gradientUnits="userSpaceOnUse" />
    <linearGradient
       x1="45"
       y1="92"
       x2="45"
       y2="7"
       id="linearGradient3977"
       xlink:href="#ButtonShadow"
       gradientUnits="userSpaceOnUse" />
    <linearGradient
       x1="45"
       y1="92"
       x2="45"
       y2="7"
       id="linearGradient3986"
       xlink:href="#ButtonShadow"
       gradientUnits="userSpaceOnUse" />
    <linearGradient
       x1="56"
       y1="76"
       x2="56"
       y2="32"
       id="linearGradient3087"
       xlink:href="#linearGradient3699"
       gradientUnits="userSpaceOnUse"
       gradientTransform="translate(68,-1)" />
    <linearGradient
       x1="56"
       y1="76"
       x2="56"
       y2="32"
       id="linearGradient3975"
       xlink:href="#linearGradient3699"
       gradientUnits="userSpaceOnUse"
       gradientTransform="translate(0,-2)" />
    <linearGradient
       x1="56"
       y1="76"
       x2="56"
       y2="32"
       id="linearGradient3989"
       xlink:href="#linearGradient3699"
       gradientUnits="userSpaceOnUse"
       gradientTransform="translate(0,-1)" />
    <linearGradient
       x1="56"
       y1="76"
       x2="56"
       y2="32"
       id="linearGradient4002"
       xlink:href="#linearGradient3699"
       gradientUnits="userSpaceOnUse"
       gradientTransform="translate(0,-1)" />
    <radialGradient
       cx="48.076889"
       cy="89.010345"
       r="42"
       fx="48.076889"
       fy="89.010345"
       id="radialGradient2874"
       xlink:href="#linearGradient3737-5"
       gradientUnits="userSpaceOnUse"
       gradientTransform="matrix(1.1573129,0,0,0.99590774,13.448979,0.197132)" />
    <linearGradient
       id="linearGradient3737-5">
      <stop
         id="stop3739-0"
         style="stop-color:#ffffff;stop-opacity:1"
         offset="0" />
      <stop
         id="stop3741-4"
         style="stop-color:#ffffff;stop-opacity:0"
         offset="1" />
    </linearGradient>
    <linearGradient
       id="linearGradient3737">
      <stop
         id="stop3739"
         style="stop-color:#ffffff;stop-opacity:1"
         offset="0" />
      <stop
         id="stop3741"
         style="stop-color:#ffffff;stop-opacity:0"
         offset="1" />
    </linearGradient>
    <linearGradient
       gradientTransform="matrix(1,0,0,0.99043059,21,0.14609299)"
       x1="36.357143"
       y1="16"
       x2="36.357143"
       y2="73.994667"
       id="linearGradient3916"
       xlink:href="#linearGradient3737"
       gradientUnits="userSpaceOnUse" />
    <linearGradient
       x1="48.071056"
       y1="73.765587"
       x2="48.071056"
       y2="32.397678"
       id="linearGradient3248"
       xlink:href="#linearGradient3699"
       gradientUnits="userSpaceOnUse" />
    <linearGradient
       gradientUnits="userSpaceOnUse"
       y2="27.457626"
       x2="68.644142"
       y1="88.30085"
       x1="68.288139"
       id="linearGradient928"
       xlink:href="#linearGradient926" />
    <linearGradient
       x1="19.946079"
       y1="28.251511"
       x2="19.946079"
       y2="18.047863"
       id="linearGradient3108"
       xlink:href="#linearGradient3637"
       gradientUnits="userSpaceOnUse"
       gradientTransform="translate(0,-4)" />
    <linearGradient
       id="linearGradient3637">
      <stop
         id="stop3645"
         style="stop-color:#f0f0f0;stop-opacity:1"
         offset="0" />
      <stop
         id="stop3641"
         style="stop-color:#f5f5f5;stop-opacity:1"
         offset="1" />
    </linearGradient>
  </defs>
  <metadata
     id="metadata2413">
    <rdf:RDF>
      <cc:Work
         rdf:about="">
        <dc:format>image/svg+xml</dc:format>
        <dc:type
           rdf:resource="http://purl.org/dc/dcmitype/StillImage" />
        <dc:title></dc:title>
      </cc:Work>
    </rdf:RDF>
  </metadata>
  <g
     id="layer2"
     style="display:none"
     transform="translate(0,-80)">
    <path
       d="M 14.96875,8.8028918 C 13.32891,8.8028918 12,10.085142 12,11.677892 V 19 c -3.324,0 -7,2.676 -7,6 v 61 c 0,3.324 2.676,6 6,6 h 74 c 3.324,0 6,-2.676 6,-6 V 25 c 0,-3.324 -3.74743,-6 -7.07143,-6 v -0.134608 c 0,-2.389125 -1.97774,-4.3125 -4.4375,-4.3125 H 36.15625 l -1.46875,-2.875 C 33.95414,10.253293 33.35859,8.8028918 31.71875,8.8028918 Z"
       id="rect3745"
       style="opacity:0.9;fill:url(#linearGradient3664);fill-opacity:1;fill-rule:nonzero;stroke:none;filter:url(#filter3174)" />
  </g>
  <g
     transform="matrix(0.19047619,0,0,0.19277108,-1.1428571,-1.1566261)"
     id="layer3"
     style="display:inline">
    <rect
       width="75"
       height="62.678574"
       rx="6"
       ry="6"
       x="10.535714"
       y="23.142857"
       id="rect3352"
       style="display:inline;fill:url(#linearGradient3361);fill-opacity:1;fill-rule:nonzero;stroke:none" />
    <path
       d="m 16.251125,6 c -2.77,0 -5,2.4174981 -5,5.187498 V 70.8125 c 0,2.39328 1.91922,4.3125 4.3125,4.3125 H 80.449 c 2.39328,0 4.3125,-1.91922 4.3125,-4.3125 V 15.856248 c 0,-2.77 -2.23,-4.66875 -5,-4.66875 H 44.872 C 40.75969,7.0751879 40.505521,6.0669206 38.5595,6 Z"
       id="path3908"
       style="display:inline;fill:url(#linearGradient3105);fill-opacity:1;fill-rule:nonzero;stroke:none" />
  </g>
  <g
     transform="matrix(0.19047619,0,0,0.19277108,-5.1428571,-1.1566261)"
     id="layer1"
     style="display:inline">
    <path
       id="rect2419"
       d="m 33,16.377019 h 72 c 3.324,0 6,2.409333 6,5.733333 V 77.5875 C 111,83.637135 105.08756,89 99.45,89 H 38.025 C 33.010322,89 27,83.980038 27,78.10625 V 22.110352 c 0,-3.324 2.676,-5.733333 6,-5.733333 z"
       style="fill:url(#linearGradient3706);fill-opacity:1;fill-rule:nonzero;stroke:none" />
    <path
       d="m 33,16.374659 c -3.324,0 -6,2.389793 -6,5.681984 v 45.476225 3.450286 l 5.25425,0.990431 c -6.1e-5,-19.7796 0,-26.173955 0,-45.856123 0.02021,-2.229819 2.218152,-4.555981 5,-4.555981 h 63.4915 c 2.78185,0 5,1.800753 5,4.555981 V 71.97588 l 5.2543,-0.990431 v -3.450286 -45.47852 c 0,-3.292191 -2.676,-5.681984 -6,-5.681984 z"
       id="rect3728"
       style="display:inline;opacity:0.35;fill:url(#linearGradient3916);fill-opacity:1;fill-rule:nonzero;stroke:none;stroke-width:0.99520379"
       inkscape:connector-curvature="0"
       sodipodi:nodetypes="ssccccssscccsss" />
    <path
       d="M 38.55,89 C 32.457497,89 27,82.900612 27,77.587125 V 69.84375 31.187311 l 5.25,-1 v 45.590939 2 c 0,2.781848 3.742777,6.037875 6.524625,6.037875 h 2 58.027125 2 c 2.78185,0 5.05015,-3.543849 4.94825,-5 v -2 -46.628814 l 5.25,1 V 77.5875 C 111.02331,83.280655 105.13336,89 99.45,89 Z"
       id="path3615"
       style="display:inline;opacity:1;fill:url(#linearGradient928);fill-opacity:1;fill-rule:nonzero;stroke:none" />
  </g>
  <g
     transform="matrix(0.47337171,0,0,0.47337171,54.353158,-31.789808)"
     id="layer6" />
  <path
     inkscape:connector-curvature="0"
     style="color:#000000;display:inline;overflow:visible;visibility:visible;opacity:0.9;fill:#80858c;fill-opacity:1;fill-rule:evenodd;stroke:none;stroke-width:0.22096157;marker:none;enable-background:accumulate"
     id="path3984-0-3-4-7-9"
     d="M 9.6836996,4.8343661 C 9.2830521,4.8428957 8.8821676,4.9822517 8.5550026,5.2588238 7.502855,6.1482723 8.320068,7.0723885 7.402559,7.8480149 6.4850541,8.623643 5.6720852,7.6965756 4.6199375,8.5860233 v 0.00134 c -0.233688,0.1975465 -0.4023141,0.4421674 -0.5042819,0.7065108 -8.335e-4,0.00175 -8.335e-4,0.00376 -0.00125,0.00551 -0.020549,0.053757 -0.038098,0.1077221 -0.053082,0.1629368 -0.00667,0.024512 -0.014006,0.0492 -0.019549,0.073937 -4.169e-4,0.00267 -8.338e-4,0.00551 -0.00125,0.00826 -0.011462,0.05218 -0.019966,0.1045607 -0.026552,0.1574603 -5.42e-5,4.59e-4 5.41e-5,9.18e-4 0,0.00134 -3.501e-4,0.00275 -8.338e-4,0.00542 -0.00125,0.00818 -0.00292,0.024637 -0.00512,0.049199 -0.007,0.073937 -0.00125,0.018595 -0.00334,0.037524 -0.00416,0.056136 -3.959e-4,0.00948 -0.00125,0.019271 -0.00125,0.028752 -8.76e-5,0.00317 7.51e-5,0.00643 0,0.00959 -4.168e-4,0.024821 -4.168e-4,0.049108 0,0.073937 2.459e-4,0.012703 8.338e-4,0.025647 0.00125,0.038333 8.336e-4,0.01862 0.00292,0.037541 0.00416,0.056136 0.00209,0.02754 0.00492,0.05469 0.00838,0.08215 5.42e-5,4.59e-4 -5.41e-5,9.18e-4 0,0.0013 0.00658,0.0529 0.01509,0.105281 0.026552,0.15746 4.168e-4,0.0027 8.338e-4,0.0055 0.00125,0.0082 0.00567,0.02489 0.012797,0.04924 0.01955,0.07394 0.015006,0.05522 0.032555,0.109179 0.053083,0.162937 8.335e-4,0.0017 8.335e-4,0.0038 0.00125,0.0055 0.1019677,0.264344 0.2705938,0.508964 0.504282,0.706516 v 0.0014 c 1.0521408,0.889449 1.8651099,-0.03762 2.7826148,0.738011 0.9175089,0.775627 0.1002959,1.699741 1.1524435,2.589191 0.7478026,0.632164 1.8764581,0.549507 2.5214061,-0.183476 0.644944,-0.732935 0.562012,-1.839227 -0.185791,-2.471391 C 9.8385954,11.03061 9.0256305,11.959041 8.1081214,11.183418 7.6446169,10.79159 7.6243138,10.360878 7.5814768,9.9168803 7.6243163,9.4728838 7.6446136,9.0421716 8.1081048,8.6503544 9.0256138,7.8747264 9.8385829,8.8031616 10.89073,7.9137148 11.638529,7.281559 11.721461,6.1752683 11.076517,5.4422851 10.713738,5.0299818 10.198923,4.8233852 9.6838081,4.8343519 Z" />
  <path
     inkscape:connector-curvature="0"
     style="color:#000000;display:inline;overflow:visible;visibility:visible;opacity:0.9;fill:#28323c;fill-opacity:1;fill-rule:evenodd;stroke:none;stroke-width:0.22095127;marker:none;enable-background:accumulate"
     id="path3984-0-3-4-7"
     d="M 9.6834822,3.8346529 C 9.2828607,3.8431826 8.8819889,3.9825319 8.5548438,4.2590905 7.502747,5.1484982 8.3199216,6.0725702 7.4024553,6.8481615 6.4849921,7.6237537 5.6720598,6.6967297 4.6199623,7.5861357 v 0.00142 c -0.2336754,0.1975399 -0.4022931,0.44215 -0.5042567,0.7064809 -8.336e-4,0.00175 -8.336e-4,0.00376 -0.00125,0.00551 -0.02055,0.053757 -0.038098,0.107717 -0.053082,0.1629293 -0.00667,0.024512 -0.014006,0.049199 -0.019549,0.073937 -4.168e-4,0.00267 -8.336e-4,0.00551 -0.00125,0.00826 -0.011462,0.05218 -0.019966,0.1045565 -0.026552,0.1574536 -5.84e-5,4.581e-4 5.42e-5,9.18e-4 0,0.00134 -3.543e-4,0.00275 -8.337e-4,0.00542 -0.00125,0.00818 -0.00292,0.024637 -0.00512,0.0492 -0.007,0.073937 -0.00125,0.018595 -0.00334,0.037524 -0.00421,0.056136 -3.96e-4,0.00948 -0.00125,0.019271 -0.00125,0.028752 -8.76e-5,0.00317 7.08e-5,0.00643 0,0.00959 -4.168e-4,0.024821 -4.168e-4,0.049108 0,0.073937 2.46e-4,0.012703 8.337e-4,0.025647 0.00125,0.038333 8.337e-4,0.01862 0.00292,0.037541 0.00421,0.056136 0.00209,0.027542 0.00496,0.054692 0.00838,0.08215 5.42e-5,4.582e-4 -5.84e-5,9.18e-4 0,0.00142 0.00658,0.052898 0.015089,0.1052759 0.026552,0.1574518 4.17e-4,0.00267 8.338e-4,0.00551 0.00125,0.00818 0.00567,0.024888 0.012797,0.049241 0.01955,0.073937 0.015006,0.055209 0.032554,0.1091742 0.053082,0.1629293 8.337e-4,0.00175 8.337e-4,0.00367 0.00125,0.00551 C 4.2178,9.8043774 4.3864178,10.048986 4.6200933,10.246529 v 0.0014 c 1.0520918,0.889404 1.8650232,-0.03763 2.7824863,0.737972 0.9174672,0.775591 0.1002926,1.699663 1.1523893,2.58907 0.7477701,0.632134 1.8763711,0.549482 2.5212861,-0.183467 0.644919,-0.732929 0.561987,-1.839167 -0.185779,-2.471303 C 9.8383788,10.030795 9.0254465,10.959185 8.1079833,10.183597 7.6445005,9.7917864 7.6241966,9.3610943 7.5813596,8.9171187 7.6241991,8.4731422 7.6444963,8.0424501 8.1079666,7.6506504 9.0254339,6.8750591 9.8383621,7.8034518 10.890463,6.9140458 11.638226,6.2819193 11.721157,5.1756804 11.076242,4.4427313 10.713476,4.030448 10.19869,3.8238607 9.6835949,3.8348274 Z" />
</svg>
