<?xml version="1.0" encoding="UTF-8" standalone="no"?>
<svg
   xmlns:dc="http://purl.org/dc/elements/1.1/"
   xmlns:cc="http://creativecommons.org/ns#"
   xmlns:rdf="http://www.w3.org/1999/02/22-rdf-syntax-ns#"
   xmlns:svg="http://www.w3.org/2000/svg"
   xmlns="http://www.w3.org/2000/svg"
   xmlns:xlink="http://www.w3.org/1999/xlink"
   xmlns:sodipodi="http://sodipodi.sourceforge.net/DTD/sodipodi-0.dtd"
   xmlns:inkscape="http://www.inkscape.org/namespaces/inkscape"
   version="1.0"
   width="16"
   height="16"
   id="svg2408"
   sodipodi:docname="folder-system.svg"
   inkscape:version="0.92.2 5c3e80d, 2017-08-06">
  <sodipodi:namedview
     pagecolor="#ffffff"
     bordercolor="#666666"
     borderopacity="1"
     objecttolerance="10"
     gridtolerance="10"
     guidetolerance="10"
     inkscape:pageopacity="0"
     inkscape:pageshadow="2"
     inkscape:window-width="1920"
     inkscape:window-height="1011"
     id="namedview71"
     showgrid="false"
     inkscape:zoom="20.85965"
     inkscape:cx="7.7757652"
     inkscape:cy="10.16386"
     inkscape:window-x="0"
     inkscape:window-y="32"
     inkscape:window-maximized="1"
     inkscape:current-layer="layer6-7-78" />
  <defs
     id="defs2410">
    <linearGradient
       id="linearGradient926">
      <stop
         id="stop922"
         offset="0"
         style="stop-color:#4d6070;stop-opacity:1" />
      <stop
         id="stop924"
         offset="1"
         style="stop-color:#ab7a1f;stop-opacity:0;" />
    </linearGradient>
    <linearGradient
       id="linearGradient4008">
      <stop
         id="stop4010"
         style="stop-color:#687284;stop-opacity:1"
         offset="0" />
      <stop
         id="stop4012"
         style="stop-color:#4c6173;stop-opacity:1"
         offset="0.71691591" />
      <stop
         id="stop4014"
         style="stop-color:#4d6070;stop-opacity:1"
         offset="1" />
    </linearGradient>
    <linearGradient
       id="linearGradient3874">
      <stop
         id="stop3876"
         style="stop-color:#ffffff;stop-opacity:1"
         offset="0" />
      <stop
         id="stop3878"
         style="stop-color:#ffffff;stop-opacity:0"
         offset="1" />
    </linearGradient>
    <linearGradient
       x1="11.794092"
       y1="3.2126782"
       x2="11.794092"
       y2="20.137329"
       id="linearGradient3317"
       gradientUnits="userSpaceOnUse"
       gradientTransform="scale(1.0598527,0.9435274)">
      <stop
         id="stop3319"
         style="stop-color:#c6953a;stop-opacity:1"
         offset="0" />
      <stop
         id="stop3321"
         style="stop-color:#ab7a1f;stop-opacity:1"
         offset="1" />
    </linearGradient>
    <linearGradient
       x1="48.035713"
       y1="25.910715"
       x2="48.035713"
       y2="85.821426"
       id="linearGradient3361"
       xlink:href="#linearGradient3317"
       gradientUnits="userSpaceOnUse" />
    <linearGradient
       id="linearGradient3187">
      <stop
         id="stop3189"
         style="stop-color:#455157;stop-opacity:1"
         offset="0" />
      <stop
         id="stop3191"
         style="stop-color:#57738b;stop-opacity:1"
         offset="1" />
    </linearGradient>
    <linearGradient
       x1="45.447727"
       y1="80.471962"
       x2="45.447727"
       y2="7.0165396"
       id="ButtonShadow"
       gradientUnits="userSpaceOnUse"
       gradientTransform="matrix(1.0058652,0,0,0.994169,0,12)">
      <stop
         id="stop3750"
         style="stop-color:#000000;stop-opacity:1"
         offset="0" />
      <stop
         id="stop3752"
         style="stop-color:#000000;stop-opacity:0.58823532"
         offset="1" />
    </linearGradient>
    <linearGradient
       x1="48"
       y1="78"
       x2="48"
       y2="5.9877172"
       id="linearGradient3706"
       xlink:href="#linearGradient3187"
       gradientUnits="userSpaceOnUse"
       gradientTransform="translate(21,8)" />
    <filter
       id="filter3174"
       style="color-interpolation-filters:sRGB">
      <feGaussianBlur
         id="feGaussianBlur3176"
         stdDeviation="1.71" />
    </filter>
    <linearGradient
       x1="45.447727"
       y1="80.471962"
       x2="45.447727"
       y2="5.297224"
       id="linearGradient3664"
       xlink:href="#ButtonShadow"
       gradientUnits="userSpaceOnUse"
       gradientTransform="matrix(1.0058652,0,0,0.994169,0,12)" />
    <clipPath
       id="clipPath3860">
      <rect
         width="84"
         height="72"
         rx="6"
         ry="6"
         x="6"
         y="18"
         id="rect3862"
         style="fill:#ff00ff;fill-opacity:1;fill-rule:nonzero;stroke:none" />
    </clipPath>
    <filter
       x="-0.16558799"
       y="-0.19715989"
       width="1.331176"
       height="1.3943198"
       id="filter3870"
       style="color-interpolation-filters:sRGB">
      <feGaussianBlur
         id="feGaussianBlur3872"
         stdDeviation="5.1703125" />
    </filter>
    <linearGradient
       id="linearGradient3699">
      <stop
         id="stop3701"
         style="stop-color:#28323c;stop-opacity:0.78431374"
         offset="0" />
      <stop
         id="stop3703"
         style="stop-color:#28323c;stop-opacity:0.39215687"
         offset="1" />
    </linearGradient>
    <linearGradient
       x1="48.021698"
       y1="22.933374"
       x2="48.021698"
       y2="81.481377"
       id="linearGradient3123"
       xlink:href="#linearGradient3874"
       gradientUnits="userSpaceOnUse" />
    <linearGradient
       x1="34.85965"
       y1="16.275133"
       x2="34.85965"
       y2="26.986736"
       id="linearGradient3105"
       xlink:href="#linearGradient4008"
       gradientUnits="userSpaceOnUse"
       gradientTransform="matrix(0.72,0,0,0.72,1.92,-5.52)" />
    <linearGradient
       x1="43"
       y1="91"
       x2="43"
       y2="7"
       id="linearGradient3952"
       xlink:href="#ButtonShadow"
       gradientUnits="userSpaceOnUse" />
    <linearGradient
       x1="45"
       y1="92"
       x2="45"
       y2="7"
       id="linearGradient3961"
       xlink:href="#ButtonShadow"
       gradientUnits="userSpaceOnUse" />
    <linearGradient
       x1="45"
       y1="92"
       x2="45"
       y2="7"
       id="linearGradient3969"
       xlink:href="#ButtonShadow"
       gradientUnits="userSpaceOnUse" />
    <linearGradient
       x1="45"
       y1="92"
       x2="45"
       y2="7"
       id="linearGradient3977"
       xlink:href="#ButtonShadow"
       gradientUnits="userSpaceOnUse" />
    <linearGradient
       x1="45"
       y1="92"
       x2="45"
       y2="7"
       id="linearGradient3986"
       xlink:href="#ButtonShadow"
       gradientUnits="userSpaceOnUse" />
    <linearGradient
       x1="56"
       y1="76"
       x2="56"
       y2="32"
       id="linearGradient3087"
       xlink:href="#linearGradient3699"
       gradientUnits="userSpaceOnUse"
       gradientTransform="translate(68,-1)" />
    <linearGradient
       x1="56"
       y1="76"
       x2="56"
       y2="32"
       id="linearGradient3975"
       xlink:href="#linearGradient3699"
       gradientUnits="userSpaceOnUse"
       gradientTransform="translate(0,-2)" />
    <linearGradient
       x1="56"
       y1="76"
       x2="56"
       y2="32"
       id="linearGradient3989"
       xlink:href="#linearGradient3699"
       gradientUnits="userSpaceOnUse"
       gradientTransform="translate(0,-1)" />
    <linearGradient
       x1="56"
       y1="76"
       x2="56"
       y2="32"
       id="linearGradient4002"
       xlink:href="#linearGradient3699"
       gradientUnits="userSpaceOnUse"
       gradientTransform="translate(0,-1)" />
    <radialGradient
       cx="48.076889"
       cy="89.010345"
       r="42"
       fx="48.076889"
       fy="89.010345"
       id="radialGradient2874"
       xlink:href="#linearGradient3737-5"
       gradientUnits="userSpaceOnUse"
       gradientTransform="matrix(1.1573129,0,0,0.99590774,13.448979,0.197132)" />
    <linearGradient
       id="linearGradient3737-5">
      <stop
         id="stop3739-0"
         style="stop-color:#ffffff;stop-opacity:1"
         offset="0" />
      <stop
         id="stop3741-4"
         style="stop-color:#ffffff;stop-opacity:0"
         offset="1" />
    </linearGradient>
    <linearGradient
       id="linearGradient3737">
      <stop
         id="stop3739"
         style="stop-color:#ffffff;stop-opacity:1"
         offset="0" />
      <stop
         id="stop3741"
         style="stop-color:#ffffff;stop-opacity:0"
         offset="1" />
    </linearGradient>
    <linearGradient
       gradientTransform="matrix(1,0,0,0.99043059,21,0.14609299)"
       x1="36.357143"
       y1="16"
       x2="36.357143"
       y2="73.994667"
       id="linearGradient3916"
       xlink:href="#linearGradient3737"
       gradientUnits="userSpaceOnUse" />
    <linearGradient
       x1="48.071056"
       y1="73.765587"
       x2="48.071056"
       y2="32.397678"
       id="linearGradient3248"
       xlink:href="#linearGradient3699"
       gradientUnits="userSpaceOnUse" />
    <linearGradient
       gradientUnits="userSpaceOnUse"
       y2="27.457626"
       x2="68.644142"
       y1="88.30085"
       x1="68.288139"
       id="linearGradient928"
       xlink:href="#linearGradient926" />
    <linearGradient
       x1="19.946079"
       y1="28.251511"
       x2="19.946079"
       y2="18.047863"
       id="linearGradient3108"
       xlink:href="#linearGradient3637"
       gradientUnits="userSpaceOnUse"
       gradientTransform="translate(0,-4)" />
    <linearGradient
       id="linearGradient3637">
      <stop
         id="stop3645"
         style="stop-color:#f0f0f0;stop-opacity:1"
         offset="0" />
      <stop
         id="stop3641"
         style="stop-color:#f5f5f5;stop-opacity:1"
         offset="1" />
    </linearGradient>
  </defs>
  <metadata
     id="metadata2413">
    <rdf:RDF>
      <cc:Work
         rdf:about="">
        <dc:format>image/svg+xml</dc:format>
        <dc:type
           rdf:resource="http://purl.org/dc/dcmitype/StillImage" />
        <dc:title></dc:title>
      </cc:Work>
    </rdf:RDF>
  </metadata>
  <g
     id="layer2"
     style="display:none"
     transform="translate(0,-80)">
    <path
       d="M 14.96875,8.8028918 C 13.32891,8.8028918 12,10.085142 12,11.677892 V 19 c -3.324,0 -7,2.676 -7,6 v 61 c 0,3.324 2.676,6 6,6 h 74 c 3.324,0 6,-2.676 6,-6 V 25 c 0,-3.324 -3.74743,-6 -7.07143,-6 v -0.134608 c 0,-2.389125 -1.97774,-4.3125 -4.4375,-4.3125 H 36.15625 l -1.46875,-2.875 C 33.95414,10.253293 33.35859,8.8028918 31.71875,8.8028918 Z"
       id="rect3745"
       style="opacity:0.9;fill:url(#linearGradient3664);fill-opacity:1;fill-rule:nonzero;stroke:none;filter:url(#filter3174)" />
  </g>
  <g
     transform="matrix(0.19047619,0,0,0.19277108,-1.1428571,-1.1566261)"
     id="layer3"
     style="display:inline">
    <rect
       width="75"
       height="62.678574"
       rx="6"
       ry="6"
       x="10.535714"
       y="23.142857"
       id="rect3352"
       style="display:inline;fill:url(#linearGradient3361);fill-opacity:1;fill-rule:nonzero;stroke:none" />
    <path
       d="m 16.251125,6 c -2.77,0 -5,2.4174981 -5,5.187498 V 70.8125 c 0,2.39328 1.91922,4.3125 4.3125,4.3125 H 80.449 c 2.39328,0 4.3125,-1.91922 4.3125,-4.3125 V 15.856248 c 0,-2.77 -2.23,-4.66875 -5,-4.66875 H 44.872 C 40.75969,7.0751879 40.505521,6.0669206 38.5595,6 Z"
       id="path3908"
       style="display:inline;fill:url(#linearGradient3105);fill-opacity:1;fill-rule:nonzero;stroke:none" />
  </g>
  <g
     transform="matrix(0.19047619,0,0,0.19277108,-5.1428571,-1.1566261)"
     id="layer1"
     style="display:inline">
    <path
       id="rect2419"
       d="m 33,16.377019 h 72 c 3.324,0 6,2.409333 6,5.733333 V 77.5875 C 111,83.637135 105.08756,89 99.45,89 H 38.025 C 33.010322,89 27,83.980038 27,78.10625 V 22.110352 c 0,-3.324 2.676,-5.733333 6,-5.733333 z"
       style="fill:url(#linearGradient3706);fill-opacity:1;fill-rule:nonzero;stroke:none" />
    <path
       d="m 33,16.374659 c -3.324,0 -6,2.389793 -6,5.681984 v 45.476225 3.450286 l 5.25425,0.990431 c -6.1e-5,-19.7796 0,-26.173955 0,-45.856123 0.02021,-2.229819 2.218152,-4.555981 5,-4.555981 h 63.4915 c 2.78185,0 5,1.800753 5,4.555981 V 71.97588 l 5.2543,-0.990431 v -3.450286 -45.47852 c 0,-3.292191 -2.676,-5.681984 -6,-5.681984 z"
       id="rect3728"
       style="display:inline;opacity:0.35;fill:url(#linearGradient3916);fill-opacity:1;fill-rule:nonzero;stroke:none;stroke-width:0.99520379"
       inkscape:connector-curvature="0"
       sodipodi:nodetypes="ssccccssscccsss" />
    <path
       d="M 38.55,89 C 32.457497,89 27,82.900612 27,77.587125 V 69.84375 31.187311 l 5.25,-1 v 45.590939 2 c 0,2.781848 3.742777,6.037875 6.524625,6.037875 h 2 58.027125 2 c 2.78185,0 5.05015,-3.543849 4.94825,-5 v -2 -46.628814 l 5.25,1 V 77.5875 C 111.02331,83.280655 105.13336,89 99.45,89 Z"
       id="path3615"
       style="display:inline;opacity:1;fill:url(#linearGradient928);fill-opacity:1;fill-rule:nonzero;stroke:none" />
  </g>
  <g
     transform="matrix(0.47337171,0,0,0.47337171,54.353158,-31.789808)"
     id="layer6" />
  <g
     transform="matrix(0.20512768,0,0,0.20512768,21.386364,-1.3755785)"
     id="layer6-75">
    <g
       transform="matrix(1.0417387,0,0,1.0304901,-113.1312,-0.16064398)"
       id="layer6-7">
      <g
         transform="matrix(1.8460263,0,0,1.8661771,82.032719,-34.303051)"
         id="layer6-9">
        <g
           transform="matrix(1.0620766,0,0,1.1037458,-121.98522,10.861785)"
           id="layer6-7-1">
          <g
             transform="matrix(0.94155165,0,0,0.9060057,210.34469,-51.838222)"
             id="layer6-6">
            <g
               transform="translate(-145.2387,18.836649)"
               id="layer6-8">
              <g
                 transform="matrix(1.0550603,0,0,1.0554271,-122.04217,3.5641247)"
                 id="layer6-7-7">
                <g
                   id="layer6-759"
                   transform="matrix(0.94781313,0,0,0.94748372,146.77455,-44.829017)">
                  <g
                     transform="translate(21.424602,-10.184974)"
                     id="layer6-94">
                    <g
                       transform="matrix(1.0562524,0,0,1.0562524,-114.82131,-0.44403237)"
                       id="layer6-7-78">
                      <path
                         d="m 78.684506,134.31791 c -0.472255,0 -0.854652,-0.39176 -0.854652,-0.87209 v -1.69186 c -0.844431,-0.22499 -1.651291,-0.56483 -2.389532,-0.99418 l -1.20349,1.20349 c -0.169823,0.16982 -0.373252,0.25976 -0.59302,0.26163 -0.219769,0.002 -0.443497,-0.0772 -0.610463,-0.24419 l -2.35465,-2.35465 c -0.333934,-0.33393 -0.322201,-0.86385 0.01741,-1.20349 l 1.203487,-1.20348 c -0.429353,-0.73824 -0.769191,-1.5451 -0.994184,-2.38953 h -1.691857 c -0.48033,0 -0.872093,-0.3824 -0.872093,-0.85466 v -3.31395 c 0,-0.47225 0.391763,-0.85465 0.872093,-0.85465 h 1.691857 c 0.224993,-0.84443 0.564831,-1.65128 0.994184,-2.38953 l -1.203492,-1.20348 c -0.339643,-0.33965 -0.351375,-0.86956 -0.01741,-1.2035 l 2.35465,-2.35464 c 0.333934,-0.33394 0.863842,-0.3222 1.203484,0.0174 l 1.203495,1.20349 c 0.738241,-0.42935 1.545101,-0.76919 2.389521,-0.99418 v -1.69187 c 0,-0.48032 0.382397,-0.87208 0.854653,-0.87208 h 3.313948 c 0.472267,0 0.854653,0.39176 0.854653,0.87208 v 1.69187 c 0.844431,0.22499 1.651291,0.56483 2.389532,0.99418 l 1.203483,-1.20349 c 0.339644,-0.33964 0.869554,-0.35138 1.203493,-0.0174 l 2.354656,2.35464 c 0.333928,0.33394 0.32219,0.86385 -0.01745,1.2035 l -1.203482,1.20347 c 0.429361,0.73825 0.769201,1.5451 0.994191,2.38953 h 1.691851 c 0.480328,0 0.872096,0.3824 0.872096,0.85465 v 3.31395 c 0,0.47226 -0.391768,0.85465 -0.872096,0.85465 h -1.691851 c -0.22499,0.84444 -0.56483,1.6513 -0.99418,2.38954 l 1.203482,1.20348 c 0.339634,0.33964 0.351372,0.86955 0.01745,1.20349 l -2.354667,2.35465 c -0.333939,0.33394 -0.863849,0.3222 -1.203493,-0.0175 l -1.203483,-1.20348 c -0.73823,0.42936 -1.54509,0.7692 -2.389521,0.99419 v 1.69185 c 0,0.48033 -0.382397,0.8721 -0.854653,0.8721 z m 1.656975,-8.37208 c 2.002608,0 3.627902,-1.62529 3.627902,-3.6279 0,-2.0026 -1.625294,-3.6279 -3.627902,-3.6279 -2.002608,0 -3.627902,1.6253 -3.627902,3.6279 0,2.00261 1.625294,3.6279 3.627902,3.6279 z"
                         id="rect3267-4"
                         style="display:block;overflow:visible;visibility:visible;opacity:0.9;fill:#80858c;fill-opacity:1;fill-rule:nonzero;stroke:none;stroke-width:0.5454554;marker:none;enable-background:accumulate"
                         inkscape:connector-curvature="0" />
                      <path
                         d="m 78.684488,131.91786 c -0.472259,0 -0.854651,-0.39176 -0.854651,-0.87209 v -1.69186 c -0.844429,-0.22498 -1.651283,-0.56482 -2.389526,-0.99418 l -1.203489,1.20349 c -0.169823,0.16982 -0.373251,0.25976 -0.593018,0.26162 -0.219768,0.002 -0.443496,-0.0772 -0.610462,-0.24418 l -2.354648,-2.35465 c -0.333933,-0.33393 -0.3222,-0.86384 0.01741,-1.20348 l 1.203486,-1.20349 c -0.429351,-0.73824 -0.76919,-1.54509 -0.994183,-2.38952 h -1.691853 c -0.48033,0 -0.872092,-0.38239 -0.872092,-0.85465 v -3.31394 c 0,-0.47226 0.391762,-0.85465 0.872092,-0.85465 h 1.691853 c 0.224993,-0.84444 0.564832,-1.65129 0.994184,-2.38953 L 70.6961,113.81326 c -0.339643,-0.33964 -0.351375,-0.86955 -0.01741,-1.20348 l 2.354647,-2.35465 c 0.333933,-0.33393 0.863839,-0.3222 1.203481,0.0174 l 1.203488,1.20349 c 0.738244,-0.42936 1.545098,-0.7692 2.389526,-0.99418 v -1.69186 c 0,-0.48033 0.382392,-0.87209 0.854652,-0.87209 h 3.313943 c 0.472257,0 0.854647,0.39176 0.854647,0.87209 v 1.69186 c 0.844429,0.22498 1.651282,0.56482 2.389527,0.99418 l 1.203486,-1.20349 c 0.339643,-0.33964 0.869547,-0.35138 1.203485,-0.0174 l 2.354645,2.35465 c 0.333933,0.33393 0.3222,0.86384 -0.0174,1.20348 l -1.203486,1.20349 c 0.429355,0.73824 0.769195,1.54509 0.994184,2.38953 h 1.691858 c 0.480322,0 0.87209,0.38239 0.87209,0.85465 v 3.31394 c 0,0.47226 -0.391768,0.85465 -0.87209,0.85465 h -1.691858 c -0.224989,0.84443 -0.564823,1.65128 -0.994178,2.38952 l 1.20348,1.20349 c 0.339644,0.33964 0.351382,0.86955 0.0174,1.20348 l -2.35464,2.35465 c -0.333938,0.33393 -0.863847,0.3222 -1.20349,-0.0174 l -1.203481,-1.20348 c -0.738239,0.42935 -1.545097,0.76919 -2.389527,0.99418 v 1.69186 c 0,0.48033 -0.38239,0.87209 -0.854645,0.87209 H 78.68449 Z m 1.656971,-8.37207 c 2.002602,0 3.627898,-1.6253 3.627898,-3.62789 0,-2.0026 -1.625296,-3.6279 -3.627898,-3.6279 -2.002598,0 -3.627899,1.6253 -3.627899,3.6279 0,2.00259 1.625301,3.62789 3.627899,3.62789 z"
                         id="rect3267"
                         style="display:block;overflow:visible;visibility:visible;opacity:0.9;fill:#28323c;fill-opacity:1;fill-rule:nonzero;stroke:none;stroke-width:0.5454545;marker:none;enable-background:accumulate"
                         inkscape:connector-curvature="0" />
                    </g>
                  </g>
                </g>
              </g>
            </g>
          </g>
        </g>
      </g>
    </g>
  </g>
</svg>
