<?xml version="1.0" encoding="UTF-8" standalone="no"?>
<svg
   xmlns:dc="http://purl.org/dc/elements/1.1/"
   xmlns:cc="http://creativecommons.org/ns#"
   xmlns:rdf="http://www.w3.org/1999/02/22-rdf-syntax-ns#"
   xmlns:svg="http://www.w3.org/2000/svg"
   xmlns="http://www.w3.org/2000/svg"
   xmlns:xlink="http://www.w3.org/1999/xlink"
   xmlns:sodipodi="http://sodipodi.sourceforge.net/DTD/sodipodi-0.dtd"
   xmlns:inkscape="http://www.inkscape.org/namespaces/inkscape"
   version="1.0"
   width="16"
   height="16"
   id="svg2408"
   sodipodi:docname="folder-ubuntu.svg"
   inkscape:version="0.92.2 5c3e80d, 2017-08-06">
  <sodipodi:namedview
     pagecolor="#ffffff"
     bordercolor="#666666"
     borderopacity="1"
     objecttolerance="10"
     gridtolerance="10"
     guidetolerance="10"
     inkscape:pageopacity="0"
     inkscape:pageshadow="2"
     inkscape:window-width="1920"
     inkscape:window-height="1011"
     id="namedview71"
     showgrid="false"
     inkscape:zoom="20.85965"
     inkscape:cx="7.7757652"
     inkscape:cy="10.16386"
     inkscape:window-x="0"
     inkscape:window-y="32"
     inkscape:window-maximized="1"
     inkscape:current-layer="layer6-7-78" />
  <defs
     id="defs2410">
    <linearGradient
       id="linearGradient926">
      <stop
         id="stop922"
         offset="0"
         style="stop-color:#4d6070;stop-opacity:1" />
      <stop
         id="stop924"
         offset="1"
         style="stop-color:#ab7a1f;stop-opacity:0;" />
    </linearGradient>
    <linearGradient
       id="linearGradient4008">
      <stop
         id="stop4010"
         style="stop-color:#687284;stop-opacity:1"
         offset="0" />
      <stop
         id="stop4012"
         style="stop-color:#4c6173;stop-opacity:1"
         offset="0.71691591" />
      <stop
         id="stop4014"
         style="stop-color:#4d6070;stop-opacity:1"
         offset="1" />
    </linearGradient>
    <linearGradient
       id="linearGradient3874">
      <stop
         id="stop3876"
         style="stop-color:#ffffff;stop-opacity:1"
         offset="0" />
      <stop
         id="stop3878"
         style="stop-color:#ffffff;stop-opacity:0"
         offset="1" />
    </linearGradient>
    <linearGradient
       x1="11.794092"
       y1="3.2126782"
       x2="11.794092"
       y2="20.137329"
       id="linearGradient3317"
       gradientUnits="userSpaceOnUse"
       gradientTransform="scale(1.0598527,0.9435274)">
      <stop
         id="stop3319"
         style="stop-color:#c6953a;stop-opacity:1"
         offset="0" />
      <stop
         id="stop3321"
         style="stop-color:#ab7a1f;stop-opacity:1"
         offset="1" />
    </linearGradient>
    <linearGradient
       x1="48.035713"
       y1="25.910715"
       x2="48.035713"
       y2="85.821426"
       id="linearGradient3361"
       xlink:href="#linearGradient3317"
       gradientUnits="userSpaceOnUse" />
    <linearGradient
       id="linearGradient3187">
      <stop
         id="stop3189"
         style="stop-color:#455157;stop-opacity:1"
         offset="0" />
      <stop
         id="stop3191"
         style="stop-color:#57738b;stop-opacity:1"
         offset="1" />
    </linearGradient>
    <linearGradient
       x1="45.447727"
       y1="80.471962"
       x2="45.447727"
       y2="7.0165396"
       id="ButtonShadow"
       gradientUnits="userSpaceOnUse"
       gradientTransform="matrix(1.0058652,0,0,0.994169,0,12)">
      <stop
         id="stop3750"
         style="stop-color:#000000;stop-opacity:1"
         offset="0" />
      <stop
         id="stop3752"
         style="stop-color:#000000;stop-opacity:0.58823532"
         offset="1" />
    </linearGradient>
    <linearGradient
       x1="48"
       y1="78"
       x2="48"
       y2="5.9877172"
       id="linearGradient3706"
       xlink:href="#linearGradient3187"
       gradientUnits="userSpaceOnUse"
       gradientTransform="translate(21,8)" />
    <filter
       id="filter3174"
       style="color-interpolation-filters:sRGB">
      <feGaussianBlur
         id="feGaussianBlur3176"
         stdDeviation="1.71" />
    </filter>
    <linearGradient
       x1="45.447727"
       y1="80.471962"
       x2="45.447727"
       y2="5.297224"
       id="linearGradient3664"
       xlink:href="#ButtonShadow"
       gradientUnits="userSpaceOnUse"
       gradientTransform="matrix(1.0058652,0,0,0.994169,0,12)" />
    <clipPath
       id="clipPath3860">
      <rect
         width="84"
         height="72"
         rx="6"
         ry="6"
         x="6"
         y="18"
         id="rect3862"
         style="fill:#ff00ff;fill-opacity:1;fill-rule:nonzero;stroke:none" />
    </clipPath>
    <filter
       x="-0.16558799"
       y="-0.19715989"
       width="1.331176"
       height="1.3943198"
       id="filter3870"
       style="color-interpolation-filters:sRGB">
      <feGaussianBlur
         id="feGaussianBlur3872"
         stdDeviation="5.1703125" />
    </filter>
    <linearGradient
       id="linearGradient3699">
      <stop
         id="stop3701"
         style="stop-color:#28323c;stop-opacity:0.78431374"
         offset="0" />
      <stop
         id="stop3703"
         style="stop-color:#28323c;stop-opacity:0.39215687"
         offset="1" />
    </linearGradient>
    <linearGradient
       x1="48.021698"
       y1="22.933374"
       x2="48.021698"
       y2="81.481377"
       id="linearGradient3123"
       xlink:href="#linearGradient3874"
       gradientUnits="userSpaceOnUse" />
    <linearGradient
       x1="34.85965"
       y1="16.275133"
       x2="34.85965"
       y2="26.986736"
       id="linearGradient3105"
       xlink:href="#linearGradient4008"
       gradientUnits="userSpaceOnUse"
       gradientTransform="matrix(0.72,0,0,0.72,1.92,-5.52)" />
    <linearGradient
       x1="43"
       y1="91"
       x2="43"
       y2="7"
       id="linearGradient3952"
       xlink:href="#ButtonShadow"
       gradientUnits="userSpaceOnUse" />
    <linearGradient
       x1="45"
       y1="92"
       x2="45"
       y2="7"
       id="linearGradient3961"
       xlink:href="#ButtonShadow"
       gradientUnits="userSpaceOnUse" />
    <linearGradient
       x1="45"
       y1="92"
       x2="45"
       y2="7"
       id="linearGradient3969"
       xlink:href="#ButtonShadow"
       gradientUnits="userSpaceOnUse" />
    <linearGradient
       x1="45"
       y1="92"
       x2="45"
       y2="7"
       id="linearGradient3977"
       xlink:href="#ButtonShadow"
       gradientUnits="userSpaceOnUse" />
    <linearGradient
       x1="45"
       y1="92"
       x2="45"
       y2="7"
       id="linearGradient3986"
       xlink:href="#ButtonShadow"
       gradientUnits="userSpaceOnUse" />
    <linearGradient
       x1="56"
       y1="76"
       x2="56"
       y2="32"
       id="linearGradient3087"
       xlink:href="#linearGradient3699"
       gradientUnits="userSpaceOnUse"
       gradientTransform="translate(68,-1)" />
    <linearGradient
       x1="56"
       y1="76"
       x2="56"
       y2="32"
       id="linearGradient3975"
       xlink:href="#linearGradient3699"
       gradientUnits="userSpaceOnUse"
       gradientTransform="translate(0,-2)" />
    <linearGradient
       x1="56"
       y1="76"
       x2="56"
       y2="32"
       id="linearGradient3989"
       xlink:href="#linearGradient3699"
       gradientUnits="userSpaceOnUse"
       gradientTransform="translate(0,-1)" />
    <linearGradient
       x1="56"
       y1="76"
       x2="56"
       y2="32"
       id="linearGradient4002"
       xlink:href="#linearGradient3699"
       gradientUnits="userSpaceOnUse"
       gradientTransform="translate(0,-1)" />
    <radialGradient
       cx="48.076889"
       cy="89.010345"
       r="42"
       fx="48.076889"
       fy="89.010345"
       id="radialGradient2874"
       xlink:href="#linearGradient3737-5"
       gradientUnits="userSpaceOnUse"
       gradientTransform="matrix(1.1573129,0,0,0.99590774,13.448979,0.197132)" />
    <linearGradient
       id="linearGradient3737-5">
      <stop
         id="stop3739-0"
         style="stop-color:#ffffff;stop-opacity:1"
         offset="0" />
      <stop
         id="stop3741-4"
         style="stop-color:#ffffff;stop-opacity:0"
         offset="1" />
    </linearGradient>
    <linearGradient
       id="linearGradient3737">
      <stop
         id="stop3739"
         style="stop-color:#ffffff;stop-opacity:1"
         offset="0" />
      <stop
         id="stop3741"
         style="stop-color:#ffffff;stop-opacity:0"
         offset="1" />
    </linearGradient>
    <linearGradient
       gradientTransform="matrix(1,0,0,0.99043059,21,0.14609299)"
       x1="36.357143"
       y1="16"
       x2="36.357143"
       y2="73.994667"
       id="linearGradient3916"
       xlink:href="#linearGradient3737"
       gradientUnits="userSpaceOnUse" />
    <linearGradient
       x1="48.071056"
       y1="73.765587"
       x2="48.071056"
       y2="32.397678"
       id="linearGradient3248"
       xlink:href="#linearGradient3699"
       gradientUnits="userSpaceOnUse" />
    <linearGradient
       gradientUnits="userSpaceOnUse"
       y2="27.457626"
       x2="68.644142"
       y1="88.30085"
       x1="68.288139"
       id="linearGradient928"
       xlink:href="#linearGradient926" />
    <linearGradient
       x1="19.946079"
       y1="28.251511"
       x2="19.946079"
       y2="18.047863"
       id="linearGradient3108"
       xlink:href="#linearGradient3637"
       gradientUnits="userSpaceOnUse"
       gradientTransform="translate(0,-4)" />
    <linearGradient
       id="linearGradient3637">
      <stop
         id="stop3645"
         style="stop-color:#f0f0f0;stop-opacity:1"
         offset="0" />
      <stop
         id="stop3641"
         style="stop-color:#f5f5f5;stop-opacity:1"
         offset="1" />
    </linearGradient>
  </defs>
  <metadata
     id="metadata2413">
    <rdf:RDF>
      <cc:Work
         rdf:about="">
        <dc:format>image/svg+xml</dc:format>
        <dc:type
           rdf:resource="http://purl.org/dc/dcmitype/StillImage" />
        <dc:title></dc:title>
      </cc:Work>
    </rdf:RDF>
  </metadata>
  <g
     id="layer2"
     style="display:none"
     transform="translate(0,-80)">
    <path
       d="M 14.96875,8.8028918 C 13.32891,8.8028918 12,10.085142 12,11.677892 V 19 c -3.324,0 -7,2.676 -7,6 v 61 c 0,3.324 2.676,6 6,6 h 74 c 3.324,0 6,-2.676 6,-6 V 25 c 0,-3.324 -3.74743,-6 -7.07143,-6 v -0.134608 c 0,-2.389125 -1.97774,-4.3125 -4.4375,-4.3125 H 36.15625 l -1.46875,-2.875 C 33.95414,10.253293 33.35859,8.8028918 31.71875,8.8028918 Z"
       id="rect3745"
       style="opacity:0.9;fill:url(#linearGradient3664);fill-opacity:1;fill-rule:nonzero;stroke:none;filter:url(#filter3174)" />
  </g>
  <g
     transform="matrix(0.19047619,0,0,0.19277108,-1.1428571,-1.1566261)"
     id="layer3"
     style="display:inline">
    <rect
       width="75"
       height="62.678574"
       rx="6"
       ry="6"
       x="10.535714"
       y="23.142857"
       id="rect3352"
       style="display:inline;fill:url(#linearGradient3361);fill-opacity:1;fill-rule:nonzero;stroke:none" />
    <path
       d="m 16.251125,6 c -2.77,0 -5,2.4174981 -5,5.187498 V 70.8125 c 0,2.39328 1.91922,4.3125 4.3125,4.3125 H 80.449 c 2.39328,0 4.3125,-1.91922 4.3125,-4.3125 V 15.856248 c 0,-2.77 -2.23,-4.66875 -5,-4.66875 H 44.872 C 40.75969,7.0751879 40.505521,6.0669206 38.5595,6 Z"
       id="path3908"
       style="display:inline;fill:url(#linearGradient3105);fill-opacity:1;fill-rule:nonzero;stroke:none" />
  </g>
  <g
     transform="matrix(0.19047619,0,0,0.19277108,-5.1428571,-1.1566261)"
     id="layer1"
     style="display:inline">
    <path
       id="rect2419"
       d="m 33,16.377019 h 72 c 3.324,0 6,2.409333 6,5.733333 V 77.5875 C 111,83.637135 105.08756,89 99.45,89 H 38.025 C 33.010322,89 27,83.980038 27,78.10625 V 22.110352 c 0,-3.324 2.676,-5.733333 6,-5.733333 z"
       style="fill:url(#linearGradient3706);fill-opacity:1;fill-rule:nonzero;stroke:none" />
    <path
       d="m 33,16.374659 c -3.324,0 -6,2.389793 -6,5.681984 v 45.476225 3.450286 l 5.25425,0.990431 c -6.1e-5,-19.7796 0,-26.173955 0,-45.856123 0.02021,-2.229819 2.218152,-4.555981 5,-4.555981 h 63.4915 c 2.78185,0 5,1.800753 5,4.555981 V 71.97588 l 5.2543,-0.990431 v -3.450286 -45.47852 c 0,-3.292191 -2.676,-5.681984 -6,-5.681984 z"
       id="rect3728"
       style="display:inline;opacity:0.35;fill:url(#linearGradient3916);fill-opacity:1;fill-rule:nonzero;stroke:none;stroke-width:0.99520379"
       inkscape:connector-curvature="0"
       sodipodi:nodetypes="ssccccssscccsss" />
    <path
       d="M 38.55,89 C 32.457497,89 27,82.900612 27,77.587125 V 69.84375 31.187311 l 5.25,-1 v 45.590939 2 c 0,2.781848 3.742777,6.037875 6.524625,6.037875 h 2 58.027125 2 c 2.78185,0 5.05015,-3.543849 4.94825,-5 v -2 -46.628814 l 5.25,1 V 77.5875 C 111.02331,83.280655 105.13336,89 99.45,89 Z"
       id="path3615"
       style="display:inline;opacity:1;fill:url(#linearGradient928);fill-opacity:1;fill-rule:nonzero;stroke:none" />
  </g>
  <g
     transform="matrix(0.47337171,0,0,0.47337171,54.353158,-31.789808)"
     id="layer6" />
  <g
     transform="matrix(0.20512768,0,0,0.20512768,21.386364,-1.3755785)"
     id="layer6-75">
    <g
       transform="matrix(1.0417387,0,0,1.0304901,-113.1312,-0.16064398)"
       id="layer6-7">
      <g
         transform="matrix(1.8460263,0,0,1.8661771,82.032719,-34.303051)"
         id="layer6-9">
        <g
           transform="matrix(1.0620766,0,0,1.1037458,-121.98522,10.861785)"
           id="layer6-7-1">
          <g
             transform="matrix(0.94155165,0,0,0.9060057,210.34469,-51.838222)"
             id="layer6-6">
            <g
               transform="translate(-145.2387,18.836649)"
               id="layer6-8">
              <g
                 transform="matrix(1.0550603,0,0,1.0554271,-122.04217,3.5641247)"
                 id="layer6-7-7">
                <g
                   id="layer6-759"
                   transform="matrix(0.94781313,0,0,0.94748372,146.77455,-44.829017)">
                  <g
                     transform="translate(21.424602,-10.184974)"
                     id="layer6-94">
                    <g
                       transform="matrix(1.0562524,0,0,1.0562524,-114.82131,-0.44403237)"
                       id="layer6-7-78">
                      <path
                         inkscape:connector-curvature="0"
                         style="display:inline;overflow:visible;opacity:0.9;fill:#80858c;fill-opacity:1;stroke-width:0.51087135"
                         id="path3324-3"
                         d="m 86.419817,110.31791 c -1.358899,0 -2.459238,1.08822 -2.459238,2.42973 0,1.34153 1.100339,2.42975 2.459238,2.42975 1.358893,0 2.459238,-1.08822 2.459238,-2.42975 0,-1.34151 -1.100345,-2.42973 -2.459238,-2.42973 z m -5.193636,1.90301 c -1.516617,2e-4 -3.054267,0.37837 -4.436941,1.05346 -0.04918,0.0241 -0.07983,0.0668 -0.09459,0.11893 -0.01492,0.0521 -0.0119,0.10706 0.01718,0.15292 l 1.99491,3.11788 c 0.05057,0.0793 0.153236,0.1128 0.240764,0.0764 0.738346,-0.3084 1.504519,-0.45876 2.278662,-0.45876 2.84757,0 5.331877,2.08478 5.778347,4.85097 0.01492,0.0929 0.09417,0.16142 0.189175,0.16142 h 3.74905 c 0.05468,0 0.1094,-0.0194 0.14618,-0.0595 0.03676,-0.04 0.0567,-0.0904 0.05158,-0.14443 -0.202189,-2.05244 -1.090297,-4.03963 -2.49363,-5.58159 -0.06334,-0.07 -0.16932,-0.0766 -0.249364,-0.0255 -0.565853,0.36105 -1.20788,0.55222 -1.857327,0.55222 -1.894642,0 -3.430696,-1.52079 -3.430891,-3.38124 1.95e-4,-8.3e-4 0,-0.0648 0,-0.068 0,-0.0927 -0.07035,-0.17947 -0.163374,-0.1954 -0.592412,-0.10143 -1.167464,-0.16991 -1.719753,-0.16991 z m -6.019111,2.03894 c -0.02595,0.007 -0.05604,0.0176 -0.07738,0.034 -1.626179,1.23745 -2.84571,2.97776 -3.439497,4.90194 -0.02323,0.0752 -0.0026,0.15492 0.06019,0.2039 0.817218,0.63952 1.307008,1.62392 1.307008,2.63362 0,1.00971 -0.489595,1.99411 -1.307008,2.63364 -0.06235,0.0487 -0.0834,0.12849 -0.06019,0.20389 0.589064,1.90806 1.798989,3.64173 3.405099,4.87645 0.04308,0.0333 0.09229,0.0518 0.146178,0.0425 0.0537,-0.009 0.09968,-0.0482 0.128982,-0.0934 l 2.012102,-3.10939 c 0.05133,-0.0795 0.03738,-0.184 -0.03442,-0.24637 -1.26054,-1.09579 -1.98631,-2.66698 -1.98631,-4.30726 0,-1.65252 0.729791,-3.22806 2.003506,-4.32425 0.07179,-0.062 0.09393,-0.1665 0.04297,-0.24636 l -1.994911,-3.11789 c -0.02913,-0.0455 -0.07528,-0.0756 -0.128982,-0.085 -0.02688,-0.005 -0.05142,-0.007 -0.07738,0 z m -5.546183,5.33522 c -1.390722,0 -2.519426,1.11613 -2.519426,2.4892 0,1.37308 1.128704,2.48071 2.519426,2.48071 1.390726,0 2.519431,-1.10763 2.519431,-2.48071 0,-1.37307 -1.128705,-2.4892 -2.519431,-2.4892 z m 21.281861,3.21133 -3.749045,0.008 c -0.09461,1.9e-4 -0.182627,0.0693 -0.19777,0.16141 -0.452568,2.74559 -2.930043,4.81699 -5.769752,4.81699 -0.783189,0 -1.55785,-0.15978 -2.304458,-0.47575 -0.08732,-0.0367 -0.189431,-0.0108 -0.240764,0.068 l -2.012102,3.11787 c -0.02928,0.0457 -0.03175,0.10064 -0.01718,0.15292 0.01456,0.0521 0.04559,0.0948 0.09459,0.11894 1.393496,0.68926 2.945813,1.05345 4.479938,1.05345 0.569001,0 1.16305,-0.0563 1.762742,-0.16142 0.08418,-0.0146 0.144741,-0.0777 0.154774,-0.16142 0.199827,-1.70519 1.659395,-2.99044 3.396498,-2.99044 0.538518,0 1.092765,0.1343 1.590767,0.39079 0.07572,0.0391 0.16358,0.0264 0.223568,-0.034 1.570512,-1.58237 2.563342,-3.66862 2.785988,-5.86194 0.0056,-0.0538 -0.0146,-0.1042 -0.0516,-0.14443 -0.03698,-0.0403 -0.0915,-0.0597 -0.14618,-0.0595 z m -4.428346,6.56708 c -1.390726,0 -2.51943,1.10621 -2.51943,2.4722 0,1.366 1.128704,2.47222 2.51943,2.47222 1.390722,0 2.519426,-1.10622 2.519426,-2.47222 0,-1.36599 -1.128704,-2.4722 -2.519426,-2.4722 z" />
                      <path
                         inkscape:connector-curvature="0"
                         style="display:inline;overflow:visible;opacity:1;fill:#28323c;fill-opacity:1;stroke-width:0.51087135"
                         id="path3324"
                         d="m 86.419845,108.31791 c -1.358901,0 -2.459241,1.08822 -2.459241,2.42974 0,1.34152 1.10034,2.42974 2.459241,2.42974 1.358895,0 2.459241,-1.08822 2.459241,-2.42974 0,-1.34152 -1.100346,-2.42974 -2.459241,-2.42974 z m -5.193644,1.90301 c -1.516619,1.9e-4 -3.05427,0.37838 -4.436951,1.05345 -0.04918,0.0241 -0.07983,0.0668 -0.09459,0.11894 -0.01494,0.0521 -0.01192,0.10706 0.0172,0.15292 l 1.994912,3.11788 c 0.05057,0.0793 0.153236,0.11279 0.240765,0.0765 0.738346,-0.30839 1.504521,-0.45876 2.278665,-0.45876 2.847573,0 5.331883,2.08478 5.778354,4.85098 0.01492,0.0929 0.09418,0.1614 0.189174,0.1614 h 3.749055 c 0.05468,0 0.1094,-0.0194 0.14618,-0.0595 0.03678,-0.04 0.0567,-0.0904 0.05158,-0.14442 -0.202187,-2.05244 -1.0903,-4.03964 -2.493633,-5.58159 -0.06334,-0.07 -0.16932,-0.0766 -0.249367,-0.0255 -0.565851,0.36105 -1.207879,0.55221 -1.857329,0.55221 -1.894644,0 -3.4307,-1.52079 -3.430895,-3.38124 1.95e-4,-8.4e-4 0,-0.0648 0,-0.068 0,-0.0927 -0.07035,-0.17947 -0.163377,-0.1954 -0.592405,-0.10144 -1.167458,-0.16991 -1.719746,-0.16991 z m -6.019119,2.03894 c -0.02596,0.007 -0.05605,0.0176 -0.07739,0.034 -1.626175,1.23746 -2.845711,2.97777 -3.439497,4.90195 -0.02322,0.0752 -0.0025,0.15492 0.06019,0.20389 0.817217,0.63953 1.307008,1.62393 1.307008,2.63363 0,1.0097 -0.489594,1.99411 -1.307008,2.63364 -0.06235,0.0487 -0.0834,0.12849 -0.06019,0.20389 0.589065,1.90805 1.798989,3.64173 3.405103,4.87645 0.04308,0.0332 0.09229,0.0518 0.146177,0.0425 0.0537,-0.009 0.09968,-0.0482 0.128983,-0.0935 l 2.012105,-3.10938 c 0.05133,-0.0795 0.03739,-0.184 -0.03439,-0.24637 -1.260542,-1.0958 -1.98631,-2.66698 -1.98631,-4.30726 0,-1.65252 0.729789,-3.22807 2.003507,-4.32425 0.07179,-0.062 0.09393,-0.1665 0.043,-0.24636 l -1.994912,-3.11789 c -0.02911,-0.0455 -0.07529,-0.0756 -0.128982,-0.0849 -0.02685,-0.005 -0.05143,-0.007 -0.07739,0 z m -5.54619,5.33522 c -1.390726,0 -2.519431,1.11613 -2.519431,2.4892 0,1.37308 1.128705,2.48071 2.519431,2.48071 1.390726,0 2.519433,-1.10763 2.519433,-2.48071 0,-1.37307 -1.128707,-2.4892 -2.519433,-2.4892 z m 21.28189,3.21133 -3.749049,0.008 c -0.09461,1.9e-4 -0.182628,0.0693 -0.197772,0.16141 -0.452569,2.74559 -2.930047,4.81699 -5.769759,4.81699 -0.783191,0 -1.557852,-0.15978 -2.304461,-0.47575 -0.08733,-0.0367 -0.189434,-0.0108 -0.240765,0.068 l -2.012108,3.11788 c -0.0293,0.0457 -0.03176,0.10064 -0.0172,0.15292 0.01456,0.0521 0.04562,0.0948 0.09459,0.11894 1.3935,0.68926 2.94582,1.05345 4.479947,1.05345 0.569003,0 1.163052,-0.0563 1.762744,-0.16142 0.08418,-0.0146 0.144743,-0.0777 0.154773,-0.16142 0.199828,-1.70518 1.659398,-2.99044 3.396504,-2.99044 0.538518,0 1.092765,0.13429 1.590766,0.39079 0.07572,0.0391 0.16358,0.0265 0.223569,-0.034 1.570516,-1.58237 2.563345,-3.66862 2.785991,-5.86194 0.0056,-0.0538 -0.0146,-0.1042 -0.0516,-0.14443 -0.03698,-0.0402 -0.0915,-0.0597 -0.14618,-0.0595 z m -4.428351,6.56708 c -1.390729,0 -2.519435,1.10621 -2.519435,2.47221 0,1.36599 1.128706,2.47221 2.519435,2.47221 1.390723,0 2.519429,-1.10622 2.519429,-2.47221 0,-1.366 -1.128706,-2.47221 -2.519429,-2.47221 z" />
                    </g>
                  </g>
                </g>
              </g>
            </g>
          </g>
        </g>
      </g>
    </g>
  </g>
</svg>
