<?xml version="1.0" encoding="UTF-8" standalone="no"?>
<svg
   xmlns:dc="http://purl.org/dc/elements/1.1/"
   xmlns:cc="http://creativecommons.org/ns#"
   xmlns:rdf="http://www.w3.org/1999/02/22-rdf-syntax-ns#"
   xmlns:svg="http://www.w3.org/2000/svg"
   xmlns="http://www.w3.org/2000/svg"
   xmlns:xlink="http://www.w3.org/1999/xlink"
   xmlns:sodipodi="http://sodipodi.sourceforge.net/DTD/sodipodi-0.dtd"
   xmlns:inkscape="http://www.inkscape.org/namespaces/inkscape"
   id="svg2408"
   height="22"
   width="22"
   version="1.0"
   sodipodi:docname="folder-saved-search.svg"
   inkscape:version="0.92.2 5c3e80d, 2017-08-06">
  <sodipodi:namedview
     pagecolor="#ffffff"
     bordercolor="#666666"
     borderopacity="1"
     objecttolerance="10"
     gridtolerance="10"
     guidetolerance="10"
     inkscape:pageopacity="0"
     inkscape:pageshadow="2"
     inkscape:window-width="1920"
     inkscape:window-height="1011"
     id="namedview90"
     showgrid="false"
     inkscape:zoom="6.9532167"
     inkscape:cx="9.7253357"
     inkscape:cy="8.2931396"
     inkscape:window-x="0"
     inkscape:window-y="32"
     inkscape:window-maximized="1"
     inkscape:current-layer="svg2408" />
  <defs
     id="defs2410">
    <linearGradient
       id="linearGradient4008">
      <stop
         offset="0"
         style="stop-color:#687284;stop-opacity:1"
         id="stop4010" />
      <stop
         offset="0.71691591"
         style="stop-color:#4c6173;stop-opacity:1"
         id="stop4012" />
      <stop
         offset="1"
         style="stop-color:#4d6070;stop-opacity:1"
         id="stop4014" />
    </linearGradient>
    <linearGradient
       id="linearGradient3874">
      <stop
         offset="0"
         style="stop-color:#ffffff;stop-opacity:1"
         id="stop3876" />
      <stop
         offset="1"
         style="stop-color:#ffffff;stop-opacity:0"
         id="stop3878" />
    </linearGradient>
    <linearGradient
       gradientTransform="scale(1.0598527,0.9435274)"
       gradientUnits="userSpaceOnUse"
       id="linearGradient3317"
       y2="20.137329"
       x2="11.794092"
       y1="3.2126782"
       x1="11.794092">
      <stop
         offset="0"
         style="stop-color:#c6953a;stop-opacity:1"
         id="stop3319" />
      <stop
         offset="1"
         style="stop-color:#ab7a1f;stop-opacity:1"
         id="stop3321" />
    </linearGradient>
    <linearGradient
       gradientUnits="userSpaceOnUse"
       xlink:href="#linearGradient3317"
       id="linearGradient3361"
       y2="85.821426"
       x2="48.035713"
       y1="25.910715"
       x1="48.035713" />
    <linearGradient
       id="linearGradient3187">
      <stop
         offset="0"
         style="stop-color:#455157;stop-opacity:1"
         id="stop3189" />
      <stop
         offset="1"
         style="stop-color:#57738b;stop-opacity:1"
         id="stop3191" />
    </linearGradient>
    <linearGradient
       gradientTransform="matrix(1.0058652,0,0,0.994169,0,12)"
       gradientUnits="userSpaceOnUse"
       id="ButtonShadow"
       y2="7.0165396"
       x2="45.447727"
       y1="80.471962"
       x1="45.447727">
      <stop
         offset="0"
         style="stop-color:#000000;stop-opacity:1"
         id="stop3750" />
      <stop
         offset="1"
         style="stop-color:#000000;stop-opacity:0.58823532"
         id="stop3752" />
    </linearGradient>
    <linearGradient
       gradientTransform="translate(0,8)"
       gradientUnits="userSpaceOnUse"
       xlink:href="#linearGradient3187"
       id="linearGradient3706"
       y2="5.9877172"
       x2="48"
       y1="78"
       x1="48" />
    <filter
       style="color-interpolation-filters:sRGB"
       id="filter3174">
      <feGaussianBlur
         stdDeviation="1.71"
         id="feGaussianBlur3176" />
    </filter>
    <linearGradient
       gradientTransform="matrix(1.0058652,0,0,0.994169,0,12)"
       gradientUnits="userSpaceOnUse"
       xlink:href="#ButtonShadow"
       id="linearGradient3664"
       y2="5.297224"
       x2="45.447727"
       y1="80.471962"
       x1="45.447727" />
    <clipPath
       id="clipPath3860">
      <rect
         style="fill:#ff00ff;fill-opacity:1;fill-rule:nonzero;stroke:none"
         id="rect3862"
         y="18"
         x="6"
         ry="6"
         rx="6"
         height="72"
         width="84" />
    </clipPath>
    <filter
       style="color-interpolation-filters:sRGB"
       id="filter3870"
       height="1.3943198"
       width="1.331176"
       y="-0.19715989"
       x="-0.16558799">
      <feGaussianBlur
         stdDeviation="5.1703125"
         id="feGaussianBlur3872" />
    </filter>
    <linearGradient
       id="linearGradient3699">
      <stop
         offset="0"
         style="stop-color:#28323c;stop-opacity:0.78431374"
         id="stop3701" />
      <stop
         offset="1"
         style="stop-color:#28323c;stop-opacity:0.39215687"
         id="stop3703" />
    </linearGradient>
    <linearGradient
       gradientUnits="userSpaceOnUse"
       xlink:href="#linearGradient3874"
       id="linearGradient3123"
       y2="81.481377"
       x2="48.021698"
       y1="22.933374"
       x1="48.021698" />
    <linearGradient
       gradientTransform="matrix(0.72,0,0,0.72,1.92,-5.52)"
       gradientUnits="userSpaceOnUse"
       xlink:href="#linearGradient4008"
       id="linearGradient3105"
       y2="26.986736"
       x2="34.85965"
       y1="16.275133"
       x1="34.85965" />
    <linearGradient
       gradientUnits="userSpaceOnUse"
       xlink:href="#ButtonShadow"
       id="linearGradient3952"
       y2="7"
       x2="43"
       y1="91"
       x1="43" />
    <linearGradient
       gradientUnits="userSpaceOnUse"
       xlink:href="#ButtonShadow"
       id="linearGradient3961"
       y2="7"
       x2="45"
       y1="92"
       x1="45" />
    <linearGradient
       gradientUnits="userSpaceOnUse"
       xlink:href="#ButtonShadow"
       id="linearGradient3969"
       y2="7"
       x2="45"
       y1="92"
       x1="45" />
    <linearGradient
       gradientUnits="userSpaceOnUse"
       xlink:href="#ButtonShadow"
       id="linearGradient3977"
       y2="7"
       x2="45"
       y1="92"
       x1="45" />
    <linearGradient
       gradientUnits="userSpaceOnUse"
       xlink:href="#ButtonShadow"
       id="linearGradient3986"
       y2="7"
       x2="45"
       y1="92"
       x1="45" />
    <linearGradient
       gradientTransform="translate(68,-1)"
       gradientUnits="userSpaceOnUse"
       xlink:href="#linearGradient3699"
       id="linearGradient3087"
       y2="32"
       x2="56"
       y1="76"
       x1="56" />
    <linearGradient
       gradientTransform="translate(0,-2)"
       gradientUnits="userSpaceOnUse"
       xlink:href="#linearGradient3699"
       id="linearGradient3975"
       y2="32"
       x2="56"
       y1="76"
       x1="56" />
    <linearGradient
       gradientTransform="translate(0,-1)"
       gradientUnits="userSpaceOnUse"
       xlink:href="#linearGradient3699"
       id="linearGradient3989"
       y2="32"
       x2="56"
       y1="76"
       x1="56" />
    <linearGradient
       gradientTransform="translate(0,-1)"
       gradientUnits="userSpaceOnUse"
       xlink:href="#linearGradient3699"
       id="linearGradient4002"
       y2="32"
       x2="56"
       y1="76"
       x1="56" />
    <radialGradient
       gradientTransform="matrix(1.1573129,0,0,0.99590774,-7.551021,0.197132)"
       gradientUnits="userSpaceOnUse"
       xlink:href="#linearGradient3737-5"
       id="radialGradient2874"
       fy="90.171875"
       fx="48"
       r="42"
       cy="90.171875"
       cx="48" />
    <linearGradient
       id="linearGradient3737-5">
      <stop
         offset="0"
         style="stop-color:#ffffff;stop-opacity:1"
         id="stop3739-0" />
      <stop
         offset="1"
         style="stop-color:#ffffff;stop-opacity:0"
         id="stop3741-4" />
    </linearGradient>
    <linearGradient
       id="linearGradient3737">
      <stop
         offset="0"
         style="stop-color:#ffffff;stop-opacity:1"
         id="stop3739" />
      <stop
         offset="1"
         style="stop-color:#ffffff;stop-opacity:0"
         id="stop3741" />
    </linearGradient>
    <linearGradient
       gradientUnits="userSpaceOnUse"
       xlink:href="#linearGradient3737"
       id="linearGradient3916"
       y2="73.994667"
       x2="36.357143"
       y1="16"
       x1="36.357143" />
    <linearGradient
       gradientUnits="userSpaceOnUse"
       xlink:href="#linearGradient3699"
       id="linearGradient3248"
       y2="32.397678"
       x2="48.071056"
       y1="73.765587"
       x1="48.071056" />
    <linearGradient
       xlink:href="#linearGradient3699"
       id="linearGradient916"
       gradientUnits="userSpaceOnUse"
       gradientTransform="matrix(1.0741685,0,0,1.0741471,66.931894,-6.104644)"
       x1="45.76516"
       y1="75.814552"
       x2="45.76516"
       y2="32.185188" />
    <linearGradient
       xlink:href="#linearGradient3699"
       id="linearGradient916-5"
       gradientUnits="userSpaceOnUse"
       gradientTransform="translate(0,-2)"
       x1="51.551208"
       y1="75.56765"
       x2="51.551208"
       y2="31.732052" />
    <linearGradient
       xlink:href="#linearGradient3699"
       id="linearGradient916-0"
       gradientUnits="userSpaceOnUse"
       gradientTransform="translate(0,-2)"
       x1="55"
       y1="76"
       x2="55"
       y2="33.892994" />
    <linearGradient
       xlink:href="#linearGradient3699"
       id="linearGradient916-2"
       gradientUnits="userSpaceOnUse"
       gradientTransform="matrix(0.20233772,0,0,0.1982564,51.216902,-21.10758)"
       x1="127.99561"
       y1="272.01312"
       x2="127.99561"
       y2="39.990356" />
    <linearGradient
       xlink:href="#linearGradient3699"
       id="linearGradient916-8"
       gradientUnits="userSpaceOnUse"
       gradientTransform="matrix(2.5842336,0,0,2.5842336,48.042045,22.38318)"
       x1="8.9154778"
       y1="18.868902"
       x2="8.9154778"
       y2="1.8331841" />
  </defs>
  <metadata
     id="metadata2413">
    <rdf:RDF>
      <cc:Work
         rdf:about="">
        <dc:format>image/svg+xml</dc:format>
        <dc:type
           rdf:resource="http://purl.org/dc/dcmitype/StillImage" />
        <dc:title></dc:title>
      </cc:Work>
    </rdf:RDF>
  </metadata>
  <g
     transform="translate(0,-74)"
     style="display:none"
     id="layer2">
    <path
       style="opacity:0.9;fill:url(#linearGradient3664);fill-opacity:1;fill-rule:nonzero;stroke:none;filter:url(#filter3174)"
       id="rect3745"
       d="M 14.96875,8.8028918 C 13.32891,8.8028918 12,10.085142 12,11.677892 V 19 c -3.324,0 -7,2.676 -7,6 v 61 c 0,3.324 2.676,6 6,6 h 74 c 3.324,0 6,-2.676 6,-6 V 25 c 0,-3.324 -3.74743,-6 -7.07143,-6 v -0.134608 c 0,-2.389125 -1.97774,-4.3125 -4.4375,-4.3125 H 36.15625 l -1.46875,-2.875 C 33.95414,10.253293 33.35859,8.8028918 31.71875,8.8028918 Z"
       inkscape:connector-curvature="0" />
  </g>
  <g
     transform="matrix(0.23913043,0,0,0.23913043,0,-0.12239085)"
     id="g909">
    <g
       transform="translate(-2)"
       id="layer4"
       style="display:inline">
      <path
         d="M 14.125,4 C 9.6910704,4 6,7.568413 6,12 v 2.15625 C 3.6235961,15.958367 2,18.759045 2,22 v 63 c 0,5.503629 4.496371,10 10,10 h 72 c 5.503629,0 10,-4.496371 10,-10 V 22 C 94,18.516601 92.146607,15.546894 89.46875,13.78125 88.481551,10.491738 85.526024,8 81.875,8 h -39.5 C 40.972352,6.645177 39.835329,5.4903784 38.6875,4.84375 37.192287,4.0014231 35.756649,4.0295412 34.875,4 a 0.92780092,0.92780092 0 0 0 -0.03125,0 c -0.0012,-1.73e-5 -0.03009,-1.73e-5 -0.03125,0 h -0.03125 z"
         id="path3984"
         style="display:inline;opacity:0.07999998;fill:url(#linearGradient3986);fill-opacity:1;fill-rule:nonzero;stroke:none"
         inkscape:connector-curvature="0" />
      <path
         d="M 14.125,4.9375 C 10.184407,4.9375 6.9375,8.0807925 6.9375,12 v 2.59375 c -2.3826099,1.622076 -4,4.293928 -4,7.40625 v 63 c 0,5.001444 4.0610559,9.0625 9.0625,9.0625 h 72 c 5.001444,0 9.0625,-4.061056 9.0625,-9.0625 V 22 c 0,-3.260846 -1.77319,-6.039741 -4.34375,-7.625 C 87.957559,11.279325 85.241489,8.9375 81.875,8.9375 H 42.0625 C 40.465021,7.3963057 39.290438,6.2599842 38.21875,5.65625 36.945571,4.9390059 35.771277,4.9685784 34.84375,4.9375 a 1.043776,1.043776 0 0 0 -0.03125,0 c -10e-7,0 -0.03125,0 -0.03125,0 z"
         id="path3975"
         style="display:inline;opacity:0.1;fill:url(#linearGradient3977);fill-opacity:1;fill-rule:nonzero;stroke:none"
         inkscape:connector-curvature="0" />
      <path
         d="M 14.125,5.96875 C 10.736326,5.96875 7.96875,8.6567706 7.96875,12 v 3.125 c -2.3751432,1.394016 -4,3.920462 -4,6.875 v 63 c 0,4.438141 3.5931086,8.03125 8.03125,8.03125 h 72 c 4.438141,0 8.03125,-3.593109 8.03125,-8.03125 V 22 c 0,-3.031992 -1.712245,-5.604362 -4.1875,-6.96875 C 87.351857,12.17163 84.915107,9.96875 81.875,9.96875 H 41.6875 C 39.852667,8.1939079 38.678863,7.1033787 37.71875,6.5625 36.681475,5.9781523 35.778304,6.0011109 34.8125,5.96875 a 1.043776,1.043776 0 0 0 -0.03125,0 z"
         id="path3967"
         style="display:inline;opacity:0.2;fill:url(#linearGradient3969);fill-opacity:1;fill-rule:nonzero;stroke:none"
         inkscape:connector-curvature="0" />
      <path
         d="M 14.125,7 C 11.282105,7 9,9.23 9,12 v 3.6875 C 6.6359408,16.808884 5,19.200342 5,22 v 63 c 0,3.878 3.122,7 7,7 h 72 c 3.878,0 7,-3.122 7,-7 V 22 C 91,19.190264 89.346632,16.803629 86.96875,15.6875 86.799101,13.069075 84.606585,11 81.875,11 H 41.28125 c -4.220528,-4.1123102 -4.502768,-3.9330794 -6.5,-4 z"
         id="path3908-1"
         style="display:inline;opacity:0.3;fill:url(#linearGradient3961);fill-opacity:1;fill-rule:nonzero;stroke:none"
         inkscape:connector-curvature="0" />
      <path
         d="m 15,7 c -2.77,0 -5,2.23 -5,5 v 3.34375 C 7.6664933,16.164656 6,18.378887 6,21 v 64 c 0,3.324 2.676,6 6,6 h 72 c 3.324,0 6,-2.676 6,-6 V 21 C 90,18.358112 88.300137,16.148775 85.9375,15.34375 85.611464,12.893448 83.542274,11 81,11 H 40.46875 C 36.35644,6.8876898 36.102271,7.0669206 34.15625,7 Z"
         id="path3941"
         style="display:inline;opacity:0.45;fill:url(#linearGradient3952);fill-opacity:1;fill-rule:nonzero;stroke:none"
         inkscape:connector-curvature="0" />
    </g>
    <g
       transform="translate(-2)"
       id="layer3"
       style="display:inline">
      <rect
         width="75"
         height="62.678574"
         rx="6"
         ry="6"
         x="10.535714"
         y="23.142857"
         id="rect3352"
         style="display:inline;fill:url(#linearGradient3361);fill-opacity:1;fill-rule:nonzero;stroke:none" />
      <path
         d="m 15,6 c -2.77,0 -5,1.8136439 -5,4.583644 V 70.8125 c 0,2.39328 1.91922,4.3125 4.3125,4.3125 h 67.375 C 84.08078,75.125 86,73.20578 86,70.8125 V 15 C 86,12.23 83.77,9.5836439 81,9.5836439 H 40.46875 C 36.35644,5.4713337 36.102271,6.0669206 34.15625,6 Z"
         id="path3908"
         style="display:inline;fill:url(#linearGradient3105);fill-opacity:1;fill-rule:nonzero;stroke:none"
         inkscape:connector-curvature="0" />
      <path
         d="m 15,5.1630984 c -2.77,0 -5,2.23 -5,4.9999996 V 70.8125 c 0,2.39328 1.91922,4.3125 4.3125,4.3125 h 67.375 C 84.08078,75.125 86,73.20578 86,70.8125 V 14.163098 c 0,-2.77 -2.23,-4.9999996 -5,-4.9999996 H 40.46875 c -4.11231,-4.1123102 -4.366479,-3.9330794 -6.3125,-4 z M 15,7.580735 H 34.15625 35 c 0,0 2.675558,1.7568077 4.71875,3.8 0.202648,0.189762 0.472545,0.409724 0.75,0.4 L 81,11.580735 c 2.209832,-0.0109 3.96875,1.790141 3.96875,4 V 70.8125 c 0,1.835319 -1.445931,3.28125 -3.28125,3.28125 h -67.375 c -1.835319,0 -3.28125,-1.445931 -3.28125,-3.28125 V 11.580735 c 0,-2.2098586 1.761721,-3.888206 3.96875,-4 z"
         id="path3108"
         style="display:inline;opacity:0.2;fill:#ffffff;fill-opacity:1;fill-rule:nonzero;stroke:none"
         inkscape:connector-curvature="0" />
    </g>
    <g
       transform="translate(-2)"
       id="layer1"
       style="display:inline">
      <path
         id="rect2419"
         d="m 12,13.954371 h 72 c 3.324,0 6,2.676 6,6 V 83 c 0,3.324 -2.676,6 -6,6 H 12 C 8.676,89 6,86.324 6,83 V 19.954371 c 0,-3.324 2.676,-6 6,-6 z"
         style="fill:url(#linearGradient3706);fill-opacity:1;fill-rule:nonzero;stroke:none"
         inkscape:connector-curvature="0" />
      <path
         d="m 12,13.954371 c -3.324,0 -6,2.676 -6,6 V 23 82 84 c 0,0.334721 0.04135,0.6507 0.09375,0.96875 0.0487,0.295596 0.09704,0.596915 0.1875,0.875 0.00988,0.03038 0.020892,0.0636 0.03125,0.09375 0.098865,0.287771 0.2348802,0.547452 0.375,0.8125 0.1445918,0.273507 0.3156161,0.535615 0.5,0.78125 0.1843839,0.245635 0.3737765,0.473472 0.59375,0.6875 0.439947,0.428056 0.94291,0.814526 1.5,1.09375 0.278545,0.139612 0.5734731,0.246947 0.875,0.34375 -0.2562018,-0.100222 -0.4867109,-0.236272 -0.71875,-0.375 -0.00741,-0.0044 -0.023866,0.0045 -0.03125,0 -0.031933,-0.0193 -0.062293,-0.04251 -0.09375,-0.0625 -0.120395,-0.0767 -0.2310226,-0.163513 -0.34375,-0.25 -0.1061728,-0.0808 -0.2132809,-0.161112 -0.3125,-0.25 C 8.4783201,88.557317 8.3087904,88.373362 8.15625,88.1875 8.0486711,88.057245 7.9378561,87.922215 7.84375,87.78125 7.818661,87.74287 7.805304,87.69538 7.78125,87.65625 7.716487,87.553218 7.6510225,87.451733 7.59375,87.34375 7.4927417,87.149044 7.3880752,86.928049 7.3125,86.71875 7.30454,86.69694 7.288911,86.6782 7.28125,86.65625 7.2494249,86.5643 7.2454455,86.469419 7.21875,86.375 7.1884177,86.268382 7.1483606,86.171969 7.125,86.0625 7.0521214,85.720988 7,85.364295 7,85 v -2 -57.966538 -2 c 0,-2.781848 2.2181517,-5 5,-5 h 2 68 2 c 2.781848,0 5,2.218152 5,5 v 2 V 83 85 c 0,0.364295 -0.05212,0.720988 -0.125,1.0625 -0.04415,0.206893 -0.08838,0.397658 -0.15625,0.59375 -0.0077,0.02195 -0.0233,0.04069 -0.03125,0.0625 -0.06274,0.173739 -0.138383,0.367449 -0.21875,0.53125 -0.04158,0.0828 -0.07904,0.169954 -0.125,0.25 -0.0546,0.09721 -0.126774,0.18835 -0.1875,0.28125 -0.09411,0.140965 -0.204921,0.275995 -0.3125,0.40625 -0.143174,0.17445 -0.303141,0.346998 -0.46875,0.5 -0.01117,0.0102 -0.01998,0.02115 -0.03125,0.03125 -0.138386,0.125556 -0.285091,0.234436 -0.4375,0.34375 -0.102571,0.07315 -0.204318,0.153364 -0.3125,0.21875 -0.0074,0.0045 -0.02384,-0.0044 -0.03125,0 -0.232039,0.138728 -0.462548,0.274778 -0.71875,0.375 0.301527,-0.0968 0.596455,-0.204138 0.875,-0.34375 0.55709,-0.279224 1.060053,-0.665694 1.5,-1.09375 0.219973,-0.214028 0.409366,-0.441865 0.59375,-0.6875 0.184384,-0.245635 0.355408,-0.507743 0.5,-0.78125 0.14012,-0.265048 0.276135,-0.524729 0.375,-0.8125 0.01041,-0.03078 0.02133,-0.06274 0.03125,-0.09375 0.09046,-0.278085 0.1388,-0.579404 0.1875,-0.875 C 89.95865,84.6507 90,84.334721 90,84 V 82 23 19.954371 c 0,-3.324 -2.676,-6 -6,-6 z"
         id="rect3728"
         style="display:inline;opacity:0.35;fill:url(#linearGradient3916);fill-opacity:1;fill-rule:nonzero;stroke:none"
         inkscape:connector-curvature="0" />
      <path
         d="M 12,89 C 8.676,89 6,86.324 6,83 V 81 26 24 c 0,-0.334721 0.04135,-0.6507 0.09375,-0.96875 0.0487,-0.295596 0.09704,-0.596915 0.1875,-0.875 0.00988,-0.03038 0.020892,-0.0636 0.03125,-0.09375 0.098865,-0.287771 0.2348802,-0.547452 0.375,-0.8125 0.1445918,-0.273507 0.3156161,-0.535615 0.5,-0.78125 0.1843839,-0.245635 0.3737765,-0.473472 0.59375,-0.6875 0.439947,-0.428056 0.94291,-0.814526 1.5,-1.09375 0.278545,-0.139612 0.5734731,-0.246947 0.875,-0.34375 -0.2562018,0.100222 -0.4867109,0.236272 -0.71875,0.375 -0.00741,0.0044 -0.023866,-0.0045 -0.03125,0 -0.031933,0.0193 -0.062293,0.04251 -0.09375,0.0625 -0.120395,0.0767 -0.2310226,0.163513 -0.34375,0.25 -0.1061728,0.0808 -0.2132809,0.161112 -0.3125,0.25 -0.1779299,0.161433 -0.3474596,0.345388 -0.5,0.53125 -0.1075789,0.130255 -0.2183939,0.265285 -0.3125,0.40625 -0.025089,0.03838 -0.038446,0.08587 -0.0625,0.125 -0.064763,0.103032 -0.1302275,0.204517 -0.1875,0.3125 -0.1010083,0.194706 -0.2056748,0.415701 -0.28125,0.625 C 7.30454,21.30306 7.288911,21.3218 7.28125,21.34375 7.2494249,21.4357 7.2454455,21.530581 7.21875,21.625 7.1884177,21.731618 7.1483606,21.828031 7.125,21.9375 7.0521214,22.279012 7,22.635705 7,23 v 2 55 2 c 0,2.781848 2.2181517,5 5,5 h 2 68 2 c 2.781848,0 5,-2.218152 5,-5 V 80 25 23 c 0,-0.364295 -0.05212,-0.720988 -0.125,-1.0625 -0.04415,-0.206893 -0.08838,-0.397658 -0.15625,-0.59375 -0.0077,-0.02195 -0.0233,-0.04069 -0.03125,-0.0625 -0.06274,-0.173739 -0.138383,-0.367449 -0.21875,-0.53125 -0.04158,-0.0828 -0.07904,-0.169954 -0.125,-0.25 -0.0546,-0.09721 -0.126774,-0.18835 -0.1875,-0.28125 -0.09411,-0.140965 -0.204921,-0.275995 -0.3125,-0.40625 -0.143174,-0.17445 -0.303141,-0.346998 -0.46875,-0.5 -0.01117,-0.0102 -0.01998,-0.02115 -0.03125,-0.03125 -0.138386,-0.125556 -0.285091,-0.234436 -0.4375,-0.34375 -0.102571,-0.07315 -0.204318,-0.153364 -0.3125,-0.21875 -0.0074,-0.0045 -0.02384,0.0044 -0.03125,0 -0.232039,-0.138728 -0.462548,-0.274778 -0.71875,-0.375 0.301527,0.0968 0.596455,0.204138 0.875,0.34375 0.55709,0.279224 1.060053,0.665694 1.5,1.09375 0.219973,0.214028 0.409366,0.441865 0.59375,0.6875 0.184384,0.245635 0.355408,0.507743 0.5,0.78125 0.14012,0.265048 0.276135,0.524729 0.375,0.8125 0.01041,0.03078 0.02133,0.06274 0.03125,0.09375 0.09046,0.278085 0.1388,0.579404 0.1875,0.875 C 89.95865,23.3493 90,23.665279 90,24 v 2 55 2 c 0,3.324 -2.676,6 -6,6 z"
         id="path3615"
         style="display:inline;opacity:0.2;fill:url(#radialGradient2874);fill-opacity:1;fill-rule:nonzero;stroke:none"
         inkscape:connector-curvature="0" />
    </g>
    <g
       transform="translate(-2)"
       id="layer5"
       style="display:inline">
      <path
         d="m 15.96875,22.53125 c -2.845903,0.0043 -5.433244,2.591597 -5.4375,5.4375 v 48.0625 c 0.0043,2.845903 2.591597,5.433244 5.4375,5.4375 h 64.0625 c 2.845903,-0.0043 5.433244,-2.591597 5.4375,-5.4375 v -48.0625 c -0.0043,-2.845903 -2.591597,-5.433244 -5.4375,-5.4375 z"
         clip-path="url(#clipPath3860)"
         id="path3850"
         style="opacity:0.15;fill:url(#linearGradient3123);fill-opacity:1;fill-rule:nonzero;stroke:none;filter:url(#filter3870)"
         inkscape:connector-curvature="0" />
    </g>
  </g>
  <g
     id="layer6"
     transform="matrix(0.47337171,0,0,0.47337171,54.353158,-25.789808)" />
  <g
     transform="matrix(0.24615328,0,0,0.24615328,27.063642,-0.46078415)"
     id="layer6-75">
    <g
       transform="matrix(1.0417387,0,0,1.0304901,-113.1312,-0.16064398)"
       id="layer6-7">
      <g
         transform="matrix(1.8460263,0,0,1.8661771,82.032719,-34.303051)"
         id="layer6-9">
        <g
           transform="matrix(1.0620766,0,0,1.1037458,-121.98522,10.861785)"
           id="layer6-7-1">
          <g
             transform="matrix(0.94155165,0,0,0.9060057,210.34469,-51.838222)"
             id="layer6-6">
            <g
               transform="translate(-145.2387,18.836649)"
               id="layer6-8">
              <g
                 transform="matrix(1.0550603,0,0,1.0554271,-122.04217,3.5641247)"
                 id="layer6-7-7">
                <g
                   id="layer6-759"
                   transform="matrix(0.94781313,0,0,0.94748372,146.77455,-44.829017)">
                  <g
                     transform="translate(-14.121979,-15.349862)"
                     id="layer6-3">
                    <g
                       transform="matrix(1.0558451,0,0,1.0558875,-88.378599,-5.9025179)"
                       id="layer6-7-6">
                      <path
                         d="m 81.265543,122.68249 c -3.03279,3.02168 -3.03279,7.92642 0,10.9481 2.64391,2.63422 6.717,2.98506 9.72927,1.02638 0.51202,0.0256 1.33768,0.096 1.63108,0.42766 0.39949,0.45154 -0.16522,1.50714 0.60093,2.19532 l 4.7649,4.82809 c 0,0 0.88391,0.944 2.260627,-0.42767 1.37671,-1.37166 0.42923,-2.25234 0.42923,-2.25234 l -4.764897,-4.82808 c -0.69072,-0.76334 -1.7502,-0.2007 -2.2034,-0.59873 -0.33284,-0.29232 -0.40355,-1.11496 -0.42923,-1.6251 1.96589,-3.00123 1.61375,-7.0594 -1.03016,-9.69363 -3.03279,-3.02167 -7.95556,-3.02167 -10.98835,0 z m 1.86,1.79618 c 0.93758,-0.93414 2.23312,-1.48256 3.66279,-1.48256 2.85934,0 5.17941,2.31157 5.17941,5.16043 0,2.84886 -2.32007,5.16043 -5.17941,5.16043 -2.85934,0 -5.17941,-2.31157 -5.17941,-5.16043 0,-1.42443 0.57905,-2.74374 1.51662,-3.67787 z"
                         id="Symbol-1"
                         style="display:inline;opacity:0.9;fill:#80858c;fill-opacity:1;stroke:none;stroke-width:0.50019288"
                         inkscape:connector-curvature="0" />
                      <path
                         d="m 81.265543,120.6818 c -3.03279,3.02167 -3.03279,7.92642 0,10.94809 2.64391,2.63423 6.717,2.98507 9.72927,1.02639 0.51202,0.0256 1.33768,0.096 1.63108,0.42766 0.39949,0.45153 -0.16522,1.50713 0.60093,2.19532 l 4.7649,4.82808 c 0,0 0.88391,0.94401 2.260627,-0.42766 1.37671,-1.37167 0.42923,-2.25234 0.42923,-2.25234 l -4.764897,-4.82809 c -0.69072,-0.76334 -1.7502,-0.2007 -2.2034,-0.59872 -0.33284,-0.29232 -0.40355,-1.11496 -0.42923,-1.62511 1.96589,-3.00123 1.61375,-7.0594 -1.03016,-9.69362 -3.03279,-3.02167 -7.95556,-3.02167 -10.98835,0 z m 1.86,1.79617 c 0.93758,-0.93414 2.23312,-1.48255 3.66279,-1.48255 2.85934,0 5.17941,2.31156 5.17941,5.16043 0,2.84886 -2.32007,5.16043 -5.17941,5.16043 -2.85934,0 -5.17941,-2.31157 -5.17941,-5.16043 0,-1.42443 0.57905,-2.74374 1.51662,-3.67788 z"
                         id="Symbol"
                         style="display:inline;opacity:0.9;fill:#28323c;fill-opacity:1;stroke:none;stroke-width:0.50019288"
                         inkscape:connector-curvature="0" />
                    </g>
                  </g>
                </g>
              </g>
            </g>
          </g>
        </g>
      </g>
    </g>
  </g>
</svg>
