<?xml version="1.0" encoding="UTF-8" standalone="no"?>
<!-- Created with Inkscape (http://www.inkscape.org/) -->

<svg
   xmlns:svg="http://www.w3.org/2000/svg"
   xmlns="http://www.w3.org/2000/svg"
   xmlns:xlink="http://www.w3.org/1999/xlink"
   version="1.0"
   width="96"
   height="96"
   id="svg2408"
   style="display:inline">
  <defs
     id="defs2410">
    <linearGradient
       id="linearGradient3233">
      <stop
         id="stop3235"
         style="stop-color:#595959;stop-opacity:1"
         offset="0" />
      <stop
         id="stop3237"
         style="stop-color:#999999;stop-opacity:1"
         offset="1" />
    </linearGradient>
    <filter
       color-interpolation-filters="sRGB"
       id="filter7653">
      <feGaussianBlur
         id="feGaussianBlur7655"
         stdDeviation="0.9728125" />
    </filter>
    <filter
       color-interpolation-filters="sRGB"
       id="filter7657">
      <feGaussianBlur
         id="feGaussianBlur7659"
         stdDeviation="0.9728125" />
    </filter>
    <linearGradient
       x1="82.312332"
       y1="85.362457"
       x2="81.312866"
       y2="82.651672"
       id="linearGradient7554"
       xlink:href="#linearGradient3298"
       gradientUnits="userSpaceOnUse" />
    <filter
       color-interpolation-filters="sRGB"
       id="filter7542">
      <feGaussianBlur
         id="feGaussianBlur7544"
         stdDeviation="0.063379309" />
    </filter>
    <linearGradient
       id="linearGradient3298">
      <stop
         id="stop3300"
         style="stop-color:#f9f9f9;stop-opacity:1"
         offset="0" />
      <stop
         id="stop3302"
         style="stop-color:#787878;stop-opacity:1"
         offset="1" />
    </linearGradient>
    <linearGradient
       x1="80.875443"
       y1="82.61515"
       x2="82.573708"
       y2="84.937546"
       id="linearGradient7562"
       xlink:href="#linearGradient3298"
       gradientUnits="userSpaceOnUse" />
    <linearGradient
       id="linearGradient7450">
      <stop
         id="stop7452"
         style="stop-color:#f0f0f0;stop-opacity:1"
         offset="0" />
      <stop
         id="stop7454"
         style="stop-color:#b4b4b4;stop-opacity:1"
         offset="1" />
    </linearGradient>
    <linearGradient
       x1="45.447727"
       y1="92.539597"
       x2="45.447727"
       y2="7.0165396"
       id="ButtonShadow"
       gradientUnits="userSpaceOnUse"
       gradientTransform="scale(1.0058652,0.994169)">
      <stop
         id="stop3750"
         style="stop-color:#000000;stop-opacity:1"
         offset="0" />
      <stop
         id="stop3752"
         style="stop-color:#000000;stop-opacity:0.58823532"
         offset="1" />
    </linearGradient>
    <linearGradient
       id="linearGradient3737">
      <stop
         id="stop3739"
         style="stop-color:#ffffff;stop-opacity:1"
         offset="0" />
      <stop
         id="stop3741"
         style="stop-color:#ffffff;stop-opacity:0"
         offset="1" />
    </linearGradient>
    <linearGradient
       id="linearGradient3700">
      <stop
         id="stop3702"
         style="stop-color:#e6e6e6;stop-opacity:1"
         offset="0" />
      <stop
         id="stop3704"
         style="stop-color:#f5f5f5;stop-opacity:1"
         offset="1" />
    </linearGradient>
    <linearGradient
       x1="48"
       y1="90"
       x2="48"
       y2="5.9877172"
       id="linearGradient3706"
       xlink:href="#linearGradient3700"
       gradientUnits="userSpaceOnUse" />
    <filter
       color-interpolation-filters="sRGB"
       id="filter3174">
      <feGaussianBlur
         id="feGaussianBlur3176"
         stdDeviation="1.71" />
    </filter>
    <linearGradient
       x1="36.357143"
       y1="6"
       x2="36.357143"
       y2="63.893143"
       id="linearGradient3188"
       xlink:href="#linearGradient3737"
       gradientUnits="userSpaceOnUse" />
    <radialGradient
       cx="56.055019"
       cy="55.978848"
       r="52.251602"
       fx="56.055019"
       fy="55.978848"
       id="radialGradient3228"
       xlink:href="#linearGradient7450"
       gradientUnits="userSpaceOnUse"
       gradientTransform="matrix(0.6242124,-0.6242124,0.3973474,0.3973474,-27.897454,41.427702)" />
    <linearGradient
       x1="50.75"
       y1="84.31427"
       x2="50.75"
       y2="12.31033"
       id="linearGradient3239"
       xlink:href="#linearGradient3233"
       gradientUnits="userSpaceOnUse" />
    <filter
       color-interpolation-filters="sRGB"
       id="filter3249">
      <feGaussianBlur
         id="feGaussianBlur3251"
         stdDeviation="0.71000039" />
    </filter>
    <linearGradient
       x1="45.447727"
       y1="92.539597"
       x2="45.447727"
       y2="7.0165396"
       id="ButtonShadow-0"
       gradientUnits="userSpaceOnUse"
       gradientTransform="matrix(1.0058652,0,0,0.994169,100,0)">
      <stop
         id="stop3750-8"
         style="stop-color:#000000;stop-opacity:1"
         offset="0" />
      <stop
         id="stop3752-5"
         style="stop-color:#000000;stop-opacity:0.58823532"
         offset="1" />
    </linearGradient>
    <linearGradient
       x1="32.251034"
       y1="6.1317081"
       x2="32.251034"
       y2="90.238609"
       id="linearGradient3780"
       xlink:href="#ButtonShadow-0"
       gradientUnits="userSpaceOnUse"
       gradientTransform="matrix(1.0238095,0,0,1.0119048,-1.1428571,-98.071429)" />
    <linearGradient
       x1="32.251034"
       y1="6.1317081"
       x2="32.251034"
       y2="90.238609"
       id="linearGradient3772"
       xlink:href="#ButtonShadow-0"
       gradientUnits="userSpaceOnUse"
       gradientTransform="matrix(1.0238095,0,0,1.0119048,-1.1428571,-98.071429)" />
    <linearGradient
       x1="32.251034"
       y1="6.1317081"
       x2="32.251034"
       y2="90.238609"
       id="linearGradient3725"
       xlink:href="#ButtonShadow-0"
       gradientUnits="userSpaceOnUse"
       gradientTransform="matrix(1.0238095,0,0,1.0119048,-1.1428571,-98.071429)" />
    <linearGradient
       x1="32.251034"
       y1="6.1317081"
       x2="32.251034"
       y2="90.238609"
       id="linearGradient3721"
       xlink:href="#ButtonShadow-0"
       gradientUnits="userSpaceOnUse"
       gradientTransform="translate(0,-97)" />
    <linearGradient
       x1="32.251034"
       y1="6.1317081"
       x2="32.251034"
       y2="90.238609"
       id="linearGradient3760"
       xlink:href="#ButtonShadow-0"
       gradientUnits="userSpaceOnUse"
       gradientTransform="matrix(1.0238095,0,0,1.0119048,-1.1428571,-98.071429)" />
    <linearGradient
       id="linearGradient3737-0">
      <stop
         id="stop3739-6"
         style="stop-color:#ffffff;stop-opacity:1"
         offset="0" />
      <stop
         id="stop3741-0"
         style="stop-color:#ffffff;stop-opacity:0"
         offset="1" />
    </linearGradient>
    <radialGradient
       cx="48"
       cy="90.171875"
       r="42"
       fx="48"
       fy="90.171875"
       id="radialGradient3786"
       xlink:href="#linearGradient3737-0"
       gradientUnits="userSpaceOnUse"
       gradientTransform="matrix(1.1573129,0,0,0.99590774,-7.551021,0.1971319)" />
    <linearGradient
       id="linearGradient3737-9">
      <stop
         id="stop3739-2"
         style="stop-color:#ffffff;stop-opacity:1"
         offset="0" />
      <stop
         id="stop3741-1"
         style="stop-color:#ffffff;stop-opacity:0"
         offset="1" />
    </linearGradient>
    <clipPath
       id="clipPath3613">
      <rect
         width="84"
         height="84"
         rx="6"
         ry="6"
         x="6"
         y="6"
         id="rect3615"
         style="fill:#ffffff;fill-opacity:1;fill-rule:nonzero;stroke:none" />
    </clipPath>
    <filter
       x="-0.192"
       y="-0.192"
       width="1.3839999"
       height="1.3839999"
       color-interpolation-filters="sRGB"
       id="filter3794">
      <feGaussianBlur
         id="feGaussianBlur3796"
         stdDeviation="5.28" />
    </filter>
    <linearGradient
       x1="48"
       y1="20.220806"
       x2="48"
       y2="138.66119"
       id="linearGradient3891"
       xlink:href="#linearGradient3737-9"
       gradientUnits="userSpaceOnUse" />
    <linearGradient
       x1="99.142372"
       y1="67.187523"
       x2="99.142372"
       y2="-112.17552"
       id="linearGradient3759"
       xlink:href="#linearGradient7450"
       gradientUnits="userSpaceOnUse"
       gradientTransform="matrix(0.4552109,0,0,-0.4552109,-119.76014,37.361259)" />
    <linearGradient
       x1="99.142372"
       y1="67.187523"
       x2="99.142372"
       y2="-112.17552"
       id="linearGradient3870"
       xlink:href="#linearGradient7450"
       gradientUnits="userSpaceOnUse"
       gradientTransform="matrix(0.4552109,0,0,-0.4552109,90.239858,37.361259)" />
    <linearGradient
       x1="99.142372"
       y1="67.187523"
       x2="99.142372"
       y2="-112.17552"
       id="linearGradient3879"
       xlink:href="#linearGradient7450"
       gradientUnits="userSpaceOnUse"
       gradientTransform="matrix(0.4552109,0,0,-0.4552109,-19.760142,37.361259)" />
  </defs>
  <g
     id="layer2"
     style="display:none">
    <rect
       width="86"
       height="85"
       rx="6"
       ry="6"
       x="5"
       y="7"
       id="rect3745"
       style="opacity:0.9;fill:url(#ButtonShadow);fill-opacity:1;fill-rule:nonzero;stroke:none;filter:url(#filter3174)" />
  </g>
  <g
     id="layer8"
     style="display:inline">
    <path
       d="m 12,-95.03125 c -5.5110903,0 -10.03125,4.52016 -10.03125,10.03125 l 0,71 c 0,5.5110902 4.5201598,10.03125 10.03125,10.03125 l 72,0 c 5.51109,0 10.03125,-4.5201597 10.03125,-10.03125 l 0,-71 c 0,-5.51109 -4.52016,-10.03125 -10.03125,-10.03125 l -72,0 z"
       transform="scale(1,-1)"
       id="path3786"
       style="opacity:0.07999998;fill:url(#linearGradient3760);fill-opacity:1;fill-rule:nonzero;stroke:none;display:inline" />
    <path
       d="m 12,-94.03125 c -4.971633,0 -9.03125,4.059617 -9.03125,9.03125 l 0,71 c 0,4.9716329 4.0596171,9.03125 9.03125,9.03125 l 72,0 c 4.971633,0 9.03125,-4.059617 9.03125,-9.03125 l 0,-71 c 0,-4.971633 -4.059617,-9.03125 -9.03125,-9.03125 l -72,0 z"
       transform="scale(1,-1)"
       id="path3778"
       style="opacity:0.1;fill:url(#linearGradient3780);fill-opacity:1;fill-rule:nonzero;stroke:none;display:inline" />
    <path
       d="m 12,-93 c -4.4091333,0 -8,3.590867 -8,8 l 0,71 c 0,4.4091333 3.5908667,8 8,8 l 72,0 c 4.409133,0 8,-3.5908667 8,-8 l 0,-71 c 0,-4.409133 -3.590867,-8 -8,-8 l -72,0 z"
       transform="scale(1,-1)"
       id="path3770"
       style="opacity:0.2;fill:url(#linearGradient3772);fill-opacity:1;fill-rule:nonzero;stroke:none;display:inline" />
    <rect
       width="86"
       height="85"
       rx="7"
       ry="7"
       x="5"
       y="-92"
       transform="scale(1,-1)"
       id="rect3723"
       style="opacity:0.3;fill:url(#linearGradient3725);fill-opacity:1;fill-rule:nonzero;stroke:none;display:inline" />
    <rect
       width="84"
       height="84"
       rx="6"
       ry="6"
       x="6"
       y="-91"
       transform="scale(1,-1)"
       id="rect3716"
       style="opacity:0.45;fill:url(#linearGradient3721);fill-opacity:1;fill-rule:nonzero;stroke:none;display:inline" />
  </g>
  <g
     id="layer1"
     style="display:inline">
    <rect
       width="84"
       height="84"
       rx="6"
       ry="6"
       x="6"
       y="6"
       id="rect2419"
       style="fill:url(#linearGradient3706);fill-opacity:1;fill-rule:nonzero;stroke:none" />
  </g>
  <g
     id="layer6">
    <rect
       width="66"
       height="66"
       rx="12"
       ry="12"
       x="15"
       y="15"
       clip-path="url(#clipPath3613)"
       id="rect3171"
       style="opacity:0.5;fill:url(#linearGradient3891);fill-opacity:1;fill-rule:nonzero;stroke:#ffffff;stroke-width:0.5;stroke-linecap:round;stroke-linejoin:miter;stroke-miterlimit:4;stroke-opacity:1;stroke-dasharray:none;stroke-dashoffset:0;display:inline;filter:url(#filter3794)" />
  </g>
  <g
     id="layer3"
     style="display:inline">
    <rect
       width="84"
       height="84"
       rx="6"
       ry="6"
       x="116"
       y="-90"
       transform="scale(1,-1)"
       id="rect3800"
       style="fill:#ff00ff;fill-opacity:1;fill-rule:nonzero;stroke:none" />
    <path
       d="m -59.71875,6 -0.6875,1.21875 1.8125,2.40625 1.59375,1.3125 0.65625,0.3125 -1.15625,2.8125 -0.71875,-0.25 -2,-0.21875 -3,0.40625 -0.53125,1.90625 2.40625,1.84375 1.84375,0.84375 0.75,0.125 -0.40625,3.03125 -0.75,-0.09375 -2,0.34375 -2.8125,1.1875 0,1.9375 2.8125,1.1875 2,0.3125 0.75,-0.0625 0.40625,3.03125 -0.75,0.125 -1.84375,0.84375 -2.40625,1.84375 0.53125,1.875 3,0.4375 2,-0.21875 0.71875,-0.25 1.15625,2.8125 L -57,37.375 l -1.59375,1.28125 -1.8125,2.40625 0.96875,1.71875 3,-0.375 1.90625,-0.75 0.625,-0.40625 1.84375,2.40625 -0.59375,0.5 -1.15625,1.65625 -1.15625,2.78125 1.375,1.375 2.8125,-1.125 1.65625,-1.1875 0.46875,-0.59375 2.40625,1.84375 -0.40625,0.65625 -0.71875,1.875 -0.40625,3 1.71875,1 2.40625,-1.84375 1.28125,-1.5625 0.3125,-0.6875 2.8125,1.15625 -0.25,0.71875 -0.1875,2.03125 0.40625,3 1.875,0.5 1.84375,-2.40625 0.84375,-1.84375 0.125,-0.75 3.03125,0.40625 -0.0625,0.75 0.34375,2 1.15625,2.8125 1.96875,0 1.15625,-2.8125 0.34375,-2 -0.0625,-0.75 3,-0.40625 0.125,0.75 0.84375,1.84375 1.875,2.40625 1.875,-0.5 0.40625,-3 -0.1875,-2.03125 -0.25,-0.71875 2.78125,-1.15625 0.34375,0.6875 1.28125,1.5625 2.40625,1.84375 1.71875,-1 -0.40625,-3 -0.71875,-1.875 -0.4375,-0.65625 2.0625,-1.59375 0,-6.65625 c -1.543482,1.785961 -3.330368,3.357495 -5.3125,4.65625 l -5.46875,-10.59375 c 3.071785,-2.439024 5.074813,-6.193946 5.125,-10.40625 L -10,23.28125 -10,18.0625 -16.59375,19.25 c -1.442581,-3.690154 -4.449757,-6.59676 -8.21875,-7.875 L -24.09375,6 l -5.21875,0 -0.625,4.6875 c -4.182796,0.241572 -7.851504,2.392441 -10.15625,5.59375 L -50.9375,11.3125 C -49.783041,9.3574416 -48.368548,7.5719903 -46.75,6 l -6.34375,0 -0.8125,1.0625 -0.625,-0.4375 L -56.1875,6 -59.71875,6 z m -18.03125,9.46875 -0.9375,2.0625 -0.0625,0.75 0.1875,1.25 -2.21875,0.59375 -0.46875,-1.1875 -0.4375,-0.59375 -1.84375,-1.3125 -1.0625,0.625 0.25,2.25 0.3125,0.6875 0.78125,0.96875 -1.625,1.625 -1,-0.78125 -0.65625,-0.28125 -2.25,-0.21875 -0.625,1.0625 1.3125,1.84375 0.625,0.40625 1.15625,0.46875 -0.5625,2.21875 -1.25,-0.1875 -0.75,0.09375 -2.0625,0.9375 0,1.21875 2.0625,0.9375 0.75,0.0625 1.25,-0.1875 0.59375,2.21875 -1.15625,0.46875 -0.625,0.4375 -1.3125,1.84375 0.625,1.0625 2.25,-0.25 0.6875,-0.3125 0.96875,-0.78125 1.625,1.625 -0.78125,1 L -84.28125,38.75 -84.5,41 l 1.0625,0.625 1.84375,-1.34375 0.40625,-0.59375 0.46875,-1.15625 2.21875,0.5625 -0.1875,1.25 0.09375,0.75 0.9375,2.0625 1.21875,0 0.9375,-2.0625 0.0625,-0.75 -0.1875,-1.25 2.21875,-0.59375 0.46875,1.15625 0.4375,0.625 1.84375,1.3125 1.0625,-0.625 -0.25,-2.25 -0.28125,-0.6875 -0.8125,-0.96875 1.625,-1.625 1,0.78125 0.65625,0.28125 2.28125,0.21875 0.59375,-1.0625 -1.3125,-1.84375 -0.625,-0.40625 -1.15625,-0.46875 0.59375,-2.21875 1.25,0.1875 0.71875,-0.09375 2.0625,-0.9375 0,-1.21875 -2.0625,-0.9375 -0.75,-0.0625 -1.25,0.1875 -0.59375,-2.21875 1.1875,-0.46875 0.59375,-0.4375 1.3125,-1.84375 -0.625,-1.0625 -2.25,0.25 -0.6875,0.28125 -0.96875,0.8125 -1.625,-1.625 0.78125,-1 0.28125,-0.65625 0.21875,-2.28125 L -70.75,17 -72.59375,18.3125 -73,18.9375 -73.46875,20.09375 -75.6875,19.5 -75.5,18.25 l -0.09375,-0.71875 -0.9375,-2.0625 -1.21875,0 z M -53.09375,16 -42.25,20.96875 c -0.24709,1.020234 -0.375,2.091664 -0.375,3.1875 0,2.968384 0.935072,5.709475 2.5625,7.9375 l -8.09375,8.75 c -3.912799,-4.452353 -6.28125,-10.298991 -6.28125,-16.6875 0,-2.854275 0.470501,-5.595648 1.34375,-8.15625 z M -36.25,35.59375 c 2.065667,1.286683 4.482614,2.03125 7.09375,2.03125 1.316871,0 2.609132,-0.178741 3.8125,-0.53125 L -19.875,47.6875 c -2.867871,1.12959 -6.013061,1.75 -9.28125,1.75 -5.716899,0 -10.979589,-1.892771 -15.21875,-5.09375 l 8.125,-8.75 z M -75.5,43.25 l -1.0625,2.53125 -0.28125,1.8125 0.03125,0.6875 -2.71875,0.34375 -0.125,-0.65625 -0.75,-1.6875 -1.65625,-2.15625 -1.71875,0.4375 -0.375,2.71875 0.15625,1.8125 0.25,0.6875 -2.53125,1.03125 -0.28125,-0.59375 -1.1875,-1.4375 -2.15625,-1.65625 -1.53125,0.875 0.34375,2.6875 0.625,1.75 0.40625,0.5625 -2.1875,1.65625 -0.4375,-0.5 L -94,53.1875 -94,63.5 c 4.00016,-6.509321 11.179303,-10.875001 19.375,-10.875 12.549343,0 22.71875,10.200659 22.71875,22.75 0,5.576688 -2.007711,10.668621 -5.34375,14.625 l 10.375,0 -1.15625,-1.5 -1.40625,-1.15625 -0.625,-0.3125 1.0625,-2.5625 0.625,0.25 1.84375,0.1875 2.6875,-0.375 0.46875,-1.6875 -2.15625,-1.6875 -1.6875,-0.75 -0.6875,-0.125 0.375,-2.71875 0.6875,0.0625 1.8125,-0.3125 2.5,-1.0625 0,-1.75 -2.5,-1.0625 -1.8125,-0.3125 -0.6875,0.0625 -0.375,-2.71875 0.6875,-0.125 1.6875,-0.75 2.15625,-1.6875 -0.46875,-1.6875 -2.6875,-0.375 L -48.375,66 -49,66.25 l -1.0625,-2.5625 0.625,-0.25 1.40625,-1.1875 1.65625,-2.1875 -0.875,-1.53125 -2.71875,0.375 -1.71875,0.625 -0.5625,0.40625 -1.6875,-2.1875 0.53125,-0.4375 1.0625,-1.5 1.03125,-2.53125 -1.21875,-1.25 -2.5625,1.03125 -1.46875,1.09375 -0.4375,0.5 L -59.1875,53 l 0.375,-0.5625 0.65625,-1.75 L -57.8125,48 -59.34375,47.125 -61.5,48.78125 l -1.15625,1.4375 -0.3125,0.59375 -2.53125,-1.03125 0.21875,-0.6875 0.1875,-1.8125 -0.34375,-2.71875 -1.71875,-0.4375 -1.6875,2.15625 -0.75,1.6875 -0.125,0.65625 -2.71875,-0.34375 0.0625,-0.6875 -0.3125,-1.8125 -1.03125,-2.53125 -1.78125,0 z"
       id="path3726"
       style="opacity:0.7;fill:url(#linearGradient3759);fill-opacity:1;stroke:none" />
    <path
       d="m 179.875,-11.40625 -1.15625,2.78125 -0.34375,2.03125 0.0625,0.75 -3.03125,0.40625 -0.125,-0.75 -0.84375,-1.875 -1.84375,-2.375 -1.875,0.5 -0.40625,3 0.1875,2.03125 0.25,0.71875 -2.8125,1.15625 -0.3125,-0.6875 -1.28125,-1.59375 -2.40625,-1.8125 -1.71875,0.96875 0.40625,3 0.71875,1.90625 0.40625,0.625 -2.40625,1.84375 -0.46875,-0.5625 -1.65625,-1.1875 -2.8125,-1.15625 -1.375,1.375 1.15625,2.8125 1.15625,1.65625 0.59375,0.5 -1.84375,2.40625 -0.625,-0.4375 -1.90625,-0.71875 -3,-0.375 -0.96875,1.6875 1.8125,2.40625 1.59375,1.3125 0.65625,0.3125 -1.15625,2.8125 -0.71875,-0.25 -2,-0.21875 -3,0.40625 -0.53125,1.90625 2.40625,1.84375 1.84375,0.84375 0.75,0.125 -0.40625,3.03125 -0.75,-0.09375 -2,0.34375 -2.8125,1.1875 0,1.9375 2.8125,1.1875 2,0.3125 0.75,-0.0625 0.40625,3.03125 -0.75,0.125 -1.84375,0.84375 -2.40625,1.84375 0.53125,1.875 3,0.4375 2,-0.21875 0.71875,-0.25 1.15625,2.8125 L 153,37.375 l -1.59375,1.28125 -1.8125,2.40625 0.96875,1.71875 3,-0.375 1.90625,-0.75 0.625,-0.40625 1.84375,2.40625 -0.59375,0.5 -1.15625,1.65625 -1.15625,2.78125 1.375,1.375 2.8125,-1.125 1.65625,-1.1875 0.46875,-0.59375 2.40625,1.84375 -0.40625,0.65625 -0.71875,1.875 -0.40625,3 1.71875,1 2.40625,-1.84375 1.28125,-1.5625 0.3125,-0.6875 2.8125,1.15625 -0.25,0.71875 -0.1875,2.03125 0.40625,3 1.875,0.5 1.84375,-2.40625 0.84375,-1.84375 0.125,-0.75 3.03125,0.40625 -0.0625,0.75 0.34375,2 1.15625,2.8125 1.96875,0 1.15625,-2.8125 0.34375,-2 -0.0625,-0.75 3,-0.40625 0.125,0.75 0.84375,1.84375 1.875,2.40625 1.875,-0.5 0.40625,-3 -0.1875,-2.03125 -0.25,-0.71875 2.78125,-1.15625 0.34375,0.6875 1.28125,1.5625 2.40625,1.84375 1.71875,-1 -0.40625,-3 -0.71875,-1.875 -0.4375,-0.65625 2.40625,-1.84375 0.5,0.59375 1.65625,1.1875 2.8125,1.125 1.375,-1.375 -1.15625,-2.78125 -1.1875,-1.65625 -0.5625,-0.5 1.84375,-2.40625 0.625,0.40625 1.90625,0.75 3,0.375 0.96875,-1.71875 -1.8125,-2.40625 -1.59375,-1.28125 -0.6875,-0.3125 1.1875,-2.8125 0.6875,0.25 2.03125,0.21875 3,-0.4375 0.53125,-1.875 -2.40625,-1.84375 -1.875,-0.84375 -0.71875,-0.125 0.375,-3.03125 0.78125,0.0625 2,-0.3125 2.78125,-1.1875 0,-1.9375 L 213.625,22 l -2,-0.34375 -0.78125,0.09375 -0.375,-3.03125 0.71875,-0.125 1.875,-0.84375 2.40625,-1.84375 L 214.9375,14 l -3,-0.40625 -2.03125,0.21875 -0.6875,0.25 -1.1875,-2.8125 0.6875,-0.3125 1.59375,-1.3125 1.8125,-2.40625 -0.96875,-1.6875 -3,0.375 -1.90625,0.71875 -0.625,0.4375 -1.84375,-2.40625 0.5625,-0.5 1.1875,-1.65625 1.15625,-2.8125 -1.375,-1.375 -2.8125,1.15625 -1.65625,1.1875 -0.5,0.5625 -2.40625,-1.84375 0.4375,-0.625 0.71875,-1.90625 0.40625,-3 -1.71875,-0.96875 -2.40625,1.8125 -1.28125,1.59375 -0.34375,0.6875 -2.78125,-1.15625 0.25,-0.71875 0.1875,-2.03125 -0.40625,-3 -1.875,-0.5 -1.875,2.375 -0.84375,1.875 -0.125,0.75 -3,-0.40625 0.0625,-0.75 L 183,-8.625 l -1.15625,-2.78125 -1.96875,0 z m 0.96875,10.25 c 0.26989,0 0.54465,0.02285 0.8125,0.03125 l -1.59375,11.8125 c -4.1828,0.241572 -7.8515,2.392441 -10.15625,5.59375 L 159.0625,11.3125 c 4.40392,-7.4579728 12.50198,-12.46875 21.78125,-12.46875 z m 5.9375,0.71875 c 8.82984,2.1255734 15.86677,8.8863046 18.375,17.5625 l -11.75,2.125 c -1.44258,-3.690154 -4.44976,-6.59676 -8.21875,-7.875 l 1.59375,-11.8125 z M 132.25,15.46875 l -0.9375,2.0625 -0.0625,0.75 0.1875,1.25 -2.21875,0.59375 -0.46875,-1.1875 -0.4375,-0.59375 -1.84375,-1.3125 -1.0625,0.625 0.25,2.25 0.3125,0.6875 0.78125,0.96875 -1.625,1.625 -1,-0.78125 -0.65625,-0.28125 -2.25,-0.21875 -0.625,1.0625 1.3125,1.84375 0.625,0.40625 1.15625,0.46875 -0.5625,2.21875 -1.25,-0.1875 -0.75,0.09375 -2.0625,0.9375 0,1.21875 2.0625,0.9375 0.75,0.0625 1.25,-0.1875 0.59375,2.21875 -1.15625,0.46875 -0.625,0.4375 -1.3125,1.84375 0.625,1.0625 2.25,-0.25 0.6875,-0.3125 0.96875,-0.78125 1.625,1.625 -0.78125,1 L 125.71875,38.75 125.5,41 l 1.0625,0.625 1.84375,-1.34375 0.40625,-0.59375 0.46875,-1.15625 2.21875,0.5625 -0.1875,1.25 0.0937,0.75 0.9375,2.0625 1.21875,0 0.9375,-2.0625 0.0625,-0.75 -0.1875,-1.25 2.21875,-0.59375 0.46875,1.15625 0.4375,0.625 1.84375,1.3125 1.0625,-0.625 -0.25,-2.25 -0.28125,-0.6875 -0.8125,-0.96875 1.625,-1.625 1,0.78125 0.65625,0.28125 2.28125,0.21875 0.59375,-1.0625 -1.3125,-1.84375 -0.625,-0.40625 -1.15625,-0.46875 0.59375,-2.21875 1.25,0.1875 0.71875,-0.09375 2.0625,-0.9375 0,-1.21875 -2.0625,-0.9375 -0.75,-0.0625 -1.25,0.1875 -0.59375,-2.21875 1.1875,-0.46875 0.59375,-0.4375 1.3125,-1.84375 -0.625,-1.0625 -2.25,0.25 -0.6875,0.28125 -0.96875,0.8125 -1.625,-1.625 0.78125,-1 0.28125,-0.65625 0.21875,-2.28125 L 139.25,17 137.40625,18.3125 137,18.9375 136.53125,20.09375 134.3125,19.5 134.5,18.25 l -0.0937,-0.71875 -0.9375,-2.0625 -1.21875,0 z M 156.90625,16 167.75,20.96875 c -0.24709,1.020234 -0.375,2.091664 -0.375,3.1875 0,2.968384 0.93507,5.709475 2.5625,7.9375 l -8.09375,8.75 c -3.9128,-4.452353 -6.28125,-10.298991 -6.28125,-16.6875 0,-2.854275 0.4705,-5.595648 1.34375,-8.15625 z m 23.96875,1 c 3.97835,0 7.1875,3.209151 7.1875,7.1875 0,3.978349 -3.20915,7.21875 -7.1875,7.21875 -3.97835,0 -7.21875,-3.240401 -7.21875,-7.21875 0,-3.978349 3.2404,-7.1875 7.21875,-7.1875 z m 25.1875,5.1875 c 0.0499,0.648656 0.0937,1.307396 0.0937,1.96875 0,8.855547 -4.57389,16.638522 -11.46875,21.15625 L 189.2187,34.71875 c 3.07179,-2.439024 5.07481,-6.193946 5.125,-10.40625 l 11.71875,-2.125 z M 133,25.65625 c 1.97228,0 3.5625,1.590222 3.5625,3.5625 0,1.972278 -1.59022,3.59375 -3.5625,3.59375 -1.97228,0 -3.5625,-1.621472 -3.5625,-3.59375 0,-1.972278 1.59022,-3.5625 3.5625,-3.5625 z m 40.75,9.9375 c 2.06567,1.286683 4.48261,2.03125 7.09375,2.03125 1.31687,0 2.60913,-0.178741 3.8125,-0.53125 L 190.125,47.6875 c -2.86787,1.12959 -6.01306,1.75 -9.28125,1.75 -5.7169,0 -10.97959,-1.892771 -15.21875,-5.09375 l 8.125,-8.75 z M 134.5,43.25 l -1.0625,2.53125 -0.28125,1.8125 0.0312,0.6875 -2.71875,0.34375 -0.125,-0.65625 -0.75,-1.6875 -1.65625,-2.15625 -1.71875,0.4375 -0.375,2.71875 0.15625,1.8125 0.25,0.6875 -2.53125,1.03125 -0.28125,-0.59375 -1.1875,-1.4375 -2.15625,-1.65625 -1.53125,0.875 0.34375,2.6875 0.625,1.75 0.40625,0.5625 -2.1875,1.65625 -0.4375,-0.5 -1.5,-1.09375 -2.53125,-1.03125 -1.25,1.25 1.03125,2.53125 1.09375,1.5 0.5,0.4375 -1.65625,2.1875 -0.5625,-0.40625 -1.71875,-0.625 -2.71875,-0.375 -0.875,1.53125 1.65625,2.1875 1.4375,1.1875 0.59375,0.25 -1.03125,2.5625 -0.65625,-0.25 -1.84375,-0.15625 -2.71875,0.375 -0.4375,1.6875 2.15625,1.6875 1.6875,0.75 0.65625,0.125 -0.34375,2.71875 -0.6875,-0.0625 -1.8125,0.3125 -2.53125,1.0625 0,1.75 2.53125,1.0625 1.8125,0.3125 0.6875,-0.0625 0.34375,2.71875 -0.65625,0.125 -1.6875,0.75 -2.15625,1.6875 0.4375,1.6875 2.71875,0.375 1.84375,-0.1875 0.65625,-0.25 1.03125,2.5625 -0.59375,0.3125 -1.4375,1.15625 -1.65625,2.15625 0.875,1.53125 2.71875,-0.34375 1.71875,-0.65625 0.5625,-0.375 1.65625,2.15625 -0.5,0.4375 -1.09375,1.5 -1.03125,2.5625 1.25,1.21875 2.53125,-1.03125 1.5,-1.0625 0.4375,-0.53125 2.1875,1.6875 -0.40625,0.5625 -0.625,1.71875 -0.34375,2.71875 1.53125,0.875 2.15625,-1.65625 1.1875,-1.40625 0.28125,-0.625 2.53125,1.0625 -0.25,0.625 -0.15625,1.84375 0.375,2.6875 1.71875,0.46875 1.65625,-2.1875 0.75,-1.65625 0.125,-0.6875 2.71875,0.375 -0.0312,0.6875 0.28125,1.8125 1.0625,2.5 1.78125,0 1.03125,-2.5 0.3125,-1.8125 -0.0625,-0.6875 2.71875,-0.375 0.125,0.6875 0.75,1.65625 1.6875,2.1875 1.71875,-0.46875 0.34375,-2.6875 -0.1875,-1.84375 L 144.5,101 l 2.53125,-1.0625 0.3125,0.625 1.15625,1.40625 2.15625,1.65625 1.53125,-0.875 -0.34375,-2.71875 -0.65625,-1.71875 -0.375,-0.5625 2.1875,-1.6875 0.4375,0.53125 1.46875,1.0625 2.5625,1.03125 1.21875,-1.21875 -1.03125,-2.5625 -1.0625,-1.5 -0.53125,-0.4375 1.6875,-2.15625 0.5625,0.375 1.71875,0.65625 2.71875,0.34375 0.875,-1.53125 -1.65625,-2.15625 -1.40625,-1.15625 -0.625,-0.3125 1.0625,-2.5625 0.625,0.25 1.84375,0.1875 2.6875,-0.375 0.46875,-1.6875 -2.15625,-1.6875 -1.6875,-0.75 -0.6875,-0.125 0.375,-2.71875 0.6875,0.0625 1.8125,-0.3125 2.5,-1.0625 0,-1.75 -2.5,-1.0625 -1.8125,-0.3125 -0.6875,0.0625 -0.375,-2.71875 0.6875,-0.125 1.6875,-0.75 2.15625,-1.6875 -0.46875,-1.6875 -2.6875,-0.375 L 161.625,66 161,66.25 l -1.0625,-2.5625 0.625,-0.25 1.40625,-1.1875 1.65625,-2.1875 -0.875,-1.53125 -2.71875,0.375 -1.71875,0.625 -0.5625,0.40625 -1.6875,-2.1875 0.53125,-0.4375 1.0625,-1.5 1.03125,-2.53125 -1.21875,-1.25 -2.5625,1.03125 -1.46875,1.09375 -0.4375,0.5 L 150.8125,53 l 0.375,-0.5625 0.65625,-1.75 L 152.1875,48 150.65625,47.125 148.5,48.78125 l -1.15625,1.4375 -0.3125,0.59375 -2.53125,-1.03125 0.21875,-0.6875 0.1875,-1.8125 -0.34375,-2.71875 -1.71875,-0.4375 -1.6875,2.15625 -0.75,1.6875 -0.125,0.65625 -2.71875,-0.34375 0.0625,-0.6875 -0.3125,-1.8125 -1.03125,-2.53125 -1.78125,0 z m 0.875,9.375 c 12.54934,0 22.71875,10.200659 22.71875,22.75 0,12.549341 -10.16941,22.71875 -22.71875,22.71875 -12.54934,0 -22.75,-10.169409 -22.75,-22.71875 0,-12.549341 10.20066,-22.750001 22.75,-22.75 z m 0,4.0625 c -10.31419,0 -18.6875,8.342059 -18.6875,18.65625 0,10.314191 8.37331,18.6875 18.6875,18.6875 10.31419,0 18.6875,-8.373309 18.6875,-18.6875 0,-10.314191 -8.37331,-18.65625 -18.6875,-18.65625 z m 0,4.03125 c 8.08247,0 14.625,6.542534 14.625,14.625 C 150,83.426216 143.45747,90 135.375,90 127.29253,90 120.75,83.426216 120.75,75.34375 c 0,-8.082466 6.54253,-14.625 14.625,-14.625 z"
       id="path3782"
       style="opacity:0.7;fill:url(#linearGradient3870);fill-opacity:1;stroke:none" />
    <path
       d="M 40.28125,6 39.59375,7.21875 41.40625,9.625 43,10.9375 43.65625,11.25 42.5,14.0625 l -0.71875,-0.25 -2,-0.21875 -3,0.40625 L 36.25,15.90625 38.65625,17.75 40.5,18.59375 l 0.75,0.125 -0.40625,3.03125 -0.75,-0.09375 -2,0.34375 -2.8125,1.1875 0,1.9375 2.8125,1.1875 2,0.3125 0.75,-0.0625 0.40625,3.03125 -0.75,0.125 -1.84375,0.84375 -2.40625,1.84375 0.53125,1.875 3,0.4375 2,-0.21875 L 42.5,34.25 43.65625,37.0625 43,37.375 l -1.59375,1.28125 -1.8125,2.40625 0.96875,1.71875 3,-0.375 1.90625,-0.75 0.625,-0.40625 1.84375,2.40625 -0.59375,0.5 -1.15625,1.65625 -1.15625,2.78125 1.375,1.375 2.8125,-1.125 1.65625,-1.1875 0.46875,-0.59375 2.40625,1.84375 -0.40625,0.65625 -0.71875,1.875 -0.40625,3 1.71875,1 2.40625,-1.84375 1.28125,-1.5625 0.3125,-0.6875 L 60.75,52.5 60.5,53.21875 60.3125,55.25 l 0.40625,3 1.875,0.5 1.84375,-2.40625 0.84375,-1.84375 0.125,-0.75 3.03125,0.40625 -0.0625,0.75 0.34375,2 1.15625,2.8125 1.96875,0 1.15625,-2.8125 0.34375,-2 -0.0625,-0.75 3,-0.40625 0.125,0.75 0.84375,1.84375 1.875,2.40625 1.875,-0.5 0.40625,-3 -0.1875,-2.03125 -0.25,-0.71875 2.78125,-1.15625 0.34375,0.6875 1.28125,1.5625 2.40625,1.84375 1.71875,-1 -0.40625,-3 L 88.375,49.5625 87.9375,48.90625 90,47.3125 90,40.65625 c -1.54497,1.78637 -3.33037,3.357495 -5.3125,4.65625 L 79.21875,34.71875 c 3.07179,-2.439024 5.07481,-6.193946 5.125,-10.40625 L 90,23.28125 90,18.0625 83.40625,19.25 C 81.96367,15.559846 78.95649,12.65324 75.1875,11.375 L 75.90625,6 70.6875,6 l -0.625,4.6875 c -4.1828,0.241572 -7.8515,2.392441 -10.15625,5.59375 L 49.0625,11.3125 C 50.21696,9.3574416 51.63309,7.5725389 53.25,6 L 46.90625,6 46.09375,7.0625 45.46875,6.625 43.8125,6 40.28125,6 z M 22.25,15.46875 l -0.9375,2.0625 -0.0625,0.75 0.1875,1.25 -2.21875,0.59375 -0.46875,-1.1875 -0.4375,-0.59375 -1.84375,-1.3125 -1.0625,0.625 0.25,2.25 0.3125,0.6875 0.78125,0.96875 -1.625,1.625 -1,-0.78125 -0.65625,-0.28125 -2.25,-0.21875 -0.625,1.0625 1.3125,1.84375 0.625,0.40625 1.15625,0.46875 -0.5625,2.21875 -1.25,-0.1875 -0.75,0.09375 -2.0625,0.9375 0,1.21875 2.0625,0.9375 0.75,0.0625 1.25,-0.1875 0.59375,2.21875 -1.15625,0.46875 -0.625,0.4375 -1.3125,1.84375 0.625,1.0625 2.25,-0.25 0.6875,-0.3125 0.96875,-0.78125 1.625,1.625 -0.78125,1 L 15.71875,38.75 15.5,41 l 1.0625,0.625 1.84375,-1.34375 0.40625,-0.59375 0.46875,-1.15625 2.21875,0.5625 -0.1875,1.25 0.0937,0.75 0.9375,2.0625 1.21875,0 0.9375,-2.0625 0.0625,-0.75 -0.1875,-1.25 2.21875,-0.59375 0.46875,1.15625 0.4375,0.625 1.84375,1.3125 1.0625,-0.625 -0.25,-2.25 -0.28125,-0.6875 -0.8125,-0.96875 1.625,-1.625 1,0.78125 0.65625,0.28125 2.28125,0.21875 0.59375,-1.0625 -1.3125,-1.84375 -0.625,-0.40625 -1.15625,-0.46875 0.59375,-2.21875 1.25,0.1875 0.71875,-0.09375 2.0625,-0.9375 0,-1.21875 -2.0625,-0.9375 -0.75,-0.0625 -1.25,0.1875 -0.59375,-2.21875 1.1875,-0.46875 0.59375,-0.4375 1.3125,-1.84375 -0.625,-1.0625 -2.25,0.25 -0.6875,0.28125 -0.96875,0.8125 -1.625,-1.625 0.78125,-1 L 30.0937,19.875 30.31245,17.59375 29.25,17 27.40625,18.3125 27,18.9375 26.53125,20.09375 24.3125,19.5 24.5,18.25 l -0.0937,-0.71875 -0.9375,-2.0625 -1.21875,0 z M 46.90625,16 57.75,20.96875 c -0.24709,1.020234 -0.375,2.091664 -0.375,3.1875 0,2.968384 0.93507,5.709475 2.5625,7.9375 l -8.09375,8.75 C 47.93095,36.391397 45.5625,30.544759 45.5625,24.15625 45.5625,21.301975 46.033,18.560602 46.90625,16 z M 70.875,17 c 3.97835,0 7.1875,3.209151 7.1875,7.1875 0,3.978349 -3.20915,7.21875 -7.1875,7.21875 -3.97835,0 -7.21875,-3.240401 -7.21875,-7.21875 C 63.65625,20.209151 66.89665,17 70.875,17 z M 23,25.65625 c 1.97228,0 3.5625,1.590222 3.5625,3.5625 0,1.972278 -1.59022,3.59375 -3.5625,3.59375 -1.97228,0 -3.5625,-1.621472 -3.5625,-3.59375 0,-1.972278 1.59022,-3.5625 3.5625,-3.5625 z m 40.75,9.9375 c 2.06567,1.286683 4.48261,2.03125 7.09375,2.03125 1.31687,0 2.60913,-0.178741 3.8125,-0.53125 L 80.125,47.6875 c -2.86787,1.12959 -6.01306,1.75 -9.28125,1.75 -5.7169,0 -10.97959,-1.892771 -15.21875,-5.09375 l 8.125,-8.75 z M 24.5,43.25 l -1.0625,2.53125 -0.28125,1.8125 0.0312,0.6875 -2.71875,0.34375 -0.125,-0.65625 -0.75,-1.6875 -1.65625,-2.15625 -1.71875,0.4375 -0.375,2.71875 0.15625,1.8125 0.25,0.6875 -2.53125,1.03125 -0.28125,-0.59375 -1.1875,-1.4375 L 10.0937,47.125 8.56245,48 l 0.34375,2.6875 0.625,1.75 0.40625,0.5625 -2.1875,1.65625 -0.4375,-0.5 L 6,53.1875 6,63.5 c 4.00526,-6.513511 11.17987,-10.875001 19.375,-10.875 12.54934,0 22.71875,10.200659 22.71875,22.75 0,5.576688 -2.01091,10.67182 -5.34375,14.625 l 10.375,0 -1.15625,-1.5 -1.40625,-1.15625 -0.625,-0.3125 1.0625,-2.5625 0.625,0.25 1.84375,0.1875 2.6875,-0.375 0.46875,-1.6875 -2.15625,-1.6875 -1.6875,-0.75 -0.6875,-0.125 0.375,-2.71875 0.6875,0.0625 1.8125,-0.3125 2.5,-1.0625 0,-1.75 -2.5,-1.0625 -1.8125,-0.3125 -0.6875,0.0625 -0.375,-2.71875 0.6875,-0.125 1.6875,-0.75 2.15625,-1.6875 -0.46875,-1.6875 -2.6875,-0.375 L 51.625,66 51,66.25 l -1.0625,-2.5625 0.625,-0.25 1.40625,-1.1875 1.65625,-2.1875 -0.875,-1.53125 -2.71875,0.375 -1.71875,0.625 -0.5625,0.40625 -1.6875,-2.1875 0.53125,-0.4375 1.0625,-1.5 1.03125,-2.53125 -1.21875,-1.25 -2.5625,1.03125 L 43.4375,54.15625 43,54.65625 40.8125,53 l 0.375,-0.5625 0.65625,-1.75 L 42.1875,48 40.65625,47.125 38.5,48.78125 37.34375,50.21875 37.03125,50.8125 34.5,49.78125 l 0.21875,-0.6875 0.1875,-1.8125 -0.34375,-2.71875 -1.71875,-0.4375 -1.6875,2.15625 -0.75,1.6875 -0.125,0.65625 -2.71875,-0.34375 0.0625,-0.6875 -0.3125,-1.8125 L 26.28125,43.25 24.5,43.25 z m 0.875,13.4375 c -10.31419,0 -18.6875,8.342059 -18.6875,18.65625 0,5.953389 2.81386,11.233104 7.15625,14.65625 L 25.375,90 C 17.29253,90 10.75,83.426216 10.75,75.34375 c 0,-8.082466 6.54253,-14.625 14.625,-14.625 8.08247,0 14.625,6.542534 14.625,14.625 C 40,83.426216 33.45747,90 25.375,90 l 11.53125,0 C 41.24864,86.576854 44.0625,81.297139 44.0625,75.34375 44.0625,65.029559 35.68919,56.6875 25.375,56.6875 z"
       id="path3874"
       style="opacity:0.7;fill:url(#linearGradient3879);fill-opacity:1;stroke:none" />
    <path
       d="m 40.28125,6 -0.6875,1.21875 0.3125,0.4375 0.375,-0.65625 3.53125,0 1.65625,0.625 0.625,0.4375 0.8125,-1.0625 5.375,0 C 52.594671,6.6609221 52.919256,6.3216677 53.25,6 L 46.90625,6 46.09375,7.0625 45.46875,6.625 43.8125,6 40.28125,6 z m 30.40625,0 -0.625,4.6875 c -4.1828,0.241572 -7.8515,2.392441 -10.15625,5.59375 l -10.34375,-4.75 c -0.167123,0.260335 -0.342467,0.514471 -0.5,0.78125 l 10.84375,4.96875 C 62.211,14.079941 65.8797,11.929072 70.0625,11.6875 L 70.6875,7 l 5.09375,0 0.125,-1 -5.21875,0 z m 4.625,5.4375 -0.125,0.9375 c 3.76899,1.27824 6.77617,4.184846 8.21875,7.875 L 90,19.0625 l 0,-1 -6.59375,1.1875 C 81.980585,15.603116 79.019531,12.738377 75.3125,11.4375 z m -32,0.65625 -0.8125,1.96875 -0.71875,-0.25 -2,-0.21875 -3,0.40625 -0.53125,1.90625 0.21875,0.1875 0.3125,-1.09375 3,-0.40625 2,0.21875 0.71875,0.25 1.15625,-2.8125 -0.34375,-0.15625 z m -21.0625,3.375 -0.9375,2.0625 -0.0625,0.75 0.0625,0.34375 0,-0.09375 0.9375,-2.0625 1.21875,0 0.9375,2.0625 0.03125,0.1875 L 24.5,18.25 l -0.09375,-0.71875 -0.9375,-2.0625 -1.21875,0 z M 29.25,17 27.40625,18.3125 27,18.9375 26.53125,20.09375 24.46875,19.53125 24.3125,20.5 26.53125,21.09375 27,19.9375 27.40625,19.3125 29.25,18 30.21875,18.53125 30.3125,17.59375 29.25,17 z m -12.78125,0.03125 -1.0625,0.625 0.09375,0.9375 0.96875,-0.5625 1.84375,1.3125 L 18.75,19.9375 19.21875,21.125 21.4375,20.53125 21.28125,19.5625 19.21875,20.125 18.75,18.9375 18.3125,18.34375 16.46875,17.03125 z M 41.125,19.6875 40.84375,21.75 l -0.75,-0.09375 -2,0.34375 -2.8125,1.1875 0,1 2.8125,-1.1875 2,-0.34375 0.75,0.09375 L 41.25,19.71875 41.125,19.6875 z m -6.5625,2.125 -2.25,0.25 -0.6875,0.28125 -0.96875,0.8125 -1.1875,-1.1875 -0.4375,0.5625 1.625,1.625 0.96875,-0.8125 0.6875,-0.28125 2.25,-0.25 0.3125,0.5 0.3125,-0.4375 -0.625,-1.0625 z m -23.34375,0.09375 -0.625,1.0625 0.3125,0.4375 0.3125,-0.5 2.25,0.21875 0.65625,0.28125 1,0.78125 1.625,-1.625 L 16.3125,22 l -1.1875,1.1875 -1,-0.78125 -0.65625,-0.28125 -2.25,-0.21875 z m 46.375,0 c -0.122598,0.734667 -0.21875,1.482151 -0.21875,2.25 0,0.22275 0.02082,0.436181 0.03125,0.65625 0.02415,-0.974815 0.122844,-1.931631 0.34375,-2.84375 l -0.15625,-0.0625 z m 6.09375,2.78125 c -0.01109,0.163056 -0.03125,0.334092 -0.03125,0.5 0,3.978349 3.2404,7.21875 7.21875,7.21875 3.97835,0 7.1875,-3.240401 7.1875,-7.21875 0,-0.165908 -0.02026,-0.336944 -0.03125,-0.5 -0.252432,3.749288 -3.343808,6.71875 -7.15625,6.71875 -3.812442,0 -6.932674,-2.969462 -7.1875,-6.71875 z m -18.09375,0.09375 c -0.0018,0.125694 -0.03125,0.248859 -0.03125,0.375 0,6.388509 2.36845,12.235147 6.28125,16.6875 l 8.09375,-8.75 C 59.796665,32.90094 59.692808,32.700309 59.5625,32.5 l -7.71875,8.34375 c -3.784009,-4.305803 -6.100079,-9.919661 -6.25,-16.0625 z m -13.25,1.75 -0.25,0.09375 0.59375,2.21875 1.25,-0.1875 0.75,0.0625 2.0625,0.9375 0,-1 -2.0625,-0.9375 -0.75,-0.0625 -1.25,0.1875 -0.34375,-1.3125 z m -18.875,0.0625 -0.34375,1.3125 -1.25,-0.1875 -0.75,0.09375 -2.0625,0.9375 0,1 2.0625,-0.9375 0.75,-0.09375 1.25,0.1875 0.5625,-2.21875 -0.21875,-0.09375 z M 41.125,29.625 40.5,29.71875 38.65625,30.5625 36.25,32.40625 l 0.21875,0.8125 2.1875,-1.65625 1.84375,-0.84375 0.75,-0.125 -0.125,-0.96875 z m -21.65625,0.09375 c -0.02316,0.164598 -0.03125,0.32886 -0.03125,0.5 0,1.972278 1.59022,3.59375 3.5625,3.59375 1.97228,0 3.5625,-1.621472 3.5625,-3.59375 0,-0.17114 -0.0081,-0.335402 -0.03125,-0.5 C 26.287529,31.455552 24.801139,32.8125 23,32.8125 c -1.801139,0 -3.287529,-1.356948 -3.53125,-3.09375 z m 12.90625,3.3125 -0.25,0.90625 1.15625,0.46875 0.625,0.40625 1,1.40625 0.3125,-0.5625 -1.3125,-1.84375 -0.625,-0.40625 -0.90625,-0.375 z m -18.90625,0.0625 -0.90625,0.375 -0.625,0.4375 -1.3125,1.84375 0.3125,0.5625 1,-1.40625 0.625,-0.4375 L 13.71875,34 l -0.25,-0.90625 z m 66.09375,2.3125 c -0.118646,0.101033 -0.221672,0.215569 -0.34375,0.3125 L 84.6875,46.3125 C 86.66963,45.013745 88.45503,43.44262 90,41.65625 l 0,-1 c -1.54497,1.78637 -3.33037,3.357495 -5.3125,4.65625 l -5.125,-9.90625 z m -36.25,1.8125 L 43,37.375 l -1.59375,1.28125 -1.8125,2.40625 0.3125,0.5625 1.5,-1.96875 L 43,38.375 43.65625,38.0625 43.3125,37.21875 z m -13.78125,0.375 -0.46875,0.46875 0.8125,0.96875 0.28125,0.6875 0.15625,1.3125 0.09375,-0.0625 -0.25,-2.25 -0.28125,-0.6875 -0.34375,-0.4375 z M 16.34375,37.65625 16,38.09375 15.71875,38.75 15.5,41 15.59375,41.0625 15.71875,39.75 16,39.09375 l 0.78125,-1 -0.4375,-0.4375 z m 5,2.40625 L 21.3125,40.34375 21.375,40.875 21.5,40.09375 21.34375,40.0625 z m 3.1875,0 L 24.375,40.09375 24.5,41 24.5625,40.34375 24.53125,40.0625 z M 24.5,43.25 l -1.0625,2.53125 -0.28125,1.8125 0.03125,0.6875 0.25,-1.5 L 24.5,44.25 l 1.78125,0 1.03125,2.53125 0.25,1.46875 0.0625,-0.65625 -0.3125,-1.8125 L 26.28125,43.25 24.5,43.25 z m -1.3125,5.03125 -2.71875,0.34375 -0.125,-0.65625 -0.75,-1.6875 -1.65625,-2.15625 -1.71875,0.4375 -0.375,2.71875 0.0625,0.625 0.3125,-2.34375 1.71875,-0.4375 1.65625,2.15625 0.75,1.6875 0.125,0.65625 2.71875,-0.34375 -0.03125,-0.6875 0.03125,-0.3125 z m 24.28125,-4.21875 -0.125,0.09375 -1.15625,1.65625 -1.15625,2.78125 0.28125,0.28125 0.875,-2.0625 1.15625,-1.65625 0.59375,-0.5 -0.46875,-0.59375 z m -14.625,0.0625 -1.6875,2.15625 -0.75,1.6875 -0.125,0.65625 -2.71875,-0.34375 0.0625,0.3125 -0.0625,0.6875 2.71875,0.34375 0.125,-0.65625 0.75,-1.6875 1.6875,-2.15625 1.71875,0.4375 0.28125,2.28125 0.0625,-0.5625 L 34.5625,44.5625 32.84375,44.125 z M 56.1875,44.75 55.625,45.34375 c 4.23916,3.200979 9.50185,5.09375 15.21875,5.09375 3.26819,0 6.41338,-0.62041 9.28125,-1.75 l -0.4375,-0.84375 c -2.751011,1.024954 -5.738208,1.59375 -8.84375,1.59375 -5.466071,0 -10.518257,-1.737798 -14.65625,-4.6875 z M 10.09375,47.125 8.5625,48 l 0.125,0.9375 1.40625,-0.8125 2.15625,1.65625 1.1875,1.4375 0.28125,0.59375 L 16.25,50.78125 16,50.09375 15.96875,49.875 13.71875,50.8125 13.4375,50.21875 12.25,48.78125 10.09375,47.125 z m 30.5625,0 L 38.5,48.78125 37.34375,50.21875 37.03125,50.8125 34.75,49.875 34.71875,50.09375 34.5,50.78125 37.03125,51.8125 37.34375,51.21875 38.5,49.78125 40.65625,48.125 42.0625,48.9375 42.1875,48 40.65625,47.125 z m 47.71875,2.4375 -0.4375,0.34375 0.4375,0.65625 0.71875,1.875 0.28125,2.0625 0.125,-0.0625 -0.40625,-3 -0.71875,-1.875 z m -35.03125,0.03125 -0.71875,1.84375 -0.40625,3 0.125,0.0625 0.28125,-2.0625 0.71875,-1.875 0.40625,-0.65625 -0.40625,-0.3125 z m -5.875,2.4375 -2.5625,1.03125 L 43.4375,54.15625 43,54.65625 41.21875,53.3125 41.1875,53.4375 40.8125,54 43,55.65625 l 0.4375,-0.5 1.46875,-1.09375 2.5625,-1.03125 0.9375,0.96875 0.28125,-0.71875 -1.21875,-1.25 z M 6,53.1875 l 0,1 1.3125,0.96875 0.4375,0.5 L 9.9375,54 9.53125,53.4375 9.5,53.34375 7.75,54.65625 7.3125,54.15625 6,53.1875 z m 75.25,0.1875 -0.28125,0.125 0.25,0.71875 0.125,1.4375 L 81.40625,55.25 81.25,53.375 z M 60.46875,53.40625 60.3125,55.25 60.375,55.65625 60.5,54.21875 60.75,53.5 60.46875,53.40625 z m 7.9375,1.75 0.03125,0.0625 0,-0.0625 -0.03125,0 z m 4.875,0 0,0.0625 0.03125,-0.0625 -0.03125,0 z M 25.375,56.6875 c -10.31419,0 -18.6875,8.342059 -18.6875,18.65625 0,0.212751 0.024122,0.414024 0.03125,0.625 C 6.9214924,65.830518 15.187836,57.6875 25.375,57.6875 c 10.187164,0 18.453508,8.143018 18.65625,18.28125 0.0071,-0.210976 0.03125,-0.412249 0.03125,-0.625 0,-10.314191 -8.37331,-18.65625 -18.6875,-18.65625 z m 21.15625,1.6875 -0.46875,0.375 1.6875,2.1875 0.5625,-0.40625 1.71875,-0.625 2.71875,-0.375 0.5625,0.96875 0.3125,-0.4375 -0.875,-1.53125 -2.71875,0.375 -1.71875,0.625 L 47.75,59.9375 46.53125,58.375 z m 3.75,6.15625 L 49.9375,64.6875 51,67.25 51.625,67 l 1.84375,-0.15625 2.6875,0.375 0.25,0.875 0.21875,-0.1875 -0.46875,-1.6875 -2.6875,-0.375 L 51.625,66 51,66.25 50.28125,64.53125 z m 1.9375,6.90625 -0.125,0.03125 0.375,2.71875 0.6875,-0.0625 1.8125,0.3125 2.5,1.0625 0,-1 -2.5,-1.0625 -1.8125,-0.3125 -0.6875,0.0625 -0.25,-1.75 z M 48.0625,75.75 C 47.973371,81.177965 46.006963,86.136819 42.75,90 l 0.78125,0 c 2.857068,-3.797166 4.5625,-8.504817 4.5625,-13.625 0,-0.212114 -0.02548,-0.414266 -0.03125,-0.625 z m -37.28125,0.09375 c -0.0056,0.167146 -0.03125,0.331469 -0.03125,0.5 0,6.215196 3.881024,11.528422 9.34375,13.65625 L 25.375,90 C 17.461061,90 11.046273,83.693925 10.78125,75.84375 z M 25.375,90 30.65625,90 C 36.118976,87.872172 40,82.558946 40,76.34375 c 0,-0.168531 -0.02561,-0.332854 -0.03125,-0.5 C 39.703727,83.693925 33.288939,90 25.375,90 z m 26.84375,-9.6875 -0.125,0.96875 0.6875,0.125 1.6875,0.75 1.9375,1.5 0.21875,-0.8125 -2.15625,-1.6875 -1.6875,-0.75 -0.5625,-0.09375 z m -1.9375,6.875 -0.34375,0.84375 0.625,0.3125 1.40625,1.15625 0.375,0.5 0.78125,0 -1.15625,-1.5 -1.40625,-1.15625 -0.28125,-0.15625 z"
       id="path3881"
       style="opacity:0.1;fill:#000000;fill-opacity:1;stroke:none" />
    <path
       d="m 52.28125,7 c -1.218801,1.3185743 -2.300438,2.7573552 -3.21875,4.3125 l 0.5,0.21875 C 50.620116,9.8837505 51.853727,8.3579567 53.25,7 l -0.96875,0 z m 23.5,0 -0.59375,4.375 c 0.04419,0.01499 0.08102,0.04706 0.125,0.0625 L 75.90625,7 l -0.125,0 z m -35.875,0.65625 -0.3125,0.5625 1.8125,2.40625 L 43,11.9375 43.3125,12.09375 43.65625,11.25 43,10.9375 41.40625,9.625 l -1.5,-1.96875 z m 7,8.34375 c -0.87325,2.560602 -1.34375,5.301975 -1.34375,8.15625 0,0.210279 0.02615,0.415925 0.03125,0.625 0.03962,-2.718469 0.477842,-5.333811 1.3125,-7.78125 l 10.6875,4.90625 c 0.05237,-0.313813 0.0823,-0.632141 0.15625,-0.9375 L 46.90625,16 z M 36.46875,16.09375 36.25,16.90625 38.65625,18.75 40.5,19.59375 41.125,19.6875 41.25,18.71875 40.5,18.59375 38.65625,17.75 36.46875,16.09375 z M 70.875,17 c -3.97835,0 -7.21875,3.209151 -7.21875,7.1875 0,0.165908 0.02016,0.33684 0.03125,0.5 C 63.942326,20.940606 67.062558,18 70.875,18 c 3.812442,0 6.903818,2.940606 7.15625,6.6875 0.01099,-0.16316 0.03125,-0.334092 0.03125,-0.5 C 78.0625,20.209151 74.85335,17 70.875,17 z m -40.65625,1.53125 -0.125,1.34375 -0.28125,0.65625 -0.78125,1 0.4375,0.4375 0.34375,-0.4375 0.28125,-0.65625 0.21875,-2.28125 -0.09375,-0.0625 z M 15.5,18.59375 l -0.09375,0.0625 0.25,2.25 0.3125,0.6875 L 16.3125,22 16.75,21.5625 15.96875,20.59375 15.65625,19.90625 15.5,18.59375 z M 21.3125,18.625 21.25,19.28125 21.28125,19.5625 21.4375,19.53125 21.3125,18.625 z m 3.125,0.09375 L 24.3125,19.5 24.46875,19.53125 24.5,19.25 24.4375,18.71875 z M 90,23.28125 84.34375,24.3125 c -0.05019,4.212304 -2.05321,7.967226 -5.125,10.40625 l 0.34375,0.6875 c 2.866798,-2.441226 4.733055,-6.048849 4.78125,-10.09375 L 90,24.28125 l 0,-1 z m -55.125,0.03125 -1,1.40625 -0.59375,0.4375 -1.1875,0.46875 0.25,0.90625 0.9375,-0.375 0.59375,-0.4375 1.3125,-1.84375 -0.3125,-0.5625 z m -23.96875,0.09375 -0.3125,0.5625 1.3125,1.84375 0.625,0.40625 0.9375,0.375 0.21875,-0.90625 -1.15625,-0.46875 -0.625,-0.40625 -1,-1.40625 z m 46.5,1.40625 c -0.0029,0.115547 -0.03125,0.227623 -0.03125,0.34375 0,2.711505 0.812027,5.229375 2.1875,7.34375 l 0.375,-0.40625 C 58.432194,30.032918 57.534792,27.525093 57.40625,24.8125 z m -22.125,0.3125 0,1 2.8125,1.1875 2,0.3125 0.75,-0.0625 0.28125,2.0625 0.125,-0.03125 -0.40625,-3.03125 -0.75,0.0625 -2,-0.3125 -2.8125,-1.1875 z M 23,25.65625 c -1.97228,0 -3.5625,1.590222 -3.5625,3.5625 0,0.17114 0.0081,0.334973 0.03125,0.5 0.243721,-1.732279 1.730111,-3.0625 3.53125,-3.0625 1.801139,0 3.287529,1.330221 3.53125,3.0625 0.02316,-0.165027 0.03125,-0.32886 0.03125,-0.5 0,-1.972278 -1.59022,-3.5625 -3.5625,-3.5625 z m 13.75,4.21875 -2.0625,0.9375 -0.71875,0.09375 -1.25,-0.1875 -0.59375,2.21875 0.25,0.09375 0.34375,-1.3125 1.25,0.1875 0.71875,-0.09375 2.0625,-0.9375 0,-1 z m -27.6875,0.09375 0,1 2.0625,0.9375 0.75,0.0625 1.25,-0.1875 0.34375,1.3125 0.25,-0.09375 -0.59375,-2.21875 -1.25,0.1875 -0.75,-0.0625 -2.0625,-0.9375 z m 27.40625,3.25 -0.21875,0.1875 0.53125,1.875 3,0.4375 2,-0.21875 L 42.5,35.25 43.3125,37.21875 43.65625,37.0625 42.5,34.25 l -0.71875,0.25 -2,0.21875 -3,-0.4375 -0.3125,-1.0625 z m -5.78125,2.21875 -1.625,1.625 0.46875,0.53125 1.15625,-1.15625 1,0.78125 0.65625,0.28125 2.28125,0.21875 0.59375,-1.0625 -0.3125,-0.4375 -0.28125,0.5 L 32.34375,36.5 31.6875,36.21875 l -1,-0.78125 z M 15.15625,35.46875 14.1875,36.25 13.5,36.5625 l -2.25,0.25 -0.3125,-0.5 -0.3125,0.4375 0.625,1.0625 2.25,-0.25 0.6875,-0.3125 0.96875,-0.78125 1.1875,1.1875 0.4375,-0.5625 -1.625,-1.625 z m 48.59375,0.125 -8.125,8.75 c 0.185993,0.140443 0.372614,0.270893 0.5625,0.40625 L 63.75,36.59375 c 2.06567,1.286683 4.48261,2.03125 7.09375,2.03125 1.31687,0 2.60913,-0.178741 3.8125,-0.53125 l 5.03125,9.75 c 0.14408,-0.05368 0.294775,-0.100034 0.4375,-0.15625 L 74.65625,37.09375 c -1.20337,0.352509 -2.49563,0.53125 -3.8125,0.53125 -2.61114,0 -5.02808,-0.744567 -7.09375,-2.03125 z M 26.59375,38.5 24.375,39.09375 l 0.15625,0.96875 2.0625,-0.5625 0.46875,1.15625 0.4375,0.625 1.84375,1.3125 1.0625,-0.625 -0.09375,-0.9375 -0.96875,0.5625 L 27.5,40.28125 27.0625,39.65625 26.59375,38.5 z M 19.28125,38.53125 18.8125,39.6875 18.40625,40.28125 16.5625,41.625 15.59375,41.0625 15.5,42 l 1.0625,0.625 1.84375,-1.34375 0.40625,-0.59375 0.46875,-1.15625 2.0625,0.53125 0.15625,-0.96875 -2.21875,-0.5625 z m 2.09375,2.34375 -0.0625,0.46875 0.09375,0.75 0.9375,2.0625 1.21875,0 0.9375,-2.0625 0.0625,-0.75 -0.0625,-0.25 -0.9375,2.0625 -1.21875,0 -0.9375,-2.0625 L 21.375,40.875 z m 24.71875,0.375 -0.625,0.40625 -1.90625,0.75 -3,0.375 -0.65625,-1.15625 -0.3125,0.4375 0.96875,1.71875 3,-0.375 1.90625,-0.75 0.625,-0.40625 1.375,1.8125 L 47.9375,43.65625 46.09375,41.25 z m 5.25,5.8125 -0.46875,0.59375 -1.65625,1.1875 -2.8125,1.125 -1.09375,-1.09375 -0.28125,0.71875 1.375,1.375 2.8125,-1.125 1.65625,-1.1875 0.46875,-0.59375 2,1.53125 0,-0.03125 L 53.75,48.90625 51.34375,47.0625 z M 90,47.3125 l -2.0625,1.59375 0.4375,0.65625 1.625,-1.25 0,-1 z m -55.15625,0.53125 -0.125,1.25 -0.21875,0.6875 0.25,0.09375 0.15625,-1.59375 -0.0625,-0.4375 z m -18.9375,0.0625 -0.0625,0.375 0.125,1.59375 L 16.25,49.78125 16,49.09375 15.90625,47.90625 z M 8.6875,48.9375 8.5625,49 8.90625,51.6875 9.5,53.34375 9.9375,53 9.53125,52.4375 l -0.625,-1.75 -0.21875,-1.75 z m 33.375,0 -0.21875,1.75 -0.65625,1.75 -0.375,0.5625 0.40625,0.3125 0.625,-1.625 L 42.1875,49 42.0625,48.9375 z m 15.875,2.40625 -0.3125,0.6875 -1.28125,1.5625 -2.40625,1.84375 -1.59375,-0.9375 -0.125,0.9375 1.71875,1 2.40625,-1.84375 1.28125,-1.5625 0.3125,-0.6875 2.53125,1.0625 L 60.5,53.21875 60.75,52.5 57.9375,51.34375 z m 25.8125,0 -2.78125,1.15625 0.25,0.71875 0.03125,0.15625 2.5,-1.03125 0.34375,0.6875 1.28125,1.5625 2.40625,1.84375 1.71875,-1 L 89.375,54.5 87.78125,55.4375 85.375,53.59375 84.09375,52.03125 83.75,51.34375 z M 25.375,52.625 C 17.17987,52.624999 10.00526,56.986489 6,63.5 l 0,1 c 4.00526,-6.513511 11.17987,-10.875001 19.375,-10.875 12.337226,0 22.351724,9.868033 22.6875,22.125 0.0021,-0.126454 0.03125,-0.248039 0.03125,-0.375 0,-12.549341 -10.16941,-22.75 -22.71875,-22.75 z m 40.03125,1.125 -0.125,0.75 -0.84375,1.84375 -1.84375,2.40625 -1.875,-0.5 -0.34375,-2.59375 -0.0625,0.59375 0.40625,3 1.875,0.5 1.84375,-2.40625 0.84375,-1.84375 0.125,-0.75 3,0.40625 -0.03125,-0.25 0.0625,-0.75 L 65.40625,53.75 z m 10.875,0 -3,0.40625 0.0625,0.75 -0.03125,0.25 2.96875,-0.40625 0.125,0.75 0.84375,1.84375 1.875,2.40625 1.875,-0.5 0.40625,-3 -0.0625,-0.59375 L 81,58.25 79.125,58.75 77.25,56.34375 76.40625,54.5 l -0.125,-0.75 z m -27.875,0.25 -0.75,1.8125 -1.0625,1.5 -0.53125,0.4375 0.46875,0.625 0.0625,-0.0625 1.0625,-1.5 L 48.6875,54.28125 48.40625,54 z m 20.03125,1.21875 -0.0625,0.6875 0.34375,2 1.15625,2.8125 1.96875,0 1.15625,-2.8125 0.34375,-2 -0.0625,-0.6875 -0.28125,1.6875 -1.15625,2.8125 -1.96875,0 -1.15625,-2.8125 -0.28125,-1.6875 z M 53.3125,60.5 l -1.34375,1.75 -1.40625,1.1875 -0.625,0.25 0.34375,0.84375 L 50.5625,64.4375 51.96875,63.25 53.625,61.0625 53.3125,60.5 z M 25.375,60.71875 c -8.08247,0 -14.625,6.542534 -14.625,14.625 0,0.168531 0.02561,0.332827 0.03125,0.5 0.265023,-7.848925 6.679811,-14.125 14.59375,-14.125 7.913939,0 14.328727,6.276075 14.59375,14.125 0.0056,-0.167173 0.03125,-0.331469 0.03125,-0.5 0,-8.082466 -6.54253,-14.625 -14.625,-14.625 z m 31.03125,7.375 -1.9375,1.5 -1.6875,0.75 -0.6875,0.125 0.125,0.96875 0.5625,-0.09375 1.6875,-0.75 2.15625,-1.6875 -0.21875,-0.8125 z m -49.6875,7.875 c -0.00253,0.126416 -0.03125,0.247974 -0.03125,0.375 0,5.402997 2.3255318,10.247206 6,13.65625 l 1.15625,0 C 9.6565402,86.699184 6.9110932,81.661503 6.71875,75.96875 z m 37.3125,0 C 43.838907,81.661503 41.09346,86.699184 36.90625,90 l 1.15625,0 c 3.674468,-3.409044 6,-8.253253 6,-13.65625 0,-0.127026 -0.02872,-0.248584 -0.03125,-0.375 z m 13.4375,0.28125 -2.5,1.0625 -1.8125,0.3125 -0.6875,-0.0625 -0.375,2.71875 0.125,0.03125 0.25,-1.75 0.6875,0.0625 1.8125,-0.3125 2.5,-1.0625 0,-1 z m -1.0625,7.40625 -0.25,0.875 -2.6875,0.375 -1.84375,-0.1875 -0.625,-0.25 -1.0625,2.5625 0.34375,0.15625 L 51,85.46875 l 0.625,0.25 1.84375,0.1875 2.6875,-0.375 0.46875,-1.6875 -0.21875,-0.1875 z"
       id="path3890"
       style="opacity:0.7;fill:#ffffff;fill-opacity:1;stroke:none" />
  </g>
  <g
     id="layer4"
     style="display:none">
    <path
       d="m 47.027877,14.814237 -1.166573,2.789048 -0.33522,1.997923 0.06704,0.764306 -3.016997,0.388858 -0.134086,-0.737489 -0.831354,-1.850426 -1.850424,-2.40019 -1.890655,0.509538 -0.402266,2.990181 0.201133,2.024741 0.254769,0.710671 -2.80246,1.166573 -0.321809,-0.683853 -1.287256,-1.568839 -2.413597,-1.837017 -1.689523,0.978848 0.388863,3.00359 0.710671,1.890653 0.429081,0.630217 -2.400187,1.850426 -0.496134,-0.576582 -1.64929,-1.19339 -2.802453,-1.139755 -1.381118,1.381115 1.153163,2.789048 1.179984,1.649292 0.576578,0.496129 -1.850423,2.413599 -0.61681,-0.429084 -1.904059,-0.72408 -2.990183,-0.388857 -0.978851,1.702928 1.823609,2.40019 1.582251,1.287252 0.670446,0.321814 -1.153163,2.802457 -0.710671,-0.25477 -2.024742,-0.201133 -2.990182,0.415676 -0.509539,1.877244 2.386783,1.850425 1.850424,0.84476 0.750896,0.134089 -0.402266,3.00359 -0.750897,-0.05364 -2.011331,0.321813 L 12.5,49.3287 l 0,1.957696 2.789049,1.166573 2.011331,0.335223 0.750897,-0.06705 0.402266,3.016999 -0.750896,0.134089 -1.850424,0.83135 -2.386783,1.850426 0.509539,1.890653 2.990182,0.402266 2.024742,-0.201133 0.710671,-0.254768 1.153163,2.802454 -0.670446,0.321815 -1.582251,1.287249 -1.823609,2.413605 0.978851,1.689515 2.990183,-0.388855 1.904059,-0.710672 0.61681,-0.42908 1.850423,2.400186 -0.576578,0.496128 -1.179984,1.64929 -1.153163,2.80246 1.381118,1.38111 2.802453,-1.153163 1.64929,-1.179977 0.496134,-0.576585 2.400187,1.850424 -0.429081,0.61681 -0.710671,1.904059 -0.388863,2.990182 1.689523,0.978851 2.413597,-1.823609 1.287256,-1.58225 0.321809,-0.670439 2.80246,1.153163 -0.254769,0.710671 -0.201133,2.024742 0.402266,2.990175 1.890655,0.509538 1.850424,-2.386776 0.831354,-1.85043 0.134086,-0.750896 3.016997,0.402266 -0.06704,0.750896 0.33522,2.011331 1.166573,2.78905 1.957695,0 1.166574,-2.78905 0.321815,-2.011331 -0.05364,-0.750896 3.003586,-0.402266 0.134094,0.750896 0.844757,1.85043 1.850431,2.386776 1.877238,-0.509538 0.415676,-2.990175 -0.201133,-2.024742 -0.254769,-0.710671 2.802458,-1.153163 0.321816,0.670439 1.287249,1.58225 2.400194,1.823609 1.702926,-0.978851 -0.388856,-2.990182 -0.724082,-1.904059 -0.429087,-0.61681 2.413604,-1.850424 0.496127,0.576585 1.64929,1.179977 2.789049,1.153163 1.381118,-1.38111 -1.139759,-2.80246 -1.193388,-1.64929 -0.576585,-0.496128 1.85043,-2.400186 0.630214,0.42908 1.890656,0.710672 3.003586,0.388855 0.978851,-1.689515 -1.83702,-2.413605 -1.56884,-1.287249 -0.683849,-0.321815 1.166573,-2.802454 0.710671,0.254768 2.024742,0.201133 2.990182,-0.402266 0.509532,-1.890653 -2.400187,-1.850426 -1.850423,-0.83135 -0.737493,-0.134089 0.388856,-3.016999 0.764307,0.06705 1.997927,-0.335223 2.789049,-1.166573 0,-1.957696 -2.789049,-1.166574 -1.997927,-0.321813 -0.764307,0.05364 -0.388856,-3.00359 0.737493,-0.134089 1.850423,-0.84476 2.400187,-1.850425 -0.509532,-1.877244 -2.990182,-0.415676 -2.024742,0.201133 -0.710671,0.25477 -1.166573,-2.802457 0.683849,-0.321814 1.56884,-1.287252 1.83702,-2.40019 -0.978851,-1.702928 -3.003586,0.388857 -1.890656,0.72408 -0.630214,0.429084 -1.85043,-2.413599 0.576585,-0.496129 1.193388,-1.649292 1.139759,-2.789048 -1.381118,-1.381115 -2.789049,1.139755 -1.64929,1.19339 -0.496127,0.576582 -2.413604,-1.850426 0.429087,-0.630217 0.724082,-1.890653 0.388856,-3.00359 -1.702926,-0.978848 -2.400194,1.837017 -1.287249,1.568839 -0.321816,0.683853 -2.802458,-1.166573 0.254769,-0.710671 0.201133,-2.024741 -0.415676,-2.990181 -1.877238,-0.509538 -1.850431,2.40019 -0.844757,1.850426 -0.134094,0.737489 -3.003586,-0.388858 0.05364,-0.764306 -0.321815,-1.997923 -1.166574,-2.789048 -1.957695,0 z m 0.978844,10.244387 c 3.262965,0 6.375442,0.628778 9.238727,1.756564 l -5.457416,10.579609 c -1.201448,-0.351945 -2.466547,-0.549764 -3.781311,-0.549764 -2.606965,0 -5.044338,0.753523 -7.106706,2.03815 l -8.098967,-8.729184 c 4.232391,-3.195866 9.497906,-5.095375 15.205673,-5.095375 z m 13.811157,4.129936 c 6.883848,4.510512 11.437773,12.27759 11.437773,21.118992 0,0.660298 -0.03064,1.310074 -0.08045,1.957697 L 61.469248,50.146646 c -0.05012,-4.205576 -2.041906,-7.943348 -5.10879,-10.378477 l 5.45742,-10.579609 z m -32.798134,4.465158 8.098967,8.729184 c -1.624828,2.224466 -2.574505,4.961007 -2.574505,7.92465 0,1.094086 0.12875,2.159302 0.375445,3.177906 l -10.82097,4.961286 c -0.871853,-2.556507 -1.354296,-5.289471 -1.354296,-8.139192 0,-6.378304 2.368811,-12.208593 6.275359,-16.653834 z m 31.524289,21.548076 11.719363,2.132013 C 69.759169,65.996145 62.735774,72.750455 53.920039,74.872625 L 52.324385,63.0594 c 3.762968,-1.276205 6.779374,-4.173348 8.219648,-7.857606 z m -23.478958,2.963364 c 2.301065,3.196193 5.974411,5.336912 10.150524,5.578092 l 1.595661,11.813225 c -0.267418,0.0084 -0.535083,0.01341 -0.804539,0.01341 -9.264443,0 -17.365729,-4.997377 -21.762615,-12.443438 l 10.820969,-4.961289 z"
       id="path3243"
       style="opacity:0.7;fill:#000000;fill-opacity:1;stroke:none;filter:url(#filter3249)" />
    <path
       d="m 47.027877,12.814237 -1.166573,2.789048 -0.33522,1.997923 0.06704,0.764306 -3.016997,0.388858 -0.134086,-0.737489 -0.831354,-1.850426 -1.850424,-2.40019 -1.890655,0.509538 -0.402266,2.990181 0.201133,2.024741 0.254769,0.710671 -2.80246,1.166573 -0.321809,-0.683853 -1.287256,-1.568839 -2.413597,-1.837017 -1.689523,0.978848 0.388863,3.00359 0.710671,1.890653 0.429081,0.630217 -2.400187,1.850426 -0.496134,-0.576582 -1.64929,-1.19339 -2.802453,-1.139755 -1.381118,1.381115 1.153163,2.789048 1.179984,1.649292 0.576578,0.496129 -1.850423,2.413599 -0.61681,-0.429084 -1.904059,-0.72408 -2.990183,-0.388857 -0.978851,1.702928 1.823609,2.40019 1.582251,1.287252 0.670446,0.321814 -1.153163,2.802457 -0.710671,-0.25477 -2.024742,-0.201133 -2.990182,0.415676 -0.509539,1.877244 2.386783,1.850425 1.850424,0.84476 0.750896,0.134089 -0.402266,3.00359 -0.750897,-0.05364 -2.011331,0.321813 L 12.5,47.3287 l 0,1.957696 2.789049,1.166573 2.011331,0.335223 0.750897,-0.06705 0.402266,3.016999 -0.750896,0.134089 -1.850424,0.83135 -2.386783,1.850426 0.509539,1.890653 2.990182,0.402266 2.024742,-0.201133 0.710671,-0.254768 1.153163,2.802454 -0.670446,0.321815 -1.582251,1.287249 -1.823609,2.413605 0.978851,1.689515 2.990183,-0.388855 1.904059,-0.710672 0.61681,-0.42908 1.850423,2.400186 -0.576578,0.496128 -1.179984,1.64929 -1.153163,2.80246 1.381118,1.38111 2.802453,-1.153163 1.64929,-1.179977 0.496134,-0.576585 2.400187,1.850424 -0.429081,0.61681 -0.710671,1.904059 -0.388863,2.990182 1.689523,0.978851 2.413597,-1.823609 1.287256,-1.58225 0.321809,-0.670439 2.80246,1.153163 -0.254769,0.710671 -0.201133,2.024742 0.402266,2.990175 1.890655,0.509538 1.850424,-2.386776 0.831354,-1.85043 0.134086,-0.750896 3.016997,0.402266 -0.06704,0.750896 0.33522,2.011331 1.166573,2.78905 1.957695,0 1.166574,-2.78905 0.321815,-2.011331 -0.05364,-0.750896 3.003586,-0.402266 0.134094,0.750896 0.844757,1.85043 1.850431,2.386776 1.877238,-0.509538 0.415676,-2.990175 -0.201133,-2.024742 -0.254769,-0.710671 2.802458,-1.153163 0.321816,0.670439 1.287249,1.58225 2.400194,1.823609 1.702926,-0.978851 -0.388856,-2.990182 -0.724082,-1.904059 -0.429087,-0.61681 2.413604,-1.850424 0.496127,0.576585 1.64929,1.179977 2.789049,1.153163 1.381118,-1.38111 -1.139759,-2.80246 -1.193388,-1.64929 -0.576585,-0.496128 1.85043,-2.400186 0.630214,0.42908 1.890656,0.710672 3.003586,0.388855 0.978851,-1.689515 -1.83702,-2.413605 -1.56884,-1.287249 -0.683849,-0.321815 1.166573,-2.802454 0.710671,0.254768 2.024742,0.201133 2.990182,-0.402266 0.509532,-1.890653 -2.400187,-1.850426 -1.850423,-0.83135 -0.737493,-0.134089 0.388856,-3.016999 0.764307,0.06705 1.997927,-0.335223 2.789049,-1.166573 0,-1.957696 -2.789049,-1.166574 -1.997927,-0.321813 -0.764307,0.05364 -0.388856,-3.00359 0.737493,-0.134089 1.850423,-0.84476 2.400187,-1.850425 -0.509532,-1.877244 -2.990182,-0.415676 -2.024742,0.201133 -0.710671,0.25477 -1.166573,-2.802457 0.683849,-0.321814 1.56884,-1.287252 1.83702,-2.40019 -0.978851,-1.702928 -3.003586,0.388857 -1.890656,0.72408 -0.630214,0.429084 -1.85043,-2.413599 0.576585,-0.496129 1.193388,-1.649292 1.139759,-2.789048 -1.381118,-1.381115 -2.789049,1.139755 -1.64929,1.19339 -0.496127,0.576582 -2.413604,-1.850426 0.429087,-0.630217 0.724082,-1.890653 0.388856,-3.00359 -1.702926,-0.978848 -2.400194,1.837017 -1.287249,1.568839 -0.321816,0.683853 -2.802458,-1.166573 0.254769,-0.710671 0.201133,-2.024741 -0.415676,-2.990181 -1.877238,-0.509538 -1.850431,2.40019 -0.844757,1.850426 -0.134094,0.737489 -3.003586,-0.388858 0.05364,-0.764306 -0.321815,-1.997923 -1.166574,-2.789048 -1.957695,0 z m 0.978844,10.244387 c 3.262965,0 6.375442,0.628778 9.238727,1.756564 l -5.457416,10.579609 c -1.201448,-0.351945 -2.466547,-0.549764 -3.781311,-0.549764 -2.606965,0 -5.044338,0.753523 -7.106706,2.03815 l -8.098967,-8.729184 c 4.232391,-3.195866 9.497906,-5.095375 15.205673,-5.095375 z m 13.811157,4.129936 c 6.883848,4.510512 11.437773,12.27759 11.437773,21.118992 0,0.660298 -0.03064,1.310074 -0.08045,1.957697 L 61.469248,48.146646 c -0.05012,-4.205576 -2.041906,-7.943348 -5.10879,-10.378477 l 5.45742,-10.579609 z m -32.798134,4.465158 8.098967,8.729184 c -1.624828,2.224466 -2.574505,4.961007 -2.574505,7.92465 0,1.094086 0.12875,2.159302 0.375445,3.177906 l -10.82097,4.961286 c -0.871853,-2.556507 -1.354296,-5.289471 -1.354296,-8.139192 0,-6.378304 2.368811,-12.208593 6.275359,-16.653834 z m 31.524289,21.548076 11.719363,2.132013 C 69.759169,63.996145 62.735774,70.750455 53.920039,72.872625 L 52.324385,61.0594 c 3.762968,-1.276205 6.779374,-4.173348 8.219648,-7.857606 z m -23.478958,2.963364 c 2.301065,3.196193 5.974411,5.336912 10.150524,5.578092 l 1.595661,11.813225 c -0.267418,0.0084 -0.535083,0.01341 -0.804539,0.01341 -9.264443,0 -17.365729,-4.997377 -21.762615,-12.443438 l 10.820969,-4.961289 z"
       id="path3707"
       style="fill:url(#radialGradient3228);fill-opacity:1;stroke:url(#linearGradient3239);stroke-width:1.00000012;stroke-miterlimit:4;stroke-opacity:1;stroke-dasharray:none" />
    <path
       d="m 83.038866,84.007065 a 1.2367492,1.2367492 0 1 1 -2.473499,0 1.2367492,1.2367492 0 1 1 2.473499,0 z"
       transform="matrix(2.2104239,0,0,2.2104239,-132.81733,-137.37697)"
       id="path7458"
       style="fill:#b8b8b8;fill-opacity:1;fill-rule:nonzero;stroke:url(#linearGradient7562);stroke-width:0.45240191;stroke-linecap:butt;stroke-linejoin:round;stroke-miterlimit:4;stroke-opacity:1;stroke-dasharray:none;stroke-dashoffset:0" />
    <path
       d="m 83.038866,84.007065 a 1.2367492,1.2367492 0 1 1 -2.473499,0 1.2367492,1.2367492 0 1 1 2.473499,0 z"
       transform="matrix(22.24501,0,0,22.24501,-1771.6889,-1820.4237)"
       id="path7536"
       style="fill:none;stroke:#ffffff;stroke-width:0.0899078;stroke-linecap:butt;stroke-linejoin:round;stroke-miterlimit:4;stroke-opacity:1;stroke-dasharray:none;stroke-dashoffset:0;filter:url(#filter7542)" />
    <path
       d="m 83.038866,84.007065 a 1.2367492,1.2367492 0 1 1 -2.473499,0 1.2367492,1.2367492 0 1 1 2.473499,0 z"
       transform="matrix(5.7817427,0,0,5.7817427,-424.95877,-437.39298)"
       id="path7546"
       style="fill:none;stroke:url(#linearGradient7554);stroke-width:0.34591648;stroke-linecap:butt;stroke-linejoin:round;stroke-miterlimit:4;stroke-opacity:1;stroke-dasharray:none;stroke-dashoffset:0" />
    <path
       d="m 108,40.53125 -2.625,2 -0.0312,0.0625 -1.03125,1.25 -19.28125,39.96875 44.5625,11.21875 -0.0937,-0.0625 -2.3125,-1.03125 -0.0625,0 -1.03125,-0.21875 a 1.235193,1.235193 0 0 1 -0.96875,-1.375 l 0.59375,-4.375 a 1.235193,1.235193 0 0 1 1.3125,-1.0625 l 0.875,0.0625 2.78125,-0.46875 0.0312,0 3.03125,-1.28125 0,-1.25 -3.09375,-1.28125 -2.75,-0.46875 -0.0625,0 L 127,82.28125 a 1.235193,1.235193 0 0 1 -1.28125,-1.0625 l -0.59375,-4.375 a 1.235193,1.235193 0 0 1 1,-1.375 l 0.96875,-0.15625 2.40625,-1.09375 2.71875,-2.125 -0.3125,-1.15625 -3.4375,-0.46875 -2.59375,0.25 -0.90625,0.34375 A 1.235193,1.235193 0 0 1 123.375,70.375 l -1.6875,-4.09375 a 1.235193,1.235193 0 0 1 0.625,-1.59375 l 0.875,-0.40625 2.09375,-1.75 0.0625,-0.03125 2,-2.625 -0.625,-1.09375 -3.375,0.4375 -2.5,0.96875 L 120,60.75 a 1.235193,1.235193 0 0 1 -1.65625,-0.28125 l -2.6875,-3.5 a 1.235193,1.235193 0 0 1 0.15625,-1.6875 l 0.75,-0.65625 1.46875,-2 0.0312,-0.0625 1.34375,-3.28125 -0.84375,-0.8125 -3.21875,1.3125 -0.0937,0.03125 -2,1.46875 -0.65625,0.78125 a 1.235193,1.235193 0 0 1 -1.6875,0.15625 L 107.375,49.5 a 1.235193,1.235193 0 0 1 -0.28125,-1.65625 l 0.5625,-0.8125 0.96875,-2.5 0.4375,-3.375 -1.0625,-0.625 z m -4.59375,12.03125 a 1.235193,1.235193 0 0 1 0.6875,0.21875 c 10.36931,6.794292 17.25,18.498619 17.25,31.8125 0,1.007384 -0.0823,1.976373 -0.15625,2.9375 a 1.235193,1.235193 0 0 1 -1.4375,1.125 L 102.6875,85.5625 a 1.235193,1.235193 0 0 1 -1.03125,-1.21875 c -0.0685,-5.746838 -2.80529,-10.825619 -7,-14.15625 a 1.235193,1.235193 0 0 1 -0.3125,-1.53125 L 102.3125,53.25 a 1.235193,1.235193 0 0 1 1.09375,-0.6875 z m -66.46875,21.59375 0.09375,0.0625 2.40625,1.09375 0.96875,0.15625 a 1.235193,1.235193 0 0 1 1,1.375 l -0.59375,4.375 a 1.235193,1.235193 0 0 1 -1.28125,1.0625 l -0.84375,-0.0625 -0.0625,0 -2.78125,0.46875 -3.09375,1.28125 0,1.25 3.03125,1.28125 0.03125,0 2.8125,0.46875 0.875,-0.0625 a 1.235193,1.235193 0 0 1 1.3125,1.0625 l 0.59375,4.375 a 1.235193,1.235193 0 0 1 -0.96875,1.375 l -1.03125,0.21875 -0.0625,0 -2.3125,1.03125 -2.71875,2.125 0.3125,1.1875 3.4375,0.4375 2.59375,-0.25 0.90625,-0.34375 a 1.235193,1.235193 0 0 1 1.59375,0.6875 l 1.6875,4.09375 a 1.235193,1.235193 0 0 1 -0.625,1.59375 l -0.8125,0.40625 -2.09375,1.65625 -2.0625,2.78125 0.59375,1.03125 3.34375,-0.4375 2.53125,-0.9375 0.8125,-0.5625 a 1.235193,1.235193 0 0 1 1.65625,0.28125 l 2.6875,3.5 a 1.235193,1.235193 0 0 1 -0.15625,1.6875 l -0.75,0.65625 -1.46875,2 -0.03125,0.0625 -1.34375,3.28125 0.84375,0.8125 3.25,-1.3125 0.0625,-0.0312 2,-1.46875 0.65625,-0.75 A 1.235193,1.235193 0 0 1 55.625,117 l 3.5,2.6875 a 1.235193,1.235193 0 0 1 0.28125,1.65625 l -0.5625,0.8125 -0.9375,2.53125 -0.4375,3.34375 1.0625,0.59375 2.78125,-2.0625 0.84375,-1.0625 3.5,-7.28125 C 59.384936,114.92289 54.097548,109.99865 50.5,103.90625 a 1.235193,1.235193 0 0 1 0.53125,-1.75 l 15.75,-7.25 a 1.235193,1.235193 0 0 1 1.53125,0.40625 c 1.54437,2.145136 3.619439,3.843357 5.9375,5.15625 L 81.5,85.40625 65.28125,81.3125 c -0.196357,1.076287 -0.375,2.141849 -0.375,3.28125 0,1.506354 0.134098,2.961972 0.46875,4.34375 a 1.235193,1.235193 0 0 1 -0.6875,1.40625 l -15.78125,7.25 A 1.235193,1.235193 0 0 1 47.25,96.875 c -1.313415,-3.851282 -2.0625,-7.988656 -2.0625,-12.28125 0,-2.795298 0.394406,-5.50195 0.96875,-8.125 l -9.21875,-2.3125 z"
       transform="matrix(0.6859695,0,0,0.6859695,-9.116204,-9.7192828)"
       id="path7663"
       style="opacity:0.15;fill:#000000;fill-opacity:1;fill-rule:nonzero;stroke:none;filter:url(#filter7657)" />
    <path
       d="m 82.5625,33.9375 -1.375,3.28125 -0.4375,2.5 0,0.0625 0.09375,1.0625 a 1.0934898,1.0934898 0 0 1 -0.96875,1.1875 l -4.40625,0.5625 A 1.0934898,1.0934898 0 0 1 74.28125,41.6875 L 74.15625,40.875 74.125,40.8125 73,38.3125 70.8125,35.5 69.5,35.84375 l -0.5,3.5625 0.28125,2.625 0.3125,0.90625 A 1.0934898,1.0934898 0 0 1 69,44.3125 l -4.0625,1.71875 A 1.0934898,1.0934898 0 0 1 63.5,45.5 L 63.0625,44.5625 63.03125,44.5 l -1.625,-1.9375 -2.875,-2.1875 -1.1875,0.6875 0.4375,3.5625 0.9375,2.46875 0.5625,0.8125 a 1.0934898,1.0934898 0 0 1 -0.25,1.5 l -3.5,2.71875 a 1.0934898,1.0934898 0 0 1 -1.5,-0.15625 l -0.6875,-0.78125 -0.03125,-0.0625 -2.15625,-1.53125 -3.1875,-1.3125 -1.03125,1 1.375,3.3125 1.46875,2.0625 0.84375,0.71875 a 1.0934898,1.0934898 0 0 1 0.15625,1.5 l -2.6875,3.5 a 1.0934898,1.0934898 0 0 1 -1.5,0.25 l -0.8125,-0.5625 -2.5,-0.96875 -3.53125,-0.4375 -0.6875,1.21875 2.15625,2.84375 1.0625,0.875 0.0625,0.03125 7.3125,3.53125 c 1.417358,-2.71991 3.120343,-5.281411 5.125,-7.5625 a 1.0934898,1.0934898 0 0 1 1.625,-0.03125 l 11.8125,12.71875 a 1.0934898,1.0934898 0 0 1 0.0625,1.40625 c -0.437189,0.598532 -0.762117,1.254298 -1.125,1.90625 L 82.5625,83.03125 86.71875,66.5 c -1.128843,-0.223383 -2.251864,-0.4375 -3.4375,-0.4375 -3.590188,2e-6 -6.97302,1.043818 -9.8125,2.8125 a 1.0934898,1.0934898 0 0 1 -1.375,-0.1875 L 60.28125,55.96875 a 1.0934898,1.0934898 0 0 1 0.15625,-1.625 c 6.352073,-4.796435 14.279607,-7.65625 22.84375,-7.65625 2.819095,10e-7 5.547887,0.380143 8.1875,0.96875 l 2.5,-9.90625 -0.4375,0.5625 -1.125,2.5 -0.03125,0.0625 -0.15625,0.84375 a 1.0934898,1.0934898 0 0 1 -1.1875,0.875 l -4.375,-0.5625 a 1.0934898,1.0934898 0 0 1 -0.96875,-1.1875 l 0.09375,-0.9375 -0.46875,-2.78125 0,-0.03125 -1.34375,-3.15625 -1.40625,0 z m 1.40625,52.25 -4.15625,16.53125 c 0.790623,0.16027 1.570607,0.32855 2.375,0.375 a 1.0934898,1.0934898 0 0 1 1.03125,0.9375 l 2.3125,17.21875 a 1.0934898,1.0934898 0 0 1 -1.0625,1.25 c -0.434591,0.0136 -0.817403,0 -1.1875,0 -2.826956,0 -5.569712,-0.37984 -8.21875,-0.96875 l -2.5,9.9375 0.4375,-0.5625 1.125,-2.5 0.15625,-0.90625 a 1.0934898,1.0934898 0 0 1 1.1875,-0.90625 l 4.40625,0.5625 a 1.0934898,1.0934898 0 0 1 0.96875,1.1875 L 80.75,129.375 l 0,0.0625 0.4375,2.53125 1.375,3.28125 1.40625,0 1.34375,-3.15625 0,-0.0312 0.4375,-2.8125 -0.0625,-0.90625 a 1.0934898,1.0934898 0 0 1 0.96875,-1.1875 l 4.375,-0.5625 a 1.0934898,1.0934898 0 0 1 1.1875,0.875 l 0.15625,0.875 0.03125,0.0625 1.125,2.5 2.15625,2.78125 1.34375,-0.375 0.5,-3.53125 -0.28125,-2.625 -0.3125,-0.9375 a 1.0934898,1.0934898 0 0 1 0.625,-1.375 l 4.09375,-1.65625 a 1.0934898,1.0934898 0 0 1 1.375,0.53125 l 0.34375,0.75 0.0625,0.0625 1.71875,2.125 2.84375,2.15625 1.1875,-0.6875 -0.4375,-3.53125 -0.96875,-2.5 -0.5625,-0.8125 a 1.0934898,1.0934898 0 0 1 0.25,-1.5 L 111,117.09375 a 1.0934898,1.0934898 0 0 1 1.5,0.15625 l 0.71875,0.84375 2.0625,1.46875 3.28125,1.34375 1.03125,-1 -1.375,-3.3125 -1.46875,-2.0625 -0.84375,-0.71875 a 1.0934898,1.0934898 0 0 1 -0.15625,-1.5 l 2.6875,-3.5 a 1.0934898,1.0934898 0 0 1 1.46875,-0.25 l 0.71875,0.5 0.0625,0.0312 2.46875,0.9375 0.0937,0 3.5625,0.5 0.6875,-1.1875 -2.1875,-2.875 -0.96875,-0.84375 -0.0625,-0.0312 -7.5,-3.59375 c -4.99661,9.59978 -13.85116,16.87521 -24.625,19.46875 A 1.0934898,1.0934898 0 0 1 90.8125,120.5625 l -2.34375,-17.21875 a 1.0934898,1.0934898 0 0 1 0.75,-1.1875 c 4.362617,-1.47958 7.933576,-4.599075 10.15625,-8.5625 L 83.96875,86.1875 z"
       transform="matrix(0.6859695,0,0,0.6859695,-9.116204,-9.7192828)"
       id="path7661"
       style="opacity:0.4;fill:#ffffff;fill-opacity:1;fill-rule:nonzero;stroke:none;filter:url(#filter7653)" />
  </g>
  <g
     id="layer5">
    <path
       d="M 12,6 C 8.676,6 6,8.676 6,12 l 0,2 0,68 0,2 c 0,0.334721 0.04135,0.6507 0.09375,0.96875 0.0487,0.295596 0.09704,0.596915 0.1875,0.875 0.00988,0.03038 0.020892,0.0636 0.03125,0.09375 0.098865,0.287771 0.2348802,0.547452 0.375,0.8125 0.1445918,0.273507 0.3156161,0.535615 0.5,0.78125 0.1843839,0.245635 0.3737765,0.473472 0.59375,0.6875 0.439947,0.428056 0.94291,0.814526 1.5,1.09375 0.278545,0.139612 0.5734731,0.246947 0.875,0.34375 -0.2562018,-0.100222 -0.4867109,-0.236272 -0.71875,-0.375 -0.00741,-0.0044 -0.023866,0.0045 -0.03125,0 -0.031933,-0.0193 -0.062293,-0.04251 -0.09375,-0.0625 -0.120395,-0.0767 -0.2310226,-0.163513 -0.34375,-0.25 -0.1061728,-0.0808 -0.2132809,-0.161112 -0.3125,-0.25 C 8.4783201,88.557317 8.3087904,88.373362 8.15625,88.1875 8.0486711,88.057245 7.9378561,87.922215 7.84375,87.78125 7.818661,87.74287 7.805304,87.69538 7.78125,87.65625 7.716487,87.553218 7.6510225,87.451733 7.59375,87.34375 7.4927417,87.149044 7.3880752,86.928049 7.3125,86.71875 7.30454,86.69694 7.288911,86.6782 7.28125,86.65625 7.2494249,86.5643 7.2454455,86.469419 7.21875,86.375 7.1884177,86.268382 7.1483606,86.171969 7.125,86.0625 7.0521214,85.720988 7,85.364295 7,85 L 7,83 7,15 7,13 C 7,10.218152 9.2181517,8 12,8 l 2,0 68,0 2,0 c 2.781848,0 5,2.218152 5,5 l 0,2 0,68 0,2 c 0,0.364295 -0.05212,0.720988 -0.125,1.0625 -0.04415,0.206893 -0.08838,0.397658 -0.15625,0.59375 -0.0077,0.02195 -0.0233,0.04069 -0.03125,0.0625 -0.06274,0.173739 -0.138383,0.367449 -0.21875,0.53125 -0.04158,0.0828 -0.07904,0.169954 -0.125,0.25 -0.0546,0.09721 -0.126774,0.18835 -0.1875,0.28125 -0.09411,0.140965 -0.204921,0.275995 -0.3125,0.40625 -0.143174,0.17445 -0.303141,0.346998 -0.46875,0.5 -0.01117,0.0102 -0.01998,0.02115 -0.03125,0.03125 -0.138386,0.125556 -0.285091,0.234436 -0.4375,0.34375 -0.102571,0.07315 -0.204318,0.153364 -0.3125,0.21875 -0.0074,0.0045 -0.02384,-0.0044 -0.03125,0 -0.232039,0.138728 -0.462548,0.274778 -0.71875,0.375 0.301527,-0.0968 0.596455,-0.204138 0.875,-0.34375 0.55709,-0.279224 1.060053,-0.665694 1.5,-1.09375 0.219973,-0.214028 0.409366,-0.441865 0.59375,-0.6875 0.184384,-0.245635 0.355408,-0.507743 0.5,-0.78125 0.14012,-0.265048 0.276135,-0.524729 0.375,-0.8125 0.01041,-0.03078 0.02133,-0.06274 0.03125,-0.09375 0.09046,-0.278085 0.1388,-0.579404 0.1875,-0.875 C 89.95865,84.6507 90,84.334721 90,84 l 0,-2 0,-68 0,-2 C 90,8.676 87.324,6 84,6 L 12,6 z"
       id="rect3728"
       style="opacity:0.5;fill:url(#linearGradient3188);fill-opacity:1;fill-rule:nonzero;stroke:none;display:inline" />
    <path
       d="M 12,90 C 8.676,90 6,87.324 6,84 L 6,82 6,14 6,12 c 0,-0.334721 0.04135,-0.6507 0.09375,-0.96875 0.0487,-0.295596 0.09704,-0.596915 0.1875,-0.875 C 6.29113,10.12587 6.302142,10.09265 6.3125,10.0625 6.411365,9.774729 6.5473802,9.515048 6.6875,9.25 6.8320918,8.976493 7.0031161,8.714385 7.1875,8.46875 7.3718839,8.223115 7.5612765,7.995278 7.78125,7.78125 8.221197,7.353194 8.72416,6.966724 9.28125,6.6875 9.559795,6.547888 9.8547231,6.440553 10.15625,6.34375 9.9000482,6.443972 9.6695391,6.580022 9.4375,6.71875 c -0.00741,0.0044 -0.023866,-0.0045 -0.03125,0 -0.031933,0.0193 -0.062293,0.04251 -0.09375,0.0625 -0.120395,0.0767 -0.2310226,0.163513 -0.34375,0.25 -0.1061728,0.0808 -0.2132809,0.161112 -0.3125,0.25 C 8.4783201,7.442683 8.3087904,7.626638 8.15625,7.8125 8.0486711,7.942755 7.9378561,8.077785 7.84375,8.21875 7.818661,8.25713 7.805304,8.30462 7.78125,8.34375 7.716487,8.446782 7.6510225,8.548267 7.59375,8.65625 7.4927417,8.850956 7.3880752,9.071951 7.3125,9.28125 7.30454,9.30306 7.288911,9.3218 7.28125,9.34375 7.2494249,9.4357 7.2454455,9.530581 7.21875,9.625 7.1884177,9.731618 7.1483606,9.828031 7.125,9.9375 7.0521214,10.279012 7,10.635705 7,11 l 0,2 0,68 0,2 c 0,2.781848 2.2181517,5 5,5 l 2,0 68,0 2,0 c 2.781848,0 5,-2.218152 5,-5 l 0,-2 0,-68 0,-2 C 89,10.635705 88.94788,10.279012 88.875,9.9375 88.83085,9.730607 88.78662,9.539842 88.71875,9.34375 88.71105,9.3218 88.69545,9.30306 88.6875,9.28125 88.62476,9.107511 88.549117,8.913801 88.46875,8.75 88.42717,8.6672 88.38971,8.580046 88.34375,8.5 88.28915,8.40279 88.216976,8.31165 88.15625,8.21875 88.06214,8.077785 87.951329,7.942755 87.84375,7.8125 87.700576,7.63805 87.540609,7.465502 87.375,7.3125 87.36383,7.3023 87.35502,7.29135 87.34375,7.28125 87.205364,7.155694 87.058659,7.046814 86.90625,6.9375 86.803679,6.86435 86.701932,6.784136 86.59375,6.71875 c -0.0074,-0.0045 -0.02384,0.0044 -0.03125,0 -0.232039,-0.138728 -0.462548,-0.274778 -0.71875,-0.375 0.301527,0.0968 0.596455,0.204138 0.875,0.34375 0.55709,0.279224 1.060053,0.665694 1.5,1.09375 0.219973,0.214028 0.409366,0.441865 0.59375,0.6875 0.184384,0.245635 0.355408,0.507743 0.5,0.78125 0.14012,0.265048 0.276135,0.524729 0.375,0.8125 0.01041,0.03078 0.02133,0.06274 0.03125,0.09375 0.09046,0.278085 0.1388,0.579404 0.1875,0.875 C 89.95865,11.3493 90,11.665279 90,12 l 0,2 0,68 0,2 c 0,3.324 -2.676,6 -6,6 l -72,0 z"
       id="path3615"
       style="opacity:0.4;fill:url(#radialGradient3786);fill-opacity:1;fill-rule:nonzero;stroke:none;display:inline" />
  </g>
</svg>
