<?xml version="1.0" encoding="UTF-8" standalone="no"?>
<!-- Created with Inkscape (http://www.inkscape.org/) -->

<svg
   id="svg7384"
   height="16"
   width="16"
   version="1.1"
   sodipodi:docname="cool-retro-term-symbolic.svg"
   inkscape:version="1.3.2 (091e20ef0f, 2023-11-25)"
   xmlns:inkscape="http://www.inkscape.org/namespaces/inkscape"
   xmlns:sodipodi="http://sodipodi.sourceforge.net/DTD/sodipodi-0.dtd"
   xmlns="http://www.w3.org/2000/svg"
   xmlns:svg="http://www.w3.org/2000/svg"
   xmlns:rdf="http://www.w3.org/1999/02/22-rdf-syntax-ns#"
   xmlns:cc="http://creativecommons.org/ns#"
   xmlns:dc="http://purl.org/dc/elements/1.1/">
  <defs
     id="defs1">
    <linearGradient
       id="linearGradient3697">
      <stop
         id="stop3699"
         style="stop-color:#dcdcdc;stop-opacity:1"
         offset="0" />
      <stop
         id="stop3701"
         style="stop-color:#f0f0f0;stop-opacity:1"
         offset="1" />
    </linearGradient>
  </defs>
  <sodipodi:namedview
     id="namedview1"
     pagecolor="#ffffff"
     bordercolor="#000000"
     borderopacity="0.25"
     inkscape:showpageshadow="2"
     inkscape:pageopacity="0.0"
     inkscape:pagecheckerboard="0"
     inkscape:deskcolor="#d1d1d1"
     inkscape:zoom="8.8329101"
     inkscape:cx="18.057469"
     inkscape:cy="12.113788"
     inkscape:window-width="1366"
     inkscape:window-height="704"
     inkscape:window-x="0"
     inkscape:window-y="0"
     inkscape:window-maximized="1"
     inkscape:current-layer="svg7384" />
  <metadata
     id="metadata90">
    <rdf:RDF>
      <cc:Work
         rdf:about="">
        <dc:format>image/svg+xml</dc:format>
        <dc:type
           rdf:resource="http://purl.org/dc/dcmitype/StillImage" />
        <dc:title>Gnome Symbolic Icon Theme</dc:title>
      </cc:Work>
    </rdf:RDF>
  </metadata>
  <title
     id="title9167">Gnome Symbolic Icon Theme</title>
  <path
     style="font-size:22.7047px;font-family:C-64;-inkscape-font-specification:C-64;fill:#bebebe;fill-opacity:1;stroke-width:0.579932;stroke-linecap:round;stroke-linejoin:round"
     d="m 1.0069924,10.785403 q -0.13426565,0 -0.21258735,-0.0848 -0.078322,-0.0848 -0.078322,-0.195697 0,-0.110894 0.078322,-0.195695 0.078322,-0.0848 0.21258735,-0.0848 h 2.5286714 q 0.1342656,0 0.2125873,0.0848 0.078322,0.0848 0.078322,0.195695 0,0.110895 -0.078322,0.195697 -0.078322,0.0848 -0.2125873,0.0848 z M 0.29090865,9.950434 q -0.1342659,0 -0.2125876,-0.0848 Q 5e-8,9.780834 5e-8,9.669938 q 0,-0.110894 0.078321,-0.195695 0.078322,-0.0848 0.2125876,-0.0848 H 1.3874119 q 0.1342659,0 0.2125876,0.0848 0.078321,0.0848 0.078321,0.195695 0,0.110895 -0.078321,0.195696 -0.078322,0.0848 -0.2125876,0.0848 z m 2.86433555,0 q -0.1342657,0 -0.2125873,-0.0848 -0.078322,-0.0848 -0.078322,-0.195696 0,-0.110894 0.078322,-0.195695 0.078322,-0.0848 0.2125873,-0.0848 h 1.0965036 q 0.1342656,0 0.2125874,0.0848 0.078322,0.0848 0.078322,0.195695 0,0.110895 -0.078322,0.195696 -0.078322,0.0848 -0.2125874,0.0848 z M 0.29090865,9.115465 q -0.1342659,0 -0.2125876,-0.0848 Q 5e-8,8.945865 5e-8,8.83497 q 0,-0.110895 0.078321,-0.195696 0.078322,-0.0848 0.2125876,-0.0848 H 1.3874119 q 0.1342659,0 0.2125876,0.0848 0.078321,0.0848 0.078321,0.195696 0,0.110894 -0.078321,0.195695 -0.078322,0.0848 -0.2125876,0.0848 z m 0,-0.834969 q -0.1342659,0 -0.2125876,-0.0848 Q 5e-8,8.110896 5e-8,8.000001 q 0,-0.110895 0.078321,-0.195697 0.078322,-0.0848 0.2125876,-0.0848 H 1.3874119 q 0.1342659,0 0.2125876,0.0848 0.078321,0.0848 0.078321,0.195697 0,0.110894 -0.078321,0.195695 -0.078322,0.0848 -0.2125876,0.0848 z m 0,-0.834969 q -0.1342659,0 -0.2125876,-0.0848 Q 5e-8,7.275927 5e-8,7.165031 q 0,-0.110894 0.078321,-0.195696 0.078322,-0.0848 0.2125876,-0.0848 H 1.3874119 q 0.1342659,0 0.2125876,0.0848 0.078321,0.0848 0.078321,0.195696 0,0.110895 -0.078321,0.195696 -0.078322,0.0848 -0.2125876,0.0848 z m 0,-0.834969 q -0.1342659,0 -0.2125876,-0.0848 Q 5e-8,6.440958 5e-8,6.330062 q 0,-0.110894 0.078321,-0.195696 0.078322,-0.0848 0.2125876,-0.0848 H 1.3874119 q 0.1342659,0 0.2125876,0.0848 0.078321,0.0848 0.078321,0.195696 0,0.110895 -0.078321,0.195696 -0.078322,0.0848 -0.2125876,0.0848 z m 2.86433555,0 q -0.1342657,0 -0.2125873,-0.0848 -0.078322,-0.0848 -0.078322,-0.195696 0,-0.110894 0.078322,-0.195696 0.078322,-0.0848 0.2125873,-0.0848 h 1.0965036 q 0.1342656,0 0.2125874,0.0848 0.078322,0.0848 0.078322,0.195696 0,0.110895 -0.078322,0.195696 -0.078322,0.0848 -0.2125874,0.0848 z M 1.0069924,5.775589 q -0.13426565,0 -0.21258735,-0.0848 -0.078322,-0.0848 -0.078322,-0.195695 0,-0.110895 0.078322,-0.195697 0.078322,-0.0848 0.21258735,-0.0848 h 2.5286714 q 0.1342656,0 0.2125873,0.0848 0.078322,0.0848 0.078322,0.195697 0,0.110894 -0.078322,0.195695 -0.078322,0.0848 -0.2125873,0.0848 z m 5.0125875,5.009814 q -0.1342659,0 -0.2125873,-0.0848 -0.078322,-0.0848 -0.078322,-0.195697 0,-0.110894 0.078322,-0.195695 0.078321,-0.0848 0.2125873,-0.0848 h 1.0965034 q 0.1342658,0 0.2125876,0.0848 0.078321,0.0848 0.078321,0.195695 0,0.110895 -0.078321,0.195697 -0.078322,0.0848 -0.2125876,0.0848 z m 2.8643355,0 q -0.1342656,0 -0.2125873,-0.0848 -0.078322,-0.0848 -0.078322,-0.195697 0,-0.110894 0.078322,-0.195695 0.078322,-0.0848 0.2125873,-0.0848 H 9.980419 q 0.134266,0 0.212587,0.0848 0.07832,0.0848 0.07832,0.195695 0,0.110895 -0.07832,0.195697 -0.07832,0.0848 -0.212587,0.0848 z M 6.0195799,9.950434 q -0.1342659,0 -0.2125873,-0.0848 -0.078322,-0.0848 -0.078322,-0.195696 0,-0.110894 0.078322,-0.195695 0.078321,-0.0848 0.2125873,-0.0848 h 1.0965034 q 0.1342658,0 0.2125876,0.0848 0.078321,0.0848 0.078321,0.195695 0,0.110895 -0.078321,0.195696 -0.078322,0.0848 -0.2125876,0.0848 z m 2.1482518,0 q -0.1342659,0 -0.2125874,-0.0848 -0.078322,-0.0848 -0.078322,-0.195696 0,-0.110894 0.078322,-0.195695 0.078322,-0.0848 0.2125874,-0.0848 h 1.0965034 q 0.1342658,0 0.2125876,0.0848 0.078322,0.0848 0.078322,0.195695 0,0.110895 -0.078322,0.195696 -0.078322,0.0848 -0.2125876,0.0848 z M 6.0195799,9.115465 q -0.1342659,0 -0.2125873,-0.0848 -0.078322,-0.0848 -0.078322,-0.195695 0,-0.110895 0.078322,-0.195696 0.078321,-0.0848 0.2125873,-0.0848 h 2.5286714 q 0.1342656,0 0.2125874,0.0848 0.078322,0.0848 0.078322,0.195696 0,0.110894 -0.078322,0.195695 -0.078322,0.0848 -0.2125874,0.0848 z m 0,-0.834969 q -0.1342659,0 -0.2125873,-0.0848 -0.078322,-0.0848 -0.078322,-0.195695 0,-0.110895 0.078322,-0.195697 0.078321,-0.0848 0.2125873,-0.0848 h 3.2447552 q 0.1342658,0 0.2125876,0.0848 0.078322,0.0848 0.078322,0.195697 0,0.110894 -0.078322,0.195695 -0.078322,0.0848 -0.2125876,0.0848 z m 0,-0.834969 q -0.1342659,0 -0.2125873,-0.0848 -0.078322,-0.0848 -0.078322,-0.195696 0,-0.110894 0.078322,-0.195696 0.078321,-0.0848 0.2125873,-0.0848 h 1.0965034 q 0.1342658,0 0.2125876,0.0848 0.078321,0.0848 0.078321,0.195696 0,0.110895 -0.078321,0.195696 -0.078322,0.0848 -0.2125876,0.0848 z m 2.8643355,0 q -0.1342656,0 -0.2125873,-0.0848 -0.078322,-0.0848 -0.078322,-0.195696 0,-0.110894 0.078322,-0.195696 0.078322,-0.0848 0.2125873,-0.0848 H 9.980419 q 0.134266,0 0.212587,0.0848 0.07832,0.0848 0.07832,0.195696 0,0.110895 -0.07832,0.195696 -0.07832,0.0848 -0.212587,0.0848 z M 6.0195799,6.610558 q -0.1342659,0 -0.2125873,-0.0848 -0.078322,-0.0848 -0.078322,-0.195696 0,-0.110894 0.078322,-0.195696 0.078321,-0.0848 0.2125873,-0.0848 h 1.0965034 q 0.1342658,0 0.2125876,0.0848 0.078321,0.0848 0.078321,0.195696 0,0.110895 -0.078321,0.195696 -0.078322,0.0848 -0.2125876,0.0848 z m 2.8643355,0 q -0.1342656,0 -0.2125873,-0.0848 -0.078322,-0.0848 -0.078322,-0.195696 0,-0.110894 0.078322,-0.195696 0.078322,-0.0848 0.2125873,-0.0848 H 9.980419 q 0.134266,0 0.212587,0.0848 0.07832,0.0848 0.07832,0.195696 0,0.110895 -0.07832,0.195696 -0.07832,0.0848 -0.212587,0.0848 z M 6.0195799,5.775589 q -0.1342659,0 -0.2125873,-0.0848 -0.078322,-0.0848 -0.078322,-0.195695 0,-0.110895 0.078322,-0.195697 0.078321,-0.0848 0.2125873,-0.0848 h 3.2447552 q 0.1342658,0 0.2125876,0.0848 0.078322,0.0848 0.078322,0.195697 0,0.110894 -0.078322,0.195695 -0.078322,0.0848 -0.2125876,0.0848 z m 7.1608391,5.009814 q -0.134266,0 -0.212587,-0.0848 -0.07832,-0.0848 -0.07832,-0.195697 0,-0.110894 0.07832,-0.195695 0.07832,-0.0848 0.212587,-0.0848 h 1.096504 q 0.134265,0 0.212587,0.0848 0.07832,0.0848 0.07832,0.195695 0,0.110895 -0.07832,0.195697 -0.07832,0.0848 -0.212587,0.0848 z m 0,-0.834969 q -0.134266,0 -0.212587,-0.0848 -0.07832,-0.0848 -0.07832,-0.195696 0,-0.110894 0.07832,-0.195695 0.07832,-0.0848 0.212587,-0.0848 h 1.096504 q 0.134265,0 0.212587,0.0848 0.07832,0.0848 0.07832,0.195695 0,0.110895 -0.07832,0.195696 -0.07832,0.0848 -0.212587,0.0848 z m 0,-0.834969 q -0.134266,0 -0.212587,-0.0848 -0.07832,-0.0848 -0.07832,-0.195695 0,-0.110895 0.07832,-0.195696 0.07832,-0.0848 0.212587,-0.0848 h 1.096504 q 0.134265,0 0.212587,0.0848 0.07832,0.0848 0.07832,0.195696 0,0.110894 -0.07832,0.195695 -0.07832,0.0848 -0.212587,0.0848 z m 0,-0.834969 q -0.134266,0 -0.212587,-0.0848 -0.07832,-0.0848 -0.07832,-0.195695 0,-0.110895 0.07832,-0.195697 0.07832,-0.0848 0.212587,-0.0848 h 1.096504 q 0.134265,0 0.212587,0.0848 0.07832,0.0848 0.07832,0.195697 0,0.110894 -0.07832,0.195695 -0.07832,0.0848 -0.212587,0.0848 z m 0,-0.834969 q -0.134266,0 -0.212587,-0.0848 -0.07832,-0.0848 -0.07832,-0.195696 0,-0.110894 0.07832,-0.195696 0.07832,-0.0848 0.212587,-0.0848 h 1.096504 q 0.134265,0 0.212587,0.0848 0.07832,0.0848 0.07832,0.195696 0,0.110895 -0.07832,0.195696 -0.07832,0.0848 -0.212587,0.0848 z m 0,-0.834969 q -0.134266,0 -0.212587,-0.0848 -0.07832,-0.0848 -0.07832,-0.195696 0,-0.110894 0.07832,-0.195696 0.07832,-0.0848 0.212587,-0.0848 h 1.096504 q 0.134265,0 0.212587,0.0848 0.07832,0.0848 0.07832,0.195696 0,0.110895 -0.07832,0.195696 -0.07832,0.0848 -0.212587,0.0848 z M 11.748251,5.775589 q -0.134266,0 -0.212587,-0.0848 -0.07832,-0.0848 -0.07832,-0.195695 0,-0.110895 0.07832,-0.195697 0.07832,-0.0848 0.212587,-0.0848 h 3.960839 q 0.134266,0 0.212588,0.0848 Q 16,5.384197 16,5.495094 q 0,0.110894 -0.07832,0.195695 -0.07832,0.0848 -0.212588,0.0848 z"
     id="text4"
     aria-label="CRT" />
</svg>
