<?xml version="1.0" encoding="UTF-8" standalone="no"?>
<!-- Created with Inkscape (http://www.inkscape.org/) -->

<svg
   id="svg7384"
   height="16"
   width="16"
   version="1.1"
   sodipodi:docname="element-desktop-symbolic.svg"
   inkscape:version="1.3.2 (091e20ef0f, 2023-11-25)"
   xmlns:inkscape="http://www.inkscape.org/namespaces/inkscape"
   xmlns:sodipodi="http://sodipodi.sourceforge.net/DTD/sodipodi-0.dtd"
   xmlns="http://www.w3.org/2000/svg"
   xmlns:svg="http://www.w3.org/2000/svg"
   xmlns:rdf="http://www.w3.org/1999/02/22-rdf-syntax-ns#"
   xmlns:cc="http://creativecommons.org/ns#"
   xmlns:dc="http://purl.org/dc/elements/1.1/">
  <defs
     id="defs1" />
  <sodipodi:namedview
     id="namedview1"
     pagecolor="#ffffff"
     bordercolor="#000000"
     borderopacity="0.25"
     inkscape:showpageshadow="2"
     inkscape:pageopacity="0.0"
     inkscape:pagecheckerboard="0"
     inkscape:deskcolor="#d1d1d1"
     inkscape:zoom="7.0265734"
     inkscape:cx="17.78961"
     inkscape:cy="-1.5654857"
     inkscape:window-width="1366"
     inkscape:window-height="704"
     inkscape:window-x="0"
     inkscape:window-y="0"
     inkscape:window-maximized="1"
     inkscape:current-layer="svg7384" />
  <metadata
     id="metadata90">
    <rdf:RDF>
      <cc:Work
         rdf:about="">
        <dc:format>image/svg+xml</dc:format>
        <dc:type
           rdf:resource="http://purl.org/dc/dcmitype/StillImage" />
        <dc:title>Gnome Symbolic Icon Theme</dc:title>
      </cc:Work>
    </rdf:RDF>
  </metadata>
  <title
     id="title9167">Gnome Symbolic Icon Theme</title>
  <path
     id="path4"
     style="mix-blend-mode:normal;fill:#bebebe;fill-opacity:1;stroke-width:0.0759869"
     d="m 6.640554,0.0044515 c -0.6203052,0.011929 -1.0432367,0.7293524 -0.8251348,1.291887 0.1285894,0.4108689 0.5599369,0.6173079 0.965971,0.629483 0.8223298,0.04007 1.6448975,0.2555866 2.3378365,0.7112815 1.0939103,0.6819596 1.8356153,1.8682253 2.0097893,3.1415682 0.08429,0.4408952 3.56e-4,0.9600774 0.351377,1.305076 0.399522,0.4380808 1.180889,0.3362092 1.484464,-0.1640806 C 13.214213,6.5519008 13.101626,6.0909047 13.083141,5.6780625 12.844626,3.4579054 11.354129,1.4178772 9.2979929,0.5383152 8.4651784,0.1700482 7.5517602,-0.0198311 6.640554,0.0044515 Z m -0.5472799,2.872416 c -2.2390325,0.1024416 -4.39133,1.45668 -5.38913702,3.4744797 -0.499323,0.9682591 -0.782294,2.0732062 -0.685166,3.1644864 0.125746,0.5996704 0.887642,0.9123324 1.40689402,0.6004444 0.334684,-0.1581668 0.484793,-0.5379505 0.485162,-0.8846445 0.06913,-0.7355096 0.203808,-1.4855429 0.588514,-2.1286083 C 3.2213778,5.7641967 4.6841145,4.8978911 6.1934778,4.8230255 6.564427,4.7972425 6.9861579,4.7254815 7.1964017,4.3805486 7.5407057,3.9022583 7.3115288,3.128817 6.7364082,2.9539794 6.5309661,2.8805448 6.3094904,2.870136 6.0932741,2.8768675 Z m 8.8646489,2.8954428 c -0.440792,0.032309 -0.861648,0.3932499 -0.853284,0.8550814 -0.08666,0.7132343 -0.158892,1.4504238 -0.511394,2.0916234 -0.675259,1.3818629 -2.115422,2.3392209 -3.6477634,2.4453809 -0.3703329,0.05605 -0.8093289,0.03611 -1.0681487,0.354353 -0.4397214,0.465299 -0.2346607,1.335562 0.3764558,1.540631 0.4877176,0.119994 1.0078493,0.04775 1.4988613,-0.03641 1.978345,-0.341029 3.72912,-1.695897 4.608442,-3.4928075 0.396525,-0.8204624 0.642509,-1.7295884 0.638868,-2.644181 -0.0015,-0.299065 -0.03209,-0.6229619 -0.2693,-0.8349015 C 15.53398,5.8462672 15.240325,5.7384853 14.957923,5.7723103 Z M 3.8307911,8.6415136 c -0.5794363,-0.013788 -1.0407494,0.5710107 -0.9550923,1.13107 0.037292,2.3649284 1.516114,4.6393824 3.6677886,5.6252614 0.9102301,0.423973 1.9282153,0.659433 2.933235,0.586697 0.6001166,-0.09832 0.9421526,-0.840184 0.6611746,-1.371144 C 9.9809154,14.223677 9.5411887,14.08651 9.1549019,14.076616 8.384592,14.019776 7.6117895,13.832896 6.9532152,13.41613 5.70432,12.676835 4.908024,11.282314 4.8198577,9.8431731 4.8174175,9.4140633 4.6786258,8.9188369 4.2516932,8.7320129 4.1219186,8.6685437 3.9750938,8.6378517 3.8307911,8.6415136 Z" />
</svg>
