<?xml version="1.0" encoding="UTF-8" standalone="no"?>
<!-- Created with Inkscape (http://www.inkscape.org/) -->

<svg
   id="svg7384"
   height="16"
   width="16"
   version="1.1"
   sodipodi:docname="freecad-symbolic.svg"
   inkscape:version="1.3 (0e150ed6c4, 2023-07-21)"
   xmlns:inkscape="http://www.inkscape.org/namespaces/inkscape"
   xmlns:sodipodi="http://sodipodi.sourceforge.net/DTD/sodipodi-0.dtd"
   xmlns="http://www.w3.org/2000/svg"
   xmlns:svg="http://www.w3.org/2000/svg"
   xmlns:rdf="http://www.w3.org/1999/02/22-rdf-syntax-ns#"
   xmlns:cc="http://creativecommons.org/ns#"
   xmlns:dc="http://purl.org/dc/elements/1.1/">
  <defs
     id="defs1" />
  <sodipodi:namedview
     id="namedview1"
     pagecolor="#ffffff"
     bordercolor="#000000"
     borderopacity="0.25"
     inkscape:showpageshadow="2"
     inkscape:pageopacity="0.0"
     inkscape:pagecheckerboard="0"
     inkscape:deskcolor="#d1d1d1"
     inkscape:zoom="1"
     inkscape:cx="17"
     inkscape:cy="36"
     inkscape:window-width="1366"
     inkscape:window-height="704"
     inkscape:window-x="0"
     inkscape:window-y="0"
     inkscape:window-maximized="1"
     inkscape:current-layer="svg7384" />
  <metadata
     id="metadata90">
    <rdf:RDF>
      <cc:Work
         rdf:about="">
        <dc:format>image/svg+xml</dc:format>
        <dc:type
           rdf:resource="http://purl.org/dc/dcmitype/StillImage" />
        <dc:title>Gnome Symbolic Icon Theme</dc:title>
      </cc:Work>
    </rdf:RDF>
  </metadata>
  <title
     id="title9167">Gnome Symbolic Icon Theme</title>
  <path
     id="path57"
     style="color:#000000;fill:#bebebe;fill-opacity:1;stroke:none;stroke-width:0.533333;stroke-dasharray:none"
     d="M 0 0 L 0 0.26757812 L 0 16 L 3.7324219 16 L 3.7324219 10.599609 L 3.7324219 9.5996094 L 4.5253906 9.5996094 L 6.9335938 9.5996094 L 6.9335938 5.9609375 L 6.9335938 5.8671875 L 6.7207031 5.8671875 L 6.1152344 5.8671875 L 3.7324219 5.8671875 L 3.7324219 4.8671875 L 3.7324219 3.7324219 L 9.0664062 3.7324219 L 9.0664062 0 L 0 0 z M 10.369141 4.2675781 L 9.2773438 4.3242188 A 0.26669332 0.26669332 0 0 0 9.0332031 4.5214844 L 8.5664062 6.2382812 L 8.0898438 6.4667969 L 7.9335938 6.3984375 L 7.9335938 9.5996094 L 7.9335938 10.599609 L 6.9335938 10.599609 L 4.3066406 10.599609 L 4.3300781 10.994141 A 0.26669332 0.26669332 0 0 0 4.5273438 11.236328 L 6.2441406 11.701172 L 6.4726562 12.177734 L 5.7558594 13.802734 A 0.26669332 0.26669332 0 0 0 5.8203125 14.109375 L 6.6367188 14.84375 A 0.26669332 0.26669332 0 0 0 6.9472656 14.876953 L 8.4902344 13.992188 L 8.9902344 14.169922 L 9.6347656 15.830078 A 0.26669332 0.26669332 0 0 0 9.8984375 16 L 10.998047 15.939453 A 0.26669332 0.26669332 0 0 0 11.242188 15.740234 L 11.703125 14.021484 L 12.177734 13.794922 L 13.808594 14.513672 A 0.26669332 0.26669332 0 0 0 14.115234 14.447266 L 14.849609 13.630859 A 0.26669332 0.26669332 0 0 0 14.882812 13.320312 L 13.998047 11.777344 L 14.171875 11.275391 L 15.830078 10.630859 A 0.26669332 0.26669332 0 0 0 16 10.369141 L 15.943359 9.2714844 A 0.26669332 0.26669332 0 0 0 15.746094 9.0273438 L 14.027344 8.5664062 L 13.800781 8.0898438 L 14.513672 6.4570312 A 0.26669332 0.26669332 0 0 0 14.447266 6.1523438 L 13.630859 5.4160156 A 0.26669332 0.26669332 0 0 0 13.320312 5.3847656 L 11.777344 6.2695312 L 11.28125 6.0957031 L 10.630859 4.4355469 A 0.26669332 0.26669332 0 0 0 10.369141 4.2675781 z M 10.212891 8.4003906 L 10.550781 8.4492188 L 10.873047 8.5605469 L 11.166016 8.7304688 L 11.417969 8.9589844 L 11.621094 9.2363281 L 11.767578 9.5429688 L 11.853516 9.8691406 L 11.869141 10.207031 L 11.818359 10.544922 L 11.707031 10.865234 L 11.53125 11.162109 L 11.308594 11.412109 L 11.033203 11.615234 L 10.726562 11.761719 L 10.396484 11.847656 L 10.058594 11.867188 L 9.7207031 11.818359 L 9.4003906 11.707031 L 9.1054688 11.53125 L 8.8554688 11.302734 L 8.6503906 11.03125 L 8.5039062 10.728516 L 8.4199219 10.392578 L 8.4003906 10.052734 L 8.4492188 9.7148438 L 8.5605469 9.3945312 L 8.7363281 9.1035156 L 8.9609375 8.8476562 L 9.2363281 8.6445312 L 9.5410156 8.4980469 L 9.875 8.4160156 L 10.212891 8.4003906 z " />
</svg>
