<?xml version="1.0" encoding="UTF-8" standalone="no"?>
<!-- Created with Inkscape (http://www.inkscape.org/) -->

<svg
   id="svg7384"
   height="16"
   width="16"
   version="1.1"
   sodipodi:docname="gnucash-symbolic.svg"
   inkscape:version="1.3 (0e150ed6c4, 2023-07-21)"
   xmlns:inkscape="http://www.inkscape.org/namespaces/inkscape"
   xmlns:sodipodi="http://sodipodi.sourceforge.net/DTD/sodipodi-0.dtd"
   xmlns="http://www.w3.org/2000/svg"
   xmlns:svg="http://www.w3.org/2000/svg"
   xmlns:rdf="http://www.w3.org/1999/02/22-rdf-syntax-ns#"
   xmlns:cc="http://creativecommons.org/ns#"
   xmlns:dc="http://purl.org/dc/elements/1.1/">
  <defs
     id="defs1" />
  <sodipodi:namedview
     id="namedview1"
     pagecolor="#ffffff"
     bordercolor="#000000"
     borderopacity="0.25"
     inkscape:showpageshadow="2"
     inkscape:pageopacity="0.0"
     inkscape:pagecheckerboard="0"
     inkscape:deskcolor="#d1d1d1"
     inkscape:zoom="16"
     inkscape:cx="10.9375"
     inkscape:cy="3.3125"
     inkscape:window-width="1366"
     inkscape:window-height="704"
     inkscape:window-x="0"
     inkscape:window-y="0"
     inkscape:window-maximized="1"
     inkscape:current-layer="svg7384" />
  <metadata
     id="metadata90">
    <rdf:RDF>
      <cc:Work
         rdf:about="">
        <dc:format>image/svg+xml</dc:format>
        <dc:type
           rdf:resource="http://purl.org/dc/dcmitype/StillImage" />
        <dc:title>Gnome Symbolic Icon Theme</dc:title>
      </cc:Work>
    </rdf:RDF>
  </metadata>
  <title
     id="title9167">Gnome Symbolic Icon Theme</title>
  <path
     id="rect1354"
     style="color:#000000;fill:#bebebe;fill-opacity:1;fill-rule:evenodd;stroke-width:0.999146;-inkscape-stroke:none"
     d="m 2.8218041,0.3385799 c -0.6371367,0 -1.1650202,0.5278837 -1.1650202,1.1650202 v 7.493597 H 1.4401721 c -0.1930663,4.91e-4 -0.368572,0.112177 -0.4507866,0.286864 l -0.942554,2.0002439 c -0.00214,0.0078 -0.00409,0.01556 -0.00585,0.02342 -0.011122,0.02844 -0.019614,0.05783 -0.025369,0.08782 -0.00576,0.02439 -0.00967,0.04918 -0.011709,0.07416 -0.00146,0.0071 -0.00276,0.01427 -0.0039,0.02145 v 2.006099 c 2.76e-5,0.275892 0.2236788,0.499545 0.4995731,0.499573 H 1.328946 v 1.16502 c 2.76e-5,0.275895 0.2236789,0.499545 0.4995731,0.499573 h 7.9970658 c 0.2758951,-2.4e-5 0.4995441,-0.223674 0.4995731,-0.499569 v -1.108428 c 0.128546,0.126318 0.281065,0.229431 0.439078,0.30833 0.392408,0.195942 0.873595,0.296622 1.401147,0.296622 0.527558,0 1.008732,-0.10068 1.401146,-0.296622 0.306049,-0.152816 0.59966,-0.392686 0.714234,-0.727894 0.352463,-0.0412 0.675962,-0.130339 0.954262,-0.269301 0.392407,-0.195941 0.764972,-0.534158 0.764972,-1.034272 0,-0.357098 -0.189546,-0.633549 -0.441029,-0.833273 0.251013,-0.199089 0.441029,-0.472719 0.441029,-0.829369 0,-0.436588 -0.283463,-0.7510029 -0.616662,-0.9542629 0.333588,-0.202863 0.616662,-0.517277 0.616662,-0.9542622 0,-0.388604 -0.224921,-0.6811772 -0.509331,-0.8840102 0.280719,-0.2026311 0.501525,-0.4925925 0.501525,-0.8781559 0,-0.5001159 -0.370612,-0.8383322 -0.763019,-1.0342724 C 14.964787,5.830668 14.658224,5.7431071 14.325647,5.6992336 V 1.5036001 c 0,-0.6371365 -0.527887,-1.1650202 -1.165021,-1.1650202 z m 0,0.9991463 H 13.160626 c 0.100895,0 0.165875,0.064978 0.165875,0.1658739 v 4.1956335 c -0.332006,0.043874 -0.637191,0.1314344 -0.901574,0.2634468 -0.392415,0.1959402 -0.764971,0.5341565 -0.764971,1.0342724 0,0.3886047 0.224919,0.6811774 0.50933,0.8840103 -0.04007,0.028927 -0.07797,0.06115 -0.115136,0.09367 -0.48669,0.012434 -0.931301,0.1117101 -1.297719,0.2946701 -0.392415,0.1959402 -0.7649722,0.5361069 -0.7649722,1.0362239 0,0.476996 0.3385282,0.8055369 0.7103312,1.0049999 -0.371043,0.19955 -0.7064285,0.528647 -0.7064285,1.005001 0,0.273751 0.1123415,0.497004 0.2771075,0.677156 H 9.9895074 L 9.6889829,11.016955 C 9.6248166,10.807595 9.4317986,10.664414 9.2128272,10.663741 H 8.8732737 L 8.6859338,9.4226141 C 8.649228,9.1782171 8.4393532,8.9973761 8.192215,8.9971971 H 3.9458436 L 5.2943006,6.8232731 8.2117296,8.4254198 10.539818,4.2941842 9.2908855,3.5799508 9.0215845,4.0678152 7.66337,6.5227487 4.822048,4.9401167 2.6559301,8.3610216 V 1.5036001 c 0,-0.1008955 0.064979,-0.165874 0.165874,-0.1658739 z M 13.818267,6.4446904 a 1.1778031,0.48630269 0 0 1 1.176729,0.4859129 1.1778031,0.48630269 0 0 1 -0.01756,0.064398 l 0.002,0.00195 c 0.009,-0.01089 0.01366,-0.0142 0.01366,0 0,0.0142 -0.0046,0.01058 -0.01366,0 -6.22e-4,7.497e-4 -0.0032,0.00306 -0.0039,0.0039 a 1.1778031,0.48630269 0 0 1 -1.157269,0.4156649 1.1778031,0.48630269 0 0 1 -1.17868,-0.4859129 1.1778031,0.48630269 0 0 1 1.17868,-0.4859129 z m 0.0059,1.9826808 c 0.0033,-1.23e-5 0.0064,0 0.0098,0 0.392746,0 0.743575,0.086042 0.954263,0.1912428 0.241306,0.1204886 0.241311,0.1605281 0,0.2810101 -0.124302,0.06207 -0.297886,0.117219 -0.499575,0.152213 -0.0718,-0.261863 -0.249513,-0.4690098 -0.464446,-0.6244659 z m -1.715331,0.4000489 a 1.1778031,0.48630269 0 0 1 1.17868,0.485913 1.1778031,0.48630269 0 0 1 -1.17868,0.485913 1.1778031,0.48630269 0 0 1 -1.176729,-0.485913 1.1778031,0.48630269 0 0 1 1.176729,-0.485913 z M 1.7582597,9.9963421 h 6.0046346 l 0.099524,0.6673989 H 2.4822504 C 2.2697915,10.663346 2.0824738,10.798039 2.0119492,10.99744 H 1.2879584 Z M 12.108791,10.897916 a 1.1778031,0.48630269 0 0 1 1.17868,0.485913 1.1778031,0.48630269 0 0 1 -1.17868,0.485913 1.1778031,0.48630269 0 0 1 -1.176729,-0.485913 1.1778031,0.48630269 0 0 1 1.176729,-0.485913 z M 2.84327,11.662887 h 5.9987804 l 0.3063788,0.997195 H 2.5193281 Z M 0.9991427,11.990732 H 1.6860558 L 1.3562595,13.00549 0.9991427,12.99769 Z m 11.1096483,0.901574 a 1.1778031,0.48630269 0 0 1 1.17868,0.485913 1.1778031,0.48630269 0 0 1 -1.17868,0.485912 1.1778031,0.48630269 0 0 1 -1.176729,-0.485912 1.1778031,0.48630269 0 0 1 1.176729,-0.485913 z m -9.7807058,0.757165 h 6.9979266 v 1.012806 H 2.3280852 Z" />
</svg>
