<?xml version="1.0" encoding="UTF-8" standalone="no"?>
<!-- Created with Inkscape (http://www.inkscape.org/) -->

<svg
   id="svg7384"
   height="16"
   width="16"
   version="1.1"
   sodipodi:docname="signal-symbolic.svg"
   inkscape:version="1.3.2 (091e20ef0f, 2023-11-25)"
   xmlns:inkscape="http://www.inkscape.org/namespaces/inkscape"
   xmlns:sodipodi="http://sodipodi.sourceforge.net/DTD/sodipodi-0.dtd"
   xmlns="http://www.w3.org/2000/svg"
   xmlns:svg="http://www.w3.org/2000/svg"
   xmlns:rdf="http://www.w3.org/1999/02/22-rdf-syntax-ns#"
   xmlns:cc="http://creativecommons.org/ns#"
   xmlns:dc="http://purl.org/dc/elements/1.1/">
  <defs
     id="defs1" />
  <sodipodi:namedview
     id="namedview1"
     pagecolor="#ffffff"
     bordercolor="#000000"
     borderopacity="0.25"
     inkscape:showpageshadow="2"
     inkscape:pageopacity="0.0"
     inkscape:pagecheckerboard="0"
     inkscape:deskcolor="#d1d1d1"
     inkscape:zoom="11.313709"
     inkscape:cx="3.8890873"
     inkscape:cy="11.048543"
     inkscape:window-width="1366"
     inkscape:window-height="704"
     inkscape:window-x="0"
     inkscape:window-y="0"
     inkscape:window-maximized="1"
     inkscape:current-layer="svg7384" />
  <metadata
     id="metadata90">
    <rdf:RDF>
      <cc:Work
         rdf:about="">
        <dc:format>image/svg+xml</dc:format>
        <dc:type
           rdf:resource="http://purl.org/dc/dcmitype/StillImage" />
        <dc:title>Gnome Symbolic Icon Theme</dc:title>
      </cc:Work>
    </rdf:RDF>
  </metadata>
  <title
     id="title9167">Gnome Symbolic Icon Theme</title>
  <path
     id="path617"
     d="m 3.421427,15.996865 c -0.0939,-0.01797 -0.136906,-0.103236 -0.279805,-0.55508 -0.07677,-0.242746 -0.13958,-0.450497 -0.13958,-0.461669 0,-0.02013 0.298784,-0.126416 0.355422,-0.126416 0.021,0 0.05916,0.09365 0.131862,0.323531 0.05627,0.177985 0.111278,0.32358 0.122233,0.32358 0.01095,0 0.159149,-0.06053 0.329323,-0.134452 l 0.309402,-0.134449 0.08178,0.186743 c 0.04498,0.102698 0.07958,0.188895 0.07689,0.191565 -0.01219,0.01208 -0.872039,0.377649 -0.906889,0.385608 -0.02157,0.0049 -0.05785,0.0055 -0.08063,0.0018 z m 1.594115,-0.871478 c -0.04115,-0.09841 -0.06762,-0.185608 -0.05882,-0.193793 0.0088,-0.0081 0.31596,-0.144658 0.682583,-0.303315 l 0.666593,-0.2884 0.222541,0.05592 c 0.122394,0.03074 0.230639,0.06091 0.240538,0.06702 0.01501,0.0092 -0.05175,0.362868 -0.07345,0.389014 -0.0036,0.0045 -0.08451,-0.01151 -0.179747,-0.03535 L 6.342628,14.773213 5.730017,15.03895 C 5.393082,15.185104 5.111323,15.304622 5.10389,15.304494 5.09649,15.30437 5.0567,15.223784 5.01555,15.125392 Z m 2.45727,-0.268953 c 0,-0.06322 0.0054,-0.154551 0.01207,-0.202951 l 0.01206,-0.08803 0.541878,-0.01199 c 0.298034,-0.0066 0.669825,-0.02658 0.826204,-0.0444 0.156379,-0.01788 0.319225,-0.0336 0.36188,-0.03507 l 0.07756,-0.0027 0.02771,0.18299 c 0.01564,0.103166 0.02028,0.19005 0.01068,0.1992 -0.05105,0.04865 -0.914661,0.117124 -1.482775,0.117543 l -0.387271,4.5e-4 z m 2.590089,-0.347045 c -0.02485,-0.103095 -0.04097,-0.191668 -0.03583,-0.196803 0.0052,-0.0052 0.125873,-0.04452 0.268273,-0.08751 0.466206,-0.140664 0.94808,-0.330129 1.304657,-0.5129 l 0.09762,-0.05006 0.09357,0.174441 c 0.05146,0.09596 0.09357,0.179409 0.09357,0.185416 0,0.02947 -0.645436,0.313527 -1.04907,0.461703 -0.170861,0.06273 -0.668338,0.213135 -0.704914,0.213135 -0.01247,0 -0.04302,-0.08435 -0.06788,-0.187429 z M 4.100126,14.272023 C 4.041216,14.248843 3.982831,14.179313 3.972593,14.120147 3.966793,14.086817 3.927233,13.609521 3.884603,13.0595 3.808413,12.076464 3.806313,12.058793 3.760655,12.020239 3.328614,11.655408 3.160121,11.487761 2.911927,11.175732 2.315177,10.425521 1.929466,9.5019194 1.778331,8.4612744 c -0.125397,-0.863405 -0.07095,-1.7353 0.155654,-2.492361 0.236991,-0.791781 0.703056,-1.602306 1.26831,-2.205683 0.376087,-0.401452 0.670789,-0.650885 1.133132,-0.959078 0.864942,-0.576559 1.789838,-0.911976 2.902079,-1.052443 0.274143,-0.03462 1.296215,-0.03477 1.54908,-3.82e-4 1.571362,0.214675 2.850306,0.826097 3.863939,1.847221 0.877272,0.883752 1.40891,1.938691 1.600659,3.176228 0.04763,0.307376 0.04772,1.147117 1.33e-4,1.457022 -0.189144,1.232538 -0.72559,2.2915836 -1.611604,3.1816326 -0.870747,0.874702 -2.014642,1.484808 -3.264897,1.741373 -0.505377,0.103706 -0.68808,0.119643 -1.372607,0.119714 -0.694436,7.8e-5 -0.82753,-0.01216 -1.406146,-0.129363 L 6.2978,13.084735 5.272479,13.679391 C 4.296286,14.245542 4.181175,14.303712 4.100098,14.271864 Z M 2.574243,13.663696 c -0.09892,-0.309396 -0.187789,-0.5675 -0.197489,-0.573552 -0.0097,-0.0061 -0.106856,-0.08481 -0.21591,-0.174979 l -0.198276,-0.163971 0.138488,-0.15362 0.138484,-0.153629 0.18137,0.150912 c 0.09975,0.08301 0.214381,0.177372 0.254733,0.209725 0.07083,0.0568 0.08015,0.08005 0.270117,0.67391 0.108215,0.338308 0.189415,0.621787 0.180442,0.629949 -0.01859,0.01681 -0.319246,0.117783 -0.351144,0.117783 -0.01154,0 -0.101896,-0.253137 -0.200815,-0.562528 z m 9.869379,-0.191509 c -0.05933,-0.09197 -0.107867,-0.171046 -0.107867,-0.17572 0,-0.0046 0.0955,-0.07456 0.212216,-0.155258 0.300301,-0.207634 0.620222,-0.473131 0.90896,-0.754312 0.284141,-0.276727 0.253444,-0.270943 0.43771,-0.08255 l 0.117651,0.120284 -0.23529,0.229199 c -0.345907,0.33694 -0.732115,0.653131 -1.102974,0.903 L 12.5515,13.63939 Z M 1.261807,11.976123 C 1.052503,11.698519 0.908212,11.466983 0.756005,11.16452 0.634199,10.922472 0.466455,10.539328 0.47747,10.528318 c 0.003,-0.0031 0.0901,-0.03614 0.193461,-0.07357 l 0.187936,-0.06803 0.05431,0.140265 c 0.156542,0.404267 0.377491,0.798449 0.657781,1.173487 l 0.171347,0.229289 -0.153608,0.128554 c -0.08449,0.07074 -0.156844,0.128598 -0.160792,0.128598 -0.0039,0 -0.07869,-0.09486 -0.166102,-0.210792 z m 13.088724,-0.261812 c -0.08357,-0.06466 -0.151965,-0.126323 -0.151965,-0.137043 0,-0.01076 0.03567,-0.06776 0.07927,-0.126754 0.243232,-0.329279 0.535251,-0.828328 0.699197,-1.194878 0.04825,-0.107941 0.09415,-0.202993 0.101982,-0.211217 0.0079,-0.0082 0.09517,0.01818 0.19409,0.05882 0.155948,0.06398 0.178342,0.079 0.168496,0.113005 -0.02866,0.09879 -0.329517,0.691978 -0.467487,0.921598 -0.125543,0.208999 -0.455666,0.69901 -0.468261,0.695073 -0.0019,-9e-4 -0.07173,-0.05396 -0.15532,-0.118605 z M 0.190627,9.5054344 c -0.0292,-0.148289 -0.07,-0.401822 -0.09069,-0.563406 -0.03826,-0.298856 -0.09141,-1.004224 -0.07668,-1.017828 0.0045,-0.0041 0.09632,-0.01068 0.204169,-0.01461 l 0.196088,-0.0072 0.0044,0.117652 c 0.0188,0.504046 0.130402,1.364664 0.21264,1.63969 0.0076,0.02553 -0.02321,0.03998 -0.156976,0.07353 -0.255344,0.06404 -0.231871,0.0823 -0.292935,-0.227864 z m 15.290347,-0.116587 -0.15887,-0.04932 0.05627,-0.218527 c 0.10323,-0.400902 0.171126,-0.854904 0.203895,-1.363285 l 0.01313,-0.203544 0.118245,0.01236 c 0.06504,0.0068 0.152233,0.01234 0.193783,0.01234 h 0.07555 l -4.5e-4,0.171576 c -6.74e-4,0.358574 -0.07593,0.908447 -0.191111,1.392212 -0.08195,0.344153 -0.05749,0.324783 -0.310683,0.246173 z m -15.290122,-2.236376 -0.173829,-0.0066 0.01314,-0.17078 c 0.03249,-0.422133 0.09324,-0.802799 0.189999,-1.190428 0.08696,-0.348372 0.135807,-0.50002 0.161064,-0.50002 0.03013,0 0.332748,0.0996 0.34996,0.115184 0.0074,0.0068 -0.01164,0.09682 -0.04239,0.200162 -0.122449,0.411182 -0.224499,0.9684 -0.248396,1.356289 -0.01093,0.177226 -0.01797,0.210152 -0.04435,0.206761 -0.01724,-0.0021 -0.109592,-0.007 -0.205196,-0.01059 z m 15.342506,-0.507902 c -0.0506,-0.415029 -0.186829,-0.989545 -0.325384,-1.372309 l -0.06506,-0.17969 0.184523,-0.07062 c 0.101475,-0.03884 0.188498,-0.07062 0.193386,-0.07062 0.01487,0 0.201017,0.583971 0.253335,0.794151 0.06307,0.253382 0.123283,0.564419 0.149966,0.774542 0.01165,0.09167 0.02486,0.190224 0.02939,0.219008 0.0091,0.05824 0.0019,0.06059 -0.266909,0.08631 l -0.129685,0.01241 z M 0.826692,4.6360544 c -0.09101,-0.04276 -0.168747,-0.08103 -0.172761,-0.08504 -0.01207,-0.01207 0.238897,-0.501349 0.369076,-0.719517 0.186898,-0.313228 0.590245,-0.880245 0.626158,-0.880245 0.0085,0 0.08228,0.05432 0.164086,0.120723 l 0.14874,0.120723 -0.06846,0.09007 c -0.31367,0.412649 -0.57492,0.824923 -0.765475,1.207973 -0.06164,0.123907 -0.117433,0.224787 -0.123984,0.224179 -0.0066,-7.65e-4 -0.08637,-0.0361 -0.177376,-0.07886 z m 13.99306,-0.258278 c -0.01482,-0.02427 -0.07351,-0.127948 -0.130603,-0.230403 -0.181786,-0.326225 -0.451917,-0.712833 -0.735483,-1.052549 l -0.123798,-0.148309 0.150038,-0.135242 0.150039,-0.135244 0.08824,0.101364 c 0.158478,0.182063 0.409826,0.512615 0.557125,0.732699 0.141254,0.211051 0.42331,0.689102 0.42331,0.717458 0,0.01293 -0.319743,0.194346 -0.342511,0.194346 -0.0052,0 -0.02162,-0.01985 -0.03636,-0.04412 z M 2.306427,2.5007434 2.170711,2.3639804 l 0.048,-0.05189 c 0.08797,-0.09509 0.520319,-0.468129 0.719556,-0.620847 0.206608,-0.158368 0.68662,-0.485165 0.712631,-0.485165 0.02572,0 0.222364,0.340338 0.200798,0.347525 -0.04562,0.01519 -0.510544,0.341123 -0.726225,0.509094 -0.127203,0.09906 -0.328049,0.268924 -0.446321,0.377465 -0.118273,0.10854 -0.219986,0.197347 -0.226027,0.197347 -0.006,0 -0.07205,-0.06154 -0.146699,-0.136765 z m 10.852892,-0.208275 c -0.322377,-0.280468 -0.963121,-0.73283 -1.229241,-0.86782 l -0.08213,-0.04167 0.08897,-0.161982 c 0.04893,-0.0891 0.09597,-0.169415 0.10452,-0.178491 0.01776,-0.01884 0.428882,0.223562 0.706095,0.416305 0.357879,0.248821 0.823572,0.630004 0.823572,0.674124 0,0.01809 -0.22842,0.271909 -0.254911,0.283276 -0.0054,0.0024 -0.076,-0.05337 -0.156875,-0.123747 z M 4.434538,1.0317244 c -0.04372,-0.08697 -0.0795,-0.17032704 -0.0795,-0.18524104 0,-0.04715 0.539278,-0.276998 1.010661,-0.430757 0.352835,-0.115093 0.737761,-0.214636 0.755398,-0.195356 0.0076,0.0083 0.03145,0.09679 0.05302,0.196652 l 0.03923,0.181572 -0.05167,0.01157 c -0.391618,0.08764 -0.94666,0.271572 -1.336036,0.44273504 -0.145595,0.064 -0.275266,0.120998 -0.288158,0.12666 -0.01428,0.0063 -0.05454,-0.05155 -0.102949,-0.147831 z m 6.56783,-0.05359 c -0.380558,-0.157003 -0.889648,-0.312297 -1.313778,-0.400756 -0.113241,-0.02362 -0.208425,-0.0451 -0.211521,-0.04773 -0.0031,-0.0026 0.0095,-0.09271 0.02807,-0.200153 l 0.0337,-0.195357 0.177817,0.03642 c 0.46164,0.09455 0.944796,0.238114 1.388,0.412415 l 0.249354,0.09807 -0.02909,0.06963 c -0.07308,0.174905 -0.132838,0.29843804 -0.143851,0.29738304 -0.0066,-7.65e-4 -0.08703,-0.0321 -0.178702,-0.06992 z m -4.066877,-0.539207 c -0.01148,-0.03616 -0.04929,-0.358724 -0.04282,-0.365202 0.01487,-0.01487 0.356087,-0.04611 0.713777,-0.06535 0.374792,-0.02017 1.12495,-0.0014 1.155285,0.02901 0.0053,0.0053 0.0034,0.09615 -0.0041,0.201893 l -0.01375,0.19226 -0.179626,-0.01288 c -0.410065,-0.02937 -1.070508,-0.01417 -1.507772,0.0347 -0.08657,0.0097 -0.114378,0.0063 -0.120981,-0.01447 z"
     style="fill:#bebebe;fill-opacity:1;stroke-width:0.0196086" />
</svg>
