<?xml version="1.0" encoding="UTF-8" standalone="no"?>
<!-- Created with Inkscape (http://www.inkscape.org/) -->

<svg
   id="svg7384"
   height="16"
   width="16"
   version="1.1"
   sodipodi:docname="vscodium-symbolic.svg"
   inkscape:version="1.3 (0e150ed6c4, 2023-07-21)"
   xmlns:inkscape="http://www.inkscape.org/namespaces/inkscape"
   xmlns:sodipodi="http://sodipodi.sourceforge.net/DTD/sodipodi-0.dtd"
   xmlns="http://www.w3.org/2000/svg"
   xmlns:svg="http://www.w3.org/2000/svg"
   xmlns:rdf="http://www.w3.org/1999/02/22-rdf-syntax-ns#"
   xmlns:cc="http://creativecommons.org/ns#"
   xmlns:dc="http://purl.org/dc/elements/1.1/">
  <defs
     id="defs1" />
  <sodipodi:namedview
     id="namedview1"
     pagecolor="#ffffff"
     bordercolor="#000000"
     borderopacity="0.25"
     inkscape:showpageshadow="2"
     inkscape:pageopacity="0.0"
     inkscape:pagecheckerboard="0"
     inkscape:deskcolor="#d1d1d1"
     inkscape:zoom="32"
     inkscape:cx="4.34375"
     inkscape:cy="6.71875"
     inkscape:window-width="1366"
     inkscape:window-height="704"
     inkscape:window-x="0"
     inkscape:window-y="0"
     inkscape:window-maximized="1"
     inkscape:current-layer="svg7384" />
  <metadata
     id="metadata90">
    <rdf:RDF>
      <cc:Work
         rdf:about="">
        <dc:format>image/svg+xml</dc:format>
        <dc:type
           rdf:resource="http://purl.org/dc/dcmitype/StillImage" />
        <dc:title>Gnome Symbolic Icon Theme</dc:title>
      </cc:Work>
    </rdf:RDF>
  </metadata>
  <title
     id="title9167">Gnome Symbolic Icon Theme</title>
  <path
     style="fill:#bebebe;fill-opacity:1;stroke-width:0.0999825;stroke-dasharray:none"
     d="M 6.9403326,15.602313 C 6.5650982,15.432238 6.4214419,15.241911 6.3411057,14.808408 6.2078963,14.089597 5.6664751,13.650278 4.5213502,13.331827 2.8938288,12.879226 2.356445,12.623672 1.7100451,11.9949 0.88617403,11.193499 0.40559955,10.177602 0.19318537,8.788389 0.04664068,7.8299645 0.05975472,7.6266992 0.29120073,7.2691159 0.47125834,6.9909276 0.6991048,6.8571017 0.98986705,6.8587544 1.7002815,6.8627921 1.8620149,7.0803321 1.9967188,8.213019 2.1993998,9.9173273 3.064909,11.13344 3.0830735,9.7394416 3.0859288,9.5192016 3.300638,8.6578173 3.5601717,7.8252542 4.250885,5.6095058 4.216975,5.2952274 3.1618143,4.1333366 2.224949,3.1017063 2.1128246,2.7125459 2.6080258,2.2112436 3.0925765,1.720723 3.4971353,1.8213713 4.3785478,2.6517233 5.3917964,3.6062737 5.9271286,4.718125 5.9292077,5.8723484 c 0.00124,0.6933995 0.04672,0.8405044 0.2369567,0.7666041 0.1294752,-0.050296 0.5841855,-0.138285 1.0104665,-0.1955297 0.6599585,-0.088626 0.8247212,-0.053804 1.1095025,0.234486 0.4064782,0.4114859 0.4319872,1.003311 0.057553,1.3352823 C 8.1913946,8.1482122 7.7440671,8.3056068 7.3496251,8.3629568 5.9961987,8.5597389 5.150305,9.3526221 5.1090657,10.463103 5.0777996,11.304986 5.5215214,11.664985 6.391872,11.503869 7.5786493,11.284178 8.3316942,10.505436 8.9170512,8.892517 9.5628633,7.1130208 9.3160823,5.2678529 8.1110798,2.8663046 7.6951147,2.0372929 7.3547799,1.1991964 7.3547799,1.0038679 c 0,-0.78314308 1.100038,-1.03698758 1.628859,-0.37587458 C 9.1503282,0.83637976 9.460034,1.3531316 9.6718743,1.7763296 L 10.05704,2.5457814 10.682524,2.0037935 c 0.934425,-0.8096872 2.322375,-1.15405404 2.875929,-0.7135527 0.730772,0.5815287 0.234768,1.7218749 -0.748948,1.7218749 -0.294171,0 -0.708389,0.08004 -0.920482,0.1778668 -0.690386,0.3184361 -0.820516,0.8181546 -0.766011,2.941565 0.03511,1.3674963 -0.02459,2.2710053 -0.200898,3.0405731 -0.137962,0.6022097 -0.217054,1.1291284 -0.175761,1.1709304 0.04129,0.0418 0.345304,-0.06492 0.675574,-0.237169 C 12.297891,9.6490429 12.69885,8.8121529 12.828415,7.1702415 12.88723,6.4249512 13.00566,5.7250699 13.0916,5.61495 c 0.226272,-0.2899363 1.148362,-0.2467301 1.403491,0.065763 0.354933,0.4347392 0.211017,2.4586365 -0.25729,3.6182485 -0.09652,0.2390036 -0.02107,0.2803053 0.512106,0.2803053 1.043218,0 1.516118,0.9097822 0.832578,1.6017432 -0.246739,0.249779 -0.527419,0.32035 -1.274123,0.32035 -2.060105,0 -4.11985,0.807789 -4.936413,1.935959 -0.1649278,0.227868 -0.3392409,0.711458 -0.3873624,1.074647 -0.048121,0.363189 -0.2077804,0.770544 -0.3547999,0.905233 -0.3925593,0.359637 -1.1268845,0.440098 -1.6894541,0.185114 z"
     id="path1" />
</svg>
